<?xml version="1.0" encoding="UTF-8" standalone="no"?><svg xmlns="http://www.w3.org/2000/svg" xmlns:xlink="http://www.w3.org/1999/xlink" contentScriptType="application/ecmascript" contentStyleType="text/css" height="138px" preserveAspectRatio="none" style="width:110px;height:138px;" version="1.1" viewBox="0 0 110 138" width="110px" zoomAndPan="magnify"><defs><filter height="300%" id="f1jrnil36bsan0" width="300%" x="-1" y="-1"><feGaussianBlur result="blurOut" stdDeviation="2.0"/><feColorMatrix in="blurOut" result="blurOut2" type="matrix" values="0 0 0 0 0 0 0 0 0 0 0 0 0 0 0 0 0 0 .4 0"/><feOffset dx="4.0" dy="4.0" in="blurOut2" result="blurOut3"/><feBlend in="SourceGraphic" in2="blurOut3" mode="normal"/></filter></defs><g><!--MD5=[cf4d6237fcae255cd2e1656cf84a30e2]
class Order--><rect codeLine="7" fill="#FEFECE" filter="url(#f1jrnil36bsan0)" height="117.1797" id="Order" style="stroke:#A80036;stroke-width:1.5;" width="89" x="7" y="7"/><ellipse cx="33.7" cy="23" fill="#ADD1B2" rx="11" ry="11" style="stroke:#A80036;stroke-width:1.0;"/><path d="M35.7,19.5 Q35.9031,19 36.1375,18.75 Q36.3719,18.5 36.6375,18.5 Q37.1063,18.5 37.4031,18.7813 Q37.7,19.0625 37.7,19.7188 L37.7,21.2813 Q37.7,21.9375 37.4188,22.2188 Q37.1375,22.5 36.7,22.5 Q36.3094,22.5 36.0594,22.3281 Q35.8094,22.1563 35.7,21.7031 Q35.6531,21.3906 35.4813,21.2188 Q35.1688,20.8906 34.6063,20.7031 Q34.0438,20.5 33.4813,20.5 Q32.7781,20.5 32.1844,20.7813 Q31.6063,21.0625 31.1531,21.6875 Q30.7,22.3125 30.7,23.1719 L30.7,24.0938 Q30.7,25.125 31.5438,25.8125 Q32.3875,26.5 33.8875,26.5 Q34.7781,26.5 35.4031,26.2969 Q35.7625,26.1875 36.1688,25.8281 Q36.4344,25.625 36.575,25.5625 Q36.7156,25.5 36.8875,25.5 Q37.2156,25.5 37.45,25.7656 Q37.7,26.0156 37.7,26.375 Q37.7,26.7188 37.3563,27.125 Q36.8563,27.7188 36.0594,28.0469 Q35.0125,28.5 33.7313,28.5 Q32.2313,28.5 31.0281,27.9063 Q30.0594,27.4375 29.3719,26.4219 Q28.7,25.4063 28.7,24.2031 L28.7,23.1094 Q28.7,21.8594 29.2938,20.7656 Q29.9031,19.6719 30.95,19.0938 Q32.0125,18.5 33.2,18.5 Q33.9188,18.5 34.5438,18.75 Q35.1688,19 35.7,19.5 Z " fill="#000000"/><text fill="#000000" font-family="sans-serif" font-size="12" lengthAdjust="spacingAndGlyphs" textLength="31" x="50.3" y="27.9102">Order</text><line style="stroke:#A80036;stroke-width:1.5;" x1="8" x2="95" y1="39" y2="39"/><text fill="#000000" font-family="sans-serif" font-size="11" lengthAdjust="spacingAndGlyphs" textLength="53" x="13" y="54.4189">-int orderID</text><text fill="#000000" font-family="sans-serif" font-size="11" lengthAdjust="spacingAndGlyphs" textLength="52" x="13" y="68.2549">-int clientID</text><text fill="#000000" font-family="sans-serif" font-size="11" lengthAdjust="spacingAndGlyphs" textLength="42" x="13" y="82.0908">-int state</text><text fill="#000000" font-family="sans-serif" font-size="11" lengthAdjust="spacingAndGlyphs" textLength="77" x="13" y="95.9268">-Date orderDate</text><text fill="#000000" font-family="sans-serif" font-size="11" lengthAdjust="spacingAndGlyphs" textLength="43" x="13" y="109.7627">-List cart</text><line style="stroke:#A80036;stroke-width:1.5;" x1="8" x2="95" y1="116.1797" y2="116.1797"/><!--MD5=[59a3386c00b406aa8673091650e2b902]
@startuml
skinparam classAttributeIconSize 0

left to right direction



class Order {
    -int orderID
    -int clientID
    -int state
    -Date orderDate
    -List cart
}


@enduml

PlantUML version 1.2020.26(Mon Dec 21 17:45:07 GMT 2020)
(GPL source distribution)
Java Runtime: OpenJDK Runtime Environment
JVM: OpenJDK 64-Bit Server VM
Default Encoding: Cp1252
Language: en
Country: US
--></g></svg>