<?xml version="1.0" encoding="UTF-8" standalone="no"?><svg xmlns="http://www.w3.org/2000/svg" xmlns:xlink="http://www.w3.org/1999/xlink" contentScriptType="application/ecmascript" contentStyleType="text/css" height="138px" preserveAspectRatio="none" style="width:124px;height:138px;" version="1.1" viewBox="0 0 124 138" width="124px" zoomAndPan="magnify"><defs><filter height="300%" id="f1o7rt6tp53bjx" width="300%" x="-1" y="-1"><feGaussianBlur result="blurOut" stdDeviation="2.0"/><feColorMatrix in="blurOut" result="blurOut2" type="matrix" values="0 0 0 0 0 0 0 0 0 0 0 0 0 0 0 0 0 0 .4 0"/><feOffset dx="4.0" dy="4.0" in="blurOut2" result="blurOut3"/><feBlend in="SourceGraphic" in2="blurOut3" mode="normal"/></filter></defs><g><!--MD5=[cf4d6237fcae255cd2e1656cf84a30e2]
class Order--><rect codeLine="5" fill="#FEFECE" filter="url(#f1o7rt6tp53bjx)" height="117.1797" id="Order" style="stroke:#A80036;stroke-width:1.5;" width="103" x="7" y="7"/><ellipse cx="40" cy="23" fill="#ADD1B2" rx="11" ry="11" style="stroke:#A80036;stroke-width:1.0;"/><path d="M42,19.5 Q42.2031,19 42.4375,18.75 Q42.6719,18.5 42.9375,18.5 Q43.4063,18.5 43.7031,18.7813 Q44,19.0625 44,19.7188 L44,21.2813 Q44,21.9375 43.7188,22.2188 Q43.4375,22.5 43,22.5 Q42.6094,22.5 42.3594,22.3281 Q42.1094,22.1563 42,21.7031 Q41.9531,21.3906 41.7813,21.2188 Q41.4688,20.8906 40.9063,20.7031 Q40.3438,20.5 39.7813,20.5 Q39.0781,20.5 38.4844,20.7813 Q37.9063,21.0625 37.4531,21.6875 Q37,22.3125 37,23.1719 L37,24.0938 Q37,25.125 37.8438,25.8125 Q38.6875,26.5 40.1875,26.5 Q41.0781,26.5 41.7031,26.2969 Q42.0625,26.1875 42.4688,25.8281 Q42.7344,25.625 42.875,25.5625 Q43.0156,25.5 43.1875,25.5 Q43.5156,25.5 43.75,25.7656 Q44,26.0156 44,26.375 Q44,26.7188 43.6563,27.125 Q43.1563,27.7188 42.3594,28.0469 Q41.3125,28.5 40.0313,28.5 Q38.5313,28.5 37.3281,27.9063 Q36.3594,27.4375 35.6719,26.4219 Q35,25.4063 35,24.2031 L35,23.1094 Q35,21.8594 35.5938,20.7656 Q36.2031,19.6719 37.25,19.0938 Q38.3125,18.5 39.5,18.5 Q40.2188,18.5 40.8438,18.75 Q41.4688,19 42,19.5 Z " fill="#000000"/><text fill="#000000" font-family="sans-serif" font-size="12" lengthAdjust="spacingAndGlyphs" textLength="31" x="58" y="27.9102">Order</text><line style="stroke:#A80036;stroke-width:1.5;" x1="8" x2="109" y1="39" y2="39"/><rect fill="none" height="6" style="stroke:#C82930;stroke-width:1.0;" width="6" x="15" y="47"/><text fill="#000000" font-family="sans-serif" font-size="11" lengthAdjust="spacingAndGlyphs" textLength="77" x="27" y="54.4189">int orderID «PK»</text><rect fill="none" height="6" style="stroke:#C82930;stroke-width:1.0;" width="6" x="15" y="60.8359"/><text fill="#000000" font-family="sans-serif" font-size="11" lengthAdjust="spacingAndGlyphs" textLength="76" x="27" y="68.2549">int clientID «FK»</text><rect fill="none" height="6" style="stroke:#C82930;stroke-width:1.0;" width="6" x="15" y="74.6719"/><text fill="#000000" font-family="sans-serif" font-size="11" lengthAdjust="spacingAndGlyphs" textLength="38" x="27" y="82.0908">int state</text><rect fill="none" height="6" style="stroke:#C82930;stroke-width:1.0;" width="6" x="15" y="88.5078"/><text fill="#000000" font-family="sans-serif" font-size="11" lengthAdjust="spacingAndGlyphs" textLength="73" x="27" y="95.9268">Date orderDate</text><rect fill="none" height="6" style="stroke:#C82930;stroke-width:1.0;" width="6" x="15" y="102.3438"/><text fill="#000000" font-family="sans-serif" font-size="11" lengthAdjust="spacingAndGlyphs" textLength="39" x="27" y="109.7627">List cart</text><line style="stroke:#A80036;stroke-width:1.5;" x1="8" x2="109" y1="116.1797" y2="116.1797"/><!--MD5=[0e77efbc674c616ac7fa074d39a0b0a7]
@startuml
'skinparam linetype polyline



class Order{
    -int orderID «PK»
    -int clientID «FK»
    -int state
    -Date orderDate
    -List cart
}

@enduml

@startuml



class Order{
    -int orderID «PK»
    -int clientID «FK»
    -int state
    -Date orderDate
    -List cart
}

@enduml

PlantUML version 1.2020.26(Mon Dec 21 17:45:07 GMT 2020)
(GPL source distribution)
Java Runtime: OpenJDK Runtime Environment
JVM: OpenJDK 64-Bit Server VM
Default Encoding: Cp1252
Language: en
Country: US
--></g></svg>