<?xml version="1.0" encoding="UTF-8" standalone="no"?><svg xmlns="http://www.w3.org/2000/svg" xmlns:xlink="http://www.w3.org/1999/xlink" contentScriptType="application/ecmascript" contentStyleType="text/css" height="278px" preserveAspectRatio="none" style="width:235px;height:278px;" version="1.1" viewBox="0 0 235 278" width="235px" zoomAndPan="magnify"><defs><filter height="300%" id="f1uvg9b4cn1o9p" width="300%" x="-1" y="-1"><feGaussianBlur result="blurOut" stdDeviation="2.0"/><feColorMatrix in="blurOut" result="blurOut2" type="matrix" values="0 0 0 0 0 0 0 0 0 0 0 0 0 0 0 0 0 0 .4 0"/><feOffset dx="4.0" dy="4.0" in="blurOut2" result="blurOut3"/><feBlend in="SourceGraphic" in2="blurOut3" mode="normal"/></filter></defs><g><rect fill="#FFFFFF" filter="url(#f1uvg9b4cn1o9p)" height="68.7031" style="stroke:#A80036;stroke-width:1.0;" width="10" x="79" y="99.6094"/><line style="stroke:#A80036;stroke-width:1.0;stroke-dasharray:5.0,5.0;" x1="84" x2="84" y1="89.6094" y2="193.3125"/><text fill="#000000" font-family="sans-serif" font-size="14" lengthAdjust="spacingAndGlyphs" textLength="46" x="58" y="86.5332">System</text><ellipse cx="84" cy="15" fill="#FEFECE" filter="url(#f1uvg9b4cn1o9p)" rx="8" ry="8" style="stroke:#A80036;stroke-width:2.0;"/><path d="M84,23 L84,50 M71,31 L97,31 M84,50 L71,65 M84,50 L97,65 " fill="none" filter="url(#f1uvg9b4cn1o9p)" style="stroke:#A80036;stroke-width:2.0;"/><text fill="#000000" font-family="sans-serif" font-size="14" lengthAdjust="spacingAndGlyphs" textLength="46" x="58" y="206.8457">System</text><ellipse cx="84" cy="219.9219" fill="#FEFECE" filter="url(#f1uvg9b4cn1o9p)" rx="8" ry="8" style="stroke:#A80036;stroke-width:2.0;"/><path d="M84,227.9219 L84,254.9219 M71,235.9219 L97,235.9219 M84,254.9219 L71,269.9219 M84,254.9219 L97,269.9219 " fill="none" filter="url(#f1uvg9b4cn1o9p)" style="stroke:#A80036;stroke-width:2.0;"/><rect fill="#FFFFFF" filter="url(#f1uvg9b4cn1o9p)" height="68.7031" style="stroke:#A80036;stroke-width:1.0;" width="10" x="79" y="99.6094"/><path d="M5,104.6094 L5,130.6094 L160,130.6094 L160,114.6094 L150,104.6094 L5,104.6094 " fill="#FBFB77" filter="url(#f1uvg9b4cn1o9p)" style="stroke:#A80036;stroke-width:1.0;"/><path d="M150,104.6094 L150,114.6094 L160,114.6094 L150,104.6094 " fill="#FBFB77" style="stroke:#A80036;stroke-width:1.0;"/><text fill="#000000" font-family="sans-serif" font-size="13" lengthAdjust="spacingAndGlyphs" textLength="134" x="11" y="123.1045">Client pays for an order</text><line style="stroke:#A80036;stroke-width:1.0;" x1="89" x2="131" y1="167.3125" y2="167.3125"/><line style="stroke:#A80036;stroke-width:1.0;" x1="131" x2="131" y1="167.3125" y2="180.3125"/><line style="stroke:#A80036;stroke-width:1.0;" x1="84" x2="131" y1="180.3125" y2="180.3125"/><polygon fill="#A80036" points="94,176.3125,84,180.3125,94,184.3125,90,180.3125" style="stroke:#A80036;stroke-width:1.0;"/><text fill="#000000" font-family="sans-serif" font-size="13" font-weight="bold" lengthAdjust="spacingAndGlyphs" textLength="7" x="96" y="162.4561">1</text><text fill="#000000" font-family="sans-serif" font-size="13" lengthAdjust="spacingAndGlyphs" textLength="121" x="107" y="162.4561">Updates order status</text><!--MD5=[4d1aca5353ead7d249e822e942cf02e6]
@startuml
autonumber
actor "System" as SYS

activate SYS

note over SYS
Client pays for an order
end note

SYS -> SYS : Updates order status

deactivate SYS
@enduml

PlantUML version 1.2020.26(Mon Dec 21 17:45:07 GMT 2020)
(GPL source distribution)
Java Runtime: OpenJDK Runtime Environment
JVM: OpenJDK 64-Bit Server VM
Default Encoding: Cp1252
Language: en
Country: US
--></g></svg>