<?xml version="1.0" encoding="UTF-8" standalone="no"?><svg xmlns="http://www.w3.org/2000/svg" xmlns:xlink="http://www.w3.org/1999/xlink" contentScriptType="application/ecmascript" contentStyleType="text/css" height="268px" preserveAspectRatio="none" style="width:272px;height:268px;" version="1.1" viewBox="0 0 272 268" width="272px" zoomAndPan="magnify"><defs><filter height="300%" id="f6hf98bhbdw7j" width="300%" x="-1" y="-1"><feGaussianBlur result="blurOut" stdDeviation="2.0"/><feColorMatrix in="blurOut" result="blurOut2" type="matrix" values="0 0 0 0 0 0 0 0 0 0 0 0 0 0 0 0 0 0 .4 0"/><feOffset dx="4.0" dy="4.0" in="blurOut2" result="blurOut3"/><feBlend in="SourceGraphic" in2="blurOut3" mode="normal"/></filter></defs><g><rect fill="#FFFFFF" filter="url(#f6hf98bhbdw7j)" height="65.7031" style="stroke:#A80036;stroke-width:1.0;" width="10" x="26" y="99.6094"/><rect fill="#FFFFFF" filter="url(#f6hf98bhbdw7j)" height="35.3516" style="stroke:#A80036;stroke-width:1.0;" width="10" x="226" y="129.9609"/><line style="stroke:#A80036;stroke-width:1.0;stroke-dasharray:5.0,5.0;" x1="31" x2="31" y1="89.6094" y2="183.3125"/><line style="stroke:#A80036;stroke-width:1.0;stroke-dasharray:5.0,5.0;" x1="230.5" x2="230.5" y1="89.6094" y2="183.3125"/><text fill="#000000" font-family="sans-serif" font-size="14" lengthAdjust="spacingAndGlyphs" textLength="46" x="5" y="86.5332">System</text><ellipse cx="31" cy="15" fill="#FEFECE" filter="url(#f6hf98bhbdw7j)" rx="8" ry="8" style="stroke:#A80036;stroke-width:2.0;"/><path d="M31,23 L31,50 M18,31 L44,31 M31,50 L18,65 M31,50 L44,65 " fill="none" filter="url(#f6hf98bhbdw7j)" style="stroke:#A80036;stroke-width:2.0;"/><text fill="#000000" font-family="sans-serif" font-size="14" lengthAdjust="spacingAndGlyphs" textLength="46" x="5" y="196.8457">System</text><ellipse cx="31" cy="209.9219" fill="#FEFECE" filter="url(#f6hf98bhbdw7j)" rx="8" ry="8" style="stroke:#A80036;stroke-width:2.0;"/><path d="M31,217.9219 L31,244.9219 M18,225.9219 L44,225.9219 M31,244.9219 L18,259.9219 M31,244.9219 L44,259.9219 " fill="none" filter="url(#f6hf98bhbdw7j)" style="stroke:#A80036;stroke-width:2.0;"/><rect fill="#FEFECE" filter="url(#f6hf98bhbdw7j)" height="49.2188" style="stroke:#A80036;stroke-width:1.5;" width="59" x="199.5" y="35.3906"/><text fill="#000000" font-family="sans-serif" font-size="14" lengthAdjust="spacingAndGlyphs" textLength="45" x="206.5" y="56.9238">Order :</text><text fill="#000000" font-family="sans-serif" font-size="14" lengthAdjust="spacingAndGlyphs" textLength="37" x="210.5" y="74.5332">Order</text><rect fill="#FEFECE" filter="url(#f6hf98bhbdw7j)" height="49.2188" style="stroke:#A80036;stroke-width:1.5;" width="59" x="199.5" y="182.3125"/><text fill="#000000" font-family="sans-serif" font-size="14" lengthAdjust="spacingAndGlyphs" textLength="45" x="206.5" y="203.8457">Order :</text><text fill="#000000" font-family="sans-serif" font-size="14" lengthAdjust="spacingAndGlyphs" textLength="37" x="210.5" y="221.4551">Order</text><rect fill="#FFFFFF" filter="url(#f6hf98bhbdw7j)" height="65.7031" style="stroke:#A80036;stroke-width:1.0;" width="10" x="26" y="99.6094"/><rect fill="#FFFFFF" filter="url(#f6hf98bhbdw7j)" height="35.3516" style="stroke:#A80036;stroke-width:1.0;" width="10" x="226" y="129.9609"/><line style="stroke:#A80036;stroke-width:1.0;" x1="36" x2="83" y1="116.9609" y2="116.9609"/><line style="stroke:#A80036;stroke-width:1.0;" x1="83" x2="83" y1="116.9609" y2="129.9609"/><line style="stroke:#A80036;stroke-width:1.0;" x1="42" x2="83" y1="129.9609" y2="129.9609"/><polygon fill="#A80036" points="52,125.9609,42,129.9609,52,133.9609,48,129.9609" style="stroke:#A80036;stroke-width:1.0;"/><text fill="#000000" font-family="sans-serif" font-size="13" font-weight="bold" lengthAdjust="spacingAndGlyphs" textLength="7" x="48" y="112.1045">1</text><text fill="#000000" font-family="sans-serif" font-size="13" lengthAdjust="spacingAndGlyphs" textLength="165" x="59" y="112.1045">Order payment goes through</text><polygon fill="#A80036" points="219,161.3125,229,165.3125,219,169.3125,223,165.3125" style="stroke:#A80036;stroke-width:1.0;"/><line style="stroke:#A80036;stroke-width:1.0;" x1="31" x2="225" y1="165.3125" y2="165.3125"/><text fill="#000000" font-family="sans-serif" font-size="13" font-weight="bold" lengthAdjust="spacingAndGlyphs" textLength="7" x="38" y="160.4561">2</text><text fill="#000000" font-family="sans-serif" font-size="13" lengthAdjust="spacingAndGlyphs" textLength="85" x="49" y="160.4561">updateStatus()</text><!--MD5=[37b9093c2dbae7ccc1198935fa612231]
@startuml
autonumber

actor "System" as SYS
participant "Order :\nOrder" as ORD

activate SYS

SYS -> SYS : Order payment goes through
activate ORD
SYS -> ORD :  updateStatus()
deactivate ORD

deactivate SYS
@enduml

PlantUML version 1.2020.26(Mon Dec 21 17:45:07 GMT 2020)
(GPL source distribution)
Java Runtime: OpenJDK Runtime Environment
JVM: OpenJDK 64-Bit Server VM
Default Encoding: Cp1252
Language: en
Country: US
--></g></svg>