<?xml version="1.0" encoding="UTF-8" standalone="no"?><svg xmlns="http://www.w3.org/2000/svg" xmlns:xlink="http://www.w3.org/1999/xlink" contentScriptType="application/ecmascript" contentStyleType="text/css" height="232.5px" preserveAspectRatio="none" style="width:1461px;height:232px;" version="1.1" viewBox="0 0 1461 232" width="1461.25px" zoomAndPan="magnify"><defs><filter height="300%" id="f1gi2ylso84e6c" width="300%" x="-1" y="-1"><feGaussianBlur result="blurOut" stdDeviation="2.5"/><feColorMatrix in="blurOut" result="blurOut2" type="matrix" values="0 0 0 0 0 0 0 0 0 0 0 0 0 0 0 0 0 0 .4 0"/><feOffset dx="5.0" dy="5.0" in="blurOut2" result="blurOut3"/><feBlend in="SourceGraphic" in2="blurOut3" mode="normal"/></filter></defs><g><!--MD5=[99b8db98afdc2c8404e39242ef4c1e65]
class Platform--><rect codeLine="5" fill="#FEFECE" filter="url(#f1gi2ylso84e6c)" height="60" id="Platform" style="stroke: #A80036; stroke-width: 1.875;" width="97.5" x="675" y="8.75"/><ellipse cx="693.75" cy="28.75" fill="#ADD1B2" rx="13.75" ry="13.75" style="stroke: #A80036; stroke-width: 1.25;"/><path d="M696.25,24.375 Q696.5039,23.75 696.7969,23.4375 Q697.0898,23.125 697.4219,23.125 Q698.0078,23.125 698.3789,23.4766 Q698.75,23.8281 698.75,24.6484 L698.75,26.6016 Q698.75,27.4219 698.3984,27.7734 Q698.0469,28.125 697.5,28.125 Q697.0117,28.125 696.6992,27.9102 Q696.3867,27.6953 696.25,27.1289 Q696.1914,26.7383 695.9766,26.5234 Q695.5859,26.1133 694.8828,25.8789 Q694.1797,25.625 693.4766,25.625 Q692.5977,25.625 691.8555,25.9766 Q691.1328,26.3281 690.5664,27.1094 Q690,27.8906 690,28.9648 L690,30.1172 Q690,31.4063 691.0547,32.2656 Q692.1094,33.125 693.9844,33.125 Q695.0977,33.125 695.8789,32.8711 Q696.3281,32.7344 696.8359,32.2852 Q697.168,32.0313 697.3438,31.9531 Q697.5195,31.875 697.7344,31.875 Q698.1445,31.875 698.4375,32.207 Q698.75,32.5195 698.75,32.9688 Q698.75,33.3984 698.3203,33.9063 Q697.6953,34.6484 696.6992,35.0586 Q695.3906,35.625 693.7891,35.625 Q691.9141,35.625 690.4102,34.8828 Q689.1992,34.2969 688.3398,33.0273 Q687.5,31.7578 687.5,30.2539 L687.5,28.8867 Q687.5,27.3242 688.2422,25.957 Q689.0039,24.5898 690.3125,23.8672 Q691.6406,23.125 693.125,23.125 Q694.0234,23.125 694.8047,23.4375 Q695.5859,23.75 696.25,24.375 Z " fill="#000000"/><text fill="#000000" font-family="sans-serif" font-size="15" lengthAdjust="spacingAndGlyphs" textLength="57.5" x="711.25" y="34.8877">Platform</text><line style="stroke: #A80036; stroke-width: 1.875;" x1="676.25" x2="771.25" y1="48.75" y2="48.75"/><line style="stroke: #A80036; stroke-width: 1.875;" x1="676.25" x2="771.25" y1="58.75" y2="58.75"/><!--MD5=[972d14a82b35f822bc67ad1eea905bbb]
class ClientProductViewUI--><rect codeLine="8" fill="#FEFECE" filter="url(#f1gi2ylso84e6c)" height="60" id="ClientProductViewUI" style="stroke: #A80036; stroke-width: 1.875;" width="180" x="8.75" y="37.5"/><ellipse cx="27.5" cy="57.5" fill="#ADD1B2" rx="13.75" ry="13.75" style="stroke: #A80036; stroke-width: 1.25;"/><path d="M30,53.125 Q30.2539,52.5 30.5469,52.1875 Q30.8398,51.875 31.1719,51.875 Q31.7578,51.875 32.1289,52.2266 Q32.5,52.5781 32.5,53.3984 L32.5,55.3516 Q32.5,56.1719 32.1484,56.5234 Q31.7969,56.875 31.25,56.875 Q30.7617,56.875 30.4492,56.6602 Q30.1367,56.4453 30,55.8789 Q29.9414,55.4883 29.7266,55.2734 Q29.3359,54.8633 28.6328,54.6289 Q27.9297,54.375 27.2266,54.375 Q26.3477,54.375 25.6055,54.7266 Q24.8828,55.0781 24.3164,55.8594 Q23.75,56.6406 23.75,57.7148 L23.75,58.8672 Q23.75,60.1563 24.8047,61.0156 Q25.8594,61.875 27.7344,61.875 Q28.8477,61.875 29.6289,61.6211 Q30.0781,61.4844 30.5859,61.0352 Q30.918,60.7813 31.0938,60.7031 Q31.2695,60.625 31.4844,60.625 Q31.8945,60.625 32.1875,60.957 Q32.5,61.2695 32.5,61.7188 Q32.5,62.1484 32.0703,62.6563 Q31.4453,63.3984 30.4492,63.8086 Q29.1406,64.375 27.5391,64.375 Q25.6641,64.375 24.1602,63.6328 Q22.9492,63.0469 22.0898,61.7773 Q21.25,60.5078 21.25,59.0039 L21.25,57.6367 Q21.25,56.0742 21.9922,54.707 Q22.7539,53.3398 24.0625,52.6172 Q25.3906,51.875 26.875,51.875 Q27.7734,51.875 28.5547,52.1875 Q29.3359,52.5 30,53.125 Z " fill="#000000"/><text fill="#000000" font-family="sans-serif" font-size="15" lengthAdjust="spacingAndGlyphs" textLength="140" x="45" y="63.6377">ClientProductViewUI</text><line style="stroke: #A80036; stroke-width: 1.875;" x1="10" x2="187.5" y1="77.5" y2="77.5"/><line style="stroke: #A80036; stroke-width: 1.875;" x1="10" x2="187.5" y1="87.5" y2="87.5"/><!--MD5=[c887c1b437aa00fe93f48c791d53acb9]
class ClientProductViewController--><rect codeLine="11" fill="#FEFECE" filter="url(#f1gi2ylso84e6c)" height="77.2949" id="ClientProductViewController" style="stroke: #A80036; stroke-width: 1.875;" width="255" x="265" y="28.75"/><ellipse cx="293.875" cy="48.75" fill="#ADD1B2" rx="13.75" ry="13.75" style="stroke: #A80036; stroke-width: 1.25;"/><path d="M296.375,44.375 Q296.6289,43.75 296.9219,43.4375 Q297.2148,43.125 297.5469,43.125 Q298.1328,43.125 298.5039,43.4766 Q298.875,43.8281 298.875,44.6484 L298.875,46.6016 Q298.875,47.4219 298.5234,47.7734 Q298.1719,48.125 297.625,48.125 Q297.1367,48.125 296.8242,47.9102 Q296.5117,47.6953 296.375,47.1289 Q296.3164,46.7383 296.1016,46.5234 Q295.7109,46.1133 295.0078,45.8789 Q294.3047,45.625 293.6016,45.625 Q292.7227,45.625 291.9805,45.9766 Q291.2578,46.3281 290.6914,47.1094 Q290.125,47.8906 290.125,48.9648 L290.125,50.1172 Q290.125,51.4063 291.1797,52.2656 Q292.2344,53.125 294.1094,53.125 Q295.2227,53.125 296.0039,52.8711 Q296.4531,52.7344 296.9609,52.2852 Q297.293,52.0313 297.4688,51.9531 Q297.6445,51.875 297.8594,51.875 Q298.2695,51.875 298.5625,52.207 Q298.875,52.5195 298.875,52.9688 Q298.875,53.3984 298.4453,53.9063 Q297.8203,54.6484 296.8242,55.0586 Q295.5156,55.625 293.9141,55.625 Q292.0391,55.625 290.5352,54.8828 Q289.3242,54.2969 288.4648,53.0273 Q287.625,51.7578 287.625,50.2539 L287.625,48.8867 Q287.625,47.3242 288.3672,45.957 Q289.1289,44.5898 290.4375,43.8672 Q291.7656,43.125 293.25,43.125 Q294.1484,43.125 294.9297,43.4375 Q295.7109,43.75 296.375,44.375 Z " fill="#000000"/><text fill="#000000" font-family="sans-serif" font-size="15" lengthAdjust="spacingAndGlyphs" textLength="192.5" x="313.625" y="54.8877">ClientProductViewController</text><line style="stroke: #A80036; stroke-width: 1.875;" x1="266.25" x2="518.75" y1="68.75" y2="68.75"/><line style="stroke: #A80036; stroke-width: 1.875;" x1="266.25" x2="518.75" y1="78.75" y2="78.75"/><text fill="#000000" font-family="sans-serif" font-size="13.75" lengthAdjust="spacingAndGlyphs" textLength="240" x="272.5" y="98.0237">+getProductsFromPharmacy(Pharmacy)</text><!--MD5=[1f77b5426d91cf5fb99d3048103a29ad]
class ClientProductView--><rect codeLine="16" fill="#FEFECE" filter="url(#f1gi2ylso84e6c)" height="77.2949" id="ClientProductView" style="stroke: #A80036; stroke-width: 1.875;" width="255" x="596.25" y="112.5"/><ellipse cx="655.9375" cy="132.5" fill="#ADD1B2" rx="13.75" ry="13.75" style="stroke: #A80036; stroke-width: 1.25;"/><path d="M658.4375,128.125 Q658.6914,127.5 658.9844,127.1875 Q659.2773,126.875 659.6094,126.875 Q660.1953,126.875 660.5664,127.2266 Q660.9375,127.5781 660.9375,128.3984 L660.9375,130.3516 Q660.9375,131.1719 660.5859,131.5234 Q660.2344,131.875 659.6875,131.875 Q659.1992,131.875 658.8867,131.6602 Q658.5742,131.4453 658.4375,130.8789 Q658.3789,130.4883 658.1641,130.2734 Q657.7734,129.8633 657.0703,129.6289 Q656.3672,129.375 655.6641,129.375 Q654.7852,129.375 654.043,129.7266 Q653.3203,130.0781 652.7539,130.8594 Q652.1875,131.6406 652.1875,132.7148 L652.1875,133.8672 Q652.1875,135.1563 653.2422,136.0156 Q654.2969,136.875 656.1719,136.875 Q657.2852,136.875 658.0664,136.6211 Q658.5156,136.4844 659.0234,136.0352 Q659.3555,135.7813 659.5313,135.7031 Q659.707,135.625 659.9219,135.625 Q660.332,135.625 660.625,135.957 Q660.9375,136.2695 660.9375,136.7188 Q660.9375,137.1484 660.5078,137.6563 Q659.8828,138.3984 658.8867,138.8086 Q657.5781,139.375 655.9766,139.375 Q654.1016,139.375 652.5977,138.6328 Q651.3867,138.0469 650.5273,136.7773 Q649.6875,135.5078 649.6875,134.0039 L649.6875,132.6367 Q649.6875,131.0742 650.4297,129.707 Q651.1914,128.3398 652.5,127.6172 Q653.8281,126.875 655.3125,126.875 Q656.2109,126.875 656.9922,127.1875 Q657.7734,127.5 658.4375,128.125 Z " fill="#000000"/><text fill="#000000" font-family="sans-serif" font-size="15" lengthAdjust="spacingAndGlyphs" textLength="125" x="681.5625" y="138.6377">ClientProductView</text><line style="stroke: #A80036; stroke-width: 1.875;" x1="597.5" x2="850" y1="152.5" y2="152.5"/><line style="stroke: #A80036; stroke-width: 1.875;" x1="597.5" x2="850" y1="162.5" y2="162.5"/><text fill="#000000" font-family="sans-serif" font-size="13.75" lengthAdjust="spacingAndGlyphs" textLength="240" x="603.75" y="181.7737">+getProductsFromPharmacy(Pharmacy)</text><!--MD5=[7f2a9fafcebe4f099f71398fd3e2ed00]
class Pharmacy--><rect codeLine="20" fill="#FEFECE" filter="url(#f1gi2ylso84e6c)" height="129.1797" id="Pharmacy" style="stroke: #A80036; stroke-width: 1.875;" width="255" x="927.5" y="86.875"/><ellipse cx="1015.3125" cy="106.875" fill="#ADD1B2" rx="13.75" ry="13.75" style="stroke: #A80036; stroke-width: 1.25;"/><path d="M1017.8125,102.5 Q1018.0664,101.875 1018.3594,101.5625 Q1018.6523,101.25 1018.9844,101.25 Q1019.5703,101.25 1019.9414,101.6016 Q1020.3125,101.9531 1020.3125,102.7734 L1020.3125,104.7266 Q1020.3125,105.5469 1019.9609,105.8984 Q1019.6094,106.25 1019.0625,106.25 Q1018.5742,106.25 1018.2617,106.0352 Q1017.9492,105.8203 1017.8125,105.2539 Q1017.7539,104.8633 1017.5391,104.6484 Q1017.1484,104.2383 1016.4453,104.0039 Q1015.7422,103.75 1015.0391,103.75 Q1014.1602,103.75 1013.418,104.1016 Q1012.6953,104.4531 1012.1289,105.2344 Q1011.5625,106.0156 1011.5625,107.0898 L1011.5625,108.2422 Q1011.5625,109.5313 1012.6172,110.3906 Q1013.6719,111.25 1015.5469,111.25 Q1016.6602,111.25 1017.4414,110.9961 Q1017.8906,110.8594 1018.3984,110.4102 Q1018.7305,110.1563 1018.9063,110.0781 Q1019.082,110 1019.2969,110 Q1019.707,110 1020,110.332 Q1020.3125,110.6445 1020.3125,111.0938 Q1020.3125,111.5234 1019.8828,112.0313 Q1019.2578,112.7734 1018.2617,113.1836 Q1016.9531,113.75 1015.3516,113.75 Q1013.4766,113.75 1011.9727,113.0078 Q1010.7617,112.4219 1009.9023,111.1523 Q1009.0625,109.8828 1009.0625,108.3789 L1009.0625,107.0117 Q1009.0625,105.4492 1009.8047,104.082 Q1010.5664,102.7148 1011.875,101.9922 Q1013.2031,101.25 1014.6875,101.25 Q1015.5859,101.25 1016.3672,101.5625 Q1017.1484,101.875 1017.8125,102.5 Z " fill="#000000"/><text fill="#000000" font-family="sans-serif" font-size="15" lengthAdjust="spacingAndGlyphs" textLength="68.75" x="1040.9375" y="113.0127">Pharmacy</text><line style="stroke: #A80036; stroke-width: 1.875;" x1="928.75" x2="1181.25" y1="126.875" y2="126.875"/><text fill="#000000" font-family="sans-serif" font-size="13.75" lengthAdjust="spacingAndGlyphs" textLength="137.5" x="935" y="146.1487">-String pharmacyName</text><text fill="#000000" font-family="sans-serif" font-size="13.75" lengthAdjust="spacingAndGlyphs" textLength="132.5" x="935" y="163.4436">-String companyName</text><text fill="#000000" font-family="sans-serif" font-size="13.75" lengthAdjust="spacingAndGlyphs" textLength="41.25" x="935" y="180.7385">-int NIF</text><line style="stroke: #A80036; stroke-width: 1.875;" x1="928.75" x2="1181.25" y1="188.7598" y2="188.7598"/><text fill="#000000" font-family="sans-serif" font-size="13.75" lengthAdjust="spacingAndGlyphs" textLength="240" x="935" y="208.0334">+getProductsFromPharmacy(Pharmacy)</text><!--MD5=[72136138052d025cffdce3c22fbd185f]
class Product--><rect codeLine="27" fill="#FEFECE" filter="url(#f1gi2ylso84e6c)" height="129.1797" id="Product" style="stroke: #A80036; stroke-width: 1.875;" width="138.75" x="1305" y="86.875"/><ellipse cx="1344.5625" cy="106.875" fill="#ADD1B2" rx="13.75" ry="13.75" style="stroke: #A80036; stroke-width: 1.25;"/><path d="M1347.0625,102.5 Q1347.3164,101.875 1347.6094,101.5625 Q1347.9023,101.25 1348.2344,101.25 Q1348.8203,101.25 1349.1914,101.6016 Q1349.5625,101.9531 1349.5625,102.7734 L1349.5625,104.7266 Q1349.5625,105.5469 1349.2109,105.8984 Q1348.8594,106.25 1348.3125,106.25 Q1347.8242,106.25 1347.5117,106.0352 Q1347.1992,105.8203 1347.0625,105.2539 Q1347.0039,104.8633 1346.7891,104.6484 Q1346.3984,104.2383 1345.6953,104.0039 Q1344.9922,103.75 1344.2891,103.75 Q1343.4102,103.75 1342.668,104.1016 Q1341.9453,104.4531 1341.3789,105.2344 Q1340.8125,106.0156 1340.8125,107.0898 L1340.8125,108.2422 Q1340.8125,109.5313 1341.8672,110.3906 Q1342.9219,111.25 1344.7969,111.25 Q1345.9102,111.25 1346.6914,110.9961 Q1347.1406,110.8594 1347.6484,110.4102 Q1347.9805,110.1563 1348.1563,110.0781 Q1348.332,110 1348.5469,110 Q1348.957,110 1349.25,110.332 Q1349.5625,110.6445 1349.5625,111.0938 Q1349.5625,111.5234 1349.1328,112.0313 Q1348.5078,112.7734 1347.5117,113.1836 Q1346.2031,113.75 1344.6016,113.75 Q1342.7266,113.75 1341.2227,113.0078 Q1340.0117,112.4219 1339.1523,111.1523 Q1338.3125,109.8828 1338.3125,108.3789 L1338.3125,107.0117 Q1338.3125,105.4492 1339.0547,104.082 Q1339.8164,102.7148 1341.125,101.9922 Q1342.4531,101.25 1343.9375,101.25 Q1344.8359,101.25 1345.6172,101.5625 Q1346.3984,101.875 1347.0625,102.5 Z " fill="#000000"/><text fill="#000000" font-family="sans-serif" font-size="15" lengthAdjust="spacingAndGlyphs" textLength="52.5" x="1366.6875" y="113.0127">Product</text><line style="stroke: #A80036; stroke-width: 1.875;" x1="1306.25" x2="1442.5" y1="126.875" y2="126.875"/><text fill="#000000" font-family="sans-serif" font-size="13.75" lengthAdjust="spacingAndGlyphs" textLength="120" x="1312.5" y="146.1487">-String productType</text><text fill="#000000" font-family="sans-serif" font-size="13.75" lengthAdjust="spacingAndGlyphs" textLength="123.75" x="1312.5" y="163.4436">-String productName</text><text fill="#000000" font-family="sans-serif" font-size="13.75" lengthAdjust="spacingAndGlyphs" textLength="78.75" x="1312.5" y="180.7385">-double price</text><text fill="#000000" font-family="sans-serif" font-size="13.75" lengthAdjust="spacingAndGlyphs" textLength="90" x="1312.5" y="198.0334">-double weight</text><line style="stroke: #A80036; stroke-width: 1.875;" x1="1306.25" x2="1442.5" y1="206.0547" y2="206.0547"/><!--MD5=[8c5dc0135cfb5b5191258976e6543b29]
link ClientProductViewUI to ClientProductViewController--><path codeLine="34" d="M188.9675,67.5 C210.8338,67.5 234.7188,67.5 258.1675,67.5 " fill="none" id="ClientProductViewUI-to-ClientProductViewController" style="stroke: #A80036; stroke-width: 1.25; stroke-dasharray: 7.0,7.0;"/><polygon fill="#A80036" points="264.7675,67.5,253.5175,62.5,258.5175,67.5,253.5175,72.5,264.7675,67.5" style="stroke: #A80036; stroke-width: 1.25;"/><!--MD5=[73963e2c7a9b8a64517dfb2ef29399a0]
link ClientProductViewController to Platform--><path codeLine="35" d="M520.3825,56.425 C571.72,51.9363 628.2475,46.9925 668.4375,43.4775 " fill="none" id="ClientProductViewController-to-Platform" style="stroke: #A80036; stroke-width: 1.25; stroke-dasharray: 7.0,7.0;"/><polygon fill="#A80036" points="674.7438,42.9263,663.1009,38.9255,668.5175,43.4708,663.9722,48.8875,674.7438,42.9263" style="stroke: #A80036; stroke-width: 1.25;"/><!--MD5=[71d995f664a18444899a67bac575a9d9]
link ClientProductViewController to ClientProductView--><path codeLine="36" d="M520.3825,99.7601 C543.0338,105.5305 566.6963,111.5584 589.5188,117.3726 " fill="none" id="ClientProductViewController-to-ClientProductView" style="stroke: #A80036; stroke-width: 1.25; stroke-dasharray: 7.0,7.0;"/><polygon fill="#A80036" points="595.9325,119.0065,586.2649,111.3841,589.8759,117.4637,583.7964,121.0746,595.9325,119.0065" style="stroke: #A80036; stroke-width: 1.25;"/><!--MD5=[efc8feeccee33b839003bd0bc8dc12f3]
link ClientProductView to Pharmacy--><path codeLine="37" d="M851.6325,151.25 C874.2838,151.25 897.9463,151.25 920.7688,151.25 " fill="none" id="ClientProductView-to-Pharmacy" style="stroke: #A80036; stroke-width: 1.25; stroke-dasharray: 7.0,7.0;"/><polygon fill="#A80036" points="927.1825,151.25,915.9325,146.25,920.9325,151.25,915.9325,156.25,927.1825,151.25" style="stroke: #A80036; stroke-width: 1.25;"/><!--MD5=[737ca6dd1a667cd849e932d7cf955580]
link Pharmacy to Product--><path codeLine="38" d="M1182.8538,151.25 C1224.5713,151.25 1269.3625,151.25 1305,151.25 " fill="none" id="Pharmacy-Product" style="stroke: #A80036; stroke-width: 1.25;"/><polygon fill="#000000" points="1232.5,140.2197,1221.1936,136.5461,1221.1936,143.8934,1232.5,140.2197" style="stroke: #000000; stroke-width: 1.25;"/><text fill="#000000" font-family="sans-serif" font-size="16.25" lengthAdjust="spacingAndGlyphs" textLength="28.75" x="1237.5" y="146.8689">Has</text><text fill="#000000" font-family="sans-serif" font-size="16.25" lengthAdjust="spacingAndGlyphs" textLength="8.75" x="1192.5643" y="168.8536">1</text><text fill="#000000" font-family="sans-serif" font-size="16.25" lengthAdjust="spacingAndGlyphs" textLength="6.25" x="1288.5547" y="169.5258">*</text><!--MD5=[38fc749660b2f8dcbec6699d87686439]
@startuml
skinparam classAttributeIconSize 0

left to right direction

class Platform {
}

class ClientProductViewUI {
}

class ClientProductViewController {
 +getProductsFromPharmacy(Pharmacy)
}


class ClientProductView {
  +getProductsFromPharmacy(Pharmacy)
}

class Pharmacy {
  -String pharmacyName
  -String companyName
  -int NIF
  +getProductsFromPharmacy(Pharmacy)
}

class Product{
    -String productType
    -String productName
    -double price
    -double weight
}

ClientProductViewUI  ..> ClientProductViewController
ClientProductViewController ..> Platform
ClientProductViewController ..> ClientProductView
ClientProductView ..> Pharmacy
Pharmacy "1" - - "*" Product : Has >



@enduml

PlantUML version 1.2020.20(Sat Nov 21 10:02:45 GMT 2020)
(GPL source distribution)
Java Runtime: OpenJDK Runtime Environment
JVM: OpenJDK 64-Bit Server VM
Default Encoding: Cp1252
Language: pt
Country: PT
--></g></svg>