<?xml version="1.0" encoding="UTF-8" standalone="no"?><svg xmlns="http://www.w3.org/2000/svg" xmlns:xlink="http://www.w3.org/1999/xlink" contentScriptType="application/ecmascript" contentStyleType="text/css" height="312px" preserveAspectRatio="none" style="width:269px;height:312px;" version="1.1" viewBox="0 0 269 312" width="269px" zoomAndPan="magnify"><defs><filter height="300%" id="f22uez8y17f73" width="300%" x="-1" y="-1"><feGaussianBlur result="blurOut" stdDeviation="2.0"/><feColorMatrix in="blurOut" result="blurOut2" type="matrix" values="0 0 0 0 0 0 0 0 0 0 0 0 0 0 0 0 0 0 .4 0"/><feOffset dx="4.0" dy="4.0" in="blurOut2" result="blurOut3"/><feBlend in="SourceGraphic" in2="blurOut3" mode="normal"/></filter></defs><g><rect fill="#FFFFFF" filter="url(#f22uez8y17f73)" height="102.0547" style="stroke:#A80036;stroke-width:1.0;" width="10" x="26" y="99.6094"/><rect fill="#FFFFFF" filter="url(#f22uez8y17f73)" height="35.3516" style="stroke:#A80036;stroke-width:1.0;" width="10" x="223" y="129.9609"/><line style="stroke:#A80036;stroke-width:1.0;stroke-dasharray:5.0,5.0;" x1="31" x2="31" y1="89.6094" y2="226.6641"/><line style="stroke:#A80036;stroke-width:1.0;stroke-dasharray:5.0,5.0;" x1="228" x2="228" y1="89.6094" y2="226.6641"/><text fill="#000000" font-family="sans-serif" font-size="14" lengthAdjust="spacingAndGlyphs" textLength="46" x="5" y="86.5332">System</text><ellipse cx="31" cy="15" fill="#FEFECE" filter="url(#f22uez8y17f73)" rx="8" ry="8" style="stroke:#A80036;stroke-width:2.0;"/><path d="M31,23 L31,50 M18,31 L44,31 M31,50 L18,65 M31,50 L44,65 " fill="none" filter="url(#f22uez8y17f73)" style="stroke:#A80036;stroke-width:2.0;"/><text fill="#000000" font-family="sans-serif" font-size="14" lengthAdjust="spacingAndGlyphs" textLength="46" x="5" y="240.1973">System</text><ellipse cx="31" cy="253.2734" fill="#FEFECE" filter="url(#f22uez8y17f73)" rx="8" ry="8" style="stroke:#A80036;stroke-width:2.0;"/><path d="M31,261.2734 L31,288.2734 M18,269.2734 L44,269.2734 M31,288.2734 L18,303.2734 M31,288.2734 L44,303.2734 " fill="none" filter="url(#f22uez8y17f73)" style="stroke:#A80036;stroke-width:2.0;"/><rect fill="#FEFECE" filter="url(#f22uez8y17f73)" height="49.2188" style="stroke:#A80036;stroke-width:1.5;" width="58" x="197" y="35.3906"/><text fill="#000000" font-family="sans-serif" font-size="14" lengthAdjust="spacingAndGlyphs" textLength="44" x="204" y="56.9238">Client :</text><text fill="#000000" font-family="sans-serif" font-size="14" lengthAdjust="spacingAndGlyphs" textLength="36" x="208" y="74.5332">Client</text><rect fill="#FEFECE" filter="url(#f22uez8y17f73)" height="49.2188" style="stroke:#A80036;stroke-width:1.5;" width="58" x="197" y="225.6641"/><text fill="#000000" font-family="sans-serif" font-size="14" lengthAdjust="spacingAndGlyphs" textLength="44" x="204" y="247.1973">Client :</text><text fill="#000000" font-family="sans-serif" font-size="14" lengthAdjust="spacingAndGlyphs" textLength="36" x="208" y="264.8066">Client</text><rect fill="#FFFFFF" filter="url(#f22uez8y17f73)" height="102.0547" style="stroke:#A80036;stroke-width:1.0;" width="10" x="26" y="99.6094"/><rect fill="#FFFFFF" filter="url(#f22uez8y17f73)" height="35.3516" style="stroke:#A80036;stroke-width:1.0;" width="10" x="223" y="129.9609"/><line style="stroke:#A80036;stroke-width:1.0;" x1="36" x2="83" y1="116.9609" y2="116.9609"/><line style="stroke:#A80036;stroke-width:1.0;" x1="83" x2="83" y1="116.9609" y2="129.9609"/><line style="stroke:#A80036;stroke-width:1.0;" x1="42" x2="83" y1="129.9609" y2="129.9609"/><polygon fill="#A80036" points="52,125.9609,42,129.9609,52,133.9609,48,129.9609" style="stroke:#A80036;stroke-width:1.0;"/><text fill="#000000" font-family="sans-serif" font-size="13" font-weight="bold" lengthAdjust="spacingAndGlyphs" textLength="7" x="48" y="112.1045">1</text><text fill="#000000" font-family="sans-serif" font-size="13" lengthAdjust="spacingAndGlyphs" textLength="162" x="59" y="112.1045">order payment goes through</text><polygon fill="#A80036" points="216,161.3125,226,165.3125,216,169.3125,220,165.3125" style="stroke:#A80036;stroke-width:1.0;"/><line style="stroke:#A80036;stroke-width:1.0;" x1="36" x2="222" y1="165.3125" y2="165.3125"/><text fill="#000000" font-family="sans-serif" font-size="13" font-weight="bold" lengthAdjust="spacingAndGlyphs" textLength="7" x="43" y="160.4561">2</text><text fill="#000000" font-family="sans-serif" font-size="13" lengthAdjust="spacingAndGlyphs" textLength="106" x="54" y="160.4561">email = getEmail()</text><line style="stroke:#A80036;stroke-width:1.0;" x1="36" x2="78" y1="200.6641" y2="200.6641"/><line style="stroke:#A80036;stroke-width:1.0;" x1="78" x2="78" y1="200.6641" y2="213.6641"/><line style="stroke:#A80036;stroke-width:1.0;" x1="31" x2="78" y1="213.6641" y2="213.6641"/><polygon fill="#A80036" points="41,209.6641,31,213.6641,41,217.6641,37,213.6641" style="stroke:#A80036;stroke-width:1.0;"/><text fill="#000000" font-family="sans-serif" font-size="13" font-weight="bold" lengthAdjust="spacingAndGlyphs" textLength="7" x="43" y="195.8076">3</text><text fill="#000000" font-family="sans-serif" font-size="13" lengthAdjust="spacingAndGlyphs" textLength="100" x="54" y="195.8076">sendEmail(email)</text><!--MD5=[188dc4873cd765f4e01717a603ffaac8]
@startuml
autonumber

actor "System" as SYS
participant "Client :\nClient" as CLT

activate SYS

SYS -> SYS : order payment goes through
activate CLT
SYS -> CLT : email = getEmail()
deactivate CLT
SYS -> SYS : sendEmail(email)
deactivate SYS
@enduml

PlantUML version 1.2020.26(Mon Dec 21 17:45:07 GMT 2020)
(GPL source distribution)
Java Runtime: OpenJDK Runtime Environment
JVM: OpenJDK 64-Bit Server VM
Default Encoding: Cp1252
Language: en
Country: US
--></g></svg>