<?xml version="1.0" encoding="UTF-8" standalone="no"?><svg xmlns="http://www.w3.org/2000/svg" xmlns:xlink="http://www.w3.org/1999/xlink" contentScriptType="application/ecmascript" contentStyleType="text/css" height="138px" preserveAspectRatio="none" style="width:406px;height:138px;" version="1.1" viewBox="0 0 406 138" width="406px" zoomAndPan="magnify"><defs><filter height="300%" id="f1aypr23k9id8z" width="300%" x="-1" y="-1"><feGaussianBlur result="blurOut" stdDeviation="2.0"/><feColorMatrix in="blurOut" result="blurOut2" type="matrix" values="0 0 0 0 0 0 0 0 0 0 0 0 0 0 0 0 0 0 .4 0"/><feOffset dx="4.0" dy="4.0" in="blurOut2" result="blurOut3"/><feBlend in="SourceGraphic" in2="blurOut3" mode="normal"/></filter></defs><g><!--MD5=[ed6624c6556d5e7b1bd23032162d20b7]
class Client--><rect codeLine="5" fill="#FEFECE" filter="url(#f1aypr23k9id8z)" height="117.1797" id="Client" style="stroke:#A80036;stroke-width:1.5;" width="101" x="7" y="7"/><ellipse cx="38.65" cy="23" fill="#ADD1B2" rx="11" ry="11" style="stroke:#A80036;stroke-width:1.0;"/><path d="M40.65,19.5 Q40.8531,19 41.0875,18.75 Q41.3219,18.5 41.5875,18.5 Q42.0563,18.5 42.3531,18.7813 Q42.65,19.0625 42.65,19.7188 L42.65,21.2813 Q42.65,21.9375 42.3688,22.2188 Q42.0875,22.5 41.65,22.5 Q41.2594,22.5 41.0094,22.3281 Q40.7594,22.1563 40.65,21.7031 Q40.6031,21.3906 40.4313,21.2188 Q40.1188,20.8906 39.5563,20.7031 Q38.9938,20.5 38.4313,20.5 Q37.7281,20.5 37.1344,20.7813 Q36.5563,21.0625 36.1031,21.6875 Q35.65,22.3125 35.65,23.1719 L35.65,24.0938 Q35.65,25.125 36.4938,25.8125 Q37.3375,26.5 38.8375,26.5 Q39.7281,26.5 40.3531,26.2969 Q40.7125,26.1875 41.1188,25.8281 Q41.3844,25.625 41.525,25.5625 Q41.6656,25.5 41.8375,25.5 Q42.1656,25.5 42.4,25.7656 Q42.65,26.0156 42.65,26.375 Q42.65,26.7188 42.3063,27.125 Q41.8063,27.7188 41.0094,28.0469 Q39.9625,28.5 38.6813,28.5 Q37.1813,28.5 35.9781,27.9063 Q35.0094,27.4375 34.3219,26.4219 Q33.65,25.4063 33.65,24.2031 L33.65,23.1094 Q33.65,21.8594 34.2438,20.7656 Q34.8531,19.6719 35.9,19.0938 Q36.9625,18.5 38.15,18.5 Q38.8688,18.5 39.4938,18.75 Q40.1188,19 40.65,19.5 Z " fill="#000000"/><text fill="#000000" font-family="sans-serif" font-size="12" lengthAdjust="spacingAndGlyphs" textLength="32" x="56.35" y="27.9102">Client</text><line style="stroke:#A80036;stroke-width:1.5;" x1="8" x2="107" y1="39" y2="39"/><text fill="#000000" font-family="sans-serif" font-size="11" lengthAdjust="spacingAndGlyphs" textLength="61" x="13" y="54.4189">-String name</text><text fill="#000000" font-family="sans-serif" font-size="11" lengthAdjust="spacingAndGlyphs" textLength="59" x="13" y="68.2549">-String email</text><text fill="#000000" font-family="sans-serif" font-size="11" lengthAdjust="spacingAndGlyphs" textLength="33" x="13" y="82.0908">-int NIF</text><text fill="#000000" font-family="sans-serif" font-size="11" lengthAdjust="spacingAndGlyphs" textLength="80" x="13" y="95.9268">-CreditCard card</text><text fill="#000000" font-family="sans-serif" font-size="11" lengthAdjust="spacingAndGlyphs" textLength="89" x="13" y="109.7627">-Address address</text><line style="stroke:#A80036;stroke-width:1.5;" x1="8" x2="107" y1="116.1797" y2="116.1797"/><!--MD5=[cf4d6237fcae255cd2e1656cf84a30e2]
class Order--><rect codeLine="13" fill="#FEFECE" filter="url(#f1aypr23k9id8z)" height="89.5078" id="Order" style="stroke:#A80036;stroke-width:1.5;" width="146" x="246" y="20.5"/><ellipse cx="299.25" cy="36.5" fill="#ADD1B2" rx="11" ry="11" style="stroke:#A80036;stroke-width:1.0;"/><path d="M301.25,33 Q301.4531,32.5 301.6875,32.25 Q301.9219,32 302.1875,32 Q302.6563,32 302.9531,32.2813 Q303.25,32.5625 303.25,33.2188 L303.25,34.7813 Q303.25,35.4375 302.9688,35.7188 Q302.6875,36 302.25,36 Q301.8594,36 301.6094,35.8281 Q301.3594,35.6563 301.25,35.2031 Q301.2031,34.8906 301.0313,34.7188 Q300.7188,34.3906 300.1563,34.2031 Q299.5938,34 299.0313,34 Q298.3281,34 297.7344,34.2813 Q297.1563,34.5625 296.7031,35.1875 Q296.25,35.8125 296.25,36.6719 L296.25,37.5938 Q296.25,38.625 297.0938,39.3125 Q297.9375,40 299.4375,40 Q300.3281,40 300.9531,39.7969 Q301.3125,39.6875 301.7188,39.3281 Q301.9844,39.125 302.125,39.0625 Q302.2656,39 302.4375,39 Q302.7656,39 303,39.2656 Q303.25,39.5156 303.25,39.875 Q303.25,40.2188 302.9063,40.625 Q302.4063,41.2188 301.6094,41.5469 Q300.5625,42 299.2813,42 Q297.7813,42 296.5781,41.4063 Q295.6094,40.9375 294.9219,39.9219 Q294.25,38.9063 294.25,37.7031 L294.25,36.6094 Q294.25,35.3594 294.8438,34.2656 Q295.4531,33.1719 296.5,32.5938 Q297.5625,32 298.75,32 Q299.4688,32 300.0938,32.25 Q300.7188,32.5 301.25,33 Z " fill="#000000"/><text fill="#000000" font-family="sans-serif" font-size="12" lengthAdjust="spacingAndGlyphs" textLength="31" x="319.75" y="41.4102">Order</text><line style="stroke:#A80036;stroke-width:1.5;" x1="247" x2="391" y1="52.5" y2="52.5"/><text fill="#000000" font-family="sans-serif" font-size="11" lengthAdjust="spacingAndGlyphs" textLength="70" x="252" y="67.9189">-String orderID</text><text fill="#000000" font-family="sans-serif" font-size="11" lengthAdjust="spacingAndGlyphs" textLength="69" x="252" y="81.7549">-String clientID</text><text fill="#000000" font-family="sans-serif" font-size="11" lengthAdjust="spacingAndGlyphs" textLength="134" x="252" y="95.5908">-Map&lt;Product, Integer&gt; cart</text><line style="stroke:#A80036;stroke-width:1.5;" x1="247" x2="391" y1="102.0078" y2="102.0078"/><!--MD5=[879bec428a80d843af24dc47845bf14c]
link Client to Order--><path codeLine="19" d="M108.23,65.5 C145.7,65.5 197.79,65.5 240.69,65.5 " fill="none" id="Client-to-Order" style="stroke:#A80036;stroke-width:1.0;"/><polygon fill="#A80036" points="245.87,65.5,236.87,61.5,240.87,65.5,236.87,69.5,245.87,65.5" style="stroke:#A80036;stroke-width:1.0;"/><polygon fill="#000000" points="148,56.6758,138.9549,53.7369,138.9549,59.6147,148,56.6758" style="stroke:#000000;stroke-width:1.0;"/><text fill="#000000" font-family="sans-serif" font-size="13" lengthAdjust="spacingAndGlyphs" textLength="63" x="152" y="61.9951">has placed</text><text fill="#000000" font-family="sans-serif" font-size="13" lengthAdjust="spacingAndGlyphs" textLength="7" x="115.8561" y="80.1322">1</text><text fill="#000000" font-family="sans-serif" font-size="13" lengthAdjust="spacingAndGlyphs" textLength="7" x="230.9675" y="79.8636">1</text><!--MD5=[7094dd191ffcb70480a0d360f9fba5dd]
@startuml
skinparam classAttributeIconSize 0

left to right direction

class Client {
  -String name
  -String email
  -int NIF
  -CreditCard card
  -Address address
}

class Order {
  -String orderID
  -String clientID
  -Map<Product, Integer> cart
}

Client "1" - -> "1" Order : has placed >


@enduml

PlantUML version 1.2020.26(Mon Dec 21 17:45:07 GMT 2020)
(GPL source distribution)
Java Runtime: OpenJDK Runtime Environment
JVM: OpenJDK 64-Bit Server VM
Default Encoding: Cp1252
Language: en
Country: US
--></g></svg>