<?xml version="1.0" encoding="UTF-8" standalone="no"?><svg xmlns="http://www.w3.org/2000/svg" xmlns:xlink="http://www.w3.org/1999/xlink" contentScriptType="application/ecmascript" contentStyleType="text/css" height="148.5px" preserveAspectRatio="none" style="width:395px;height:148px;" version="1.1" viewBox="0 0 395 148" width="395.1px" zoomAndPan="magnify"><defs><filter height="300%" id="fm22r3djbc32q" width="300%" x="-1" y="-1"><feGaussianBlur result="blurOut" stdDeviation="1.8"/><feColorMatrix in="blurOut" result="blurOut2" type="matrix" values="0 0 0 0 0 0 0 0 0 0 0 0 0 0 0 0 0 0 .4 0"/><feOffset dx="3.6" dy="3.6" in="blurOut2" result="blurOut3"/><feBlend in="SourceGraphic" in2="blurOut3" mode="normal"/></filter></defs><g><!--MD5=[cf4d6237fcae255cd2e1656cf84a30e2]
class Order--><rect codeLine="6" fill="#FEFECE" filter="url(#fm22r3djbc32q)" height="130.3664" id="Order" style="stroke:#A80036;stroke-width:1.35;" width="269.1" x="6.3" y="6.3"/><ellipse cx="123.075" cy="20.7" fill="#ADD1B2" rx="9.9" ry="9.9" style="stroke:#A80036;stroke-width:0.9;"/><path d="M124.875,17.55 Q125.0578,17.1 125.2688,16.875 Q125.4797,16.65 125.7188,16.65 Q126.1406,16.65 126.4078,16.9031 Q126.675,17.1563 126.675,17.7469 L126.675,19.1531 Q126.675,19.7438 126.4219,19.9969 Q126.1688,20.25 125.775,20.25 Q125.4234,20.25 125.1984,20.0953 Q124.9734,19.9406 124.875,19.5328 Q124.8328,19.2516 124.6781,19.0969 Q124.3969,18.8016 123.8906,18.6328 Q123.3844,18.45 122.8781,18.45 Q122.2453,18.45 121.7109,18.7031 Q121.1906,18.9563 120.7828,19.5188 Q120.375,20.0813 120.375,20.8547 L120.375,21.6844 Q120.375,22.6125 121.1344,23.2313 Q121.8938,23.85 123.2438,23.85 Q124.0453,23.85 124.6078,23.6672 Q124.9313,23.5688 125.2969,23.2453 Q125.5359,23.0625 125.6625,23.0063 Q125.7891,22.95 125.9438,22.95 Q126.2391,22.95 126.45,23.1891 Q126.675,23.4141 126.675,23.7375 Q126.675,24.0469 126.3656,24.4125 Q125.9156,24.9469 125.1984,25.2422 Q124.2563,25.65 123.1031,25.65 Q121.7531,25.65 120.6703,25.1156 Q119.7984,24.6938 119.1797,23.7797 Q118.575,22.8656 118.575,21.7828 L118.575,20.7984 Q118.575,19.6734 119.1094,18.6891 Q119.6578,17.7047 120.6,17.1844 Q121.5563,16.65 122.625,16.65 Q123.2719,16.65 123.8344,16.875 Q124.3969,17.1 124.875,17.55 Z " fill="#000000"/><text fill="#000000" font-family="sans-serif" font-size="10.8" lengthAdjust="spacingAndGlyphs" textLength="27.9" x="141.525" y="25.1191">Order</text><line style="stroke:#A80036;stroke-width:1.35;" x1="7.2" x2="274.5" y1="35.1" y2="35.1"/><text fill="#000000" font-family="sans-serif" font-size="9.9" lengthAdjust="spacingAndGlyphs" textLength="87.3" x="11.7" y="48.9771">-String orderId «PK»</text><text fill="#000000" font-family="sans-serif" font-size="9.9" lengthAdjust="spacingAndGlyphs" textLength="100.8" x="11.7" y="61.4294">-String clientId «PK,FK»</text><text fill="#000000" font-family="sans-serif" font-size="9.9" lengthAdjust="spacingAndGlyphs" textLength="37.8" x="11.7" y="73.8817">-int state</text><line style="stroke:#A80036;stroke-width:1.35;" x1="7.2" x2="274.5" y1="79.657" y2="79.657"/><text fill="#000000" font-family="sans-serif" font-size="9.9" lengthAdjust="spacingAndGlyphs" textLength="258.3" x="11.7" y="93.5341">+Order(int orderID, int clientNIF, Map&lt;Product, Integer&gt; cart)</text><text fill="#000000" font-family="sans-serif" font-size="9.9" lengthAdjust="spacingAndGlyphs" textLength="72" x="11.7" y="105.9864">+makePayment()</text><text fill="#000000" font-family="sans-serif" font-size="9.9" lengthAdjust="spacingAndGlyphs" textLength="189.9" x="11.7" y="118.4388">+calculatePrice(Map&lt;Product, Integer&gt; cart)</text><text fill="#000000" font-family="sans-serif" font-size="9.9" lengthAdjust="spacingAndGlyphs" textLength="107.1" x="11.7" y="130.8911">+updateState(newState)</text><!--MD5=[fe377266a2fb12b5f40872eb1dd33c8f]
link Order to Order--><path codeLine="17" d="M275.715,49.869 C294.408,53.442 306.9,60.669 306.9,71.55 C306.9,81.495 296.46,88.389 280.395,92.232 " fill="none" id="Order-to-Order" style="stroke:#A80036;stroke-width:0.9;stroke-dasharray:7.0,7.0;"/><polygon fill="#A80036" points="275.715,93.231,284.392,95.0418,280.1138,92.282,282.8736,88.0037,275.715,93.231" style="stroke:#A80036;stroke-width:0.9;"/><text fill="#000000" font-family="sans-serif" font-size="11.7" lengthAdjust="spacingAndGlyphs" textLength="71.1" x="312.3" y="76.4956">updates state</text><!--MD5=[f0ed2903d279b834819dc2884f00caf6]
@startuml
skinparam classAttributeIconSize 0

'left to right direction


class Order {
    -String orderId «PK»
    -String clientId «PK,FK»
    -int state
    +Order(int orderID, int clientNIF, Map<Product, Integer> cart)
    +makePayment()
    +calculatePrice(Map<Product, Integer> cart)
    +updateState(newState)
}


Order ..> Order : updates state

@enduml

@startuml
skinparam classAttributeIconSize 0



class Order {
    -String orderId «PK»
    -String clientId «PK,FK»
    -int state
    +Order(int orderID, int clientNIF, Map<Product, Integer> cart)
    +makePayment()
    +calculatePrice(Map<Product, Integer> cart)
    +updateState(newState)
}


Order ..> Order : updates state

@enduml

PlantUML version 1.2020.23(Sun Dec 13 19:14:58 GMT 2020)
(GPL source distribution)
Java Runtime: OpenJDK Runtime Environment
JVM: OpenJDK 64-Bit Server VM
Default Encoding: Cp1252
Language: en
Country: US
--></g></svg>