<?xml version="1.0" encoding="UTF-8" standalone="no"?><svg xmlns="http://www.w3.org/2000/svg" xmlns:xlink="http://www.w3.org/1999/xlink" contentScriptType="application/ecmascript" contentStyleType="text/css" height="99px" preserveAspectRatio="none" style="width:139px;height:99px;" version="1.1" viewBox="0 0 139 99" width="139.5px" zoomAndPan="magnify"><defs><filter height="300%" id="f1c8v9w9xb67jr" width="300%" x="-1" y="-1"><feGaussianBlur result="blurOut" stdDeviation="1.8"/><feColorMatrix in="blurOut" result="blurOut2" type="matrix" values="0 0 0 0 0 0 0 0 0 0 0 0 0 0 0 0 0 0 .4 0"/><feOffset dx="3.6" dy="3.6" in="blurOut2" result="blurOut3"/><feBlend in="SourceGraphic" in2="blurOut3" mode="normal"/></filter></defs><g><!--MD5=[cf4d6237fcae255cd2e1656cf84a30e2]
class Order--><rect codeLine="3" fill="#FEFECE" filter="url(#f1c8v9w9xb67jr)" height="80.557" id="Order" style="stroke:#A80036;stroke-width:1.35;" width="120.6" x="6.3" y="6.3"/><ellipse cx="48.825" cy="20.7" fill="#ADD1B2" rx="9.9" ry="9.9" style="stroke:#A80036;stroke-width:0.9;"/><path d="M50.625,17.55 Q50.8078,17.1 51.0188,16.875 Q51.2297,16.65 51.4688,16.65 Q51.8906,16.65 52.1578,16.9031 Q52.425,17.1563 52.425,17.7469 L52.425,19.1531 Q52.425,19.7438 52.1719,19.9969 Q51.9188,20.25 51.525,20.25 Q51.1734,20.25 50.9484,20.0953 Q50.7234,19.9406 50.625,19.5328 Q50.5828,19.2516 50.4281,19.0969 Q50.1469,18.8016 49.6406,18.6328 Q49.1344,18.45 48.6281,18.45 Q47.9953,18.45 47.4609,18.7031 Q46.9406,18.9563 46.5328,19.5188 Q46.125,20.0813 46.125,20.8547 L46.125,21.6844 Q46.125,22.6125 46.8844,23.2313 Q47.6438,23.85 48.9938,23.85 Q49.7953,23.85 50.3578,23.6672 Q50.6813,23.5688 51.0469,23.2453 Q51.2859,23.0625 51.4125,23.0063 Q51.5391,22.95 51.6938,22.95 Q51.9891,22.95 52.2,23.1891 Q52.425,23.4141 52.425,23.7375 Q52.425,24.0469 52.1156,24.4125 Q51.6656,24.9469 50.9484,25.2422 Q50.0063,25.65 48.8531,25.65 Q47.5031,25.65 46.4203,25.1156 Q45.5484,24.6938 44.9297,23.7797 Q44.325,22.8656 44.325,21.7828 L44.325,20.7984 Q44.325,19.6734 44.8594,18.6891 Q45.4078,17.7047 46.35,17.1844 Q47.3063,16.65 48.375,16.65 Q49.0219,16.65 49.5844,16.875 Q50.1469,17.1 50.625,17.55 Z " fill="#000000"/><text fill="#000000" font-family="sans-serif" font-size="10.8" lengthAdjust="spacingAndGlyphs" textLength="27.9" x="67.275" y="25.1191">Order</text><line style="stroke:#A80036;stroke-width:1.35;" x1="7.2" x2="126" y1="35.1" y2="35.1"/><rect fill="none" height="5.4" style="stroke:#C82930;stroke-width:0.9;" width="5.4" x="13.5" y="42.3"/><text fill="#000000" font-family="sans-serif" font-size="9.9" lengthAdjust="spacingAndGlyphs" textLength="83.7" x="24.3" y="48.9771">String orderId «PK»</text><rect fill="none" height="5.4" style="stroke:#C82930;stroke-width:0.9;" width="5.4" x="13.5" y="54.7523"/><text fill="#000000" font-family="sans-serif" font-size="9.9" lengthAdjust="spacingAndGlyphs" textLength="97.2" x="24.3" y="61.4294">String clientId «PK,FK»</text><rect fill="none" height="5.4" style="stroke:#C82930;stroke-width:0.9;" width="5.4" x="13.5" y="67.2047"/><text fill="#000000" font-family="sans-serif" font-size="9.9" lengthAdjust="spacingAndGlyphs" textLength="34.2" x="24.3" y="73.8817">int state</text><line style="stroke:#A80036;stroke-width:1.35;" x1="7.2" x2="126" y1="79.657" y2="79.657"/><!--MD5=[3d26d094c5f782f4ac804dc581031c35]
@startuml
'skinparam linetype polyline

class Order {
    -String orderId «PK»
    -String clientId «PK,FK»
    -int state
}


@enduml

@startuml

class Order {
    -String orderId «PK»
    -String clientId «PK,FK»
    -int state
}


@enduml

PlantUML version 1.2020.23(Sun Dec 13 19:14:58 GMT 2020)
(GPL source distribution)
Java Runtime: OpenJDK Runtime Environment
JVM: OpenJDK 64-Bit Server VM
Default Encoding: Cp1252
Language: en
Country: US
--></g></svg>