<?xml version="1.0" encoding="UTF-8" standalone="no"?><svg xmlns="http://www.w3.org/2000/svg" xmlns:xlink="http://www.w3.org/1999/xlink" contentScriptType="application/ecmascript" contentStyleType="text/css" height="284px" preserveAspectRatio="none" style="width:304px;height:284px;" version="1.1" viewBox="0 0 304 284" width="304px" zoomAndPan="magnify"><defs><filter height="300%" id="f1imk4q2vksemz" width="300%" x="-1" y="-1"><feGaussianBlur result="blurOut" stdDeviation="2.0"/><feColorMatrix in="blurOut" result="blurOut2" type="matrix" values="0 0 0 0 0 0 0 0 0 0 0 0 0 0 0 0 0 0 .4 0"/><feOffset dx="4.0" dy="4.0" in="blurOut2" result="blurOut3"/><feBlend in="SourceGraphic" in2="blurOut3" mode="normal"/></filter></defs><g><rect fill="#FFFFFF" filter="url(#f1imk4q2vksemz)" height="28" style="stroke:#A80036;stroke-width:1.0;" width="10" x="26" y="146.3125"/><line style="stroke:#A80036;stroke-width:1.0;stroke-dasharray:5.0,5.0;" x1="31" x2="31" y1="89.6094" y2="199.3125"/><text fill="#000000" font-family="sans-serif" font-size="14" lengthAdjust="spacingAndGlyphs" textLength="46" x="5" y="86.5332">System</text><ellipse cx="31" cy="15" fill="#FEFECE" filter="url(#f1imk4q2vksemz)" rx="8" ry="8" style="stroke:#A80036;stroke-width:2.0;"/><path d="M31,23 L31,50 M18,31 L44,31 M31,50 L18,65 M31,50 L44,65 " fill="none" filter="url(#f1imk4q2vksemz)" style="stroke:#A80036;stroke-width:2.0;"/><text fill="#000000" font-family="sans-serif" font-size="14" lengthAdjust="spacingAndGlyphs" textLength="46" x="5" y="212.8457">System</text><ellipse cx="31" cy="225.9219" fill="#FEFECE" filter="url(#f1imk4q2vksemz)" rx="8" ry="8" style="stroke:#A80036;stroke-width:2.0;"/><path d="M31,233.9219 L31,260.9219 M18,241.9219 L44,241.9219 M31,260.9219 L18,275.9219 M31,260.9219 L44,275.9219 " fill="none" filter="url(#f1imk4q2vksemz)" style="stroke:#A80036;stroke-width:2.0;"/><rect fill="#FFFFFF" filter="url(#f1imk4q2vksemz)" height="28" style="stroke:#A80036;stroke-width:1.0;" width="10" x="26" y="146.3125"/><line style="stroke:#A80036;stroke-width:1.0;" x1="36" x2="78" y1="138.3125" y2="138.3125"/><line style="stroke:#A80036;stroke-width:1.0;" x1="78" x2="78" y1="138.3125" y2="151.3125"/><line style="stroke:#A80036;stroke-width:1.0;" x1="37" x2="78" y1="151.3125" y2="151.3125"/><polygon fill="#A80036" points="47,147.3125,37,151.3125,47,155.3125,43,151.3125" style="stroke:#A80036;stroke-width:1.0;"/><text fill="#000000" font-family="sans-serif" font-size="13" font-weight="bold" lengthAdjust="spacingAndGlyphs" textLength="7" x="43" y="125.2803">1</text><text fill="#000000" font-family="sans-serif" font-size="13" lengthAdjust="spacingAndGlyphs" textLength="112" x="54" y="117.1045">update orders state</text><text fill="#000000" font-family="sans-serif" font-size="13" lengthAdjust="spacingAndGlyphs" textLength="243" x="54" y="133.4561">(pending, processing, delivering, delivered)</text><!--MD5=[56271ea35e5c1a9f9b7e33de82be5e81]
@startuml
autonumber
actor "System" as SYS

SYS -> SYS : update orders state \n(pending, processing, delivering, delivered)
activate SYS
deactivate SYS

@enduml

PlantUML version 1.2020.23(Sun Dec 13 19:14:58 GMT 2020)
(GPL source distribution)
Java Runtime: OpenJDK Runtime Environment
JVM: OpenJDK 64-Bit Server VM
Default Encoding: Cp1252
Language: en
Country: US
--></g></svg>