<?xml version="1.0" encoding="UTF-8" standalone="no"?><svg xmlns="http://www.w3.org/2000/svg" xmlns:xlink="http://www.w3.org/1999/xlink" contentScriptType="application/ecmascript" contentStyleType="text/css" height="148.5px" preserveAspectRatio="none" style="width:1008px;height:148px;" version="1.1" viewBox="0 0 1008 148" width="1008.9px" zoomAndPan="magnify"><defs><filter height="300%" id="faps0clhg9xu8" width="300%" x="-1" y="-1"><feGaussianBlur result="blurOut" stdDeviation="1.8"/><feColorMatrix in="blurOut" result="blurOut2" type="matrix" values="0 0 0 0 0 0 0 0 0 0 0 0 0 0 0 0 0 0 .4 0"/><feOffset dx="3.6" dy="3.6" in="blurOut2" result="blurOut3"/><feBlend in="SourceGraphic" in2="blurOut3" mode="normal"/></filter></defs><g><!--MD5=[f251daccc4f62ba7ef84cad74c4911ba]
class RegisterDroneUI--><rect codeLine="5" fill="#FEFECE" filter="url(#faps0clhg9xu8)" height="43.2" id="RegisterDroneUI" style="stroke:#A80036;stroke-width:1.35;" width="112.5" x="6.3" y="49.95"/><ellipse cx="19.8" cy="64.35" fill="#ADD1B2" rx="9.9" ry="9.9" style="stroke:#A80036;stroke-width:0.9;"/><path d="M21.6,61.2 Q21.7828,60.75 21.9938,60.525 Q22.2047,60.3 22.4438,60.3 Q22.8656,60.3 23.1328,60.5531 Q23.4,60.8063 23.4,61.3969 L23.4,62.8031 Q23.4,63.3938 23.1469,63.6469 Q22.8938,63.9 22.5,63.9 Q22.1484,63.9 21.9234,63.7453 Q21.6984,63.5906 21.6,63.1828 Q21.5578,62.9016 21.4031,62.7469 Q21.1219,62.4516 20.6156,62.2828 Q20.1094,62.1 19.6031,62.1 Q18.9703,62.1 18.4359,62.3531 Q17.9156,62.6063 17.5078,63.1688 Q17.1,63.7313 17.1,64.5047 L17.1,65.3344 Q17.1,66.2625 17.8594,66.8813 Q18.6188,67.5 19.9688,67.5 Q20.7703,67.5 21.3328,67.3172 Q21.6563,67.2188 22.0219,66.8953 Q22.2609,66.7125 22.3875,66.6563 Q22.5141,66.6 22.6688,66.6 Q22.9641,66.6 23.175,66.8391 Q23.4,67.0641 23.4,67.3875 Q23.4,67.6969 23.0906,68.0625 Q22.6406,68.5969 21.9234,68.8922 Q20.9813,69.3 19.8281,69.3 Q18.4781,69.3 17.3953,68.7656 Q16.5234,68.3438 15.9047,67.4297 Q15.3,66.5156 15.3,65.4328 L15.3,64.4484 Q15.3,63.3234 15.8344,62.3391 Q16.3828,61.3547 17.325,60.8344 Q18.2813,60.3 19.35,60.3 Q19.9969,60.3 20.5594,60.525 Q21.1219,60.75 21.6,61.2 Z " fill="#000000"/><text fill="#000000" font-family="sans-serif" font-size="10.8" lengthAdjust="spacingAndGlyphs" textLength="83.7" x="32.4" y="68.7691">RegisterDroneUI</text><line style="stroke:#A80036;stroke-width:1.35;" x1="7.2" x2="117.9" y1="78.75" y2="78.75"/><line style="stroke:#A80036;stroke-width:1.35;" x1="7.2" x2="117.9" y1="85.95" y2="85.95"/><!--MD5=[7bfe739f2abd87692f4d4d8e06b95cec]
class RegisterDroneController--><rect codeLine="8" fill="#FEFECE" filter="url(#faps0clhg9xu8)" height="80.557" id="RegisterDroneController" style="stroke:#A80036;stroke-width:1.35;" width="222.3" x="173.7" y="31.05"/><ellipse cx="220.275" cy="45.45" fill="#ADD1B2" rx="9.9" ry="9.9" style="stroke:#A80036;stroke-width:0.9;"/><path d="M222.075,42.3 Q222.2578,41.85 222.4688,41.625 Q222.6797,41.4 222.9188,41.4 Q223.3406,41.4 223.6078,41.6531 Q223.875,41.9063 223.875,42.4969 L223.875,43.9031 Q223.875,44.4938 223.6219,44.7469 Q223.3688,45 222.975,45 Q222.6234,45 222.3984,44.8453 Q222.1734,44.6906 222.075,44.2828 Q222.0328,44.0016 221.8781,43.8469 Q221.5969,43.5516 221.0906,43.3828 Q220.5844,43.2 220.0781,43.2 Q219.4453,43.2 218.9109,43.4531 Q218.3906,43.7063 217.9828,44.2688 Q217.575,44.8313 217.575,45.6047 L217.575,46.4344 Q217.575,47.3625 218.3344,47.9813 Q219.0938,48.6 220.4438,48.6 Q221.2453,48.6 221.8078,48.4172 Q222.1313,48.3188 222.4969,47.9953 Q222.7359,47.8125 222.8625,47.7563 Q222.9891,47.7 223.1438,47.7 Q223.4391,47.7 223.65,47.9391 Q223.875,48.1641 223.875,48.4875 Q223.875,48.7969 223.5656,49.1625 Q223.1156,49.6969 222.3984,49.9922 Q221.4563,50.4 220.3031,50.4 Q218.9531,50.4 217.8703,49.8656 Q216.9984,49.4438 216.3797,48.5297 Q215.775,47.6156 215.775,46.5328 L215.775,45.5484 Q215.775,44.4234 216.3094,43.4391 Q216.8578,42.4547 217.8,41.9344 Q218.7563,41.4 219.825,41.4 Q220.4719,41.4 221.0344,41.625 Q221.5969,41.85 222.075,42.3 Z " fill="#000000"/><text fill="#000000" font-family="sans-serif" font-size="10.8" lengthAdjust="spacingAndGlyphs" textLength="121.5" x="238.725" y="49.8691">RegisterDroneController</text><line style="stroke:#A80036;stroke-width:1.35;" x1="174.6" x2="395.1" y1="59.85" y2="59.85"/><line style="stroke:#A80036;stroke-width:1.35;" x1="174.6" x2="395.1" y1="67.05" y2="67.05"/><text fill="#000000" font-family="sans-serif" font-size="9.9" lengthAdjust="spacingAndGlyphs" textLength="211.5" x="179.1" y="80.9271">+newDrone(maxBatteryCapacity,stateOfCharge,</text><text fill="#000000" font-family="sans-serif" font-size="9.9" lengthAdjust="spacingAndGlyphs" textLength="201.6" x="179.1" y="93.3794">powerOutput,weight,maxPayload,pharmacyId)</text><text fill="#000000" font-family="sans-serif" font-size="9.9" lengthAdjust="spacingAndGlyphs" textLength="72" x="179.1" y="105.8317">+registerDrone()</text><!--MD5=[1e6be5ae2cffb7c30ed04d01432f5216]
class RegisterDrone--><rect codeLine="13" fill="#FEFECE" filter="url(#faps0clhg9xu8)" height="93.0094" id="RegisterDrone" style="stroke:#A80036;stroke-width:1.35;" width="222.3" x="450.9" y="25.2"/><ellipse cx="521.775" cy="39.6" fill="#ADD1B2" rx="9.9" ry="9.9" style="stroke:#A80036;stroke-width:0.9;"/><path d="M523.575,36.45 Q523.7578,36 523.9688,35.775 Q524.1797,35.55 524.4188,35.55 Q524.8406,35.55 525.1078,35.8031 Q525.375,36.0563 525.375,36.6469 L525.375,38.0531 Q525.375,38.6438 525.1219,38.8969 Q524.8688,39.15 524.475,39.15 Q524.1234,39.15 523.8984,38.9953 Q523.6734,38.8406 523.575,38.4328 Q523.5328,38.1516 523.3781,37.9969 Q523.0969,37.7016 522.5906,37.5328 Q522.0844,37.35 521.5781,37.35 Q520.9453,37.35 520.4109,37.6031 Q519.8906,37.8563 519.4828,38.4188 Q519.075,38.9813 519.075,39.7547 L519.075,40.5844 Q519.075,41.5125 519.8344,42.1313 Q520.5938,42.75 521.9438,42.75 Q522.7453,42.75 523.3078,42.5672 Q523.6313,42.4688 523.9969,42.1453 Q524.2359,41.9625 524.3625,41.9063 Q524.4891,41.85 524.6438,41.85 Q524.9391,41.85 525.15,42.0891 Q525.375,42.3141 525.375,42.6375 Q525.375,42.9469 525.0656,43.3125 Q524.6156,43.8469 523.8984,44.1422 Q522.9563,44.55 521.8031,44.55 Q520.4531,44.55 519.3703,44.0156 Q518.4984,43.5938 517.8797,42.6797 Q517.275,41.7656 517.275,40.6828 L517.275,39.6984 Q517.275,38.5734 517.8094,37.5891 Q518.3578,36.6047 519.3,36.0844 Q520.2563,35.55 521.325,35.55 Q521.9719,35.55 522.5344,35.775 Q523.0969,36 523.575,36.45 Z " fill="#000000"/><text fill="#000000" font-family="sans-serif" font-size="10.8" lengthAdjust="spacingAndGlyphs" textLength="72.9" x="540.225" y="44.0191">RegisterDrone</text><line style="stroke:#A80036;stroke-width:1.35;" x1="451.8" x2="672.3" y1="54" y2="54"/><line style="stroke:#A80036;stroke-width:1.35;" x1="451.8" x2="672.3" y1="61.2" y2="61.2"/><text fill="#000000" font-family="sans-serif" font-size="9.9" lengthAdjust="spacingAndGlyphs" textLength="74.7" x="456.3" y="75.0771">+RegisterDrone()</text><text fill="#000000" font-family="sans-serif" font-size="9.9" lengthAdjust="spacingAndGlyphs" textLength="211.5" x="456.3" y="87.5294">+newDrone(maxBatteryCapacity,stateOfCharge,</text><text fill="#000000" font-family="sans-serif" font-size="9.9" lengthAdjust="spacingAndGlyphs" textLength="201.6" x="456.3" y="99.9817">powerOutput,weight,maxPayload,pharmacyId)</text><text fill="#000000" font-family="sans-serif" font-size="9.9" lengthAdjust="spacingAndGlyphs" textLength="99.9" x="456.3" y="112.4341">+RegisterDrone(drone)</text><!--MD5=[2e3f1e60e74253ff42e47f8bfdb04ee2]
class Drone--><rect codeLine="19" fill="#FEFECE" filter="url(#faps0clhg9xu8)" height="130.3664" id="Drone" style="stroke:#A80036;stroke-width:1.35;" width="222.3" x="774" y="6.3"/><ellipse cx="866.025" cy="20.7" fill="#ADD1B2" rx="9.9" ry="9.9" style="stroke:#A80036;stroke-width:0.9;"/><path d="M867.825,17.55 Q868.0078,17.1 868.2188,16.875 Q868.4297,16.65 868.6688,16.65 Q869.0906,16.65 869.3578,16.9031 Q869.625,17.1563 869.625,17.7469 L869.625,19.1531 Q869.625,19.7438 869.3719,19.9969 Q869.1188,20.25 868.725,20.25 Q868.3734,20.25 868.1484,20.0953 Q867.9234,19.9406 867.825,19.5328 Q867.7828,19.2516 867.6281,19.0969 Q867.3469,18.8016 866.8406,18.6328 Q866.3344,18.45 865.8281,18.45 Q865.1953,18.45 864.6609,18.7031 Q864.1406,18.9563 863.7328,19.5188 Q863.325,20.0813 863.325,20.8547 L863.325,21.6844 Q863.325,22.6125 864.0844,23.2313 Q864.8438,23.85 866.1938,23.85 Q866.9953,23.85 867.5578,23.6672 Q867.8813,23.5688 868.2469,23.2453 Q868.4859,23.0625 868.6125,23.0063 Q868.7391,22.95 868.8938,22.95 Q869.1891,22.95 869.4,23.1891 Q869.625,23.4141 869.625,23.7375 Q869.625,24.0469 869.3156,24.4125 Q868.8656,24.9469 868.1484,25.2422 Q867.2063,25.65 866.0531,25.65 Q864.7031,25.65 863.6203,25.1156 Q862.7484,24.6938 862.1297,23.7797 Q861.525,22.8656 861.525,21.7828 L861.525,20.7984 Q861.525,19.6734 862.0594,18.6891 Q862.6078,17.7047 863.55,17.1844 Q864.5063,16.65 865.575,16.65 Q866.2219,16.65 866.7844,16.875 Q867.3469,17.1 867.825,17.55 Z " fill="#000000"/><text fill="#000000" font-family="sans-serif" font-size="10.8" lengthAdjust="spacingAndGlyphs" textLength="30.6" x="884.475" y="25.1191">Drone</text><line style="stroke:#A80036;stroke-width:1.35;" x1="774.9" x2="995.4" y1="35.1" y2="35.1"/><line style="stroke:#A80036;stroke-width:1.35;" x1="774.9" x2="995.4" y1="42.3" y2="42.3"/><text fill="#000000" font-family="sans-serif" font-size="9.9" lengthAdjust="spacingAndGlyphs" textLength="211.5" x="779.4" y="56.1771">+newDrone(maxBatteryCapacity,stateOfCharge,</text><text fill="#000000" font-family="sans-serif" font-size="9.9" lengthAdjust="spacingAndGlyphs" textLength="201.6" x="779.4" y="68.6294">powerOutput,weight,maxPayload,pharmacyId)</text><text fill="#000000" font-family="sans-serif" font-size="9.9" lengthAdjust="spacingAndGlyphs" textLength="40.5" x="779.4" y="81.0817">+create()</text><text fill="#000000" font-family="sans-serif" font-size="9.9" lengthAdjust="spacingAndGlyphs" textLength="80.1" x="779.4" y="93.5341">+addDrone(drone)</text><text fill="#000000" font-family="sans-serif" font-size="9.9" lengthAdjust="spacingAndGlyphs" textLength="32.4" x="779.4" y="105.9864">-save()</text><text fill="#000000" font-family="sans-serif" font-size="9.9" lengthAdjust="spacingAndGlyphs" textLength="45" x="779.4" y="118.4388">+remove()</text><text fill="#000000" font-family="sans-serif" font-size="9.9" lengthAdjust="spacingAndGlyphs" textLength="42.3" x="779.4" y="130.8911">+update()</text><!--MD5=[bc0b3096c7aa5bff2ed42868e0b826ca]
link RegisterDroneUI to RegisterDroneController--><path codeLine="29" d="M118.809,71.55 C134.082,71.55 151.245,71.55 168.579,71.55 " fill="none" id="RegisterDroneUI-to-RegisterDroneController" style="stroke:#A80036;stroke-width:0.9;stroke-dasharray:7.0,7.0;"/><polygon fill="#A80036" points="173.466,71.55,165.366,67.95,168.966,71.55,165.366,75.15,173.466,71.55" style="stroke:#A80036;stroke-width:0.9;"/><!--MD5=[c89565cbe2f6a37ea3e0e51d6826b807]
link RegisterDroneController to RegisterDrone--><path codeLine="30" d="M396.18,71.55 C412.596,71.55 429.543,71.55 446.049,71.55 " fill="none" id="RegisterDroneController-to-RegisterDrone" style="stroke:#A80036;stroke-width:0.9;stroke-dasharray:7.0,7.0;"/><polygon fill="#A80036" points="450.693,71.55,442.593,67.95,446.193,71.55,442.593,75.15,450.693,71.55" style="stroke:#A80036;stroke-width:0.9;"/><!--MD5=[84f67140c24e0fef26db5d858954d992]
link RegisterDrone to Drone--><path codeLine="31" d="M673.524,71.55 C705.924,71.55 741.348,71.55 773.748,71.55 " fill="none" id="RegisterDrone-Drone" style="stroke:#A80036;stroke-width:0.9;"/><text fill="#000000" font-family="sans-serif" font-size="11.7" lengthAdjust="spacingAndGlyphs" textLength="45" x="701.1" y="68.3956">registers</text><text fill="#000000" font-family="sans-serif" font-size="11.7" lengthAdjust="spacingAndGlyphs" textLength="6.3" x="680.5089" y="84.1346">1</text><text fill="#000000" font-family="sans-serif" font-size="11.7" lengthAdjust="spacingAndGlyphs" textLength="18" x="748.7873" y="84.1249">0..*</text><!--MD5=[6fbe7b91415bce23e1668537f28129ea]
@startuml
skinparam classAttributeIconSize 0

left to right direction

class RegisterDroneUI {
}

class RegisterDroneController {
 +newDrone(maxBatteryCapacity,stateOfCharge,\npowerOutput,weight,maxPayload,pharmacyId)
 +registerDrone()
}

class RegisterDrone {
 +RegisterDrone()
 +newDrone(maxBatteryCapacity,stateOfCharge,\npowerOutput,weight,maxPayload,pharmacyId)
 +RegisterDrone(drone)
}

class Drone {
 +newDrone(maxBatteryCapacity,stateOfCharge,\npowerOutput,weight,maxPayload,pharmacyId)
 +create()
 +addDrone(drone)
 -save()
 +remove()
 +update()
}


RegisterDroneUI ..> RegisterDroneController
RegisterDroneController ..> RegisterDrone
RegisterDrone "1"- -"0..*" Drone : registers


@enduml

PlantUML version 1.2020.23(Sun Dec 13 19:14:58 GMT 2020)
(GPL source distribution)
Java Runtime: OpenJDK Runtime Environment
JVM: OpenJDK 64-Bit Server VM
Default Encoding: Cp1252
Language: en
Country: US
--></g></svg>