<?xml version="1.0" encoding="UTF-8" standalone="no"?><svg xmlns="http://www.w3.org/2000/svg" xmlns:xlink="http://www.w3.org/1999/xlink" contentScriptType="application/ecmascript" contentStyleType="text/css" height="320.4px" preserveAspectRatio="none" style="width:574px;height:320px;" version="1.1" viewBox="0 0 574 320" width="574.2px" zoomAndPan="magnify"><defs><filter height="300%" id="f30iksou6szp9" width="300%" x="-1" y="-1"><feGaussianBlur result="blurOut" stdDeviation="1.8"/><feColorMatrix in="blurOut" result="blurOut2" type="matrix" values="0 0 0 0 0 0 0 0 0 0 0 0 0 0 0 0 0 0 .4 0"/><feOffset dx="3.6" dy="3.6" in="blurOut2" result="blurOut3"/><feBlend in="SourceGraphic" in2="blurOut3" mode="normal"/></filter></defs><g><!--MD5=[da547346deef918ea16944ba046651ef]
class Administrator--><rect codeLine="4" fill="#FEFECE" filter="url(#f30iksou6szp9)" height="80.557" id="Administrator" style="stroke:#A80036;stroke-width:1.35;" width="157.5" x="6.3" y="24.75"/><ellipse cx="48.375" cy="39.15" fill="#ADD1B2" rx="9.9" ry="9.9" style="stroke:#A80036;stroke-width:0.9;"/><path d="M50.175,36 Q50.3578,35.55 50.5688,35.325 Q50.7797,35.1 51.0188,35.1 Q51.4406,35.1 51.7078,35.3531 Q51.975,35.6063 51.975,36.1969 L51.975,37.6031 Q51.975,38.1938 51.7219,38.4469 Q51.4688,38.7 51.075,38.7 Q50.7234,38.7 50.4984,38.5453 Q50.2734,38.3906 50.175,37.9828 Q50.1328,37.7016 49.9781,37.5469 Q49.6969,37.2516 49.1906,37.0828 Q48.6844,36.9 48.1781,36.9 Q47.5453,36.9 47.0109,37.1531 Q46.4906,37.4063 46.0828,37.9688 Q45.675,38.5313 45.675,39.3047 L45.675,40.1344 Q45.675,41.0625 46.4344,41.6813 Q47.1938,42.3 48.5438,42.3 Q49.3453,42.3 49.9078,42.1172 Q50.2313,42.0188 50.5969,41.6953 Q50.8359,41.5125 50.9625,41.4563 Q51.0891,41.4 51.2438,41.4 Q51.5391,41.4 51.75,41.6391 Q51.975,41.8641 51.975,42.1875 Q51.975,42.4969 51.6656,42.8625 Q51.2156,43.3969 50.4984,43.6922 Q49.5563,44.1 48.4031,44.1 Q47.0531,44.1 45.9703,43.5656 Q45.0984,43.1438 44.4797,42.2297 Q43.875,41.3156 43.875,40.2328 L43.875,39.2484 Q43.875,38.1234 44.4094,37.1391 Q44.9578,36.1547 45.9,35.6344 Q46.8563,35.1 47.925,35.1 Q48.5719,35.1 49.1344,35.325 Q49.6969,35.55 50.175,36 Z " fill="#000000"/><text fill="#000000" font-family="sans-serif" font-size="10.8" lengthAdjust="spacingAndGlyphs" textLength="65.7" x="66.825" y="43.5691">Administrator</text><line style="stroke:#A80036;stroke-width:1.35;" x1="7.2" x2="162.9" y1="53.55" y2="53.55"/><rect fill="none" height="5.4" style="stroke:#C82930;stroke-width:0.9;" width="5.4" x="13.5" y="60.75"/><text fill="#000000" font-family="sans-serif" font-size="9.9" lengthAdjust="spacingAndGlyphs" textLength="134.1" x="24.3" y="67.4271">NUMBER id_administrator «PK»</text><rect fill="none" height="5.4" style="stroke:#C82930;stroke-width:0.9;" width="5.4" x="13.5" y="73.2023"/><text fill="#000000" font-family="sans-serif" font-size="9.9" lengthAdjust="spacingAndGlyphs" textLength="134.1" x="24.3" y="79.8794">VARCHAR name_administrator</text><rect fill="none" height="5.4" style="stroke:#C82930;stroke-width:0.9;" width="5.4" x="13.5" y="85.6547"/><text fill="#000000" font-family="sans-serif" font-size="9.9" lengthAdjust="spacingAndGlyphs" textLength="96.3" x="24.3" y="92.3317">VARCHAR user_email</text><line style="stroke:#A80036;stroke-width:1.35;" x1="7.2" x2="162.9" y1="98.107" y2="98.107"/><!--MD5=[7f2a9fafcebe4f099f71398fd3e2ed00]
class Pharmacy--><rect codeLine="10" fill="#FEFECE" filter="url(#f30iksou6szp9)" height="117.9141" id="Pharmacy" style="stroke:#A80036;stroke-width:1.35;" width="183.6" x="195.75" y="6.3"/><ellipse cx="258.975" cy="20.7" fill="#ADD1B2" rx="9.9" ry="9.9" style="stroke:#A80036;stroke-width:0.9;"/><path d="M260.775,17.55 Q260.9578,17.1 261.1688,16.875 Q261.3797,16.65 261.6188,16.65 Q262.0406,16.65 262.3078,16.9031 Q262.575,17.1563 262.575,17.7469 L262.575,19.1531 Q262.575,19.7438 262.3219,19.9969 Q262.0688,20.25 261.675,20.25 Q261.3234,20.25 261.0984,20.0953 Q260.8734,19.9406 260.775,19.5328 Q260.7328,19.2516 260.5781,19.0969 Q260.2969,18.8016 259.7906,18.6328 Q259.2844,18.45 258.7781,18.45 Q258.1453,18.45 257.6109,18.7031 Q257.0906,18.9563 256.6828,19.5188 Q256.275,20.0813 256.275,20.8547 L256.275,21.6844 Q256.275,22.6125 257.0344,23.2313 Q257.7938,23.85 259.1438,23.85 Q259.9453,23.85 260.5078,23.6672 Q260.8313,23.5688 261.1969,23.2453 Q261.4359,23.0625 261.5625,23.0063 Q261.6891,22.95 261.8438,22.95 Q262.1391,22.95 262.35,23.1891 Q262.575,23.4141 262.575,23.7375 Q262.575,24.0469 262.2656,24.4125 Q261.8156,24.9469 261.0984,25.2422 Q260.1563,25.65 259.0031,25.65 Q257.6531,25.65 256.5703,25.1156 Q255.6984,24.6938 255.0797,23.7797 Q254.475,22.8656 254.475,21.7828 L254.475,20.7984 Q254.475,19.6734 255.0094,18.6891 Q255.5578,17.7047 256.5,17.1844 Q257.4563,16.65 258.525,16.65 Q259.1719,16.65 259.7344,16.875 Q260.2969,17.1 260.775,17.55 Z " fill="#000000"/><text fill="#000000" font-family="sans-serif" font-size="10.8" lengthAdjust="spacingAndGlyphs" textLength="49.5" x="277.425" y="25.1191">Pharmacy</text><line style="stroke:#A80036;stroke-width:1.35;" x1="196.65" x2="378.45" y1="35.1" y2="35.1"/><rect fill="none" height="5.4" style="stroke:#C82930;stroke-width:0.9;" width="5.4" x="202.95" y="42.3"/><text fill="#000000" font-family="sans-serif" font-size="9.9" lengthAdjust="spacingAndGlyphs" textLength="121.5" x="213.75" y="48.9771">NUMBER id_pharmacy «PK»</text><rect fill="none" height="5.4" style="stroke:#C82930;stroke-width:0.9;" width="5.4" x="202.95" y="54.7523"/><text fill="#000000" font-family="sans-serif" font-size="9.9" lengthAdjust="spacingAndGlyphs" textLength="121.5" x="213.75" y="61.4294">VARCHAR name_pharmacy</text><rect fill="none" height="5.4" style="stroke:#C82930;stroke-width:0.9;" width="5.4" x="202.95" y="67.2047"/><text fill="#000000" font-family="sans-serif" font-size="9.9" lengthAdjust="spacingAndGlyphs" textLength="102.6" x="213.75" y="73.8817">NUMBER NIF_pharmacy</text><rect fill="none" height="5.4" style="stroke:#C82930;stroke-width:0.9;" width="5.4" x="202.95" y="79.657"/><text fill="#000000" font-family="sans-serif" font-size="9.9" lengthAdjust="spacingAndGlyphs" textLength="134.1" x="213.75" y="86.3341">NUMBER id_administrator «FK»</text><rect fill="none" height="5.4" style="stroke:#C82930;stroke-width:0.9;" width="5.4" x="202.95" y="92.1094"/><text fill="#000000" font-family="sans-serif" font-size="9.9" lengthAdjust="spacingAndGlyphs" textLength="159.3" x="213.75" y="98.7864">NUMBER address_coordinateX «FK»</text><rect fill="none" height="5.4" style="stroke:#C82930;stroke-width:0.9;" width="5.4" x="202.95" y="104.5617"/><text fill="#000000" font-family="sans-serif" font-size="9.9" lengthAdjust="spacingAndGlyphs" textLength="160.2" x="213.75" y="111.2388">NUMBER address_coordinateY «FK»</text><line style="stroke:#A80036;stroke-width:1.35;" x1="196.65" x2="378.45" y1="117.0141" y2="117.0141"/><!--MD5=[0f39e4cb6f03951afbf6d14bd2505654]
class Address--><rect codeLine="20" fill="#FEFECE" filter="url(#f30iksou6szp9)" height="105.4617" id="Address" style="stroke:#A80036;stroke-width:1.35;" width="150.3" x="411.3" y="12.6"/><ellipse cx="461.925" cy="27" fill="#ADD1B2" rx="9.9" ry="9.9" style="stroke:#A80036;stroke-width:0.9;"/><path d="M463.725,23.85 Q463.9078,23.4 464.1188,23.175 Q464.3297,22.95 464.5688,22.95 Q464.9906,22.95 465.2578,23.2031 Q465.525,23.4563 465.525,24.0469 L465.525,25.4531 Q465.525,26.0438 465.2719,26.2969 Q465.0188,26.55 464.625,26.55 Q464.2734,26.55 464.0484,26.3953 Q463.8234,26.2406 463.725,25.8328 Q463.6828,25.5516 463.5281,25.3969 Q463.2469,25.1016 462.7406,24.9328 Q462.2344,24.75 461.7281,24.75 Q461.0953,24.75 460.5609,25.0031 Q460.0406,25.2563 459.6328,25.8188 Q459.225,26.3813 459.225,27.1547 L459.225,27.9844 Q459.225,28.9125 459.9844,29.5313 Q460.7438,30.15 462.0938,30.15 Q462.8953,30.15 463.4578,29.9672 Q463.7813,29.8688 464.1469,29.5453 Q464.3859,29.3625 464.5125,29.3063 Q464.6391,29.25 464.7938,29.25 Q465.0891,29.25 465.3,29.4891 Q465.525,29.7141 465.525,30.0375 Q465.525,30.3469 465.2156,30.7125 Q464.7656,31.2469 464.0484,31.5422 Q463.1063,31.95 461.9531,31.95 Q460.6031,31.95 459.5203,31.4156 Q458.6484,30.9938 458.0297,30.0797 Q457.425,29.1656 457.425,28.0828 L457.425,27.0984 Q457.425,25.9734 457.9594,24.9891 Q458.5078,24.0047 459.45,23.4844 Q460.4063,22.95 461.475,22.95 Q462.1219,22.95 462.6844,23.175 Q463.2469,23.4 463.725,23.85 Z " fill="#000000"/><text fill="#000000" font-family="sans-serif" font-size="10.8" lengthAdjust="spacingAndGlyphs" textLength="41.4" x="480.375" y="31.4191">Address</text><line style="stroke:#A80036;stroke-width:1.35;" x1="412.2" x2="560.7" y1="41.4" y2="41.4"/><rect fill="none" height="5.4" style="stroke:#C82930;stroke-width:0.9;" width="5.4" x="418.5" y="48.6"/><text fill="#000000" font-family="sans-serif" font-size="9.9" lengthAdjust="spacingAndGlyphs" textLength="53.1" x="429.3" y="55.2771">String street</text><rect fill="none" height="5.4" style="stroke:#C82930;stroke-width:0.9;" width="5.4" x="418.5" y="61.0523"/><text fill="#000000" font-family="sans-serif" font-size="9.9" lengthAdjust="spacingAndGlyphs" textLength="126" x="429.3" y="67.7294">double gpsCoordinateX «PK»</text><rect fill="none" height="5.4" style="stroke:#C82930;stroke-width:0.9;" width="5.4" x="418.5" y="73.5047"/><text fill="#000000" font-family="sans-serif" font-size="9.9" lengthAdjust="spacingAndGlyphs" textLength="126.9" x="429.3" y="80.1817">double gpsCoordinateY «PK»</text><rect fill="none" height="5.4" style="stroke:#C82930;stroke-width:0.9;" width="5.4" x="418.5" y="85.957"/><text fill="#000000" font-family="sans-serif" font-size="9.9" lengthAdjust="spacingAndGlyphs" textLength="71.1" x="429.3" y="92.6341">int postalId «FK»</text><rect fill="none" height="5.4" style="stroke:#C82930;stroke-width:0.9;" width="5.4" x="418.5" y="98.4094"/><text fill="#000000" font-family="sans-serif" font-size="9.9" lengthAdjust="spacingAndGlyphs" textLength="70.2" x="429.3" y="105.0864">double elevation</text><line style="stroke:#A80036;stroke-width:1.35;" x1="412.2" x2="560.7" y1="110.8617" y2="110.8617"/><!--MD5=[2e3f1e60e74253ff42e47f8bfdb04ee2]
class Drone--><rect codeLine="29" fill="#FEFECE" filter="url(#f30iksou6szp9)" height="130.3664" id="Drone" style="stroke:#A80036;stroke-width:1.35;" width="162" x="206.55" y="178.2"/><ellipse cx="268.425" cy="192.6" fill="#ADD1B2" rx="9.9" ry="9.9" style="stroke:#A80036;stroke-width:0.9;"/><path d="M270.225,189.45 Q270.4078,189 270.6188,188.775 Q270.8297,188.55 271.0688,188.55 Q271.4906,188.55 271.7578,188.8031 Q272.025,189.0563 272.025,189.6469 L272.025,191.0531 Q272.025,191.6438 271.7719,191.8969 Q271.5188,192.15 271.125,192.15 Q270.7734,192.15 270.5484,191.9953 Q270.3234,191.8406 270.225,191.4328 Q270.1828,191.1516 270.0281,190.9969 Q269.7469,190.7016 269.2406,190.5328 Q268.7344,190.35 268.2281,190.35 Q267.5953,190.35 267.0609,190.6031 Q266.5406,190.8563 266.1328,191.4188 Q265.725,191.9813 265.725,192.7547 L265.725,193.5844 Q265.725,194.5125 266.4844,195.1313 Q267.2438,195.75 268.5938,195.75 Q269.3953,195.75 269.9578,195.5672 Q270.2813,195.4688 270.6469,195.1453 Q270.8859,194.9625 271.0125,194.9063 Q271.1391,194.85 271.2938,194.85 Q271.5891,194.85 271.8,195.0891 Q272.025,195.3141 272.025,195.6375 Q272.025,195.9469 271.7156,196.3125 Q271.2656,196.8469 270.5484,197.1422 Q269.6063,197.55 268.4531,197.55 Q267.1031,197.55 266.0203,197.0156 Q265.1484,196.5938 264.5297,195.6797 Q263.925,194.7656 263.925,193.6828 L263.925,192.6984 Q263.925,191.5734 264.4594,190.5891 Q265.0078,189.6047 265.95,189.0844 Q266.9063,188.55 267.975,188.55 Q268.6219,188.55 269.1844,188.775 Q269.7469,189 270.225,189.45 Z " fill="#000000"/><text fill="#000000" font-family="sans-serif" font-size="10.8" lengthAdjust="spacingAndGlyphs" textLength="30.6" x="286.875" y="197.0191">Drone</text><line style="stroke:#A80036;stroke-width:1.35;" x1="207.45" x2="367.65" y1="207" y2="207"/><rect fill="none" height="5.4" style="stroke:#C82930;stroke-width:0.9;" width="5.4" x="213.75" y="214.2"/><text fill="#000000" font-family="sans-serif" font-size="9.9" lengthAdjust="spacingAndGlyphs" textLength="104.4" x="224.55" y="220.8771">NUMBER id_Drone «PK»</text><rect fill="none" height="5.4" style="stroke:#C82930;stroke-width:0.9;" width="5.4" x="213.75" y="226.6523"/><text fill="#000000" font-family="sans-serif" font-size="9.9" lengthAdjust="spacingAndGlyphs" textLength="138.6" x="224.55" y="233.3294">NUMBER max_Battery_Capacity</text><rect fill="none" height="5.4" style="stroke:#C82930;stroke-width:0.9;" width="5.4" x="213.75" y="239.1047"/><text fill="#000000" font-family="sans-serif" font-size="9.9" lengthAdjust="spacingAndGlyphs" textLength="115.2" x="224.55" y="245.7817">NUMBER state_Of_Charge</text><rect fill="none" height="5.4" style="stroke:#C82930;stroke-width:0.9;" width="5.4" x="213.75" y="251.557"/><text fill="#000000" font-family="sans-serif" font-size="9.9" lengthAdjust="spacingAndGlyphs" textLength="103.5" x="224.55" y="258.2341">NUMBER power_Output</text><rect fill="none" height="5.4" style="stroke:#C82930;stroke-width:0.9;" width="5.4" x="213.75" y="264.0094"/><text fill="#000000" font-family="sans-serif" font-size="9.9" lengthAdjust="spacingAndGlyphs" textLength="70.2" x="224.55" y="270.6864">NUMBER weight</text><rect fill="none" height="5.4" style="stroke:#C82930;stroke-width:0.9;" width="5.4" x="213.75" y="276.4617"/><text fill="#000000" font-family="sans-serif" font-size="9.9" lengthAdjust="spacingAndGlyphs" textLength="98.1" x="224.55" y="283.1388">NUMBER max_payload</text><rect fill="none" height="5.4" style="stroke:#C82930;stroke-width:0.9;" width="5.4" x="213.75" y="288.9141"/><text fill="#000000" font-family="sans-serif" font-size="9.9" lengthAdjust="spacingAndGlyphs" textLength="96.3" x="224.55" y="295.5911">NUMBER id_pharmacy</text><line style="stroke:#A80036;stroke-width:1.35;" x1="207.45" x2="367.65" y1="301.3664" y2="301.3664"/><!--MD5=[8aaadde0a51a6974a75b41b6a40c57cb]
link Administrator to Pharmacy--><path codeLine="40" d="M171.549,65.25 C177.093,65.25 182.628,65.25 188.172,65.25 " fill="none" id="Administrator-Pharmacy" style="stroke:#A80036;stroke-width:0.9;"/><line style="stroke:#A80036;stroke-width:0.9;" x1="188.523" x2="195.723" y1="65.25" y2="59.85"/><line style="stroke:#A80036;stroke-width:0.9;" x1="188.523" x2="195.723" y1="65.25" y2="70.65"/><line style="stroke:#A80036;stroke-width:0.9;" x1="188.523" x2="195.723" y1="65.25" y2="65.25"/><line style="stroke:#A80036;stroke-width:0.9;" x1="186.723" x2="186.723" y1="61.65" y2="68.85"/><line style="stroke:#A80036;stroke-width:0.9;" x1="174.051" x2="164.151" y1="65.25" y2="65.25"/><ellipse cx="174.051" cy="65.25" fill="none" rx="3.6" ry="3.6" style="stroke:#A80036;stroke-width:0.9;"/><line style="stroke:#A80036;stroke-width:0.9;" x1="167.751" x2="167.751" y1="68.85" y2="61.65"/><!--MD5=[f8ebe161610107101fe1df9bed99a2fd]
link Pharmacy to Drone--><path codeLine="42" d="M287.55,131.733 C287.55,144.36 287.55,157.662 287.55,170.478 " fill="none" id="Pharmacy-Drone" style="stroke:#A80036;stroke-width:0.9;"/><line style="stroke:#A80036;stroke-width:0.9;" x1="287.55" x2="292.95" y1="170.766" y2="177.966"/><line style="stroke:#A80036;stroke-width:0.9;" x1="287.55" x2="282.15" y1="170.766" y2="177.966"/><line style="stroke:#A80036;stroke-width:0.9;" x1="287.55" x2="287.55" y1="170.766" y2="177.966"/><line style="stroke:#A80036;stroke-width:0.9;" x1="291.15" x2="283.95" y1="168.966" y2="168.966"/><line style="stroke:#A80036;stroke-width:0.9;" x1="287.55" x2="287.55" y1="134.298" y2="124.398"/><ellipse cx="287.55" cy="134.298" fill="none" rx="3.6" ry="3.6" style="stroke:#A80036;stroke-width:0.9;"/><line style="stroke:#A80036;stroke-width:0.9;" x1="283.95" x2="291.15" y1="127.998" y2="127.998"/><!--MD5=[89baec1bfb4a213750f7c61516e0a0f1]
link Pharmacy to Address--><path codeLine="43" d="M386.955,65.25 C392.445,65.25 397.935,65.25 403.425,65.25 " fill="none" id="Pharmacy-Address" style="stroke:#A80036;stroke-width:0.9;"/><line style="stroke:#A80036;stroke-width:0.9;" x1="403.713" x2="410.913" y1="65.25" y2="59.85"/><line style="stroke:#A80036;stroke-width:0.9;" x1="403.713" x2="410.913" y1="65.25" y2="70.65"/><line style="stroke:#A80036;stroke-width:0.9;" x1="403.713" x2="410.913" y1="65.25" y2="65.25"/><line style="stroke:#A80036;stroke-width:0.9;" x1="401.913" x2="401.913" y1="61.65" y2="68.85"/><line style="stroke:#A80036;stroke-width:0.9;" x1="389.52" x2="379.62" y1="65.25" y2="65.25"/><ellipse cx="389.52" cy="65.25" fill="none" rx="3.6" ry="3.6" style="stroke:#A80036;stroke-width:0.9;"/><line style="stroke:#A80036;stroke-width:0.9;" x1="383.22" x2="383.22" y1="68.85" y2="61.65"/><!--MD5=[b1243ec9b55016c43223df331ea8a9f6]
@startuml
'skinparam linetype polyline


class Administrator {
    -NUMBER id_administrator «PK»
    -VARCHAR name_administrator
    -VARCHAR user_email
}

class Pharmacy {
    -NUMBER id_pharmacy «PK»
    -VARCHAR name_pharmacy
    -NUMBER NIF_pharmacy
    -NUMBER id_administrator «FK»
    -NUMBER address_coordinateX «FK»
    -NUMBER address_coordinateY «FK»
}


class Address {
    -String street
    -double gpsCoordinateX «PK»
    -double gpsCoordinateY «PK»
    -int postalId «FK»
    -double elevation
}


class Drone {
    -NUMBER id_Drone «PK»
    -NUMBER max_Battery_Capacity
    -NUMBER state_Of_Charge
    -NUMBER power_Output
    -NUMBER weight
    -NUMBER max_payload
    -NUMBER id_pharmacy
}


Administrator |o-|{ Pharmacy

Pharmacy |o- -|{ Drone
Pharmacy |o-|{ Address




@enduml

@startuml


class Administrator {
    -NUMBER id_administrator «PK»
    -VARCHAR name_administrator
    -VARCHAR user_email
}

class Pharmacy {
    -NUMBER id_pharmacy «PK»
    -VARCHAR name_pharmacy
    -NUMBER NIF_pharmacy
    -NUMBER id_administrator «FK»
    -NUMBER address_coordinateX «FK»
    -NUMBER address_coordinateY «FK»
}


class Address {
    -String street
    -double gpsCoordinateX «PK»
    -double gpsCoordinateY «PK»
    -int postalId «FK»
    -double elevation
}


class Drone {
    -NUMBER id_Drone «PK»
    -NUMBER max_Battery_Capacity
    -NUMBER state_Of_Charge
    -NUMBER power_Output
    -NUMBER weight
    -NUMBER max_payload
    -NUMBER id_pharmacy
}


Administrator |o-|{ Pharmacy

Pharmacy |o- -|{ Drone
Pharmacy |o-|{ Address




@enduml

PlantUML version 1.2020.23(Sun Dec 13 19:14:58 GMT 2020)
(GPL source distribution)
Java Runtime: OpenJDK Runtime Environment
JVM: OpenJDK 64-Bit Server VM
Default Encoding: Cp1252
Language: en
Country: US
--></g></svg>