<?xml version="1.0" encoding="UTF-8" standalone="no"?><svg xmlns="http://www.w3.org/2000/svg" xmlns:xlink="http://www.w3.org/1999/xlink" contentScriptType="application/ecmascript" contentStyleType="text/css" height="241.25px" preserveAspectRatio="none" style="width:1776px;height:241px;" version="1.1" viewBox="0 0 1776 241" width="1776.25px" zoomAndPan="magnify"><defs><filter height="300%" id="f11uaz2i5f4x" width="300%" x="-1" y="-1"><feGaussianBlur result="blurOut" stdDeviation="2.5"/><feColorMatrix in="blurOut" result="blurOut2" type="matrix" values="0 0 0 0 0 0 0 0 0 0 0 0 0 0 0 0 0 0 .4 0"/><feOffset dx="5.0" dy="5.0" in="blurOut2" result="blurOut3"/><feBlend in="SourceGraphic" in2="blurOut3" mode="normal"/></filter></defs><g><!--MD5=[99b8db98afdc2c8404e39242ef4c1e65]
class Platform--><rect codeLine="5" fill="#FEFECE" filter="url(#f11uaz2i5f4x)" height="60" id="Platform" style="stroke:#A80036;stroke-width:1.875;" width="97.5" x="726.25" y="8.75"/><ellipse cx="745" cy="28.75" fill="#ADD1B2" rx="13.75" ry="13.75" style="stroke:#A80036;stroke-width:1.25;"/><path d="M747.5,24.375 Q747.7539,23.75 748.0469,23.4375 Q748.3398,23.125 748.6719,23.125 Q749.2578,23.125 749.6289,23.4766 Q750,23.8281 750,24.6484 L750,26.6016 Q750,27.4219 749.6484,27.7734 Q749.2969,28.125 748.75,28.125 Q748.2617,28.125 747.9492,27.9102 Q747.6367,27.6953 747.5,27.1289 Q747.4414,26.7383 747.2266,26.5234 Q746.8359,26.1133 746.1328,25.8789 Q745.4297,25.625 744.7266,25.625 Q743.8477,25.625 743.1055,25.9766 Q742.3828,26.3281 741.8164,27.1094 Q741.25,27.8906 741.25,28.9648 L741.25,30.1172 Q741.25,31.4063 742.3047,32.2656 Q743.3594,33.125 745.2344,33.125 Q746.3477,33.125 747.1289,32.8711 Q747.5781,32.7344 748.0859,32.2852 Q748.418,32.0313 748.5938,31.9531 Q748.7695,31.875 748.9844,31.875 Q749.3945,31.875 749.6875,32.207 Q750,32.5195 750,32.9688 Q750,33.3984 749.5703,33.9063 Q748.9453,34.6484 747.9492,35.0586 Q746.6406,35.625 745.0391,35.625 Q743.1641,35.625 741.6602,34.8828 Q740.4492,34.2969 739.5898,33.0273 Q738.75,31.7578 738.75,30.2539 L738.75,28.8867 Q738.75,27.3242 739.4922,25.957 Q740.2539,24.5898 741.5625,23.8672 Q742.8906,23.125 744.375,23.125 Q745.2734,23.125 746.0547,23.4375 Q746.8359,23.75 747.5,24.375 Z " fill="#000000"/><text fill="#000000" font-family="sans-serif" font-size="15" lengthAdjust="spacingAndGlyphs" textLength="57.5" x="762.5" y="34.8877">Platform</text><line style="stroke:#A80036;stroke-width:1.875;" x1="727.5" x2="822.5" y1="48.75" y2="48.75"/><line style="stroke:#A80036;stroke-width:1.875;" x1="727.5" x2="822.5" y1="58.75" y2="58.75"/><!--MD5=[1144e1c45b6ff74ae0ec2e7492c7b5de]
class DeliveryRouteCalculationUI--><rect codeLine="8" fill="#FEFECE" filter="url(#f11uaz2i5f4x)" height="60" id="DeliveryRouteCalculationUI" style="stroke:#A80036;stroke-width:1.875;" width="227.5" x="8.75" y="70"/><ellipse cx="27.5" cy="90" fill="#ADD1B2" rx="13.75" ry="13.75" style="stroke:#A80036;stroke-width:1.25;"/><path d="M30,85.625 Q30.2539,85 30.5469,84.6875 Q30.8398,84.375 31.1719,84.375 Q31.7578,84.375 32.1289,84.7266 Q32.5,85.0781 32.5,85.8984 L32.5,87.8516 Q32.5,88.6719 32.1484,89.0234 Q31.7969,89.375 31.25,89.375 Q30.7617,89.375 30.4492,89.1602 Q30.1367,88.9453 30,88.3789 Q29.9414,87.9883 29.7266,87.7734 Q29.3359,87.3633 28.6328,87.1289 Q27.9297,86.875 27.2266,86.875 Q26.3477,86.875 25.6055,87.2266 Q24.8828,87.5781 24.3164,88.3594 Q23.75,89.1406 23.75,90.2148 L23.75,91.3672 Q23.75,92.6563 24.8047,93.5156 Q25.8594,94.375 27.7344,94.375 Q28.8477,94.375 29.6289,94.1211 Q30.0781,93.9844 30.5859,93.5352 Q30.918,93.2813 31.0938,93.2031 Q31.2695,93.125 31.4844,93.125 Q31.8945,93.125 32.1875,93.457 Q32.5,93.7695 32.5,94.2188 Q32.5,94.6484 32.0703,95.1563 Q31.4453,95.8984 30.4492,96.3086 Q29.1406,96.875 27.5391,96.875 Q25.6641,96.875 24.1602,96.1328 Q22.9492,95.5469 22.0898,94.2773 Q21.25,93.0078 21.25,91.5039 L21.25,90.1367 Q21.25,88.5742 21.9922,87.207 Q22.7539,85.8398 24.0625,85.1172 Q25.3906,84.375 26.875,84.375 Q27.7734,84.375 28.5547,84.6875 Q29.3359,85 30,85.625 Z " fill="#000000"/><text fill="#000000" font-family="sans-serif" font-size="15" lengthAdjust="spacingAndGlyphs" textLength="187.5" x="45" y="96.1377">DeliveryRouteCalculationUI</text><line style="stroke:#A80036;stroke-width:1.875;" x1="10" x2="235" y1="110" y2="110"/><line style="stroke:#A80036;stroke-width:1.875;" x1="10" x2="235" y1="120" y2="120"/><!--MD5=[0fb6380d84b995602e7bdefded2ce73c]
class DeliveryRouteCalculationController--><rect codeLine="11" fill="#FEFECE" filter="url(#f11uaz2i5f4x)" height="77.2949" id="DeliveryRouteCalculationController" style="stroke:#A80036;stroke-width:1.875;" width="280" x="312.5" y="61.25"/><ellipse cx="331.25" cy="81.25" fill="#ADD1B2" rx="13.75" ry="13.75" style="stroke:#A80036;stroke-width:1.25;"/><path d="M333.75,76.875 Q334.0039,76.25 334.2969,75.9375 Q334.5898,75.625 334.9219,75.625 Q335.5078,75.625 335.8789,75.9766 Q336.25,76.3281 336.25,77.1484 L336.25,79.1016 Q336.25,79.9219 335.8984,80.2734 Q335.5469,80.625 335,80.625 Q334.5117,80.625 334.1992,80.4102 Q333.8867,80.1953 333.75,79.6289 Q333.6914,79.2383 333.4766,79.0234 Q333.0859,78.6133 332.3828,78.3789 Q331.6797,78.125 330.9766,78.125 Q330.0977,78.125 329.3555,78.4766 Q328.6328,78.8281 328.0664,79.6094 Q327.5,80.3906 327.5,81.4648 L327.5,82.6172 Q327.5,83.9063 328.5547,84.7656 Q329.6094,85.625 331.4844,85.625 Q332.5977,85.625 333.3789,85.3711 Q333.8281,85.2344 334.3359,84.7852 Q334.668,84.5313 334.8438,84.4531 Q335.0195,84.375 335.2344,84.375 Q335.6445,84.375 335.9375,84.707 Q336.25,85.0195 336.25,85.4688 Q336.25,85.8984 335.8203,86.4063 Q335.1953,87.1484 334.1992,87.5586 Q332.8906,88.125 331.2891,88.125 Q329.4141,88.125 327.9102,87.3828 Q326.6992,86.7969 325.8398,85.5273 Q325,84.2578 325,82.7539 L325,81.3867 Q325,79.8242 325.7422,78.457 Q326.5039,77.0898 327.8125,76.3672 Q329.1406,75.625 330.625,75.625 Q331.5234,75.625 332.3047,75.9375 Q333.0859,76.25 333.75,76.875 Z " fill="#000000"/><text fill="#000000" font-family="sans-serif" font-size="15" lengthAdjust="spacingAndGlyphs" textLength="240" x="348.75" y="87.3877">DeliveryRouteCalculationController</text><line style="stroke:#A80036;stroke-width:1.875;" x1="313.75" x2="591.25" y1="101.25" y2="101.25"/><line style="stroke:#A80036;stroke-width:1.875;" x1="313.75" x2="591.25" y1="111.25" y2="111.25"/><text fill="#000000" font-family="sans-serif" font-size="13.75" lengthAdjust="spacingAndGlyphs" textLength="120" x="320" y="130.5237">+getDeliveryRoute()</text><!--MD5=[d995f168ff8c7dc9e8b1a084edea1953]
class DeliveryRouteCalculation--><rect codeLine="16" fill="#FEFECE" filter="url(#f11uaz2i5f4x)" height="94.5898" id="DeliveryRouteCalculation" style="stroke:#A80036;stroke-width:1.875;" width="212.5" x="668.75" y="112.5"/><ellipse cx="687.5" cy="132.5" fill="#ADD1B2" rx="13.75" ry="13.75" style="stroke:#A80036;stroke-width:1.25;"/><path d="M690,128.125 Q690.2539,127.5 690.5469,127.1875 Q690.8398,126.875 691.1719,126.875 Q691.7578,126.875 692.1289,127.2266 Q692.5,127.5781 692.5,128.3984 L692.5,130.3516 Q692.5,131.1719 692.1484,131.5234 Q691.7969,131.875 691.25,131.875 Q690.7617,131.875 690.4492,131.6602 Q690.1367,131.4453 690,130.8789 Q689.9414,130.4883 689.7266,130.2734 Q689.3359,129.8633 688.6328,129.6289 Q687.9297,129.375 687.2266,129.375 Q686.3477,129.375 685.6055,129.7266 Q684.8828,130.0781 684.3164,130.8594 Q683.75,131.6406 683.75,132.7148 L683.75,133.8672 Q683.75,135.1563 684.8047,136.0156 Q685.8594,136.875 687.7344,136.875 Q688.8477,136.875 689.6289,136.6211 Q690.0781,136.4844 690.5859,136.0352 Q690.918,135.7813 691.0938,135.7031 Q691.2695,135.625 691.4844,135.625 Q691.8945,135.625 692.1875,135.957 Q692.5,136.2695 692.5,136.7188 Q692.5,137.1484 692.0703,137.6563 Q691.4453,138.3984 690.4492,138.8086 Q689.1406,139.375 687.5391,139.375 Q685.6641,139.375 684.1602,138.6328 Q682.9492,138.0469 682.0898,136.7773 Q681.25,135.5078 681.25,134.0039 L681.25,132.6367 Q681.25,131.0742 681.9922,129.707 Q682.7539,128.3398 684.0625,127.6172 Q685.3906,126.875 686.875,126.875 Q687.7734,126.875 688.5547,127.1875 Q689.3359,127.5 690,128.125 Z " fill="#000000"/><text fill="#000000" font-family="sans-serif" font-size="15" lengthAdjust="spacingAndGlyphs" textLength="172.5" x="705" y="138.6377">DeliveryRouteCalculation</text><line style="stroke:#A80036;stroke-width:1.875;" x1="670" x2="880" y1="152.5" y2="152.5"/><line style="stroke:#A80036;stroke-width:1.875;" x1="670" x2="880" y1="162.5" y2="162.5"/><text fill="#000000" font-family="sans-serif" font-size="13.75" lengthAdjust="spacingAndGlyphs" textLength="145" x="676.25" y="181.7737">+getAddressToDeliver()</text><text fill="#000000" font-family="sans-serif" font-size="13.75" lengthAdjust="spacingAndGlyphs" textLength="140" x="676.25" y="199.0686">+createDeliveryRoute()</text><!--MD5=[47b251c7d240eebe71e60a484b4e00c1]
class DeliveryRoute--><rect codeLine="21" fill="#FEFECE" filter="url(#f11uaz2i5f4x)" height="129.1797" id="DeliveryRoute" style="stroke:#A80036;stroke-width:1.875;" width="275" x="957.5" y="95.625"/><ellipse cx="1042.1875" cy="115.625" fill="#ADD1B2" rx="13.75" ry="13.75" style="stroke:#A80036;stroke-width:1.25;"/><path d="M1044.6875,111.25 Q1044.9414,110.625 1045.2344,110.3125 Q1045.5273,110 1045.8594,110 Q1046.4453,110 1046.8164,110.3516 Q1047.1875,110.7031 1047.1875,111.5234 L1047.1875,113.4766 Q1047.1875,114.2969 1046.8359,114.6484 Q1046.4844,115 1045.9375,115 Q1045.4492,115 1045.1367,114.7852 Q1044.8242,114.5703 1044.6875,114.0039 Q1044.6289,113.6133 1044.4141,113.3984 Q1044.0234,112.9883 1043.3203,112.7539 Q1042.6172,112.5 1041.9141,112.5 Q1041.0352,112.5 1040.293,112.8516 Q1039.5703,113.2031 1039.0039,113.9844 Q1038.4375,114.7656 1038.4375,115.8398 L1038.4375,116.9922 Q1038.4375,118.2813 1039.4922,119.1406 Q1040.5469,120 1042.4219,120 Q1043.5352,120 1044.3164,119.7461 Q1044.7656,119.6094 1045.2734,119.1602 Q1045.6055,118.9063 1045.7813,118.8281 Q1045.957,118.75 1046.1719,118.75 Q1046.582,118.75 1046.875,119.082 Q1047.1875,119.3945 1047.1875,119.8438 Q1047.1875,120.2734 1046.7578,120.7813 Q1046.1328,121.5234 1045.1367,121.9336 Q1043.8281,122.5 1042.2266,122.5 Q1040.3516,122.5 1038.8477,121.7578 Q1037.6367,121.1719 1036.7773,119.9023 Q1035.9375,118.6328 1035.9375,117.1289 L1035.9375,115.7617 Q1035.9375,114.1992 1036.6797,112.832 Q1037.4414,111.4648 1038.75,110.7422 Q1040.0781,110 1041.5625,110 Q1042.4609,110 1043.2422,110.3125 Q1044.0234,110.625 1044.6875,111.25 Z " fill="#000000"/><text fill="#000000" font-family="sans-serif" font-size="15" lengthAdjust="spacingAndGlyphs" textLength="95" x="1067.8125" y="121.7627">DeliveryRoute</text><line style="stroke:#A80036;stroke-width:1.875;" x1="958.75" x2="1231.25" y1="135.625" y2="135.625"/><text fill="#000000" font-family="sans-serif" font-size="13.75" lengthAdjust="spacingAndGlyphs" textLength="100" x="965" y="154.8987">-Graph Proximity</text><text fill="#000000" font-family="sans-serif" font-size="13.75" lengthAdjust="spacingAndGlyphs" textLength="130" x="965" y="172.1936">-Graph DeliveryRoute</text><line style="stroke:#A80036;stroke-width:1.875;" x1="958.75" x2="1231.25" y1="180.2148" y2="180.2148"/><text fill="#000000" font-family="sans-serif" font-size="13.75" lengthAdjust="spacingAndGlyphs" textLength="155" x="965" y="199.4885">+generateDeliveryRoute()</text><text fill="#000000" font-family="sans-serif" font-size="13.75" lengthAdjust="spacingAndGlyphs" textLength="260" x="965" y="216.7834">+calculateShorthestPathVisitingAdresses()</text><!--MD5=[cf4d6237fcae255cd2e1656cf84a30e2]
class Order--><rect codeLine="29" fill="#FEFECE" filter="url(#f11uaz2i5f4x)" height="94.5898" id="Order" style="stroke:#A80036;stroke-width:1.875;" width="113.75" x="1355" y="112.5"/><ellipse cx="1389.5" cy="132.5" fill="#ADD1B2" rx="13.75" ry="13.75" style="stroke:#A80036;stroke-width:1.25;"/><path d="M1392,128.125 Q1392.2539,127.5 1392.5469,127.1875 Q1392.8398,126.875 1393.1719,126.875 Q1393.7578,126.875 1394.1289,127.2266 Q1394.5,127.5781 1394.5,128.3984 L1394.5,130.3516 Q1394.5,131.1719 1394.1484,131.5234 Q1393.7969,131.875 1393.25,131.875 Q1392.7617,131.875 1392.4492,131.6602 Q1392.1367,131.4453 1392,130.8789 Q1391.9414,130.4883 1391.7266,130.2734 Q1391.3359,129.8633 1390.6328,129.6289 Q1389.9297,129.375 1389.2266,129.375 Q1388.3477,129.375 1387.6055,129.7266 Q1386.8828,130.0781 1386.3164,130.8594 Q1385.75,131.6406 1385.75,132.7148 L1385.75,133.8672 Q1385.75,135.1563 1386.8047,136.0156 Q1387.8594,136.875 1389.7344,136.875 Q1390.8477,136.875 1391.6289,136.6211 Q1392.0781,136.4844 1392.5859,136.0352 Q1392.918,135.7813 1393.0938,135.7031 Q1393.2695,135.625 1393.4844,135.625 Q1393.8945,135.625 1394.1875,135.957 Q1394.5,136.2695 1394.5,136.7188 Q1394.5,137.1484 1394.0703,137.6563 Q1393.4453,138.3984 1392.4492,138.8086 Q1391.1406,139.375 1389.5391,139.375 Q1387.6641,139.375 1386.1602,138.6328 Q1384.9492,138.0469 1384.0898,136.7773 Q1383.25,135.5078 1383.25,134.0039 L1383.25,132.6367 Q1383.25,131.0742 1383.9922,129.707 Q1384.7539,128.3398 1386.0625,127.6172 Q1387.3906,126.875 1388.875,126.875 Q1389.7734,126.875 1390.5547,127.1875 Q1391.3359,127.5 1392,128.125 Z " fill="#000000"/><text fill="#000000" font-family="sans-serif" font-size="15" lengthAdjust="spacingAndGlyphs" textLength="38.75" x="1410.5" y="138.6377">Order</text><line style="stroke:#A80036;stroke-width:1.875;" x1="1356.25" x2="1467.5" y1="152.5" y2="152.5"/><text fill="#000000" font-family="sans-serif" font-size="13.75" lengthAdjust="spacingAndGlyphs" textLength="65" x="1362.5" y="171.7737">-int clientID</text><line style="stroke:#A80036;stroke-width:1.875;" x1="1356.25" x2="1467.5" y1="179.7949" y2="179.7949"/><text fill="#000000" font-family="sans-serif" font-size="13.75" lengthAdjust="spacingAndGlyphs" textLength="98.75" x="1362.5" y="199.0686">-getCoordinate()</text><!--MD5=[ed6624c6556d5e7b1bd23032162d20b7]
class Client--><rect codeLine="34" fill="#FEFECE" filter="url(#f11uaz2i5f4x)" height="111.8848" id="Client" style="stroke:#A80036;stroke-width:1.875;" width="137.5" x="1621.25" y="103.75"/><ellipse cx="1665.875" cy="123.75" fill="#ADD1B2" rx="13.75" ry="13.75" style="stroke:#A80036;stroke-width:1.25;"/><path d="M1668.375,119.375 Q1668.6289,118.75 1668.9219,118.4375 Q1669.2148,118.125 1669.5469,118.125 Q1670.1328,118.125 1670.5039,118.4766 Q1670.875,118.8281 1670.875,119.6484 L1670.875,121.6016 Q1670.875,122.4219 1670.5234,122.7734 Q1670.1719,123.125 1669.625,123.125 Q1669.1367,123.125 1668.8242,122.9102 Q1668.5117,122.6953 1668.375,122.1289 Q1668.3164,121.7383 1668.1016,121.5234 Q1667.7109,121.1133 1667.0078,120.8789 Q1666.3047,120.625 1665.6016,120.625 Q1664.7227,120.625 1663.9805,120.9766 Q1663.2578,121.3281 1662.6914,122.1094 Q1662.125,122.8906 1662.125,123.9648 L1662.125,125.1172 Q1662.125,126.4063 1663.1797,127.2656 Q1664.2344,128.125 1666.1094,128.125 Q1667.2227,128.125 1668.0039,127.8711 Q1668.4531,127.7344 1668.9609,127.2852 Q1669.293,127.0313 1669.4688,126.9531 Q1669.6445,126.875 1669.8594,126.875 Q1670.2695,126.875 1670.5625,127.207 Q1670.875,127.5195 1670.875,127.9688 Q1670.875,128.3984 1670.4453,128.9063 Q1669.8203,129.6484 1668.8242,130.0586 Q1667.5156,130.625 1665.9141,130.625 Q1664.0391,130.625 1662.5352,129.8828 Q1661.3242,129.2969 1660.4648,128.0273 Q1659.625,126.7578 1659.625,125.2539 L1659.625,123.8867 Q1659.625,122.3242 1660.3672,120.957 Q1661.1289,119.5898 1662.4375,118.8672 Q1663.7656,118.125 1665.25,118.125 Q1666.1484,118.125 1666.9297,118.4375 Q1667.7109,118.75 1668.375,119.375 Z " fill="#000000"/><text fill="#000000" font-family="sans-serif" font-size="15" lengthAdjust="spacingAndGlyphs" textLength="40" x="1689.125" y="129.8877">Client</text><line style="stroke:#A80036;stroke-width:1.875;" x1="1622.5" x2="1757.5" y1="143.75" y2="143.75"/><text fill="#000000" font-family="sans-serif" font-size="13.75" lengthAdjust="spacingAndGlyphs" textLength="121.25" x="1628.75" y="163.0237">-double coordinateX</text><text fill="#000000" font-family="sans-serif" font-size="13.75" lengthAdjust="spacingAndGlyphs" textLength="122.5" x="1628.75" y="180.3186">-double coordinateY</text><line style="stroke:#A80036;stroke-width:1.875;" x1="1622.5" x2="1757.5" y1="188.3398" y2="188.3398"/><text fill="#000000" font-family="sans-serif" font-size="13.75" lengthAdjust="spacingAndGlyphs" textLength="101.25" x="1628.75" y="207.6135">+getCoordinate()</text><!--MD5=[b86bbc05bae05736c9a898f906b407d7]
link DeliveryRouteCalculationUI to DeliveryRouteCalculationController--><path codeLine="40" d="M236.4625,100 C258.7875,100 282.5125,100 305.75,100 " fill="none" id="DeliveryRouteCalculationUI-to-DeliveryRouteCalculationController" style="stroke:#A80036;stroke-width:1.25;stroke-dasharray:7.0,7.0;"/><polygon fill="#A80036" points="312.2875,100,301.0375,95,306.0375,100,301.0375,105,312.2875,100" style="stroke:#A80036;stroke-width:1.25;"/><!--MD5=[aac38483157b587621aee59d23088f71]
link DeliveryRouteCalculationController to Platform--><path codeLine="41" d="M592.7125,73.4 C637.65,64.8 684.8375,55.7625 719.7625,49.0875 " fill="none" id="DeliveryRouteCalculationController-to-Platform" style="stroke:#A80036;stroke-width:1.25;stroke-dasharray:7.0,7.0;"/><polygon fill="#A80036" points="726.15,47.8625,714.1673,45.0382,720.0087,49.0229,716.0239,54.8643,726.15,47.8625" style="stroke:#A80036;stroke-width:1.25;"/><!--MD5=[f89df5d5cb7a57a6e78a7121f8ba722d]
link DeliveryRouteCalculationController to DeliveryRouteCalculation--><path codeLine="42" d="M592.7125,126.05 C615.9875,130.425 639.875,134.9 662.35,139.1125 " fill="none" id="DeliveryRouteCalculationController-to-DeliveryRouteCalculation" style="stroke:#A80036;stroke-width:1.25;stroke-dasharray:7.0,7.0;"/><polygon fill="#A80036" points="668.65,140.2875,658.5239,133.2857,662.5087,139.1271,656.6673,143.1118,668.65,140.2875" style="stroke:#A80036;stroke-width:1.25;"/><!--MD5=[a35f3b04072a24105e78b7227d4acaa4]
link DeliveryRouteCalculation to DeliveryRoute--><path codeLine="43" d="M881.5375,160 C903.6375,160 927.3125,160 950.55,160 " fill="none" id="DeliveryRouteCalculation-to-DeliveryRoute" style="stroke:#A80036;stroke-width:1.25;stroke-dasharray:7.0,7.0;"/><polygon fill="#A80036" points="957.0875,160,945.8375,155,950.8375,160,945.8375,165,957.0875,160" style="stroke:#A80036;stroke-width:1.25;"/><!--MD5=[baf19fc617db6b5f83c42fe37bb87b3e]
link DeliveryRoute to Order--><path codeLine="44" d="M1232.7625,160 C1275.6875,160 1320.7,160 1354.7,160 " fill="none" id="DeliveryRoute-Order" style="stroke:#A80036;stroke-width:1.25;"/><polygon fill="#000000" points="1282.5,148.9697,1271.1936,145.2961,1271.1936,152.6434,1282.5,148.9697" style="stroke:#000000;stroke-width:1.25;"/><text fill="#000000" font-family="sans-serif" font-size="16.25" lengthAdjust="spacingAndGlyphs" textLength="28.75" x="1287.5" y="155.6189">Has</text><text fill="#000000" font-family="sans-serif" font-size="16.25" lengthAdjust="spacingAndGlyphs" textLength="8.75" x="1242.3124" y="177.5411">1</text><text fill="#000000" font-family="sans-serif" font-size="16.25" lengthAdjust="spacingAndGlyphs" textLength="25" x="1319.902" y="178.3349">1..*</text><!--MD5=[b4eabd1a63a4ad1f2f93b60573323bf1]
link Order to Client--><path codeLine="45" d="M1468.9,160 C1512.7875,160 1574.125,160 1620.8625,160 " fill="none" id="Order-Client" style="stroke:#A80036;stroke-width:1.25;"/><polygon fill="#000000" points="1518.75,148.9697,1507.4436,145.2961,1507.4436,152.6434,1518.75,148.9697" style="stroke:#000000;stroke-width:1.25;"/><text fill="#000000" font-family="sans-serif" font-size="16.25" lengthAdjust="spacingAndGlyphs" textLength="58.75" x="1523.75" y="155.6189">refers to</text><text fill="#000000" font-family="sans-serif" font-size="16.25" lengthAdjust="spacingAndGlyphs" textLength="8.75" x="1478.6856" y="178.5303">1</text><text fill="#000000" font-family="sans-serif" font-size="16.25" lengthAdjust="spacingAndGlyphs" textLength="8.75" x="1602.6937" y="178.2177">1</text><!--MD5=[879a3a38f1d216a81cfdd9c7d77fa987]
@startuml
skinparam classAttributeIconSize 0

left to right direction

class Platform {
}

class DeliveryRouteCalculationUI{
}

class DeliveryRouteCalculationController {
 +getDeliveryRoute()
}


class DeliveryRouteCalculation {
  +getAddressToDeliver()
  +createDeliveryRoute()
}

class DeliveryRoute {
  -Graph Proximity
  -Graph DeliveryRoute
  +generateDeliveryRoute()
  +calculateShorthestPathVisitingAdresses()

}

class Order{
    -int clientID
    -getCoordinate()
}

class Client{
    -double coordinateX
    -double coordinateY
    +getCoordinate()
}

DeliveryRouteCalculationUI ..> DeliveryRouteCalculationController
DeliveryRouteCalculationController ..> Platform
DeliveryRouteCalculationController ..> DeliveryRouteCalculation
DeliveryRouteCalculation ..> DeliveryRoute
DeliveryRoute "1" - - "1..*" Order : Has >
Order "1" - - "1" Client : refers to >



@enduml

PlantUML version 1.2020.23(Sun Dec 13 19:14:58 GMT 2020)
(GPL source distribution)
Java Runtime: OpenJDK Runtime Environment
JVM: OpenJDK 64-Bit Server VM
Default Encoding: Cp1252
Language: pt
Country: PT
--></g></svg>