<?xml version="1.0" encoding="UTF-8" standalone="no"?><svg xmlns="http://www.w3.org/2000/svg" xmlns:xlink="http://www.w3.org/1999/xlink" contentScriptType="application/ecmascript" contentStyleType="text/css" height="432.5px" preserveAspectRatio="none" style="width:1063px;height:432px;" version="1.1" viewBox="0 0 1063 432" width="1063.75px" zoomAndPan="magnify"><defs><filter height="300%" id="f171gna1wa8l84" width="300%" x="-1" y="-1"><feGaussianBlur result="blurOut" stdDeviation="2.5"/><feColorMatrix in="blurOut" result="blurOut2" type="matrix" values="0 0 0 0 0 0 0 0 0 0 0 0 0 0 0 0 0 0 .4 0"/><feOffset dx="5.0" dy="5.0" in="blurOut2" result="blurOut3"/><feBlend in="SourceGraphic" in2="blurOut3" mode="normal"/></filter></defs><g><!--MD5=[99b8db98afdc2c8404e39242ef4c1e65]
class Platform--><rect codeLine="5" fill="#FEFECE" filter="url(#f171gna1wa8l84)" height="60" id="Platform" style="stroke: #A80036; stroke-width: 1.875;" width="97.5" x="512.5" y="8.75"/><ellipse cx="531.25" cy="28.75" fill="#ADD1B2" rx="13.75" ry="13.75" style="stroke: #A80036; stroke-width: 1.25;"/><path d="M533.75,24.375 Q534.0039,23.75 534.2969,23.4375 Q534.5898,23.125 534.9219,23.125 Q535.5078,23.125 535.8789,23.4766 Q536.25,23.8281 536.25,24.6484 L536.25,26.6016 Q536.25,27.4219 535.8984,27.7734 Q535.5469,28.125 535,28.125 Q534.5117,28.125 534.1992,27.9102 Q533.8867,27.6953 533.75,27.1289 Q533.6914,26.7383 533.4766,26.5234 Q533.0859,26.1133 532.3828,25.8789 Q531.6797,25.625 530.9766,25.625 Q530.0977,25.625 529.3555,25.9766 Q528.6328,26.3281 528.0664,27.1094 Q527.5,27.8906 527.5,28.9648 L527.5,30.1172 Q527.5,31.4063 528.5547,32.2656 Q529.6094,33.125 531.4844,33.125 Q532.5977,33.125 533.3789,32.8711 Q533.8281,32.7344 534.3359,32.2852 Q534.668,32.0313 534.8438,31.9531 Q535.0195,31.875 535.2344,31.875 Q535.6445,31.875 535.9375,32.207 Q536.25,32.5195 536.25,32.9688 Q536.25,33.3984 535.8203,33.9063 Q535.1953,34.6484 534.1992,35.0586 Q532.8906,35.625 531.2891,35.625 Q529.4141,35.625 527.9102,34.8828 Q526.6992,34.2969 525.8398,33.0273 Q525,31.7578 525,30.2539 L525,28.8867 Q525,27.3242 525.7422,25.957 Q526.5039,24.5898 527.8125,23.8672 Q529.1406,23.125 530.625,23.125 Q531.5234,23.125 532.3047,23.4375 Q533.0859,23.75 533.75,24.375 Z " fill="#000000"/><text fill="#000000" font-family="sans-serif" font-size="15" lengthAdjust="spacingAndGlyphs" textLength="57.5" x="548.75" y="34.8877">Platform</text><line style="stroke: #A80036; stroke-width: 1.875;" x1="513.75" x2="608.75" y1="48.75" y2="48.75"/><line style="stroke: #A80036; stroke-width: 1.875;" x1="513.75" x2="608.75" y1="58.75" y2="58.75"/><!--MD5=[748dbd47e91710b9ae1c8e6d9df4044d]
class ClientLogInUI--><rect codeLine="8" fill="#FEFECE" filter="url(#f171gna1wa8l84)" height="60" id="ClientLogInUI" style="stroke: #A80036; stroke-width: 1.875;" width="133.75" x="8.75" y="121.25"/><ellipse cx="27.5" cy="141.25" fill="#ADD1B2" rx="13.75" ry="13.75" style="stroke: #A80036; stroke-width: 1.25;"/><path d="M30,136.875 Q30.2539,136.25 30.5469,135.9375 Q30.8398,135.625 31.1719,135.625 Q31.7578,135.625 32.1289,135.9766 Q32.5,136.3281 32.5,137.1484 L32.5,139.1016 Q32.5,139.9219 32.1484,140.2734 Q31.7969,140.625 31.25,140.625 Q30.7617,140.625 30.4492,140.4102 Q30.1367,140.1953 30,139.6289 Q29.9414,139.2383 29.7266,139.0234 Q29.3359,138.6133 28.6328,138.3789 Q27.9297,138.125 27.2266,138.125 Q26.3477,138.125 25.6055,138.4766 Q24.8828,138.8281 24.3164,139.6094 Q23.75,140.3906 23.75,141.4648 L23.75,142.6172 Q23.75,143.9063 24.8047,144.7656 Q25.8594,145.625 27.7344,145.625 Q28.8477,145.625 29.6289,145.3711 Q30.0781,145.2344 30.5859,144.7852 Q30.918,144.5313 31.0938,144.4531 Q31.2695,144.375 31.4844,144.375 Q31.8945,144.375 32.1875,144.707 Q32.5,145.0195 32.5,145.4688 Q32.5,145.8984 32.0703,146.4063 Q31.4453,147.1484 30.4492,147.5586 Q29.1406,148.125 27.5391,148.125 Q25.6641,148.125 24.1602,147.3828 Q22.9492,146.7969 22.0898,145.5273 Q21.25,144.2578 21.25,142.7539 L21.25,141.3867 Q21.25,139.8242 21.9922,138.457 Q22.7539,137.0898 24.0625,136.3672 Q25.3906,135.625 26.875,135.625 Q27.7734,135.625 28.5547,135.9375 Q29.3359,136.25 30,136.875 Z " fill="#000000"/><text fill="#000000" font-family="sans-serif" font-size="15" lengthAdjust="spacingAndGlyphs" textLength="93.75" x="45" y="147.3877">ClientLogInUI</text><line style="stroke: #A80036; stroke-width: 1.875;" x1="10" x2="141.25" y1="161.25" y2="161.25"/><line style="stroke: #A80036; stroke-width: 1.875;" x1="10" x2="141.25" y1="171.25" y2="171.25"/><!--MD5=[d9cb3587190d2a8911f84850cadc7f6a]
class ClientLogInController--><rect codeLine="11" fill="#FEFECE" filter="url(#f171gna1wa8l84)" height="77.2949" id="ClientLogInController" style="stroke: #A80036; stroke-width: 1.875;" width="186.25" x="218.75" y="112.5"/><ellipse cx="237.5" cy="132.5" fill="#ADD1B2" rx="13.75" ry="13.75" style="stroke: #A80036; stroke-width: 1.25;"/><path d="M240,128.125 Q240.2539,127.5 240.5469,127.1875 Q240.8398,126.875 241.1719,126.875 Q241.7578,126.875 242.1289,127.2266 Q242.5,127.5781 242.5,128.3984 L242.5,130.3516 Q242.5,131.1719 242.1484,131.5234 Q241.7969,131.875 241.25,131.875 Q240.7617,131.875 240.4492,131.6602 Q240.1367,131.4453 240,130.8789 Q239.9414,130.4883 239.7266,130.2734 Q239.3359,129.8633 238.6328,129.6289 Q237.9297,129.375 237.2266,129.375 Q236.3477,129.375 235.6055,129.7266 Q234.8828,130.0781 234.3164,130.8594 Q233.75,131.6406 233.75,132.7148 L233.75,133.8672 Q233.75,135.1563 234.8047,136.0156 Q235.8594,136.875 237.7344,136.875 Q238.8477,136.875 239.6289,136.6211 Q240.0781,136.4844 240.5859,136.0352 Q240.918,135.7813 241.0938,135.7031 Q241.2695,135.625 241.4844,135.625 Q241.8945,135.625 242.1875,135.957 Q242.5,136.2695 242.5,136.7188 Q242.5,137.1484 242.0703,137.6563 Q241.4453,138.3984 240.4492,138.8086 Q239.1406,139.375 237.5391,139.375 Q235.6641,139.375 234.1602,138.6328 Q232.9492,138.0469 232.0898,136.7773 Q231.25,135.5078 231.25,134.0039 L231.25,132.6367 Q231.25,131.0742 231.9922,129.707 Q232.7539,128.3398 234.0625,127.6172 Q235.3906,126.875 236.875,126.875 Q237.7734,126.875 238.5547,127.1875 Q239.3359,127.5 240,128.125 Z " fill="#000000"/><text fill="#000000" font-family="sans-serif" font-size="15" lengthAdjust="spacingAndGlyphs" textLength="146.25" x="255" y="138.6377">ClientLogInController</text><line style="stroke: #A80036; stroke-width: 1.875;" x1="220" x2="403.75" y1="152.5" y2="152.5"/><line style="stroke: #A80036; stroke-width: 1.875;" x1="220" x2="403.75" y1="162.5" y2="162.5"/><text fill="#000000" font-family="sans-serif" font-size="13.75" lengthAdjust="spacingAndGlyphs" textLength="145" x="226.25" y="181.7737">+logIn(email, password)</text><!--MD5=[9d2b951f1bfd03b8512fc4bfa7b9de5d]
class LogIn--><rect codeLine="16" fill="#FEFECE" filter="url(#f171gna1wa8l84)" height="77.2949" id="LogIn" style="stroke: #A80036; stroke-width: 1.875;" width="160" x="481.25" y="112.5"/><ellipse cx="536.5625" cy="132.5" fill="#ADD1B2" rx="13.75" ry="13.75" style="stroke: #A80036; stroke-width: 1.25;"/><path d="M539.0625,128.125 Q539.3164,127.5 539.6094,127.1875 Q539.9023,126.875 540.2344,126.875 Q540.8203,126.875 541.1914,127.2266 Q541.5625,127.5781 541.5625,128.3984 L541.5625,130.3516 Q541.5625,131.1719 541.2109,131.5234 Q540.8594,131.875 540.3125,131.875 Q539.8242,131.875 539.5117,131.6602 Q539.1992,131.4453 539.0625,130.8789 Q539.0039,130.4883 538.7891,130.2734 Q538.3984,129.8633 537.6953,129.6289 Q536.9922,129.375 536.2891,129.375 Q535.4102,129.375 534.668,129.7266 Q533.9453,130.0781 533.3789,130.8594 Q532.8125,131.6406 532.8125,132.7148 L532.8125,133.8672 Q532.8125,135.1563 533.8672,136.0156 Q534.9219,136.875 536.7969,136.875 Q537.9102,136.875 538.6914,136.6211 Q539.1406,136.4844 539.6484,136.0352 Q539.9805,135.7813 540.1563,135.7031 Q540.332,135.625 540.5469,135.625 Q540.957,135.625 541.25,135.957 Q541.5625,136.2695 541.5625,136.7188 Q541.5625,137.1484 541.1328,137.6563 Q540.5078,138.3984 539.5117,138.8086 Q538.2031,139.375 536.6016,139.375 Q534.7266,139.375 533.2227,138.6328 Q532.0117,138.0469 531.1523,136.7773 Q530.3125,135.5078 530.3125,134.0039 L530.3125,132.6367 Q530.3125,131.0742 531.0547,129.707 Q531.8164,128.3398 533.125,127.6172 Q534.4531,126.875 535.9375,126.875 Q536.8359,126.875 537.6172,127.1875 Q538.3984,127.5 539.0625,128.125 Z " fill="#000000"/><text fill="#000000" font-family="sans-serif" font-size="15" lengthAdjust="spacingAndGlyphs" textLength="38.75" x="562.1875" y="138.6377">LogIn</text><line style="stroke: #A80036; stroke-width: 1.875;" x1="482.5" x2="640" y1="152.5" y2="152.5"/><line style="stroke: #A80036; stroke-width: 1.875;" x1="482.5" x2="640" y1="162.5" y2="162.5"/><text fill="#000000" font-family="sans-serif" font-size="13.75" lengthAdjust="spacingAndGlyphs" textLength="145" x="488.75" y="181.7737">+logIn(email, password)</text><!--MD5=[3fd616f346a44cd59a91eb10b19e157c]
class User--><rect codeLine="20" fill="#FEFECE" filter="url(#f171gna1wa8l84)" height="146.4746" id="User" style="stroke: #A80036; stroke-width: 1.875;" width="197.5" x="848.75" y="153.125"/><ellipse cx="925.3125" cy="173.125" fill="#ADD1B2" rx="13.75" ry="13.75" style="stroke: #A80036; stroke-width: 1.25;"/><path d="M927.8125,168.75 Q928.0664,168.125 928.3594,167.8125 Q928.6523,167.5 928.9844,167.5 Q929.5703,167.5 929.9414,167.8516 Q930.3125,168.2031 930.3125,169.0234 L930.3125,170.9766 Q930.3125,171.7969 929.9609,172.1484 Q929.6094,172.5 929.0625,172.5 Q928.5742,172.5 928.2617,172.2852 Q927.9492,172.0703 927.8125,171.5039 Q927.7539,171.1133 927.5391,170.8984 Q927.1484,170.4883 926.4453,170.2539 Q925.7422,170 925.0391,170 Q924.1602,170 923.418,170.3516 Q922.6953,170.7031 922.1289,171.4844 Q921.5625,172.2656 921.5625,173.3398 L921.5625,174.4922 Q921.5625,175.7813 922.6172,176.6406 Q923.6719,177.5 925.5469,177.5 Q926.6602,177.5 927.4414,177.2461 Q927.8906,177.1094 928.3984,176.6602 Q928.7305,176.4063 928.9063,176.3281 Q929.082,176.25 929.2969,176.25 Q929.707,176.25 930,176.582 Q930.3125,176.8945 930.3125,177.3438 Q930.3125,177.7734 929.8828,178.2813 Q929.2578,179.0234 928.2617,179.4336 Q926.9531,180 925.3516,180 Q923.4766,180 921.9727,179.2578 Q920.7617,178.6719 919.9023,177.4023 Q919.0625,176.1328 919.0625,174.6289 L919.0625,173.2617 Q919.0625,171.6992 919.8047,170.332 Q920.5664,168.9648 921.875,168.2422 Q923.2031,167.5 924.6875,167.5 Q925.5859,167.5 926.3672,167.8125 Q927.1484,168.125 927.8125,168.75 Z " fill="#000000"/><text fill="#000000" font-family="sans-serif" font-size="15" lengthAdjust="spacingAndGlyphs" textLength="33.75" x="950.9375" y="179.2627">User</text><line style="stroke: #A80036; stroke-width: 1.875;" x1="850" x2="1045" y1="193.125" y2="193.125"/><text fill="#000000" font-family="sans-serif" font-size="13.75" lengthAdjust="spacingAndGlyphs" textLength="73.75" x="856.25" y="212.3987">-String email</text><text fill="#000000" font-family="sans-serif" font-size="13.75" lengthAdjust="spacingAndGlyphs" textLength="106.25" x="856.25" y="229.6936">-String password</text><text fill="#000000" font-family="sans-serif" font-size="13.75" lengthAdjust="spacingAndGlyphs" textLength="105" x="856.25" y="246.9885">-String user_type</text><line style="stroke: #A80036; stroke-width: 1.875;" x1="850" x2="1045" y1="255.0098" y2="255.0098"/><text fill="#000000" font-family="sans-serif" font-size="13.75" lengthAdjust="spacingAndGlyphs" textLength="182.5" x="856.25" y="274.2834">+checkUser(email, password)</text><text fill="#000000" font-family="sans-serif" font-size="13.75" lengthAdjust="spacingAndGlyphs" textLength="95" x="856.25" y="291.5784">+getUserType()</text><!--MD5=[ed6624c6556d5e7b1bd23032162d20b7]
class Client--><rect codeLine="28" fill="#FEFECE" filter="url(#f171gna1wa8l84)" height="181.0645" id="Client" style="stroke: #A80036; stroke-width: 1.875;" width="146.25" x="488.125" y="234.375"/><ellipse cx="536.6875" cy="254.375" fill="#ADD1B2" rx="13.75" ry="13.75" style="stroke: #A80036; stroke-width: 1.25;"/><path d="M539.1875,250 Q539.4414,249.375 539.7344,249.0625 Q540.0273,248.75 540.3594,248.75 Q540.9453,248.75 541.3164,249.1016 Q541.6875,249.4531 541.6875,250.2734 L541.6875,252.2266 Q541.6875,253.0469 541.3359,253.3984 Q540.9844,253.75 540.4375,253.75 Q539.9492,253.75 539.6367,253.5352 Q539.3242,253.3203 539.1875,252.7539 Q539.1289,252.3633 538.9141,252.1484 Q538.5234,251.7383 537.8203,251.5039 Q537.1172,251.25 536.4141,251.25 Q535.5352,251.25 534.793,251.6016 Q534.0703,251.9531 533.5039,252.7344 Q532.9375,253.5156 532.9375,254.5898 L532.9375,255.7422 Q532.9375,257.0313 533.9922,257.8906 Q535.0469,258.75 536.9219,258.75 Q538.0352,258.75 538.8164,258.4961 Q539.2656,258.3594 539.7734,257.9102 Q540.1055,257.6563 540.2813,257.5781 Q540.457,257.5 540.6719,257.5 Q541.082,257.5 541.375,257.832 Q541.6875,258.1445 541.6875,258.5938 Q541.6875,259.0234 541.2578,259.5313 Q540.6328,260.2734 539.6367,260.6836 Q538.3281,261.25 536.7266,261.25 Q534.8516,261.25 533.3477,260.5078 Q532.1367,259.9219 531.2773,258.6523 Q530.4375,257.3828 530.4375,255.8789 L530.4375,254.5117 Q530.4375,252.9492 531.1797,251.582 Q531.9414,250.2148 533.25,249.4922 Q534.5781,248.75 536.0625,248.75 Q536.9609,248.75 537.7422,249.0625 Q538.5234,249.375 539.1875,250 Z " fill="#000000"/><text fill="#000000" font-family="sans-serif" font-size="15" lengthAdjust="spacingAndGlyphs" textLength="40" x="560.8125" y="260.5127">Client</text><line style="stroke: #A80036; stroke-width: 1.875;" x1="489.375" x2="633.125" y1="274.375" y2="274.375"/><text fill="#000000" font-family="sans-serif" font-size="13.75" lengthAdjust="spacingAndGlyphs" textLength="76.25" x="495.625" y="293.6487">-String name</text><text fill="#000000" font-family="sans-serif" font-size="13.75" lengthAdjust="spacingAndGlyphs" textLength="73.75" x="495.625" y="310.9436">-String email</text><text fill="#000000" font-family="sans-serif" font-size="13.75" lengthAdjust="spacingAndGlyphs" textLength="41.25" x="495.625" y="328.2385">-int NIF</text><text fill="#000000" font-family="sans-serif" font-size="13.75" lengthAdjust="spacingAndGlyphs" textLength="131.25" x="495.625" y="345.5334">-int creditCardNumber</text><text fill="#000000" font-family="sans-serif" font-size="13.75" lengthAdjust="spacingAndGlyphs" textLength="128.75" x="495.625" y="362.8284">-int creditCardValidity</text><text fill="#000000" font-family="sans-serif" font-size="13.75" lengthAdjust="spacingAndGlyphs" textLength="45" x="495.625" y="380.1233">-int ccv</text><text fill="#000000" font-family="sans-serif" font-size="13.75" lengthAdjust="spacingAndGlyphs" textLength="111.25" x="495.625" y="397.4182">-Address address</text><line style="stroke: #A80036; stroke-width: 1.875;" x1="489.375" x2="633.125" y1="405.4395" y2="405.4395"/><!--MD5=[fe084896f7434490d5a5a73c3138cd80]
link ClientLogInUI to ClientLogInController--><path codeLine="39" d="M142.61,151.25 C164.0863,151.25 188.4325,151.25 211.7938,151.25 " fill="none" id="ClientLogInUI-to-ClientLogInController" style="stroke: #A80036; stroke-width: 1.25; stroke-dasharray: 7.0,7.0;"/><polygon fill="#A80036" points="218.3538,151.25,207.1038,146.25,212.1038,151.25,207.1038,156.25,218.3538,151.25" style="stroke: #A80036; stroke-width: 1.25;"/><!--MD5=[859105209be83d613e3855652d897b2b]
link ClientLogInController to Platform--><path codeLine="40" d="M398.4313,112.3763 C434.3813,95.9937 475.1163,77.4312 506.6913,63.0425 " fill="none" id="ClientLogInController-to-Platform" style="stroke: #A80036; stroke-width: 1.25; stroke-dasharray: 7.0,7.0;"/><polygon fill="#A80036" points="512.4762,60.4062,500.1657,60.5202,506.7887,62.9974,504.3115,69.6203,512.4762,60.4062" style="stroke: #A80036; stroke-width: 1.25;"/><!--MD5=[7fb11aacdd0f98b7e1587cbea8ea5fd1]
link ClientLogInController to LogIn--><path codeLine="41" d="M405.0525,151.25 C427.8588,151.25 452.2025,151.25 474.6775,151.25 " fill="none" id="ClientLogInController-to-LogIn" style="stroke: #A80036; stroke-width: 1.25; stroke-dasharray: 7.0,7.0;"/><polygon fill="#A80036" points="480.9638,151.25,469.7138,146.25,474.7138,151.25,469.7138,156.25,480.9638,151.25" style="stroke: #A80036; stroke-width: 1.25;"/><!--MD5=[493ab6d47bad12eb6eacf22a1121ac4e]
link ClientLogInController to Client--><path codeLine="42" d="M368.5287,190.2425 C402.1325,213.8925 445.5188,244.4275 482.4925,270.45 " fill="none" id="ClientLogInController-to-Client" style="stroke: #A80036; stroke-width: 1.25; stroke-dasharray: 7.0,7.0;"/><polygon fill="#A80036" points="487.8988,274.255,481.5742,263.6927,482.7869,270.659,475.8206,271.8717,487.8988,274.255" style="stroke: #A80036; stroke-width: 1.25;"/><!--MD5=[9a8dc34b38f85b9f3fcdb440f4bffc6a]
link Client to User--><path codeLine="43" d="M634.68,306.4259 C695.1475,290.8661 782.0188,268.5113 848.6788,251.3575 " fill="none" id="Client-User" style="stroke: #A80036; stroke-width: 1.25;"/><polygon fill="#000000" points="734.8028,247.4122,722.9377,246.6721,724.7687,253.7876,734.8028,247.4122" style="stroke: #000000; stroke-width: 1.25;"/><text fill="#000000" font-family="sans-serif" font-size="16.25" lengthAdjust="spacingAndGlyphs" textLength="26.25" x="740" y="255.6189">is a</text><text fill="#000000" font-family="sans-serif" font-size="16.25" lengthAdjust="spacingAndGlyphs" textLength="8.75" x="644.1625" y="322.2879">1</text><text fill="#000000" font-family="sans-serif" font-size="16.25" lengthAdjust="spacingAndGlyphs" textLength="8.75" x="830.0929" y="271.5828">1</text><!--MD5=[a6278c5fc836bcb7cb8524083910c804]
link LogIn to User--><path codeLine="44" d="M641.5475,166.6988 C701.5563,178.4275 784.4,194.6187 848.56,207.1575 " fill="none" id="LogIn-User" style="stroke: #A80036; stroke-width: 1.25;"/><polygon fill="#000000" points="691.1339,165.1686,680.7422,159.3944,679.3329,166.6053,691.1339,165.1686" style="stroke: #000000; stroke-width: 1.25;"/><text fill="#000000" font-family="sans-serif" font-size="16.25" lengthAdjust="spacingAndGlyphs" textLength="113.75" x="696.25" y="170.6189">checks if exists</text><text fill="#000000" font-family="sans-serif" font-size="16.25" lengthAdjust="spacingAndGlyphs" textLength="8.75" x="651.3378" y="186.5474">1</text><text fill="#000000" font-family="sans-serif" font-size="16.25" lengthAdjust="spacingAndGlyphs" textLength="6.25" x="832.5819" y="223.17">*</text><!--MD5=[f188673374c6a1821db82499e05fdddb]
@startuml
skinparam classAttributeIconSize 0

left to right direction

class Platform {
}

class ClientLogInUI {
}

class ClientLogInController {
 +logIn(email, password)
}


class LogIn {
  +logIn(email, password)
}

class User {
  -String email
  -String password
  -String user_type
  +checkUser(email, password)
  +getUserType()
}

class Client {
  -String name
  -String email
  -int NIF
  -int creditCardNumber
  -int creditCardValidity
  -int ccv
  -Address address
}


ClientLogInUI ..> ClientLogInController
ClientLogInController ..> Platform
ClientLogInController ..> LogIn
ClientLogInController ..> Client
Client "1" - - "1" User : is a >
LogIn "1" - - "*" User: checks if exists >


@enduml

PlantUML version 1.2020.20(Sat Nov 21 10:02:45 GMT 2020)
(GPL source distribution)
Java Runtime: OpenJDK Runtime Environment
JVM: OpenJDK 64-Bit Server VM
Default Encoding: Cp1252
Language: pt
Country: PT
--></g></svg>