<?xml version="1.0" encoding="UTF-8" standalone="no"?><svg xmlns="http://www.w3.org/2000/svg" xmlns:xlink="http://www.w3.org/1999/xlink" contentScriptType="application/ecmascript" contentStyleType="text/css" height="432px" preserveAspectRatio="none" style="width:332px;height:432px;" version="1.1" viewBox="0 0 332 432" width="332px" zoomAndPan="magnify"><defs><filter height="300%" id="f9fiy11v2ag9r" width="300%" x="-1" y="-1"><feGaussianBlur result="blurOut" stdDeviation="2.0"/><feColorMatrix in="blurOut" result="blurOut2" type="matrix" values="0 0 0 0 0 0 0 0 0 0 0 0 0 0 0 0 0 0 .4 0"/><feOffset dx="4.0" dy="4.0" in="blurOut2" result="blurOut3"/><feBlend in="SourceGraphic" in2="blurOut3" mode="normal"/></filter></defs><g><rect fill="#FFFFFF" filter="url(#f9fiy11v2ag9r)" height="229.7578" style="stroke:#A80036;stroke-width:1.0;" width="10" x="26" y="99.6094"/><rect fill="#FFFFFF" filter="url(#f9fiy11v2ag9r)" height="22.3516" style="stroke:#A80036;stroke-width:1.0;" width="10" x="291" y="99.6094"/><rect fill="#FFFFFF" filter="url(#f9fiy11v2ag9r)" height="30" style="stroke:#A80036;stroke-width:1.0;" width="10" x="291" y="152.3125"/><rect fill="#FFFFFF" filter="url(#f9fiy11v2ag9r)" height="30" style="stroke:#A80036;stroke-width:1.0;" width="10" x="291" y="299.3672"/><line style="stroke:#A80036;stroke-width:1.0;stroke-dasharray:5.0,5.0;" x1="31" x2="31" y1="89.6094" y2="347.3672"/><line style="stroke:#A80036;stroke-width:1.0;stroke-dasharray:5.0,5.0;" x1="295.5" x2="295.5" y1="89.6094" y2="347.3672"/><text fill="#000000" font-family="sans-serif" font-size="14" lengthAdjust="spacingAndGlyphs" textLength="46" x="5" y="86.5332">System</text><ellipse cx="31" cy="15" fill="#FEFECE" filter="url(#f9fiy11v2ag9r)" rx="8" ry="8" style="stroke:#A80036;stroke-width:2.0;"/><path d="M31,23 L31,50 M18,31 L44,31 M31,50 L18,65 M31,50 L44,65 " fill="none" filter="url(#f9fiy11v2ag9r)" style="stroke:#A80036;stroke-width:2.0;"/><text fill="#000000" font-family="sans-serif" font-size="14" lengthAdjust="spacingAndGlyphs" textLength="46" x="5" y="360.9004">System</text><ellipse cx="31" cy="373.9766" fill="#FEFECE" filter="url(#f9fiy11v2ag9r)" rx="8" ry="8" style="stroke:#A80036;stroke-width:2.0;"/><path d="M31,381.9766 L31,408.9766 M18,389.9766 L44,389.9766 M31,408.9766 L18,423.9766 M31,408.9766 L44,423.9766 " fill="none" filter="url(#f9fiy11v2ag9r)" style="stroke:#A80036;stroke-width:2.0;"/><rect fill="#FEFECE" filter="url(#f9fiy11v2ag9r)" height="31.6094" style="stroke:#A80036;stroke-width:1.5;" width="49" x="269.5" y="53"/><text fill="#000000" font-family="sans-serif" font-size="14" lengthAdjust="spacingAndGlyphs" textLength="35" x="276.5" y="74.5332">Stock</text><rect fill="#FEFECE" filter="url(#f9fiy11v2ag9r)" height="31.6094" style="stroke:#A80036;stroke-width:1.5;" width="49" x="269.5" y="346.3672"/><text fill="#000000" font-family="sans-serif" font-size="14" lengthAdjust="spacingAndGlyphs" textLength="35" x="276.5" y="367.9004">Stock</text><rect fill="#FFFFFF" filter="url(#f9fiy11v2ag9r)" height="229.7578" style="stroke:#A80036;stroke-width:1.0;" width="10" x="26" y="99.6094"/><rect fill="#FFFFFF" filter="url(#f9fiy11v2ag9r)" height="22.3516" style="stroke:#A80036;stroke-width:1.0;" width="10" x="291" y="99.6094"/><rect fill="#FFFFFF" filter="url(#f9fiy11v2ag9r)" height="30" style="stroke:#A80036;stroke-width:1.0;" width="10" x="291" y="152.3125"/><rect fill="#FFFFFF" filter="url(#f9fiy11v2ag9r)" height="30" style="stroke:#A80036;stroke-width:1.0;" width="10" x="291" y="299.3672"/><polygon fill="#A80036" points="47,117.9609,37,121.9609,47,125.9609,43,121.9609" style="stroke:#A80036;stroke-width:1.0;"/><line style="stroke:#A80036;stroke-width:1.0;stroke-dasharray:2.0,2.0;" x1="41" x2="295" y1="121.9609" y2="121.9609"/><text fill="#000000" font-family="sans-serif" font-size="13" lengthAdjust="spacingAndGlyphs" textLength="175" x="53" y="117.1045">warns that stock is insufficient</text><polygon fill="#A80036" points="279,148.3125,289,152.3125,279,156.3125,283,152.3125" style="stroke:#A80036;stroke-width:1.0;"/><line style="stroke:#A80036;stroke-width:1.0;" x1="36" x2="285" y1="152.3125" y2="152.3125"/><text fill="#000000" font-family="sans-serif" font-size="13" lengthAdjust="spacingAndGlyphs" textLength="152" x="43" y="147.4561">begins backOrder process</text><line style="stroke:#A80036;stroke-width:1.0;" x1="36" x2="78" y1="212.6641" y2="212.6641"/><line style="stroke:#A80036;stroke-width:1.0;" x1="78" x2="78" y1="212.6641" y2="225.6641"/><line style="stroke:#A80036;stroke-width:1.0;" x1="37" x2="78" y1="225.6641" y2="225.6641"/><polygon fill="#A80036" points="47,221.6641,37,225.6641,47,229.6641,43,225.6641" style="stroke:#A80036;stroke-width:1.0;"/><text fill="#000000" font-family="sans-serif" font-size="13" lengthAdjust="spacingAndGlyphs" textLength="241" x="43" y="207.8076">gets the closest pharmacy that has stock</text><line style="stroke:#A80036;stroke-width:1.0;" x1="36" x2="78" y1="256.0156" y2="256.0156"/><line style="stroke:#A80036;stroke-width:1.0;" x1="78" x2="78" y1="256.0156" y2="269.0156"/><line style="stroke:#A80036;stroke-width:1.0;" x1="37" x2="78" y1="269.0156" y2="269.0156"/><polygon fill="#A80036" points="47,265.0156,37,269.0156,47,273.0156,43,269.0156" style="stroke:#A80036;stroke-width:1.0;"/><text fill="#000000" font-family="sans-serif" font-size="13" lengthAdjust="spacingAndGlyphs" textLength="213" x="43" y="251.1592">sends delivery note to that pharmacy</text><polygon fill="#A80036" points="279,295.3672,289,299.3672,279,303.3672,283,299.3672" style="stroke:#A80036;stroke-width:1.0;"/><line style="stroke:#A80036;stroke-width:1.0;" x1="36" x2="285" y1="299.3672" y2="299.3672"/><text fill="#000000" font-family="sans-serif" font-size="13" lengthAdjust="spacingAndGlyphs" textLength="205" x="43" y="294.5107">updates stock from other pharmacy</text><!--MD5=[9c846050ec35ba6babcef264b521b6b1]
@startuml


actor System as SYS
participant Stock as STK

activate STK
activate SYS
STK - -> SYS : warns that stock is insufficient
deactivate STK
SYS -> STK : begins backOrder process
activate STK
deactivate STK
SYS -> SYS : gets the closest pharmacy that has stock
SYS -> SYS : sends delivery note to that pharmacy
SYS -> STK : updates stock from other pharmacy
activate STK
deactivate STK
deactivate SYS

@enduml

PlantUML version 1.2020.26(Mon Dec 21 17:45:07 GMT 2020)
(GPL source distribution)
Java Runtime: OpenJDK Runtime Environment
JVM: OpenJDK 64-Bit Server VM
Default Encoding: Cp1252
Language: en
Country: US
--></g></svg>