<?xml version="1.0" encoding="UTF-8" standalone="no"?><svg xmlns="http://www.w3.org/2000/svg" xmlns:xlink="http://www.w3.org/1999/xlink" contentScriptType="application/ecmascript" contentStyleType="text/css" height="424px" preserveAspectRatio="none" style="width:173px;height:424px;" version="1.1" viewBox="0 0 173 424" width="173px" zoomAndPan="magnify"><defs><filter height="300%" id="fkjoxhbsa25kg" width="300%" x="-1" y="-1"><feGaussianBlur result="blurOut" stdDeviation="2.0"/><feColorMatrix in="blurOut" result="blurOut2" type="matrix" values="0 0 0 0 0 0 0 0 0 0 0 0 0 0 0 0 0 0 .4 0"/><feOffset dx="4.0" dy="4.0" in="blurOut2" result="blurOut3"/><feBlend in="SourceGraphic" in2="blurOut3" mode="normal"/></filter></defs><g><!--MD5=[7f2a9fafcebe4f099f71398fd3e2ed00]
class Pharmacy--><rect codeLine="2" fill="#FEFECE" filter="url(#fkjoxhbsa25kg)" height="131.0156" id="Pharmacy" style="stroke:#A80036;stroke-width:1.5;" width="131" x="17.5" y="279"/><ellipse cx="52.3" cy="295" fill="#ADD1B2" rx="11" ry="11" style="stroke:#A80036;stroke-width:1.0;"/><path d="M54.3,291.5 Q54.5031,291 54.7375,290.75 Q54.9719,290.5 55.2375,290.5 Q55.7063,290.5 56.0031,290.7813 Q56.3,291.0625 56.3,291.7188 L56.3,293.2813 Q56.3,293.9375 56.0188,294.2188 Q55.7375,294.5 55.3,294.5 Q54.9094,294.5 54.6594,294.3281 Q54.4094,294.1563 54.3,293.7031 Q54.2531,293.3906 54.0813,293.2188 Q53.7688,292.8906 53.2063,292.7031 Q52.6438,292.5 52.0813,292.5 Q51.3781,292.5 50.7844,292.7813 Q50.2063,293.0625 49.7531,293.6875 Q49.3,294.3125 49.3,295.1719 L49.3,296.0938 Q49.3,297.125 50.1438,297.8125 Q50.9875,298.5 52.4875,298.5 Q53.3781,298.5 54.0031,298.2969 Q54.3625,298.1875 54.7688,297.8281 Q55.0344,297.625 55.175,297.5625 Q55.3156,297.5 55.4875,297.5 Q55.8156,297.5 56.05,297.7656 Q56.3,298.0156 56.3,298.375 Q56.3,298.7188 55.9563,299.125 Q55.4563,299.7188 54.6594,300.0469 Q53.6125,300.5 52.3313,300.5 Q50.8313,300.5 49.6281,299.9063 Q48.6594,299.4375 47.9719,298.4219 Q47.3,297.4063 47.3,296.2031 L47.3,295.1094 Q47.3,293.8594 47.8938,292.7656 Q48.5031,291.6719 49.55,291.0938 Q50.6125,290.5 51.8,290.5 Q52.5188,290.5 53.1438,290.75 Q53.7688,291 54.3,291.5 Z " fill="#000000"/><text fill="#000000" font-family="sans-serif" font-size="12" lengthAdjust="spacingAndGlyphs" textLength="55" x="70.7" y="299.9102">Pharmacy</text><line style="stroke:#A80036;stroke-width:1.5;" x1="18.5" x2="147.5" y1="311" y2="311"/><rect fill="none" height="6" style="stroke:#C82930;stroke-width:1.0;" width="6" x="25.5" y="319"/><text fill="#000000" font-family="sans-serif" font-size="11" lengthAdjust="spacingAndGlyphs" textLength="98" x="37.5" y="326.4189">int idPharmacy «PK»</text><rect fill="none" height="6" style="stroke:#C82930;stroke-width:1.0;" width="6" x="25.5" y="332.8359"/><text fill="#000000" font-family="sans-serif" font-size="11" lengthAdjust="spacingAndGlyphs" textLength="105" x="37.5" y="340.2549">String namePharmacy</text><rect fill="none" height="6" style="stroke:#C82930;stroke-width:1.0;" width="6" x="25.5" y="346.6719"/><text fill="#000000" font-family="sans-serif" font-size="11" lengthAdjust="spacingAndGlyphs" textLength="77" x="37.5" y="354.0908">int NIFPharmacy</text><rect fill="none" height="6" style="stroke:#C82930;stroke-width:1.0;" width="6" x="25.5" y="360.5078"/><text fill="#000000" font-family="sans-serif" font-size="11" lengthAdjust="spacingAndGlyphs" textLength="87" x="37.5" y="367.9268">int IDAdministrator</text><rect fill="none" height="6" style="stroke:#C82930;stroke-width:1.0;" width="6" x="25.5" y="374.3438"/><text fill="#000000" font-family="sans-serif" font-size="11" lengthAdjust="spacingAndGlyphs" textLength="82" x="37.5" y="381.7627">double addressX</text><rect fill="none" height="6" style="stroke:#C82930;stroke-width:1.0;" width="6" x="25.5" y="388.1797"/><text fill="#000000" font-family="sans-serif" font-size="11" lengthAdjust="spacingAndGlyphs" textLength="83" x="37.5" y="395.5986">double addressY</text><line style="stroke:#A80036;stroke-width:1.5;" x1="18.5" x2="147.5" y1="402.0156" y2="402.0156"/><!--MD5=[a4cb0f987c11031dc931233a0e7767af]
class Stock--><rect codeLine="12" fill="#FEFECE" filter="url(#fkjoxhbsa25kg)" height="61.8359" id="Stock" style="stroke:#A80036;stroke-width:1.5;" width="149" x="8.5" y="157"/><ellipse cx="63.75" cy="173" fill="#ADD1B2" rx="11" ry="11" style="stroke:#A80036;stroke-width:1.0;"/><path d="M65.75,169.5 Q65.9531,169 66.1875,168.75 Q66.4219,168.5 66.6875,168.5 Q67.1563,168.5 67.4531,168.7813 Q67.75,169.0625 67.75,169.7188 L67.75,171.2813 Q67.75,171.9375 67.4688,172.2188 Q67.1875,172.5 66.75,172.5 Q66.3594,172.5 66.1094,172.3281 Q65.8594,172.1563 65.75,171.7031 Q65.7031,171.3906 65.5313,171.2188 Q65.2188,170.8906 64.6563,170.7031 Q64.0938,170.5 63.5313,170.5 Q62.8281,170.5 62.2344,170.7813 Q61.6563,171.0625 61.2031,171.6875 Q60.75,172.3125 60.75,173.1719 L60.75,174.0938 Q60.75,175.125 61.5938,175.8125 Q62.4375,176.5 63.9375,176.5 Q64.8281,176.5 65.4531,176.2969 Q65.8125,176.1875 66.2188,175.8281 Q66.4844,175.625 66.625,175.5625 Q66.7656,175.5 66.9375,175.5 Q67.2656,175.5 67.5,175.7656 Q67.75,176.0156 67.75,176.375 Q67.75,176.7188 67.4063,177.125 Q66.9063,177.7188 66.1094,178.0469 Q65.0625,178.5 63.7813,178.5 Q62.2813,178.5 61.0781,177.9063 Q60.1094,177.4375 59.4219,176.4219 Q58.75,175.4063 58.75,174.2031 L58.75,173.1094 Q58.75,171.8594 59.3438,170.7656 Q59.9531,169.6719 61,169.0938 Q62.0625,168.5 63.25,168.5 Q63.9688,168.5 64.5938,168.75 Q65.2188,169 65.75,169.5 Z " fill="#000000"/><text fill="#000000" font-family="sans-serif" font-size="12" lengthAdjust="spacingAndGlyphs" textLength="30" x="84.25" y="177.9102">Stock</text><line style="stroke:#A80036;stroke-width:1.5;" x1="9.5" x2="156.5" y1="189" y2="189"/><rect fill="none" height="6" style="stroke:#C82930;stroke-width:1.0;" width="6" x="16.5" y="197"/><text fill="#000000" font-family="sans-serif" font-size="11" lengthAdjust="spacingAndGlyphs" textLength="123" x="28.5" y="204.4189">int idPharmacy «PK»«FK»</text><line style="stroke:#A80036;stroke-width:1.5;" x1="9.5" x2="156.5" y1="210.8359" y2="210.8359"/><!--MD5=[1dca38c87dea1be2f898f25fe3545cb3]
class StockLine--><rect codeLine="16" fill="#FEFECE" filter="url(#fkjoxhbsa25kg)" height="89.5078" id="StockLine" style="stroke:#A80036;stroke-width:1.5;" width="152" x="7" y="7"/><ellipse cx="51.75" cy="23" fill="#ADD1B2" rx="11" ry="11" style="stroke:#A80036;stroke-width:1.0;"/><path d="M53.75,19.5 Q53.9531,19 54.1875,18.75 Q54.4219,18.5 54.6875,18.5 Q55.1563,18.5 55.4531,18.7813 Q55.75,19.0625 55.75,19.7188 L55.75,21.2813 Q55.75,21.9375 55.4688,22.2188 Q55.1875,22.5 54.75,22.5 Q54.3594,22.5 54.1094,22.3281 Q53.8594,22.1563 53.75,21.7031 Q53.7031,21.3906 53.5313,21.2188 Q53.2188,20.8906 52.6563,20.7031 Q52.0938,20.5 51.5313,20.5 Q50.8281,20.5 50.2344,20.7813 Q49.6563,21.0625 49.2031,21.6875 Q48.75,22.3125 48.75,23.1719 L48.75,24.0938 Q48.75,25.125 49.5938,25.8125 Q50.4375,26.5 51.9375,26.5 Q52.8281,26.5 53.4531,26.2969 Q53.8125,26.1875 54.2188,25.8281 Q54.4844,25.625 54.625,25.5625 Q54.7656,25.5 54.9375,25.5 Q55.2656,25.5 55.5,25.7656 Q55.75,26.0156 55.75,26.375 Q55.75,26.7188 55.4063,27.125 Q54.9063,27.7188 54.1094,28.0469 Q53.0625,28.5 51.7813,28.5 Q50.2813,28.5 49.0781,27.9063 Q48.1094,27.4375 47.4219,26.4219 Q46.75,25.4063 46.75,24.2031 L46.75,23.1094 Q46.75,21.8594 47.3438,20.7656 Q47.9531,19.6719 49,19.0938 Q50.0625,18.5 51.25,18.5 Q51.9688,18.5 52.5938,18.75 Q53.2188,19 53.75,19.5 Z " fill="#000000"/><text fill="#000000" font-family="sans-serif" font-size="12" lengthAdjust="spacingAndGlyphs" textLength="54" x="72.25" y="27.9102">StockLine</text><line style="stroke:#A80036;stroke-width:1.5;" x1="8" x2="158" y1="39" y2="39"/><rect fill="none" height="6" style="stroke:#C82930;stroke-width:1.0;" width="6" x="15" y="47"/><text fill="#000000" font-family="sans-serif" font-size="11" lengthAdjust="spacingAndGlyphs" textLength="126" x="27" y="54.4189">int idPharmacy «PK» «FK»</text><rect fill="none" height="6" style="stroke:#C82930;stroke-width:1.0;" width="6" x="15" y="60.8359"/><text fill="#000000" font-family="sans-serif" font-size="11" lengthAdjust="spacingAndGlyphs" textLength="115" x="27" y="68.2549">int idProduct «PK» «FK»</text><rect fill="none" height="6" style="stroke:#C82930;stroke-width:1.0;" width="6" x="15" y="74.6719"/><text fill="#000000" font-family="sans-serif" font-size="11" lengthAdjust="spacingAndGlyphs" textLength="52" x="27" y="82.0908">int quantity</text><line style="stroke:#A80036;stroke-width:1.5;" x1="8" x2="158" y1="88.5078" y2="88.5078"/><!--MD5=[391974155620cdd6df8a1985c4218cc8]
link StockLine to Stock--><path codeLine="22" d="M83,105.63 C83,120 83,135.28 83,148.69 " fill="none" id="StockLine-Stock" style="stroke:#A80036;stroke-width:1.0;"/><line style="stroke:#A80036;stroke-width:1.0;" x1="83" x2="83" y1="145.76" y2="156.76"/><ellipse cx="83" cy="145.76" fill="none" rx="4" ry="4" style="stroke:#A80036;stroke-width:1.0;"/><line style="stroke:#A80036;stroke-width:1.0;" x1="87" x2="79" y1="152.76" y2="152.76"/><line style="stroke:#A80036;stroke-width:1.0;" x1="83" x2="77" y1="105.25" y2="97.25"/><line style="stroke:#A80036;stroke-width:1.0;" x1="83" x2="89" y1="105.25" y2="97.25"/><line style="stroke:#A80036;stroke-width:1.0;" x1="83" x2="83" y1="105.25" y2="97.25"/><ellipse cx="83" cy="111.25" fill="none" rx="4" ry="4" style="stroke:#A80036;stroke-width:1.0;"/><!--MD5=[b4c1fbbbc231e67569d9e5feae54674e]
link Stock to Pharmacy--><path codeLine="23" d="M83,227.48 C83,240.6 83,255.73 83,270.65 " fill="none" id="Stock-Pharmacy" style="stroke:#A80036;stroke-width:1.0;"/><line style="stroke:#A80036;stroke-width:1.0;" x1="83" x2="83" y1="267.9" y2="278.9"/><ellipse cx="83" cy="267.9" fill="none" rx="4" ry="4" style="stroke:#A80036;stroke-width:1.0;"/><line style="stroke:#A80036;stroke-width:1.0;" x1="87" x2="79" y1="274.9" y2="274.9"/><line style="stroke:#A80036;stroke-width:1.0;" x1="83" x2="83" y1="230.16" y2="219.16"/><ellipse cx="83" cy="230.16" fill="none" rx="4" ry="4" style="stroke:#A80036;stroke-width:1.0;"/><line style="stroke:#A80036;stroke-width:1.0;" x1="79" x2="87" y1="223.16" y2="223.16"/><!--MD5=[585cd6c34a0cb09bb753fed4794f0572]
@startuml

class Pharmacy {
   -int idPharmacy «PK»
   -String namePharmacy
   -int NIFPharmacy
   -int IDAdministrator
   -double addressX
   -double addressY
}


class Stock{
    -int idPharmacy «PK»«FK»
}

class StockLine{
    -int idPharmacy «PK» «FK»
    -int idProduct «PK» «FK»
    -int quantity
}

StockLine }o- -o| Stock
Stock |o- -o| Pharmacy

@enduml

PlantUML version 1.2020.26(Mon Dec 21 17:45:07 GMT 2020)
(GPL source distribution)
Java Runtime: OpenJDK Runtime Environment
JVM: OpenJDK 64-Bit Server VM
Default Encoding: Cp1252
Language: en
Country: US
--></g></svg>