<?xml version="1.0" encoding="UTF-8" standalone="no"?><svg xmlns="http://www.w3.org/2000/svg" xmlns:xlink="http://www.w3.org/1999/xlink" contentScriptType="application/ecmascript" contentStyleType="text/css" height="110px" preserveAspectRatio="none" style="width:418px;height:110px;" version="1.1" viewBox="0 0 418 110" width="418px" zoomAndPan="magnify"><defs><filter height="300%" id="fb2kvzd08ghdi" width="300%" x="-1" y="-1"><feGaussianBlur result="blurOut" stdDeviation="2.0"/><feColorMatrix in="blurOut" result="blurOut2" type="matrix" values="0 0 0 0 0 0 0 0 0 0 0 0 0 0 0 0 0 0 .4 0"/><feOffset dx="4.0" dy="4.0" in="blurOut2" result="blurOut3"/><feBlend in="SourceGraphic" in2="blurOut3" mode="normal"/></filter></defs><g><!--MD5=[a4cb0f987c11031dc931233a0e7767af]
class Stock--><rect codeLine="10" fill="#FEFECE" filter="url(#fb2kvzd08ghdi)" height="75.6719" id="Stock" style="stroke:#A80036;stroke-width:1.5;" width="98" x="139.5" y="14"/><ellipse cx="170.7" cy="30" fill="#ADD1B2" rx="11" ry="11" style="stroke:#A80036;stroke-width:1.0;"/><path d="M172.7,26.5 Q172.9031,26 173.1375,25.75 Q173.3719,25.5 173.6375,25.5 Q174.1063,25.5 174.4031,25.7813 Q174.7,26.0625 174.7,26.7188 L174.7,28.2813 Q174.7,28.9375 174.4188,29.2188 Q174.1375,29.5 173.7,29.5 Q173.3094,29.5 173.0594,29.3281 Q172.8094,29.1563 172.7,28.7031 Q172.6531,28.3906 172.4813,28.2188 Q172.1688,27.8906 171.6063,27.7031 Q171.0438,27.5 170.4813,27.5 Q169.7781,27.5 169.1844,27.7813 Q168.6063,28.0625 168.1531,28.6875 Q167.7,29.3125 167.7,30.1719 L167.7,31.0938 Q167.7,32.125 168.5438,32.8125 Q169.3875,33.5 170.8875,33.5 Q171.7781,33.5 172.4031,33.2969 Q172.7625,33.1875 173.1688,32.8281 Q173.4344,32.625 173.575,32.5625 Q173.7156,32.5 173.8875,32.5 Q174.2156,32.5 174.45,32.7656 Q174.7,33.0156 174.7,33.375 Q174.7,33.7188 174.3563,34.125 Q173.8563,34.7188 173.0594,35.0469 Q172.0125,35.5 170.7313,35.5 Q169.2313,35.5 168.0281,34.9063 Q167.0594,34.4375 166.3719,33.4219 Q165.7,32.4063 165.7,31.2031 L165.7,30.1094 Q165.7,28.8594 166.2938,27.7656 Q166.9031,26.6719 167.95,26.0938 Q169.0125,25.5 170.2,25.5 Q170.9188,25.5 171.5438,25.75 Q172.1688,26 172.7,26.5 Z " fill="#000000"/><text fill="#000000" font-family="sans-serif" font-size="12" lengthAdjust="spacingAndGlyphs" textLength="30" x="188.3" y="34.9102">Stock</text><line style="stroke:#A80036;stroke-width:1.5;" x1="140.5" x2="236.5" y1="46" y2="46"/><rect fill="none" height="6" style="stroke:#C82930;stroke-width:1.0;" width="6" x="147.5" y="54"/><text fill="#000000" font-family="sans-serif" font-size="11" lengthAdjust="spacingAndGlyphs" textLength="71" x="159.5" y="61.4189">int pharmacyID</text><rect fill="none" height="6" style="stroke:#C82930;stroke-width:1.0;" width="6" x="147.5" y="67.8359"/><text fill="#000000" font-family="sans-serif" font-size="11" lengthAdjust="spacingAndGlyphs" textLength="72" x="159.5" y="75.2549">List stockLines</text><line style="stroke:#A80036;stroke-width:1.5;" x1="140.5" x2="236.5" y1="81.6719" y2="81.6719"/><!--MD5=[7f2a9fafcebe4f099f71398fd3e2ed00]
class Pharmacy--><rect codeLine="4" fill="#FEFECE" filter="url(#fb2kvzd08ghdi)" height="89.5078" id="Pharmacy" style="stroke:#A80036;stroke-width:1.5;" width="132" x="272.5" y="7"/><ellipse cx="307.75" cy="23" fill="#ADD1B2" rx="11" ry="11" style="stroke:#A80036;stroke-width:1.0;"/><path d="M309.75,19.5 Q309.9531,19 310.1875,18.75 Q310.4219,18.5 310.6875,18.5 Q311.1563,18.5 311.4531,18.7813 Q311.75,19.0625 311.75,19.7188 L311.75,21.2813 Q311.75,21.9375 311.4688,22.2188 Q311.1875,22.5 310.75,22.5 Q310.3594,22.5 310.1094,22.3281 Q309.8594,22.1563 309.75,21.7031 Q309.7031,21.3906 309.5313,21.2188 Q309.2188,20.8906 308.6563,20.7031 Q308.0938,20.5 307.5313,20.5 Q306.8281,20.5 306.2344,20.7813 Q305.6563,21.0625 305.2031,21.6875 Q304.75,22.3125 304.75,23.1719 L304.75,24.0938 Q304.75,25.125 305.5938,25.8125 Q306.4375,26.5 307.9375,26.5 Q308.8281,26.5 309.4531,26.2969 Q309.8125,26.1875 310.2188,25.8281 Q310.4844,25.625 310.625,25.5625 Q310.7656,25.5 310.9375,25.5 Q311.2656,25.5 311.5,25.7656 Q311.75,26.0156 311.75,26.375 Q311.75,26.7188 311.4063,27.125 Q310.9063,27.7188 310.1094,28.0469 Q309.0625,28.5 307.7813,28.5 Q306.2813,28.5 305.0781,27.9063 Q304.1094,27.4375 303.4219,26.4219 Q302.75,25.4063 302.75,24.2031 L302.75,23.1094 Q302.75,21.8594 303.3438,20.7656 Q303.9531,19.6719 305,19.0938 Q306.0625,18.5 307.25,18.5 Q307.9688,18.5 308.5938,18.75 Q309.2188,19 309.75,19.5 Z " fill="#000000"/><text fill="#000000" font-family="sans-serif" font-size="12" lengthAdjust="spacingAndGlyphs" textLength="55" x="326.25" y="27.9102">Pharmacy</text><line style="stroke:#A80036;stroke-width:1.5;" x1="273.5" x2="403.5" y1="39" y2="39"/><rect fill="none" height="6" style="stroke:#C82930;stroke-width:1.0;" width="6" x="280.5" y="47"/><text fill="#000000" font-family="sans-serif" font-size="11" lengthAdjust="spacingAndGlyphs" textLength="106" x="292.5" y="54.4189">String pharmacyName</text><rect fill="none" height="6" style="stroke:#C82930;stroke-width:1.0;" width="6" x="280.5" y="60.8359"/><text fill="#000000" font-family="sans-serif" font-size="11" lengthAdjust="spacingAndGlyphs" textLength="102" x="292.5" y="68.2549">String companyName</text><rect fill="none" height="6" style="stroke:#C82930;stroke-width:1.0;" width="6" x="280.5" y="74.6719"/><text fill="#000000" font-family="sans-serif" font-size="11" lengthAdjust="spacingAndGlyphs" textLength="29" x="292.5" y="82.0908">int NIF</text><line style="stroke:#A80036;stroke-width:1.5;" x1="273.5" x2="403.5" y1="88.5078" y2="88.5078"/><!--MD5=[1dca38c87dea1be2f898f25fe3545cb3]
class StockLine--><rect codeLine="15" fill="#FEFECE" filter="url(#fb2kvzd08ghdi)" height="89.5078" id="StockLine" style="stroke:#A80036;stroke-width:1.5;" width="97" x="7" y="7"/><ellipse cx="26.95" cy="23" fill="#ADD1B2" rx="11" ry="11" style="stroke:#A80036;stroke-width:1.0;"/><path d="M28.95,19.5 Q29.1531,19 29.3875,18.75 Q29.6219,18.5 29.8875,18.5 Q30.3563,18.5 30.6531,18.7813 Q30.95,19.0625 30.95,19.7188 L30.95,21.2813 Q30.95,21.9375 30.6688,22.2188 Q30.3875,22.5 29.95,22.5 Q29.5594,22.5 29.3094,22.3281 Q29.0594,22.1563 28.95,21.7031 Q28.9031,21.3906 28.7313,21.2188 Q28.4188,20.8906 27.8563,20.7031 Q27.2938,20.5 26.7313,20.5 Q26.0281,20.5 25.4344,20.7813 Q24.8563,21.0625 24.4031,21.6875 Q23.95,22.3125 23.95,23.1719 L23.95,24.0938 Q23.95,25.125 24.7938,25.8125 Q25.6375,26.5 27.1375,26.5 Q28.0281,26.5 28.6531,26.2969 Q29.0125,26.1875 29.4188,25.8281 Q29.6844,25.625 29.825,25.5625 Q29.9656,25.5 30.1375,25.5 Q30.4656,25.5 30.7,25.7656 Q30.95,26.0156 30.95,26.375 Q30.95,26.7188 30.6063,27.125 Q30.1063,27.7188 29.3094,28.0469 Q28.2625,28.5 26.9813,28.5 Q25.4813,28.5 24.2781,27.9063 Q23.3094,27.4375 22.6219,26.4219 Q21.95,25.4063 21.95,24.2031 L21.95,23.1094 Q21.95,21.8594 22.5438,20.7656 Q23.1531,19.6719 24.2,19.0938 Q25.2625,18.5 26.45,18.5 Q27.1688,18.5 27.7938,18.75 Q28.4188,19 28.95,19.5 Z " fill="#000000"/><text fill="#000000" font-family="sans-serif" font-size="12" lengthAdjust="spacingAndGlyphs" textLength="54" x="42.05" y="27.9102">StockLine</text><line style="stroke:#A80036;stroke-width:1.5;" x1="8" x2="103" y1="39" y2="39"/><rect fill="none" height="6" style="stroke:#C82930;stroke-width:1.0;" width="6" x="15" y="47"/><text fill="#000000" font-family="sans-serif" font-size="11" lengthAdjust="spacingAndGlyphs" textLength="71" x="27" y="54.4189">int pharmacyID</text><rect fill="none" height="6" style="stroke:#C82930;stroke-width:1.0;" width="6" x="15" y="60.8359"/><text fill="#000000" font-family="sans-serif" font-size="11" lengthAdjust="spacingAndGlyphs" textLength="60" x="27" y="68.2549">int productID</text><rect fill="none" height="6" style="stroke:#C82930;stroke-width:1.0;" width="6" x="15" y="74.6719"/><text fill="#000000" font-family="sans-serif" font-size="11" lengthAdjust="spacingAndGlyphs" textLength="52" x="27" y="82.0908">int quantity</text><line style="stroke:#A80036;stroke-width:1.5;" x1="8" x2="103" y1="88.5078" y2="88.5078"/><!--MD5=[3ac9b2736299debb27a2461a14446c71]
reverse link Stock to Pharmacy--><path codeLine="2" d="M257.75,52 C262.62,52 267.49,52 272.36,52 " fill="none" id="Stock-backto-Pharmacy" style="stroke:#A80036;stroke-width:1.0;"/><polygon fill="none" points="257.72,59,237.72,52,257.72,45,257.72,59" style="stroke:#A80036;stroke-width:1.0;"/><!--MD5=[c7040d51f6fb1cdd1cf9fef71dc0c864]
reverse link StockLine to Stock--><path codeLine="3" d="M124.2,52 C129.25,52 134.31,52 139.36,52 " fill="none" id="StockLine-backto-Stock" style="stroke:#A80036;stroke-width:1.0;"/><polygon fill="none" points="124.08,59,104.08,52,124.08,45,124.08,59" style="stroke:#A80036;stroke-width:1.0;"/><!--MD5=[739543416a8a105a06e5e0ea4e504f4b]
@startuml

Stock <|- Pharmacy
StockLine <|- Stock
class Pharmacy {
    -String pharmacyName
    -String companyName
    -int NIF
}

class Stock{
    -int pharmacyID
    -List stockLines
}

class StockLine{
    -int pharmacyID
    -int productID
    -int quantity
}

@enduml

PlantUML version 1.2020.26(Mon Dec 21 17:45:07 GMT 2020)
(GPL source distribution)
Java Runtime: OpenJDK Runtime Environment
JVM: OpenJDK 64-Bit Server VM
Default Encoding: Cp1252
Language: en
Country: US
--></g></svg>