<?xml version="1.0" encoding="UTF-8" standalone="no"?><svg xmlns="http://www.w3.org/2000/svg" xmlns:xlink="http://www.w3.org/1999/xlink" contentScriptType="application/ecmascript" contentStyleType="text/css" height="298.75px" preserveAspectRatio="none" style="width:2771px;height:298px;" version="1.1" viewBox="0 0 2771 298" width="2771.25px" zoomAndPan="magnify"><defs><filter height="300%" id="f16yswzm7jea22" width="300%" x="-1" y="-1"><feGaussianBlur result="blurOut" stdDeviation="2.5"/><feColorMatrix in="blurOut" result="blurOut2" type="matrix" values="0 0 0 0 0 0 0 0 0 0 0 0 0 0 0 0 0 0 .4 0"/><feOffset dx="5.0" dy="5.0" in="blurOut2" result="blurOut3"/><feBlend in="SourceGraphic" in2="blurOut3" mode="normal"/></filter></defs><g><!--MD5=[99b8db98afdc2c8404e39242ef4c1e65]
class Platform--><rect codeLine="5" fill="#FEFECE" filter="url(#f16yswzm7jea22)" height="60" id="Platform" style="stroke: #A80036; stroke-width: 1.875;" width="97.5" x="805" y="41.875"/><ellipse cx="823.75" cy="61.875" fill="#ADD1B2" rx="13.75" ry="13.75" style="stroke: #A80036; stroke-width: 1.25;"/><path d="M826.25,57.5 Q826.5039,56.875 826.7969,56.5625 Q827.0898,56.25 827.4219,56.25 Q828.0078,56.25 828.3789,56.6016 Q828.75,56.9531 828.75,57.7734 L828.75,59.7266 Q828.75,60.5469 828.3984,60.8984 Q828.0469,61.25 827.5,61.25 Q827.0117,61.25 826.6992,61.0352 Q826.3867,60.8203 826.25,60.2539 Q826.1914,59.8633 825.9766,59.6484 Q825.5859,59.2383 824.8828,59.0039 Q824.1797,58.75 823.4766,58.75 Q822.5977,58.75 821.8555,59.1016 Q821.1328,59.4531 820.5664,60.2344 Q820,61.0156 820,62.0898 L820,63.2422 Q820,64.5313 821.0547,65.3906 Q822.1094,66.25 823.9844,66.25 Q825.0977,66.25 825.8789,65.9961 Q826.3281,65.8594 826.8359,65.4102 Q827.168,65.1563 827.3438,65.0781 Q827.5195,65 827.7344,65 Q828.1445,65 828.4375,65.332 Q828.75,65.6445 828.75,66.0938 Q828.75,66.5234 828.3203,67.0313 Q827.6953,67.7734 826.6992,68.1836 Q825.3906,68.75 823.7891,68.75 Q821.9141,68.75 820.4102,68.0078 Q819.1992,67.4219 818.3398,66.1523 Q817.5,64.8828 817.5,63.3789 L817.5,62.0117 Q817.5,60.4492 818.2422,59.082 Q819.0039,57.7148 820.3125,56.9922 Q821.6406,56.25 823.125,56.25 Q824.0234,56.25 824.8047,56.5625 Q825.5859,56.875 826.25,57.5 Z " fill="#000000"/><text fill="#000000" font-family="sans-serif" font-size="15" lengthAdjust="spacingAndGlyphs" textLength="57.5" x="841.25" y="68.0127">Platform</text><line style="stroke: #A80036; stroke-width: 1.875;" x1="806.25" x2="901.25" y1="81.875" y2="81.875"/><line style="stroke: #A80036; stroke-width: 1.875;" x1="806.25" x2="901.25" y1="91.875" y2="91.875"/><!--MD5=[6866889b298d6a81083f78ad4369f33e]
class UpdatePharmacyUI--><rect codeLine="8" fill="#FEFECE" filter="url(#f16yswzm7jea22)" height="60" id="UpdatePharmacyUI" style="stroke: #A80036; stroke-width: 1.875;" width="173.75" x="8.75" y="138.125"/><ellipse cx="27.5" cy="158.125" fill="#ADD1B2" rx="13.75" ry="13.75" style="stroke: #A80036; stroke-width: 1.25;"/><path d="M30,153.75 Q30.2539,153.125 30.5469,152.8125 Q30.8398,152.5 31.1719,152.5 Q31.7578,152.5 32.1289,152.8516 Q32.5,153.2031 32.5,154.0234 L32.5,155.9766 Q32.5,156.7969 32.1484,157.1484 Q31.7969,157.5 31.25,157.5 Q30.7617,157.5 30.4492,157.2852 Q30.1367,157.0703 30,156.5039 Q29.9414,156.1133 29.7266,155.8984 Q29.3359,155.4883 28.6328,155.2539 Q27.9297,155 27.2266,155 Q26.3477,155 25.6055,155.3516 Q24.8828,155.7031 24.3164,156.4844 Q23.75,157.2656 23.75,158.3398 L23.75,159.4922 Q23.75,160.7813 24.8047,161.6406 Q25.8594,162.5 27.7344,162.5 Q28.8477,162.5 29.6289,162.2461 Q30.0781,162.1094 30.5859,161.6602 Q30.918,161.4063 31.0938,161.3281 Q31.2695,161.25 31.4844,161.25 Q31.8945,161.25 32.1875,161.582 Q32.5,161.8945 32.5,162.3438 Q32.5,162.7734 32.0703,163.2813 Q31.4453,164.0234 30.4492,164.4336 Q29.1406,165 27.5391,165 Q25.6641,165 24.1602,164.2578 Q22.9492,163.6719 22.0898,162.4023 Q21.25,161.1328 21.25,159.6289 L21.25,158.2617 Q21.25,156.6992 21.9922,155.332 Q22.7539,153.9648 24.0625,153.2422 Q25.3906,152.5 26.875,152.5 Q27.7734,152.5 28.5547,152.8125 Q29.3359,153.125 30,153.75 Z " fill="#000000"/><text fill="#000000" font-family="sans-serif" font-size="15" lengthAdjust="spacingAndGlyphs" textLength="133.75" x="45" y="164.2627">UpdatePharmacyUI</text><line style="stroke: #A80036; stroke-width: 1.875;" x1="10" x2="181.25" y1="178.125" y2="178.125"/><line style="stroke: #A80036; stroke-width: 1.875;" x1="10" x2="181.25" y1="188.125" y2="188.125"/><!--MD5=[773f03dd6e70cc65a9d5bad6ad1e6f5b]
class UpdatePharmacyController--><rect codeLine="11" fill="#FEFECE" filter="url(#f16yswzm7jea22)" height="111.8848" id="UpdatePharmacyController" style="stroke: #A80036; stroke-width: 1.875;" width="470" x="258.75" y="111.875"/><ellipse cx="395.3125" cy="131.875" fill="#ADD1B2" rx="13.75" ry="13.75" style="stroke: #A80036; stroke-width: 1.25;"/><path d="M397.8125,127.5 Q398.0664,126.875 398.3594,126.5625 Q398.6523,126.25 398.9844,126.25 Q399.5703,126.25 399.9414,126.6016 Q400.3125,126.9531 400.3125,127.7734 L400.3125,129.7266 Q400.3125,130.5469 399.9609,130.8984 Q399.6094,131.25 399.0625,131.25 Q398.5742,131.25 398.2617,131.0352 Q397.9492,130.8203 397.8125,130.2539 Q397.7539,129.8633 397.5391,129.6484 Q397.1484,129.2383 396.4453,129.0039 Q395.7422,128.75 395.0391,128.75 Q394.1602,128.75 393.418,129.1016 Q392.6953,129.4531 392.1289,130.2344 Q391.5625,131.0156 391.5625,132.0898 L391.5625,133.2422 Q391.5625,134.5313 392.6172,135.3906 Q393.6719,136.25 395.5469,136.25 Q396.6602,136.25 397.4414,135.9961 Q397.8906,135.8594 398.3984,135.4102 Q398.7305,135.1563 398.9063,135.0781 Q399.082,135 399.2969,135 Q399.707,135 400,135.332 Q400.3125,135.6445 400.3125,136.0938 Q400.3125,136.5234 399.8828,137.0313 Q399.2578,137.7734 398.2617,138.1836 Q396.9531,138.75 395.3516,138.75 Q393.4766,138.75 391.9727,138.0078 Q390.7617,137.4219 389.9023,136.1523 Q389.0625,134.8828 389.0625,133.3789 L389.0625,132.0117 Q389.0625,130.4492 389.8047,129.082 Q390.5664,127.7148 391.875,126.9922 Q393.2031,126.25 394.6875,126.25 Q395.5859,126.25 396.3672,126.5625 Q397.1484,126.875 397.8125,127.5 Z " fill="#000000"/><text fill="#000000" font-family="sans-serif" font-size="15" lengthAdjust="spacingAndGlyphs" textLength="186.25" x="420.9375" y="138.0127">UpdatePharmacyController</text><line style="stroke: #A80036; stroke-width: 1.875;" x1="260" x2="727.5" y1="151.875" y2="151.875"/><line style="stroke: #A80036; stroke-width: 1.875;" x1="260" x2="727.5" y1="161.875" y2="161.875"/><text fill="#000000" font-family="sans-serif" font-size="13.75" lengthAdjust="spacingAndGlyphs" textLength="455" x="266.25" y="181.1487">+newPharmacy(name, nif,  postalCode, idAdmin, coordinateX, coordinateY)</text><text fill="#000000" font-family="sans-serif" font-size="13.75" lengthAdjust="spacingAndGlyphs" textLength="123.75" x="266.25" y="198.4436">+registerPharmacy()</text><text fill="#000000" font-family="sans-serif" font-size="13.75" lengthAdjust="spacingAndGlyphs" textLength="118.75" x="266.25" y="215.7385">+updatePharmacy()</text><!--MD5=[3e0aedc7adf2b55aad6037b6f336e7ae]
class UpdatePharmacy--><rect codeLine="18" fill="#FEFECE" filter="url(#f16yswzm7jea22)" height="181.0645" id="UpdatePharmacy" style="stroke: #A80036; stroke-width: 1.875;" width="533.75" x="978.75" y="8.75"/><ellipse cx="1180.9375" cy="28.75" fill="#ADD1B2" rx="13.75" ry="13.75" style="stroke: #A80036; stroke-width: 1.25;"/><path d="M1183.4375,24.375 Q1183.6914,23.75 1183.9844,23.4375 Q1184.2773,23.125 1184.6094,23.125 Q1185.1953,23.125 1185.5664,23.4766 Q1185.9375,23.8281 1185.9375,24.6484 L1185.9375,26.6016 Q1185.9375,27.4219 1185.5859,27.7734 Q1185.2344,28.125 1184.6875,28.125 Q1184.1992,28.125 1183.8867,27.9102 Q1183.5742,27.6953 1183.4375,27.1289 Q1183.3789,26.7383 1183.1641,26.5234 Q1182.7734,26.1133 1182.0703,25.8789 Q1181.3672,25.625 1180.6641,25.625 Q1179.7852,25.625 1179.043,25.9766 Q1178.3203,26.3281 1177.7539,27.1094 Q1177.1875,27.8906 1177.1875,28.9648 L1177.1875,30.1172 Q1177.1875,31.4063 1178.2422,32.2656 Q1179.2969,33.125 1181.1719,33.125 Q1182.2852,33.125 1183.0664,32.8711 Q1183.5156,32.7344 1184.0234,32.2852 Q1184.3555,32.0313 1184.5313,31.9531 Q1184.707,31.875 1184.9219,31.875 Q1185.332,31.875 1185.625,32.207 Q1185.9375,32.5195 1185.9375,32.9688 Q1185.9375,33.3984 1185.5078,33.9063 Q1184.8828,34.6484 1183.8867,35.0586 Q1182.5781,35.625 1180.9766,35.625 Q1179.1016,35.625 1177.5977,34.8828 Q1176.3867,34.2969 1175.5273,33.0273 Q1174.6875,31.7578 1174.6875,30.2539 L1174.6875,28.8867 Q1174.6875,27.3242 1175.4297,25.957 Q1176.1914,24.5898 1177.5,23.8672 Q1178.8281,23.125 1180.3125,23.125 Q1181.2109,23.125 1181.9922,23.4375 Q1182.7734,23.75 1183.4375,24.375 Z " fill="#000000"/><text fill="#000000" font-family="sans-serif" font-size="15" lengthAdjust="spacingAndGlyphs" textLength="118.75" x="1206.5625" y="34.8877">UpdatePharmacy</text><line style="stroke: #A80036; stroke-width: 1.875;" x1="980" x2="1511.25" y1="48.75" y2="48.75"/><line style="stroke: #A80036; stroke-width: 1.875;" x1="980" x2="1511.25" y1="58.75" y2="58.75"/><text fill="#000000" font-family="sans-serif" font-size="13.75" lengthAdjust="spacingAndGlyphs" textLength="518.75" x="986.25" y="78.0237">+Pharmacy newPharmacy(name, nif,  postalCode, idAdmin, coordinateX, coordinateY)</text><text fill="#000000" font-family="sans-serif" font-size="13.75" lengthAdjust="spacingAndGlyphs" textLength="183.75" x="986.25" y="95.3186">+registerPharmacy(pharmacy)</text><text fill="#000000" font-family="sans-serif" font-size="13.75" lengthAdjust="spacingAndGlyphs" textLength="183.75" x="986.25" y="112.6135">+validatePharmacy(pharmacy)</text><text fill="#000000" font-family="sans-serif" font-size="13.75" lengthAdjust="spacingAndGlyphs" textLength="182.5" x="986.25" y="129.9084">+removePharmacy(pharmacy)</text><text fill="#000000" font-family="sans-serif" font-size="13.75" lengthAdjust="spacingAndGlyphs" textLength="157.5" x="986.25" y="147.2034">-addPharmacy(Pharmacy)</text><text fill="#000000" font-family="sans-serif" font-size="13.75" lengthAdjust="spacingAndGlyphs" textLength="176.25" x="986.25" y="164.4983">-updatePharmacy(pharmacy)</text><text fill="#000000" font-family="sans-serif" font-size="13.75" lengthAdjust="spacingAndGlyphs" textLength="180" x="986.25" y="181.7932">-removePharmacy(pharmacy)</text><!--MD5=[7f2a9fafcebe4f099f71398fd3e2ed00]
class Pharmacy--><rect codeLine="28" fill="#FEFECE" filter="url(#f16yswzm7jea22)" height="146.4746" id="Pharmacy" style="stroke: #A80036; stroke-width: 1.875;" width="470" x="1666.25" y="126.25"/><ellipse cx="1861.5625" cy="146.25" fill="#ADD1B2" rx="13.75" ry="13.75" style="stroke: #A80036; stroke-width: 1.25;"/><path d="M1864.0625,141.875 Q1864.3164,141.25 1864.6094,140.9375 Q1864.9023,140.625 1865.2344,140.625 Q1865.8203,140.625 1866.1914,140.9766 Q1866.5625,141.3281 1866.5625,142.1484 L1866.5625,144.1016 Q1866.5625,144.9219 1866.2109,145.2734 Q1865.8594,145.625 1865.3125,145.625 Q1864.8242,145.625 1864.5117,145.4102 Q1864.1992,145.1953 1864.0625,144.6289 Q1864.0039,144.2383 1863.7891,144.0234 Q1863.3984,143.6133 1862.6953,143.3789 Q1861.9922,143.125 1861.2891,143.125 Q1860.4102,143.125 1859.668,143.4766 Q1858.9453,143.8281 1858.3789,144.6094 Q1857.8125,145.3906 1857.8125,146.4648 L1857.8125,147.6172 Q1857.8125,148.9063 1858.8672,149.7656 Q1859.9219,150.625 1861.7969,150.625 Q1862.9102,150.625 1863.6914,150.3711 Q1864.1406,150.2344 1864.6484,149.7852 Q1864.9805,149.5313 1865.1563,149.4531 Q1865.332,149.375 1865.5469,149.375 Q1865.957,149.375 1866.25,149.707 Q1866.5625,150.0195 1866.5625,150.4688 Q1866.5625,150.8984 1866.1328,151.4063 Q1865.5078,152.1484 1864.5117,152.5586 Q1863.2031,153.125 1861.6016,153.125 Q1859.7266,153.125 1858.2227,152.3828 Q1857.0117,151.7969 1856.1523,150.5273 Q1855.3125,149.2578 1855.3125,147.7539 L1855.3125,146.3867 Q1855.3125,144.8242 1856.0547,143.457 Q1856.8164,142.0898 1858.125,141.3672 Q1859.4531,140.625 1860.9375,140.625 Q1861.8359,140.625 1862.6172,140.9375 Q1863.3984,141.25 1864.0625,141.875 Z " fill="#000000"/><text fill="#000000" font-family="sans-serif" font-size="15" lengthAdjust="spacingAndGlyphs" textLength="68.75" x="1887.1875" y="152.3877">Pharmacy</text><line style="stroke: #A80036; stroke-width: 1.875;" x1="1667.5" x2="2135" y1="166.25" y2="166.25"/><text fill="#000000" font-family="sans-serif" font-size="13.75" lengthAdjust="spacingAndGlyphs" textLength="76.25" x="1673.75" y="185.5237">-String name</text><text fill="#000000" font-family="sans-serif" font-size="13.75" lengthAdjust="spacingAndGlyphs" textLength="70" x="1673.75" y="202.8186">-int idAdmin</text><text fill="#000000" font-family="sans-serif" font-size="13.75" lengthAdjust="spacingAndGlyphs" textLength="41.25" x="1673.75" y="220.1135">-int NIF</text><text fill="#000000" font-family="sans-serif" font-size="13.75" lengthAdjust="spacingAndGlyphs" textLength="111.25" x="1673.75" y="237.4084">-Address address</text><line style="stroke: #A80036; stroke-width: 1.875;" x1="1667.5" x2="2135" y1="245.4297" y2="245.4297"/><text fill="#000000" font-family="sans-serif" font-size="13.75" lengthAdjust="spacingAndGlyphs" textLength="455" x="1673.75" y="264.7034">+newPharmacy(name, nif,  postalCode, idAdmin, coordinateX, coordinateY)</text><!--MD5=[0f39e4cb6f03951afbf6d14bd2505654]
class Address--><rect codeLine="38" fill="#FEFECE" filter="url(#f16yswzm7jea22)" height="163.7695" id="Address" style="stroke: #A80036; stroke-width: 1.875;" width="210" x="2256.25" y="117.5"/><ellipse cx="2327.1875" cy="137.5" fill="#ADD1B2" rx="13.75" ry="13.75" style="stroke: #A80036; stroke-width: 1.25;"/><path d="M2329.6875,133.125 Q2329.9414,132.5 2330.2344,132.1875 Q2330.5273,131.875 2330.8594,131.875 Q2331.4453,131.875 2331.8164,132.2266 Q2332.1875,132.5781 2332.1875,133.3984 L2332.1875,135.3516 Q2332.1875,136.1719 2331.8359,136.5234 Q2331.4844,136.875 2330.9375,136.875 Q2330.4492,136.875 2330.1367,136.6602 Q2329.8242,136.4453 2329.6875,135.8789 Q2329.6289,135.4883 2329.4141,135.2734 Q2329.0234,134.8633 2328.3203,134.6289 Q2327.6172,134.375 2326.9141,134.375 Q2326.0352,134.375 2325.293,134.7266 Q2324.5703,135.0781 2324.0039,135.8594 Q2323.4375,136.6406 2323.4375,137.7148 L2323.4375,138.8672 Q2323.4375,140.1563 2324.4922,141.0156 Q2325.5469,141.875 2327.4219,141.875 Q2328.5352,141.875 2329.3164,141.6211 Q2329.7656,141.4844 2330.2734,141.0352 Q2330.6055,140.7813 2330.7813,140.7031 Q2330.957,140.625 2331.1719,140.625 Q2331.582,140.625 2331.875,140.957 Q2332.1875,141.2695 2332.1875,141.7188 Q2332.1875,142.1484 2331.7578,142.6563 Q2331.1328,143.3984 2330.1367,143.8086 Q2328.8281,144.375 2327.2266,144.375 Q2325.3516,144.375 2323.8477,143.6328 Q2322.6367,143.0469 2321.7773,141.7773 Q2320.9375,140.5078 2320.9375,139.0039 L2320.9375,137.6367 Q2320.9375,136.0742 2321.6797,134.707 Q2322.4414,133.3398 2323.75,132.6172 Q2325.0781,131.875 2326.5625,131.875 Q2327.4609,131.875 2328.2422,132.1875 Q2329.0234,132.5 2329.6875,133.125 Z " fill="#000000"/><text fill="#000000" font-family="sans-serif" font-size="15" lengthAdjust="spacingAndGlyphs" textLength="57.5" x="2352.8125" y="143.6377">Address</text><line style="stroke: #A80036; stroke-width: 1.875;" x1="2257.5" x2="2465" y1="157.5" y2="157.5"/><text fill="#000000" font-family="sans-serif" font-size="13.75" lengthAdjust="spacingAndGlyphs" textLength="78.75" x="2263.75" y="176.7737">-String street</text><text fill="#000000" font-family="sans-serif" font-size="13.75" lengthAdjust="spacingAndGlyphs" textLength="85" x="2263.75" y="194.0686">-String locality</text><text fill="#000000" font-family="sans-serif" font-size="13.75" lengthAdjust="spacingAndGlyphs" textLength="121.25" x="2263.75" y="211.3635">-double coordinateX</text><text fill="#000000" font-family="sans-serif" font-size="13.75" lengthAdjust="spacingAndGlyphs" textLength="122.5" x="2263.75" y="228.6584">-double coordinateY</text><text fill="#000000" font-family="sans-serif" font-size="13.75" lengthAdjust="spacingAndGlyphs" textLength="143.75" x="2263.75" y="245.9534">-PostalCode postalCode</text><line style="stroke: #A80036; stroke-width: 1.875;" x1="2257.5" x2="2465" y1="253.9746" y2="253.9746"/><text fill="#000000" font-family="sans-serif" font-size="13.75" lengthAdjust="spacingAndGlyphs" textLength="195" x="2263.75" y="273.2483">+Address(address, postalCode)</text><!--MD5=[f061b633de56a323bd4d344a8bec65fe]
class PostalCode--><rect codeLine="48" fill="#FEFECE" filter="url(#f16yswzm7jea22)" height="111.8848" id="PostalCode" style="stroke: #A80036; stroke-width: 1.875;" width="167.5" x="2586.25" y="143.125"/><ellipse cx="2625.8125" cy="163.125" fill="#ADD1B2" rx="13.75" ry="13.75" style="stroke: #A80036; stroke-width: 1.25;"/><path d="M2628.3125,158.75 Q2628.5664,158.125 2628.8594,157.8125 Q2629.1523,157.5 2629.4844,157.5 Q2630.0703,157.5 2630.4414,157.8516 Q2630.8125,158.2031 2630.8125,159.0234 L2630.8125,160.9766 Q2630.8125,161.7969 2630.4609,162.1484 Q2630.1094,162.5 2629.5625,162.5 Q2629.0742,162.5 2628.7617,162.2852 Q2628.4492,162.0703 2628.3125,161.5039 Q2628.2539,161.1133 2628.0391,160.8984 Q2627.6484,160.4883 2626.9453,160.2539 Q2626.2422,160 2625.5391,160 Q2624.6602,160 2623.918,160.3516 Q2623.1953,160.7031 2622.6289,161.4844 Q2622.0625,162.2656 2622.0625,163.3398 L2622.0625,164.4922 Q2622.0625,165.7813 2623.1172,166.6406 Q2624.1719,167.5 2626.0469,167.5 Q2627.1602,167.5 2627.9414,167.2461 Q2628.3906,167.1094 2628.8984,166.6602 Q2629.2305,166.4063 2629.4063,166.3281 Q2629.582,166.25 2629.7969,166.25 Q2630.207,166.25 2630.5,166.582 Q2630.8125,166.8945 2630.8125,167.3438 Q2630.8125,167.7734 2630.3828,168.2813 Q2629.7578,169.0234 2628.7617,169.4336 Q2627.4531,170 2625.8516,170 Q2623.9766,170 2622.4727,169.2578 Q2621.2617,168.6719 2620.4023,167.4023 Q2619.5625,166.1328 2619.5625,164.6289 L2619.5625,163.2617 Q2619.5625,161.6992 2620.3047,160.332 Q2621.0664,158.9648 2622.375,158.2422 Q2623.7031,157.5 2625.1875,157.5 Q2626.0859,157.5 2626.8672,157.8125 Q2627.6484,158.125 2628.3125,158.75 Z " fill="#000000"/><text fill="#000000" font-family="sans-serif" font-size="15" lengthAdjust="spacingAndGlyphs" textLength="81.25" x="2647.9375" y="169.2627">PostalCode</text><line style="stroke: #A80036; stroke-width: 1.875;" x1="2587.5" x2="2752.5" y1="183.125" y2="183.125"/><text fill="#000000" font-family="sans-serif" font-size="13.75" lengthAdjust="spacingAndGlyphs" textLength="43.75" x="2593.75" y="202.3987">-int city</text><text fill="#000000" font-family="sans-serif" font-size="13.75" lengthAdjust="spacingAndGlyphs" textLength="50" x="2593.75" y="219.6936">-int local</text><line style="stroke: #A80036; stroke-width: 1.875;" x1="2587.5" x2="2752.5" y1="227.7148" y2="227.7148"/><text fill="#000000" font-family="sans-serif" font-size="13.75" lengthAdjust="spacingAndGlyphs" textLength="152.5" x="2593.75" y="246.9885">+postalCode(postalCode)</text><!--MD5=[eb729ed40373e67342a05d81bf572471]
link UpdatePharmacyUI to UpdatePharmacyController--><path codeLine="55" d="M182.72,168.125 C203.88,168.125 227.5888,168.125 252.2188,168.125 " fill="none" id="UpdatePharmacyUI-to-UpdatePharmacyController" style="stroke: #A80036; stroke-width: 1.25; stroke-dasharray: 7.0,7.0;"/><polygon fill="#A80036" points="258.5,168.125,247.25,163.125,252.25,168.125,247.25,173.125,258.5,168.125" style="stroke: #A80036; stroke-width: 1.25;"/><!--MD5=[ed32f8ff4b1e29618c9022d853f55eb7]
link UpdatePharmacyController to Platform--><path codeLine="56" d="M703.9938,111.8575 C739.075,102.4125 772.5563,93.3987 798.8187,86.3275 " fill="none" id="UpdatePharmacyController-to-Platform" style="stroke: #A80036; stroke-width: 1.25; stroke-dasharray: 7.0,7.0;"/><polygon fill="#A80036" points="804.9925,84.665,792.8293,82.7625,798.9575,86.2903,795.4298,92.4185,804.9925,84.665" style="stroke: #A80036; stroke-width: 1.25;"/><!--MD5=[5516174f938b915a338b939894fbed20]
link UpdatePharmacyController to UpdatePharmacy--><path codeLine="57" d="M729.025,146.655 C805.9862,139.5938 892.21,131.6838 971.7825,124.3838 " fill="none" id="UpdatePharmacyController-to-UpdatePharmacy" style="stroke: #A80036; stroke-width: 1.25; stroke-dasharray: 7.0,7.0;"/><polygon fill="#A80036" points="978.4775,123.7688,966.8174,119.8184,972.2537,124.3402,967.7318,129.7765,978.4775,123.7688" style="stroke: #A80036; stroke-width: 1.25;"/><!--MD5=[7ef8b82bcc63bdc9b9786df9278485ed]
link UpdatePharmacyController to Pharmacy--><path codeLine="58" d="M729.0738,193.5818 C808.2538,201.0501 897.2463,208.197 978.75,211.875 C1215.7313,222.5694 1275.3125,215.6996 1512.5,211.875 C1560,211.109 1610.7625,209.8153 1659.3875,208.343 " fill="none" id="UpdatePharmacyController-to-Pharmacy" style="stroke: #A80036; stroke-width: 1.25; stroke-dasharray: 7.0,7.0;"/><polygon fill="#A80036" points="1665.9125,208.1436,1654.5109,203.4997,1659.6656,208.34,1654.8252,213.4947,1665.9125,208.1436" style="stroke: #A80036; stroke-width: 1.25;"/><!--MD5=[067e383a778695b3af2b58deea9fc4a2]
link Platform to UpdatePharmacy--><path codeLine="60" d="M902.745,75.2475 C922.1088,76.615 946.11,78.31 972.35,80.1625 " fill="none" id="Platform-to-UpdatePharmacy" style="stroke: #A80036; stroke-width: 1.25;"/><polygon fill="#A80036" points="978.7025,80.6113,967.8333,74.8299,972.4681,80.1703,967.1278,84.805,978.7025,80.6113" style="stroke: #A80036; stroke-width: 1.25;"/><text fill="#000000" font-family="sans-serif" font-size="16.25" lengthAdjust="spacingAndGlyphs" textLength="8.75" x="912.5851" y="94.6225">1</text><text fill="#000000" font-family="sans-serif" font-size="16.25" lengthAdjust="spacingAndGlyphs" textLength="8.75" x="960.2027" y="97.1764">1</text><!--MD5=[eafb32ed0a6194f8a573045307231801]
link UpdatePharmacy to Pharmacy--><path codeLine="61" d="M1512.525,140.0488 C1563.3875,147.835 1616.275,155.935 1666.05,163.5551 " fill="none" id="UpdatePharmacy-Pharmacy" style="stroke: #A80036; stroke-width: 1.25;"/><polygon fill="#000000" points="1562.428,135.5406,1551.8079,130.1981,1550.6959,137.4608,1562.428,135.5406" style="stroke: #000000; stroke-width: 1.25;"/><text fill="#000000" font-family="sans-serif" font-size="16.25" lengthAdjust="spacingAndGlyphs" textLength="60" x="1567.5" y="141.2439">Updates</text><text fill="#000000" font-family="sans-serif" font-size="16.25" lengthAdjust="spacingAndGlyphs" textLength="8.75" x="1522.2739" y="158.75">1</text><text fill="#000000" font-family="sans-serif" font-size="16.25" lengthAdjust="spacingAndGlyphs" textLength="6.25" x="1649.7457" y="179.3393">*</text><!--MD5=[89baec1bfb4a213750f7c61516e0a0f1]
link Pharmacy to Address--><path codeLine="62" d="M2136.275,199.375 C2178.3125,199.375 2220.1125,199.375 2256.0125,199.375 " fill="none" id="Pharmacy-Address" style="stroke: #A80036; stroke-width: 1.25;"/><polygon fill="#000000" points="2186.25,188.3447,2174.9436,184.6711,2174.9436,192.0184,2186.25,188.3447" style="stroke: #000000; stroke-width: 1.25;"/><text fill="#000000" font-family="sans-serif" font-size="16.25" lengthAdjust="spacingAndGlyphs" textLength="26.25" x="2191.25" y="194.9939">has</text><text fill="#000000" font-family="sans-serif" font-size="16.25" lengthAdjust="spacingAndGlyphs" textLength="8.75" x="2146.3747" y="216.6703">1</text><text fill="#000000" font-family="sans-serif" font-size="16.25" lengthAdjust="spacingAndGlyphs" textLength="8.75" x="2237.5001" y="217.1532">1</text><!--MD5=[4da5c7c17dc5d5ecf3707ff92f3d6286]
link Address to PostalCode--><path codeLine="63" d="M2466.6125,199.375 C2505.625,199.375 2549.3875,199.375 2586.1875,199.375 " fill="none" id="Address-PostalCode" style="stroke: #A80036; stroke-width: 1.25;"/><polygon fill="#000000" points="2516.25,188.3447,2504.9436,184.6711,2504.9436,192.0184,2516.25,188.3447" style="stroke: #000000; stroke-width: 1.25;"/><text fill="#000000" font-family="sans-serif" font-size="16.25" lengthAdjust="spacingAndGlyphs" textLength="26.25" x="2521.25" y="194.9939">has</text><text fill="#000000" font-family="sans-serif" font-size="16.25" lengthAdjust="spacingAndGlyphs" textLength="25" x="2476.373" y="217.0894">1..*</text><text fill="#000000" font-family="sans-serif" font-size="16.25" lengthAdjust="spacingAndGlyphs" textLength="8.75" x="2567.2408" y="217.4611">1</text><!--MD5=[65ecee651583c6e9ad4a3c8e69c442b0]
@startuml
skinparam classAttributeIconSize 0

left to right direction

class Platform {
}

class UpdatePharmacyUI {
}

class UpdatePharmacyController {
 +newPharmacy(name, nif,  postalCode, idAdmin, coordinateX, coordinateY)
 +registerPharmacy()
 +updatePharmacy()
}


class UpdatePharmacy {
  +Pharmacy newPharmacy(name, nif,  postalCode, idAdmin, coordinateX, coordinateY)
  +registerPharmacy(pharmacy)
  +validatePharmacy(pharmacy)
  +removePharmacy(pharmacy)
  -addPharmacy(Pharmacy)
  -updatePharmacy(pharmacy)
  -removePharmacy(pharmacy)
}

class Pharmacy {
  -String name
  -int idAdmin
  -int NIF
  -Address address

  +newPharmacy(name, nif,  postalCode, idAdmin, coordinateX, coordinateY)

}

class Address {
  -String street
  -String locality
  -double coordinateX
  -double coordinateY
  -PostalCode postalCode

  +Address(address, postalCode)
}

class PostalCode {
  -int city
  -int local
  +postalCode(postalCode)
}


UpdatePharmacyUI ..> UpdatePharmacyController
UpdatePharmacyController ..> Platform
UpdatePharmacyController ...> UpdatePharmacy
UpdatePharmacyController ...> Pharmacy

Platform "1"- ->"1" UpdatePharmacy
UpdatePharmacy "1" - - "*" Pharmacy : Updates >
Pharmacy "1" - - "1" Address: has  >
Address "1..*" - - "1" PostalCode: has  >

@enduml

PlantUML version 1.2020.20(Sat Nov 21 10:02:45 GMT 2020)
(GPL source distribution)
Java Runtime: OpenJDK Runtime Environment
JVM: OpenJDK 64-Bit Server VM
Default Encoding: Cp1252
Language: pt
Country: PT
--></g></svg>