<?xml version="1.0" encoding="UTF-8" standalone="no"?><svg xmlns="http://www.w3.org/2000/svg" xmlns:xlink="http://www.w3.org/1999/xlink" contentScriptType="application/ecmascript" contentStyleType="text/css" height="422px" preserveAspectRatio="none" style="width:567px;height:422px;" version="1.1" viewBox="0 0 567 422" width="567px" zoomAndPan="magnify"><defs><filter height="300%" id="f1mslcnyhxcg5c" width="300%" x="-1" y="-1"><feGaussianBlur result="blurOut" stdDeviation="2.0"/><feColorMatrix in="blurOut" result="blurOut2" type="matrix" values="0 0 0 0 0 0 0 0 0 0 0 0 0 0 0 0 0 0 .4 0"/><feOffset dx="4.0" dy="4.0" in="blurOut2" result="blurOut3"/><feBlend in="SourceGraphic" in2="blurOut3" mode="normal"/></filter></defs><g><rect fill="#FFFFFF" filter="url(#f1mslcnyhxcg5c)" height="212.4609" style="stroke:#A80036;stroke-width:1.0;" width="10" x="41" y="99.6094"/><rect fill="#FFFFFF" filter="url(#f1mslcnyhxcg5c)" height="91.0547" style="stroke:#A80036;stroke-width:1.0;" width="10" x="254" y="129.9609"/><rect fill="#FFFFFF" filter="url(#f1mslcnyhxcg5c)" height="30.3516" style="stroke:#A80036;stroke-width:1.0;" width="10" x="336.5" y="221.0156"/><rect fill="#FFFFFF" filter="url(#f1mslcnyhxcg5c)" height="30.3516" style="stroke:#A80036;stroke-width:1.0;" width="10" x="418" y="251.3672"/><rect fill="#FFFFFF" filter="url(#f1mslcnyhxcg5c)" height="30.3516" style="stroke:#A80036;stroke-width:1.0;" width="10" x="498.5" y="281.7188"/><rect fill="#FFFFFF" filter="url(#f1mslcnyhxcg5c)" height="170.1094" style="stroke:#000000;stroke-width:2.0;" width="543.5" x="10" y="149.9609"/><line style="stroke:#A80036;stroke-width:1.0;stroke-dasharray:5.0,5.0;" x1="46" x2="46" y1="89.6094" y2="337.0703"/><line style="stroke:#A80036;stroke-width:1.0;stroke-dasharray:5.0,5.0;" x1="258.5" x2="258.5" y1="89.6094" y2="337.0703"/><line style="stroke:#A80036;stroke-width:1.0;stroke-dasharray:5.0,5.0;" x1="341.5" x2="341.5" y1="89.6094" y2="337.0703"/><line style="stroke:#A80036;stroke-width:1.0;stroke-dasharray:5.0,5.0;" x1="422.5" x2="422.5" y1="89.6094" y2="337.0703"/><line style="stroke:#A80036;stroke-width:1.0;stroke-dasharray:5.0,5.0;" x1="503.5" x2="503.5" y1="89.6094" y2="337.0703"/><text fill="#000000" font-family="sans-serif" font-size="14" lengthAdjust="spacingAndGlyphs" textLength="46" x="20" y="86.5332">System</text><ellipse cx="46" cy="15" fill="#FEFECE" filter="url(#f1mslcnyhxcg5c)" rx="8" ry="8" style="stroke:#A80036;stroke-width:2.0;"/><path d="M46,23 L46,50 M33,31 L59,31 M46,50 L33,65 M46,50 L59,65 " fill="none" filter="url(#f1mslcnyhxcg5c)" style="stroke:#A80036;stroke-width:2.0;"/><text fill="#000000" font-family="sans-serif" font-size="14" lengthAdjust="spacingAndGlyphs" textLength="46" x="20" y="350.6035">System</text><ellipse cx="46" cy="363.6797" fill="#FEFECE" filter="url(#f1mslcnyhxcg5c)" rx="8" ry="8" style="stroke:#A80036;stroke-width:2.0;"/><path d="M46,371.6797 L46,398.6797 M33,379.6797 L59,379.6797 M46,398.6797 L33,413.6797 M46,398.6797 L59,413.6797 " fill="none" filter="url(#f1mslcnyhxcg5c)" style="stroke:#A80036;stroke-width:2.0;"/><rect fill="#FEFECE" filter="url(#f1mslcnyhxcg5c)" height="49.2188" style="stroke:#A80036;stroke-width:1.5;" width="59" x="227.5" y="35.3906"/><text fill="#000000" font-family="sans-serif" font-size="14" lengthAdjust="spacingAndGlyphs" textLength="45" x="234.5" y="56.9238">Order :</text><text fill="#000000" font-family="sans-serif" font-size="14" lengthAdjust="spacingAndGlyphs" textLength="37" x="238.5" y="74.5332">Order</text><rect fill="#FEFECE" filter="url(#f1mslcnyhxcg5c)" height="49.2188" style="stroke:#A80036;stroke-width:1.5;" width="59" x="227.5" y="336.0703"/><text fill="#000000" font-family="sans-serif" font-size="14" lengthAdjust="spacingAndGlyphs" textLength="45" x="234.5" y="357.6035">Order :</text><text fill="#000000" font-family="sans-serif" font-size="14" lengthAdjust="spacingAndGlyphs" textLength="37" x="238.5" y="375.2129">Order</text><rect fill="#FEFECE" filter="url(#f1mslcnyhxcg5c)" height="49.2188" style="stroke:#A80036;stroke-width:1.5;" width="78" x="300.5" y="35.3906"/><text fill="#000000" font-family="sans-serif" font-size="14" lengthAdjust="spacingAndGlyphs" textLength="56" x="311.5" y="56.9238">ordLine :</text><text fill="#000000" font-family="sans-serif" font-size="14" lengthAdjust="spacingAndGlyphs" textLength="64" x="307.5" y="74.5332">OrderLine</text><rect fill="#FEFECE" filter="url(#f1mslcnyhxcg5c)" height="49.2188" style="stroke:#A80036;stroke-width:1.5;" width="78" x="300.5" y="336.0703"/><text fill="#000000" font-family="sans-serif" font-size="14" lengthAdjust="spacingAndGlyphs" textLength="56" x="311.5" y="357.6035">ordLine :</text><text fill="#000000" font-family="sans-serif" font-size="14" lengthAdjust="spacingAndGlyphs" textLength="64" x="307.5" y="375.2129">OrderLine</text><rect fill="#FEFECE" filter="url(#f1mslcnyhxcg5c)" height="49.2188" style="stroke:#A80036;stroke-width:1.5;" width="57" x="392.5" y="35.3906"/><text fill="#000000" font-family="sans-serif" font-size="14" lengthAdjust="spacingAndGlyphs" textLength="43" x="399.5" y="56.9238">Stock :</text><text fill="#000000" font-family="sans-serif" font-size="14" lengthAdjust="spacingAndGlyphs" textLength="35" x="403.5" y="74.5332">Stock</text><rect fill="#FEFECE" filter="url(#f1mslcnyhxcg5c)" height="49.2188" style="stroke:#A80036;stroke-width:1.5;" width="57" x="392.5" y="336.0703"/><text fill="#000000" font-family="sans-serif" font-size="14" lengthAdjust="spacingAndGlyphs" textLength="43" x="399.5" y="357.6035">Stock :</text><text fill="#000000" font-family="sans-serif" font-size="14" lengthAdjust="spacingAndGlyphs" textLength="35" x="403.5" y="375.2129">Stock</text><rect fill="#FEFECE" filter="url(#f1mslcnyhxcg5c)" height="49.2188" style="stroke:#A80036;stroke-width:1.5;" width="76" x="463.5" y="35.3906"/><text fill="#000000" font-family="sans-serif" font-size="14" lengthAdjust="spacingAndGlyphs" textLength="53" x="475" y="56.9238">stkLine :</text><text fill="#000000" font-family="sans-serif" font-size="14" lengthAdjust="spacingAndGlyphs" textLength="62" x="470.5" y="74.5332">StockLine</text><rect fill="#FEFECE" filter="url(#f1mslcnyhxcg5c)" height="49.2188" style="stroke:#A80036;stroke-width:1.5;" width="76" x="463.5" y="336.0703"/><text fill="#000000" font-family="sans-serif" font-size="14" lengthAdjust="spacingAndGlyphs" textLength="53" x="475" y="357.6035">stkLine :</text><text fill="#000000" font-family="sans-serif" font-size="14" lengthAdjust="spacingAndGlyphs" textLength="62" x="470.5" y="375.2129">StockLine</text><rect fill="#FFFFFF" filter="url(#f1mslcnyhxcg5c)" height="212.4609" style="stroke:#A80036;stroke-width:1.0;" width="10" x="41" y="99.6094"/><rect fill="#FFFFFF" filter="url(#f1mslcnyhxcg5c)" height="91.0547" style="stroke:#A80036;stroke-width:1.0;" width="10" x="254" y="129.9609"/><rect fill="#FFFFFF" filter="url(#f1mslcnyhxcg5c)" height="30.3516" style="stroke:#A80036;stroke-width:1.0;" width="10" x="336.5" y="221.0156"/><rect fill="#FFFFFF" filter="url(#f1mslcnyhxcg5c)" height="30.3516" style="stroke:#A80036;stroke-width:1.0;" width="10" x="418" y="251.3672"/><rect fill="#FFFFFF" filter="url(#f1mslcnyhxcg5c)" height="30.3516" style="stroke:#A80036;stroke-width:1.0;" width="10" x="498.5" y="281.7188"/><line style="stroke:#A80036;stroke-width:1.0;" x1="51" x2="98" y1="116.9609" y2="116.9609"/><line style="stroke:#A80036;stroke-width:1.0;" x1="98" x2="98" y1="116.9609" y2="129.9609"/><line style="stroke:#A80036;stroke-width:1.0;" x1="57" x2="98" y1="129.9609" y2="129.9609"/><polygon fill="#A80036" points="67,125.9609,57,129.9609,67,133.9609,63,129.9609" style="stroke:#A80036;stroke-width:1.0;"/><text fill="#000000" font-family="sans-serif" font-size="13" font-weight="bold" lengthAdjust="spacingAndGlyphs" textLength="7" x="63" y="112.1045">1</text><text fill="#000000" font-family="sans-serif" font-size="13" lengthAdjust="spacingAndGlyphs" textLength="162" x="74" y="112.1045">order payment goes through</text><path d="M10,149.9609 L83,149.9609 L83,157.9609 L73,167.9609 L10,167.9609 L10,149.9609 " fill="#EEEEEE" style="stroke:#000000;stroke-width:1.0;"/><rect fill="none" height="170.1094" style="stroke:#000000;stroke-width:2.0;" width="543.5" x="10" y="149.9609"/><text fill="#000000" font-family="sans-serif" font-size="13" font-weight="bold" lengthAdjust="spacingAndGlyphs" textLength="28" x="25" y="164.4561">loop</text><polygon fill="#A80036" points="242,186.6641,252,190.6641,242,194.6641,246,190.6641" style="stroke:#A80036;stroke-width:1.0;"/><line style="stroke:#A80036;stroke-width:1.0;" x1="51" x2="248" y1="190.6641" y2="190.6641"/><text fill="#000000" font-family="sans-serif" font-size="13" font-weight="bold" lengthAdjust="spacingAndGlyphs" textLength="7" x="58" y="185.8076">2</text><text fill="#000000" font-family="sans-serif" font-size="13" lengthAdjust="spacingAndGlyphs" textLength="140" x="69" y="185.8076">ordLine = getOrderLine()</text><polygon fill="#A80036" points="247,217.0156,257,221.0156,247,225.0156,251,221.0156" style="stroke:#A80036;stroke-width:1.0;"/><line style="stroke:#A80036;stroke-width:1.0;" x1="51" x2="253" y1="221.0156" y2="221.0156"/><text fill="#000000" font-family="sans-serif" font-size="13" font-weight="bold" lengthAdjust="spacingAndGlyphs" textLength="7" x="58" y="216.1592">3</text><text fill="#000000" font-family="sans-serif" font-size="13" lengthAdjust="spacingAndGlyphs" textLength="168" x="69" y="216.1592">pharmaID = getPharmacyID()</text><polygon fill="#A80036" points="329.5,247.3672,339.5,251.3672,329.5,255.3672,333.5,251.3672" style="stroke:#A80036;stroke-width:1.0;"/><line style="stroke:#A80036;stroke-width:1.0;" x1="51" x2="335.5" y1="251.3672" y2="251.3672"/><text fill="#000000" font-family="sans-serif" font-size="13" font-weight="bold" lengthAdjust="spacingAndGlyphs" textLength="7" x="58" y="246.5107">4</text><text fill="#000000" font-family="sans-serif" font-size="13" lengthAdjust="spacingAndGlyphs" textLength="154" x="69" y="246.5107">idProduct = getProductID()</text><polygon fill="#A80036" points="411,277.7188,421,281.7188,411,285.7188,415,281.7188" style="stroke:#A80036;stroke-width:1.0;"/><line style="stroke:#A80036;stroke-width:1.0;" x1="51" x2="417" y1="281.7188" y2="281.7188"/><text fill="#000000" font-family="sans-serif" font-size="13" font-weight="bold" lengthAdjust="spacingAndGlyphs" textLength="7" x="58" y="276.8623">5</text><text fill="#000000" font-family="sans-serif" font-size="13" lengthAdjust="spacingAndGlyphs" textLength="246" x="69" y="276.8623">stkLine = getStkLine(idProduct, pharmaID)</text><polygon fill="#A80036" points="491.5,308.0703,501.5,312.0703,491.5,316.0703,495.5,312.0703" style="stroke:#A80036;stroke-width:1.0;"/><line style="stroke:#A80036;stroke-width:1.0;" x1="46" x2="497.5" y1="312.0703" y2="312.0703"/><text fill="#000000" font-family="sans-serif" font-size="13" font-weight="bold" lengthAdjust="spacingAndGlyphs" textLength="7" x="53" y="307.2139">6</text><text fill="#000000" font-family="sans-serif" font-size="13" lengthAdjust="spacingAndGlyphs" textLength="83" x="64" y="307.2139">removeStock()</text><!--MD5=[f55a562fd599a44e70995c3b3ad348ae]
@startuml
autonumber

actor "System" as SYS
participant "Order :\nOrder" as ORD
participant "ordLine :\nOrderLine" as ORDL
participant "Stock :\nStock" as STK
participant "stkLine :\nStockLine" as STKL

activate SYS

SYS -> SYS : order payment goes through
activate ORD
loop
SYS -> ORD : ordLine = getOrderLine()
SYS -> ORD : pharmaID = getPharmacyID()
deactivate ORD
activate ORDL
SYS -> ORDL : idProduct = getProductID()
deactivate ORDL
activate STK
SYS -> STK : stkLine = getStkLine(idProduct, pharmaID)
deactivate STK
activate STKL
SYS -> STKL : removeStock()
deactivate STKL
deactivate SYS
end loop
@enduml

PlantUML version 1.2020.26(Mon Dec 21 17:45:07 GMT 2020)
(GPL source distribution)
Java Runtime: OpenJDK Runtime Environment
JVM: OpenJDK 64-Bit Server VM
Default Encoding: Cp1252
Language: en
Country: US
--></g></svg>