<?xml version="1.0" encoding="UTF-8" standalone="no"?><svg xmlns="http://www.w3.org/2000/svg" xmlns:xlink="http://www.w3.org/1999/xlink" contentScriptType="application/ecmascript" contentStyleType="text/css" height="124px" preserveAspectRatio="none" style="width:932px;height:124px;" version="1.1" viewBox="0 0 932 124" width="932px" zoomAndPan="magnify"><defs><filter height="300%" id="foru9rc18o5qf" width="300%" x="-1" y="-1"><feGaussianBlur result="blurOut" stdDeviation="2.0"/><feColorMatrix in="blurOut" result="blurOut2" type="matrix" values="0 0 0 0 0 0 0 0 0 0 0 0 0 0 0 0 0 0 .4 0"/><feOffset dx="4.0" dy="4.0" in="blurOut2" result="blurOut3"/><feBlend in="SourceGraphic" in2="blurOut3" mode="normal"/></filter></defs><g><!--MD5=[7f2a9fafcebe4f099f71398fd3e2ed00]
class Pharmacy--><rect codeLine="5" fill="#FEFECE" filter="url(#foru9rc18o5qf)" height="89.5078" id="Pharmacy" style="stroke:#A80036;stroke-width:1.5;" width="122" x="216" y="13.5"/><ellipse cx="246.75" cy="29.5" fill="#ADD1B2" rx="11" ry="11" style="stroke:#A80036;stroke-width:1.0;"/><path d="M248.75,26 Q248.9531,25.5 249.1875,25.25 Q249.4219,25 249.6875,25 Q250.1563,25 250.4531,25.2813 Q250.75,25.5625 250.75,26.2188 L250.75,27.7813 Q250.75,28.4375 250.4688,28.7188 Q250.1875,29 249.75,29 Q249.3594,29 249.1094,28.8281 Q248.8594,28.6563 248.75,28.2031 Q248.7031,27.8906 248.5313,27.7188 Q248.2188,27.3906 247.6563,27.2031 Q247.0938,27 246.5313,27 Q245.8281,27 245.2344,27.2813 Q244.6563,27.5625 244.2031,28.1875 Q243.75,28.8125 243.75,29.6719 L243.75,30.5938 Q243.75,31.625 244.5938,32.3125 Q245.4375,33 246.9375,33 Q247.8281,33 248.4531,32.7969 Q248.8125,32.6875 249.2188,32.3281 Q249.4844,32.125 249.625,32.0625 Q249.7656,32 249.9375,32 Q250.2656,32 250.5,32.2656 Q250.75,32.5156 250.75,32.875 Q250.75,33.2188 250.4063,33.625 Q249.9063,34.2188 249.1094,34.5469 Q248.0625,35 246.7813,35 Q245.2813,35 244.0781,34.4063 Q243.1094,33.9375 242.4219,32.9219 Q241.75,31.9063 241.75,30.7031 L241.75,29.6094 Q241.75,28.3594 242.3438,27.2656 Q242.9531,26.1719 244,25.5938 Q245.0625,25 246.25,25 Q246.9688,25 247.5938,25.25 Q248.2188,25.5 248.75,26 Z " fill="#000000"/><text fill="#000000" font-family="sans-serif" font-size="12" lengthAdjust="spacingAndGlyphs" textLength="55" x="264.25" y="34.4102">Pharmacy</text><line style="stroke:#A80036;stroke-width:1.5;" x1="217" x2="337" y1="45.5" y2="45.5"/><text fill="#000000" font-family="sans-serif" font-size="11" lengthAdjust="spacingAndGlyphs" textLength="110" x="222" y="60.9189">-String pharmacyName</text><text fill="#000000" font-family="sans-serif" font-size="11" lengthAdjust="spacingAndGlyphs" textLength="106" x="222" y="74.7549">-String companyName</text><text fill="#000000" font-family="sans-serif" font-size="11" lengthAdjust="spacingAndGlyphs" textLength="33" x="222" y="88.5908">-int NIF</text><line style="stroke:#A80036;stroke-width:1.5;" x1="217" x2="337" y1="95.0078" y2="95.0078"/><!--MD5=[cf4d6237fcae255cd2e1656cf84a30e2]
class Order--><rect codeLine="11" fill="#FEFECE" filter="url(#foru9rc18o5qf)" height="89.5078" id="Order" style="stroke:#A80036;stroke-width:1.5;" width="82" x="7" y="13.5"/><ellipse cx="30.55" cy="29.5" fill="#ADD1B2" rx="11" ry="11" style="stroke:#A80036;stroke-width:1.0;"/><path d="M32.55,26 Q32.7531,25.5 32.9875,25.25 Q33.2219,25 33.4875,25 Q33.9563,25 34.2531,25.2813 Q34.55,25.5625 34.55,26.2188 L34.55,27.7813 Q34.55,28.4375 34.2688,28.7188 Q33.9875,29 33.55,29 Q33.1594,29 32.9094,28.8281 Q32.6594,28.6563 32.55,28.2031 Q32.5031,27.8906 32.3313,27.7188 Q32.0188,27.3906 31.4563,27.2031 Q30.8938,27 30.3313,27 Q29.6281,27 29.0344,27.2813 Q28.4563,27.5625 28.0031,28.1875 Q27.55,28.8125 27.55,29.6719 L27.55,30.5938 Q27.55,31.625 28.3938,32.3125 Q29.2375,33 30.7375,33 Q31.6281,33 32.2531,32.7969 Q32.6125,32.6875 33.0188,32.3281 Q33.2844,32.125 33.425,32.0625 Q33.5656,32 33.7375,32 Q34.0656,32 34.3,32.2656 Q34.55,32.5156 34.55,32.875 Q34.55,33.2188 34.2063,33.625 Q33.7063,34.2188 32.9094,34.5469 Q31.8625,35 30.5813,35 Q29.0813,35 27.8781,34.4063 Q26.9094,33.9375 26.2219,32.9219 Q25.55,31.9063 25.55,30.7031 L25.55,29.6094 Q25.55,28.3594 26.1438,27.2656 Q26.7531,26.1719 27.8,25.5938 Q28.8625,25 30.05,25 Q30.7688,25 31.3938,25.25 Q32.0188,25.5 32.55,26 Z " fill="#000000"/><text fill="#000000" font-family="sans-serif" font-size="12" lengthAdjust="spacingAndGlyphs" textLength="31" x="46.45" y="34.4102">Order</text><line style="stroke:#A80036;stroke-width:1.5;" x1="8" x2="88" y1="45.5" y2="45.5"/><text fill="#000000" font-family="sans-serif" font-size="11" lengthAdjust="spacingAndGlyphs" textLength="70" x="13" y="60.9189">-String orderID</text><text fill="#000000" font-family="sans-serif" font-size="11" lengthAdjust="spacingAndGlyphs" textLength="69" x="13" y="74.7549">-String clientID</text><text fill="#000000" font-family="sans-serif" font-size="11" lengthAdjust="spacingAndGlyphs" textLength="43" x="13" y="88.5908">-List cart</text><line style="stroke:#A80036;stroke-width:1.5;" x1="8" x2="88" y1="95.0078" y2="95.0078"/><!--MD5=[72136138052d025cffdce3c22fbd185f]
class Product--><rect codeLine="17" fill="#FEFECE" filter="url(#foru9rc18o5qf)" height="103.3438" id="Product" style="stroke:#A80036;stroke-width:1.5;" width="111" x="807" y="7"/><ellipse cx="838.65" cy="23" fill="#ADD1B2" rx="11" ry="11" style="stroke:#A80036;stroke-width:1.0;"/><path d="M840.65,19.5 Q840.8531,19 841.0875,18.75 Q841.3219,18.5 841.5875,18.5 Q842.0563,18.5 842.3531,18.7813 Q842.65,19.0625 842.65,19.7188 L842.65,21.2813 Q842.65,21.9375 842.3688,22.2188 Q842.0875,22.5 841.65,22.5 Q841.2594,22.5 841.0094,22.3281 Q840.7594,22.1563 840.65,21.7031 Q840.6031,21.3906 840.4313,21.2188 Q840.1188,20.8906 839.5563,20.7031 Q838.9938,20.5 838.4313,20.5 Q837.7281,20.5 837.1344,20.7813 Q836.5563,21.0625 836.1031,21.6875 Q835.65,22.3125 835.65,23.1719 L835.65,24.0938 Q835.65,25.125 836.4938,25.8125 Q837.3375,26.5 838.8375,26.5 Q839.7281,26.5 840.3531,26.2969 Q840.7125,26.1875 841.1188,25.8281 Q841.3844,25.625 841.525,25.5625 Q841.6656,25.5 841.8375,25.5 Q842.1656,25.5 842.4,25.7656 Q842.65,26.0156 842.65,26.375 Q842.65,26.7188 842.3063,27.125 Q841.8063,27.7188 841.0094,28.0469 Q839.9625,28.5 838.6813,28.5 Q837.1813,28.5 835.9781,27.9063 Q835.0094,27.4375 834.3219,26.4219 Q833.65,25.4063 833.65,24.2031 L833.65,23.1094 Q833.65,21.8594 834.2438,20.7656 Q834.8531,19.6719 835.9,19.0938 Q836.9625,18.5 838.15,18.5 Q838.8688,18.5 839.4938,18.75 Q840.1188,19 840.65,19.5 Z " fill="#000000"/><text fill="#000000" font-family="sans-serif" font-size="12" lengthAdjust="spacingAndGlyphs" textLength="42" x="856.35" y="27.9102">Product</text><line style="stroke:#A80036;stroke-width:1.5;" x1="808" x2="917" y1="39" y2="39"/><text fill="#000000" font-family="sans-serif" font-size="11" lengthAdjust="spacingAndGlyphs" textLength="96" x="813" y="54.4189">-String productType</text><text fill="#000000" font-family="sans-serif" font-size="11" lengthAdjust="spacingAndGlyphs" textLength="99" x="813" y="68.2549">-String productName</text><text fill="#000000" font-family="sans-serif" font-size="11" lengthAdjust="spacingAndGlyphs" textLength="63" x="813" y="82.0908">-double price</text><text fill="#000000" font-family="sans-serif" font-size="11" lengthAdjust="spacingAndGlyphs" textLength="72" x="813" y="95.9268">-double weight</text><line style="stroke:#A80036;stroke-width:1.5;" x1="808" x2="917" y1="102.3438" y2="102.3438"/><!--MD5=[a4cb0f987c11031dc931233a0e7767af]
class Stock--><rect codeLine="24" fill="#FEFECE" filter="url(#foru9rc18o5qf)" height="75.6719" id="Stock" style="stroke:#A80036;stroke-width:1.5;" width="88" x="434" y="20.5"/><ellipse cx="460.7" cy="36.5" fill="#ADD1B2" rx="11" ry="11" style="stroke:#A80036;stroke-width:1.0;"/><path d="M462.7,33 Q462.9031,32.5 463.1375,32.25 Q463.3719,32 463.6375,32 Q464.1063,32 464.4031,32.2813 Q464.7,32.5625 464.7,33.2188 L464.7,34.7813 Q464.7,35.4375 464.4188,35.7188 Q464.1375,36 463.7,36 Q463.3094,36 463.0594,35.8281 Q462.8094,35.6563 462.7,35.2031 Q462.6531,34.8906 462.4813,34.7188 Q462.1688,34.3906 461.6063,34.2031 Q461.0438,34 460.4813,34 Q459.7781,34 459.1844,34.2813 Q458.6063,34.5625 458.1531,35.1875 Q457.7,35.8125 457.7,36.6719 L457.7,37.5938 Q457.7,38.625 458.5438,39.3125 Q459.3875,40 460.8875,40 Q461.7781,40 462.4031,39.7969 Q462.7625,39.6875 463.1688,39.3281 Q463.4344,39.125 463.575,39.0625 Q463.7156,39 463.8875,39 Q464.2156,39 464.45,39.2656 Q464.7,39.5156 464.7,39.875 Q464.7,40.2188 464.3563,40.625 Q463.8563,41.2188 463.0594,41.5469 Q462.0125,42 460.7313,42 Q459.2313,42 458.0281,41.4063 Q457.0594,40.9375 456.3719,39.9219 Q455.7,38.9063 455.7,37.7031 L455.7,36.6094 Q455.7,35.3594 456.2938,34.2656 Q456.9031,33.1719 457.95,32.5938 Q459.0125,32 460.2,32 Q460.9188,32 461.5438,32.25 Q462.1688,32.5 462.7,33 Z " fill="#000000"/><text fill="#000000" font-family="sans-serif" font-size="12" lengthAdjust="spacingAndGlyphs" textLength="30" x="477.3" y="41.4102">Stock</text><line style="stroke:#A80036;stroke-width:1.5;" x1="435" x2="521" y1="52.5" y2="52.5"/><text fill="#000000" font-family="sans-serif" font-size="11" lengthAdjust="spacingAndGlyphs" textLength="75" x="440" y="67.9189">-int pharmacyID</text><text fill="#000000" font-family="sans-serif" font-size="11" lengthAdjust="spacingAndGlyphs" textLength="76" x="440" y="81.7549">-List stockLines</text><line style="stroke:#A80036;stroke-width:1.5;" x1="435" x2="521" y1="88.1719" y2="88.1719"/><!--MD5=[b149b58345a1b8c6f41a9b0938c101af]
class StockLines--><rect codeLine="29" fill="#FEFECE" filter="url(#foru9rc18o5qf)" height="89.5078" id="StockLines" style="stroke:#A80036;stroke-width:1.5;" width="93" x="618" y="13.5"/><ellipse cx="633" cy="29.5" fill="#ADD1B2" rx="11" ry="11" style="stroke:#A80036;stroke-width:1.0;"/><path d="M635,26 Q635.2031,25.5 635.4375,25.25 Q635.6719,25 635.9375,25 Q636.4063,25 636.7031,25.2813 Q637,25.5625 637,26.2188 L637,27.7813 Q637,28.4375 636.7188,28.7188 Q636.4375,29 636,29 Q635.6094,29 635.3594,28.8281 Q635.1094,28.6563 635,28.2031 Q634.9531,27.8906 634.7813,27.7188 Q634.4688,27.3906 633.9063,27.2031 Q633.3438,27 632.7813,27 Q632.0781,27 631.4844,27.2813 Q630.9063,27.5625 630.4531,28.1875 Q630,28.8125 630,29.6719 L630,30.5938 Q630,31.625 630.8438,32.3125 Q631.6875,33 633.1875,33 Q634.0781,33 634.7031,32.7969 Q635.0625,32.6875 635.4688,32.3281 Q635.7344,32.125 635.875,32.0625 Q636.0156,32 636.1875,32 Q636.5156,32 636.75,32.2656 Q637,32.5156 637,32.875 Q637,33.2188 636.6563,33.625 Q636.1563,34.2188 635.3594,34.5469 Q634.3125,35 633.0313,35 Q631.5313,35 630.3281,34.4063 Q629.3594,33.9375 628.6719,32.9219 Q628,31.9063 628,30.7031 L628,29.6094 Q628,28.3594 628.5938,27.2656 Q629.2031,26.1719 630.25,25.5938 Q631.3125,25 632.5,25 Q633.2188,25 633.8438,25.25 Q634.4688,25.5 635,26 Z " fill="#000000"/><text fill="#000000" font-family="sans-serif" font-size="12" lengthAdjust="spacingAndGlyphs" textLength="61" x="647" y="34.4102">StockLines</text><line style="stroke:#A80036;stroke-width:1.5;" x1="619" x2="710" y1="45.5" y2="45.5"/><text fill="#000000" font-family="sans-serif" font-size="11" lengthAdjust="spacingAndGlyphs" textLength="75" x="624" y="60.9189">-int pharmacyID</text><text fill="#000000" font-family="sans-serif" font-size="11" lengthAdjust="spacingAndGlyphs" textLength="64" x="624" y="74.7549">-int productID</text><text fill="#000000" font-family="sans-serif" font-size="11" lengthAdjust="spacingAndGlyphs" textLength="56" x="624" y="88.5908">-int quantity</text><line style="stroke:#A80036;stroke-width:1.5;" x1="619" x2="710" y1="95.0078" y2="95.0078"/><!--MD5=[341c66bf56a9f106d2cc06efe44d7382]
link Order to Pharmacy--><path codeLine="35" d="M89.06,58.5 C124.19,58.5 175.77,58.5 215.85,58.5 " fill="none" id="Order-Pharmacy" style="stroke:#A80036;stroke-width:1.0;"/><polygon fill="#000000" points="129,49.6758,119.9549,46.7369,119.9549,52.6147,129,49.6758" style="stroke:#000000;stroke-width:1.0;"/><text fill="#000000" font-family="sans-serif" font-size="13" lengthAdjust="spacingAndGlyphs" textLength="52" x="133" y="54.9951">is placed</text><text fill="#000000" font-family="sans-serif" font-size="13" lengthAdjust="spacingAndGlyphs" textLength="20" x="96.8786" y="73.2847">0..*</text><text fill="#000000" font-family="sans-serif" font-size="13" lengthAdjust="spacingAndGlyphs" textLength="20" x="188.068" y="72.9163">1..*</text><!--MD5=[921945e580d55b2e45f5d1658e43b0b1]
link Pharmacy to Stock--><path codeLine="36" d="M338.25,58.5 C369.02,58.5 405.76,58.5 433.7,58.5 " fill="none" id="Pharmacy-Stock" style="stroke:#A80036;stroke-width:1.0;"/><polygon fill="#000000" points="378,49.6758,368.9549,46.7369,368.9549,52.6147,378,49.6758" style="stroke:#000000;stroke-width:1.0;"/><text fill="#000000" font-family="sans-serif" font-size="13" lengthAdjust="spacingAndGlyphs" textLength="21" x="382" y="54.9951">has</text><text fill="#000000" font-family="sans-serif" font-size="13" lengthAdjust="spacingAndGlyphs" textLength="7" x="346.1414" y="73.0215">1</text><text fill="#000000" font-family="sans-serif" font-size="13" lengthAdjust="spacingAndGlyphs" textLength="7" x="419.0819" y="73.3243">1</text><!--MD5=[c76e829e3275681115a992d875f0d9c1]
link Stock to StockLines--><path codeLine="37" d="M522.26,58.5 C551.01,58.5 588.72,58.5 617.94,58.5 " fill="none" id="Stock-StockLines" style="stroke:#A80036;stroke-width:1.0;"/><polygon fill="#000000" points="562,49.6758,552.9549,46.7369,552.9549,52.6147,562,49.6758" style="stroke:#000000;stroke-width:1.0;"/><text fill="#000000" font-family="sans-serif" font-size="13" lengthAdjust="spacingAndGlyphs" textLength="21" x="566" y="54.9951">has</text><text fill="#000000" font-family="sans-serif" font-size="13" lengthAdjust="spacingAndGlyphs" textLength="7" x="529.8718" y="73.3243">1</text><text fill="#000000" font-family="sans-serif" font-size="13" lengthAdjust="spacingAndGlyphs" textLength="20" x="589.9863" y="73.1794">0..*</text><!--MD5=[fb6136363e378abd3fb395a20aa16120]
link StockLines to Product--><path codeLine="38" d="M711.45,58.5 C739.97,58.5 776.76,58.5 806.78,58.5 " fill="none" id="StockLines-Product" style="stroke:#A80036;stroke-width:1.0;"/><polygon fill="#000000" points="751,49.6758,741.9549,46.7369,741.9549,52.6147,751,49.6758" style="stroke:#000000;stroke-width:1.0;"/><text fill="#000000" font-family="sans-serif" font-size="13" lengthAdjust="spacingAndGlyphs" textLength="21" x="755" y="54.9951">has</text><text fill="#000000" font-family="sans-serif" font-size="13" lengthAdjust="spacingAndGlyphs" textLength="20" x="719.1027" y="73.1268">0..*</text><text fill="#000000" font-family="sans-serif" font-size="13" lengthAdjust="spacingAndGlyphs" textLength="7" x="791.8223" y="73.0706">1</text><!--MD5=[3e55179b2669dfb4b51e7531a0ff81b4]
@startuml
skinparam classAttributeIconSize 0

left to right direction

class Pharmacy {
    -String pharmacyName
    -String companyName
    -int NIF
}

class Order {
  -String orderID
  -String clientID
  -List cart
}

class Product{
    -String productType
    -String productName
    -double price
    -double weight
}

class Stock{
    -int pharmacyID
    -List stockLines
}

class StockLines{
    -int pharmacyID
    -int productID
    -int quantity
}

Order "0..*" - - "1..*" Pharmacy : is placed >
Pharmacy "1" - - "1" Stock : has >
Stock "1" - - "0..*" StockLines : has >
StockLines "0..*" - - "1" Product : has >


@enduml

PlantUML version 1.2020.26(Mon Dec 21 17:45:07 GMT 2020)
(GPL source distribution)
Java Runtime: OpenJDK Runtime Environment
JVM: OpenJDK 64-Bit Server VM
Default Encoding: Cp1252
Language: en
Country: US
--></g></svg>