<?xml version="1.0" encoding="UTF-8" standalone="no"?><svg xmlns="http://www.w3.org/2000/svg" xmlns:xlink="http://www.w3.org/1999/xlink" contentScriptType="application/ecmascript" contentStyleType="text/css" height="365px" preserveAspectRatio="none" style="width:960px;height:365px;" version="1.1" viewBox="0 0 960 365" width="960px" zoomAndPan="magnify"><defs><filter height="300%" id="f1wz2q6h512yb9" width="300%" x="-1" y="-1"><feGaussianBlur result="blurOut" stdDeviation="2.5"/><feColorMatrix in="blurOut" result="blurOut2" type="matrix" values="0 0 0 0 0 0 0 0 0 0 0 0 0 0 0 0 0 0 .4 0"/><feOffset dx="5.0" dy="5.0" in="blurOut2" result="blurOut3"/><feBlend in="SourceGraphic" in2="blurOut3" mode="normal"/></filter></defs><g><!--MD5=[99b8db98afdc2c8404e39242ef4c1e65]
class Platform--><rect codeLine="5" fill="#FEFECE" filter="url(#f1wz2q6h512yb9)" height="60" id="Platform" style="stroke:#A80036;stroke-width:1.875;" width="97.5" x="534.375" y="8.75"/><ellipse cx="553.125" cy="28.75" fill="#ADD1B2" rx="13.75" ry="13.75" style="stroke:#A80036;stroke-width:1.25;"/><path d="M555.625,24.375 Q555.8789,23.75 556.1719,23.4375 Q556.4648,23.125 556.7969,23.125 Q557.3828,23.125 557.7539,23.4766 Q558.125,23.8281 558.125,24.6484 L558.125,26.6016 Q558.125,27.4219 557.7734,27.7734 Q557.4219,28.125 556.875,28.125 Q556.3867,28.125 556.0742,27.9102 Q555.7617,27.6953 555.625,27.1289 Q555.5664,26.7383 555.3516,26.5234 Q554.9609,26.1133 554.2578,25.8789 Q553.5547,25.625 552.8516,25.625 Q551.9727,25.625 551.2305,25.9766 Q550.5078,26.3281 549.9414,27.1094 Q549.375,27.8906 549.375,28.9648 L549.375,30.1172 Q549.375,31.4063 550.4297,32.2656 Q551.4844,33.125 553.3594,33.125 Q554.4727,33.125 555.2539,32.8711 Q555.7031,32.7344 556.2109,32.2852 Q556.543,32.0313 556.7188,31.9531 Q556.8945,31.875 557.1094,31.875 Q557.5195,31.875 557.8125,32.207 Q558.125,32.5195 558.125,32.9688 Q558.125,33.3984 557.6953,33.9063 Q557.0703,34.6484 556.0742,35.0586 Q554.7656,35.625 553.1641,35.625 Q551.2891,35.625 549.7852,34.8828 Q548.5742,34.2969 547.7148,33.0273 Q546.875,31.7578 546.875,30.2539 L546.875,28.8867 Q546.875,27.3242 547.6172,25.957 Q548.3789,24.5898 549.6875,23.8672 Q551.0156,23.125 552.5,23.125 Q553.3984,23.125 554.1797,23.4375 Q554.9609,23.75 555.625,24.375 Z " fill="#000000"/><text fill="#000000" font-family="sans-serif" font-size="15" lengthAdjust="spacing" textLength="57.5" x="570.625" y="34.8877">Platform</text><line style="stroke:#A80036;stroke-width:1.875;" x1="535.625" x2="630.625" y1="48.75" y2="48.75"/><line style="stroke:#A80036;stroke-width:1.875;" x1="535.625" x2="630.625" y1="58.75" y2="58.75"/><!--MD5=[15f08415ae6aea1722afc01d0846f94b]
class CreateOrderUI--><rect codeLine="8" fill="#FEFECE" filter="url(#f1wz2q6h512yb9)" height="60" id="CreateOrderUI" style="stroke:#A80036;stroke-width:1.875;" width="140" x="8.75" y="105"/><ellipse cx="27.5" cy="125" fill="#ADD1B2" rx="13.75" ry="13.75" style="stroke:#A80036;stroke-width:1.25;"/><path d="M30,120.625 Q30.2539,120 30.5469,119.6875 Q30.8398,119.375 31.1719,119.375 Q31.7578,119.375 32.1289,119.7266 Q32.5,120.0781 32.5,120.8984 L32.5,122.8516 Q32.5,123.6719 32.1484,124.0234 Q31.7969,124.375 31.25,124.375 Q30.7617,124.375 30.4492,124.1602 Q30.1367,123.9453 30,123.3789 Q29.9414,122.9883 29.7266,122.7734 Q29.3359,122.3633 28.6328,122.1289 Q27.9297,121.875 27.2266,121.875 Q26.3477,121.875 25.6055,122.2266 Q24.8828,122.5781 24.3164,123.3594 Q23.75,124.1406 23.75,125.2148 L23.75,126.3672 Q23.75,127.6563 24.8047,128.5156 Q25.8594,129.375 27.7344,129.375 Q28.8477,129.375 29.6289,129.1211 Q30.0781,128.9844 30.5859,128.5352 Q30.918,128.2813 31.0938,128.2031 Q31.2695,128.125 31.4844,128.125 Q31.8945,128.125 32.1875,128.457 Q32.5,128.7695 32.5,129.2188 Q32.5,129.6484 32.0703,130.1563 Q31.4453,130.8984 30.4492,131.3086 Q29.1406,131.875 27.5391,131.875 Q25.6641,131.875 24.1602,131.1328 Q22.9492,130.5469 22.0898,129.2773 Q21.25,128.0078 21.25,126.5039 L21.25,125.1367 Q21.25,123.5742 21.9922,122.207 Q22.7539,120.8398 24.0625,120.1172 Q25.3906,119.375 26.875,119.375 Q27.7734,119.375 28.5547,119.6875 Q29.3359,120 30,120.625 Z " fill="#000000"/><text fill="#000000" font-family="sans-serif" font-size="15" lengthAdjust="spacing" textLength="100" x="45" y="131.1377">CreateOrderUI</text><line style="stroke:#A80036;stroke-width:1.875;" x1="10" x2="147.5" y1="145" y2="145"/><line style="stroke:#A80036;stroke-width:1.875;" x1="10" x2="147.5" y1="155" y2="155"/><!--MD5=[20b085a3c6e09282e42db4a951cc1e16]
class CreateOrderController--><rect codeLine="11" fill="#FEFECE" filter="url(#f1wz2q6h512yb9)" height="77.2949" id="CreateOrderController" style="stroke:#A80036;stroke-width:1.875;" width="192.5" x="225" y="96.25"/><ellipse cx="243.75" cy="116.25" fill="#ADD1B2" rx="13.75" ry="13.75" style="stroke:#A80036;stroke-width:1.25;"/><path d="M246.25,111.875 Q246.5039,111.25 246.7969,110.9375 Q247.0898,110.625 247.4219,110.625 Q248.0078,110.625 248.3789,110.9766 Q248.75,111.3281 248.75,112.1484 L248.75,114.1016 Q248.75,114.9219 248.3984,115.2734 Q248.0469,115.625 247.5,115.625 Q247.0117,115.625 246.6992,115.4102 Q246.3867,115.1953 246.25,114.6289 Q246.1914,114.2383 245.9766,114.0234 Q245.5859,113.6133 244.8828,113.3789 Q244.1797,113.125 243.4766,113.125 Q242.5977,113.125 241.8555,113.4766 Q241.1328,113.8281 240.5664,114.6094 Q240,115.3906 240,116.4648 L240,117.6172 Q240,118.9063 241.0547,119.7656 Q242.1094,120.625 243.9844,120.625 Q245.0977,120.625 245.8789,120.3711 Q246.3281,120.2344 246.8359,119.7852 Q247.168,119.5313 247.3438,119.4531 Q247.5195,119.375 247.7344,119.375 Q248.1445,119.375 248.4375,119.707 Q248.75,120.0195 248.75,120.4688 Q248.75,120.8984 248.3203,121.4063 Q247.6953,122.1484 246.6992,122.5586 Q245.3906,123.125 243.7891,123.125 Q241.9141,123.125 240.4102,122.3828 Q239.1992,121.7969 238.3398,120.5273 Q237.5,119.2578 237.5,117.7539 L237.5,116.3867 Q237.5,114.8242 238.2422,113.457 Q239.0039,112.0898 240.3125,111.3672 Q241.6406,110.625 243.125,110.625 Q244.0234,110.625 244.8047,110.9375 Q245.5859,111.25 246.25,111.875 Z " fill="#000000"/><text fill="#000000" font-family="sans-serif" font-size="15" lengthAdjust="spacing" textLength="152.5" x="261.25" y="122.3877">CreateOrderController</text><line style="stroke:#A80036;stroke-width:1.875;" x1="226.25" x2="416.25" y1="136.25" y2="136.25"/><line style="stroke:#A80036;stroke-width:1.875;" x1="226.25" x2="416.25" y1="146.25" y2="146.25"/><text fill="#000000" font-family="sans-serif" font-size="13.75" lengthAdjust="spacing" textLength="100" x="232.5" y="165.5237">+makePayment()</text><!--MD5=[ed6624c6556d5e7b1bd23032162d20b7]
class Client--><rect codeLine="15" fill="#FEFECE" filter="url(#f1wz2q6h512yb9)" height="181.0645" id="Client" style="stroke:#A80036;stroke-width:1.875;" width="146.25" x="796.25" y="91.875"/><ellipse cx="844.8125" cy="111.875" fill="#ADD1B2" rx="13.75" ry="13.75" style="stroke:#A80036;stroke-width:1.25;"/><path d="M847.3125,107.5 Q847.5664,106.875 847.8594,106.5625 Q848.1523,106.25 848.4844,106.25 Q849.0703,106.25 849.4414,106.6016 Q849.8125,106.9531 849.8125,107.7734 L849.8125,109.7266 Q849.8125,110.5469 849.4609,110.8984 Q849.1094,111.25 848.5625,111.25 Q848.0742,111.25 847.7617,111.0352 Q847.4492,110.8203 847.3125,110.2539 Q847.2539,109.8633 847.0391,109.6484 Q846.6484,109.2383 845.9453,109.0039 Q845.2422,108.75 844.5391,108.75 Q843.6602,108.75 842.918,109.1016 Q842.1953,109.4531 841.6289,110.2344 Q841.0625,111.0156 841.0625,112.0898 L841.0625,113.2422 Q841.0625,114.5313 842.1172,115.3906 Q843.1719,116.25 845.0469,116.25 Q846.1602,116.25 846.9414,115.9961 Q847.3906,115.8594 847.8984,115.4102 Q848.2305,115.1563 848.4063,115.0781 Q848.582,115 848.7969,115 Q849.207,115 849.5,115.332 Q849.8125,115.6445 849.8125,116.0938 Q849.8125,116.5234 849.3828,117.0313 Q848.7578,117.7734 847.7617,118.1836 Q846.4531,118.75 844.8516,118.75 Q842.9766,118.75 841.4727,118.0078 Q840.2617,117.4219 839.4023,116.1523 Q838.5625,114.8828 838.5625,113.3789 L838.5625,112.0117 Q838.5625,110.4492 839.3047,109.082 Q840.0664,107.7148 841.375,106.9922 Q842.7031,106.25 844.1875,106.25 Q845.0859,106.25 845.8672,106.5625 Q846.6484,106.875 847.3125,107.5 Z " fill="#000000"/><text fill="#000000" font-family="sans-serif" font-size="15" lengthAdjust="spacing" textLength="40" x="868.9375" y="118.0127">Client</text><line style="stroke:#A80036;stroke-width:1.875;" x1="797.5" x2="941.25" y1="131.875" y2="131.875"/><text fill="#000000" font-family="sans-serif" font-size="13.75" lengthAdjust="spacing" textLength="76.25" x="803.75" y="151.1487">-String name</text><text fill="#000000" font-family="sans-serif" font-size="13.75" lengthAdjust="spacing" textLength="73.75" x="803.75" y="168.4436">-String email</text><text fill="#000000" font-family="sans-serif" font-size="13.75" lengthAdjust="spacing" textLength="41.25" x="803.75" y="185.7385">-int NIF</text><text fill="#000000" font-family="sans-serif" font-size="13.75" lengthAdjust="spacing" textLength="131.25" x="803.75" y="203.0334">-int creditCardNumber</text><text fill="#000000" font-family="sans-serif" font-size="13.75" lengthAdjust="spacing" textLength="128.75" x="803.75" y="220.3284">-int creditCardValidity</text><text fill="#000000" font-family="sans-serif" font-size="13.75" lengthAdjust="spacing" textLength="45" x="803.75" y="237.6233">-int ccv</text><text fill="#000000" font-family="sans-serif" font-size="13.75" lengthAdjust="spacing" textLength="111.25" x="803.75" y="254.9182">-Address address</text><line style="stroke:#A80036;stroke-width:1.875;" x1="797.5" x2="941.25" y1="262.9395" y2="262.9395"/><!--MD5=[cf4d6237fcae255cd2e1656cf84a30e2]
class Order--><rect codeLine="25" fill="#FEFECE" filter="url(#f1wz2q6h512yb9)" height="146.4746" id="Order" style="stroke:#A80036;stroke-width:1.875;" width="178.75" x="493.75" y="201.875"/><ellipse cx="558.4375" cy="221.875" fill="#ADD1B2" rx="13.75" ry="13.75" style="stroke:#A80036;stroke-width:1.25;"/><path d="M560.9375,217.5 Q561.1914,216.875 561.4844,216.5625 Q561.7773,216.25 562.1094,216.25 Q562.6953,216.25 563.0664,216.6016 Q563.4375,216.9531 563.4375,217.7734 L563.4375,219.7266 Q563.4375,220.5469 563.0859,220.8984 Q562.7344,221.25 562.1875,221.25 Q561.6992,221.25 561.3867,221.0352 Q561.0742,220.8203 560.9375,220.2539 Q560.8789,219.8633 560.6641,219.6484 Q560.2734,219.2383 559.5703,219.0039 Q558.8672,218.75 558.1641,218.75 Q557.2852,218.75 556.543,219.1016 Q555.8203,219.4531 555.2539,220.2344 Q554.6875,221.0156 554.6875,222.0898 L554.6875,223.2422 Q554.6875,224.5313 555.7422,225.3906 Q556.7969,226.25 558.6719,226.25 Q559.7852,226.25 560.5664,225.9961 Q561.0156,225.8594 561.5234,225.4102 Q561.8555,225.1563 562.0313,225.0781 Q562.207,225 562.4219,225 Q562.832,225 563.125,225.332 Q563.4375,225.6445 563.4375,226.0938 Q563.4375,226.5234 563.0078,227.0313 Q562.3828,227.7734 561.3867,228.1836 Q560.0781,228.75 558.4766,228.75 Q556.6016,228.75 555.0977,228.0078 Q553.8867,227.4219 553.0273,226.1523 Q552.1875,224.8828 552.1875,223.3789 L552.1875,222.0117 Q552.1875,220.4492 552.9297,219.082 Q553.6914,217.7148 555,216.9922 Q556.3281,216.25 557.8125,216.25 Q558.7109,216.25 559.4922,216.5625 Q560.2734,216.875 560.9375,217.5 Z " fill="#000000"/><text fill="#000000" font-family="sans-serif" font-size="15" lengthAdjust="spacing" textLength="38.75" x="584.0625" y="228.0127">Order</text><line style="stroke:#A80036;stroke-width:1.875;" x1="495" x2="671.25" y1="241.875" y2="241.875"/><text fill="#000000" font-family="sans-serif" font-size="13.75" lengthAdjust="spacing" textLength="66.25" x="501.25" y="261.1487">-int orderID</text><text fill="#000000" font-family="sans-serif" font-size="13.75" lengthAdjust="spacing" textLength="65" x="501.25" y="278.4436">-int clientID</text><text fill="#000000" font-family="sans-serif" font-size="13.75" lengthAdjust="spacing" textLength="52.5" x="501.25" y="295.7385">-int state</text><text fill="#000000" font-family="sans-serif" font-size="13.75" lengthAdjust="spacing" textLength="96.25" x="501.25" y="313.0334">-Date orderDate</text><text fill="#000000" font-family="sans-serif" font-size="13.75" lengthAdjust="spacing" textLength="163.75" x="501.25" y="330.3284">-ArrayList&lt;OrderLine&gt; cart</text><line style="stroke:#A80036;stroke-width:1.875;" x1="495" x2="671.25" y1="338.3496" y2="338.3496"/><!--MD5=[0dfa2b8e696be82cdd4e9d20a6763629]
link CreateOrderUI to CreateOrderController--><path codeLine="34" d="M148.7738,135 C170.425,135 194.8138,135 218.2525,135 " fill="none" id="CreateOrderUI-to-CreateOrderController" style="stroke:#A80036;stroke-width:1.25;stroke-dasharray:7.0,7.0;"/><polygon fill="#A80036" points="224.835,135,213.585,130,218.585,135,213.585,140,224.835,135" style="stroke:#A80036;stroke-width:1.25;"/><!--MD5=[b7ffe02e4953ad9b20c785888fac3db2]
link CreateOrderController to Platform--><path codeLine="35" d="M417.6088,99.7062 C454.7488,85.925 495.9688,70.6287 527.8275,58.8062 " fill="none" id="CreateOrderController-to-Platform" style="stroke:#A80036;stroke-width:1.25;stroke-dasharray:7.0,7.0;"/><polygon fill="#A80036" points="534.07,56.49,521.7834,55.7145,528.2101,58.6636,525.2611,65.0903,534.07,56.49" style="stroke:#A80036;stroke-width:1.25;"/><!--MD5=[67406ff62c93586e810012aaf0a50662]
link CreateOrderController to Client--><path codeLine="36" d="M417.54,143.2738 C523.0038,152.455 691.2462,167.1013 789.5613,175.66 " fill="none" id="CreateOrderController-to-Client" style="stroke:#A80036;stroke-width:1.25;stroke-dasharray:7.0,7.0;"/><polygon fill="#A80036" points="795.9337,176.215,785.1605,170.2568,789.7074,175.6722,784.292,180.219,795.9337,176.215" style="stroke:#A80036;stroke-width:1.25;"/><!--MD5=[aae1be0a61a91f9f822e411e88801ed4]
link CreateOrderController to Order--><path codeLine="37" d="M394.4063,173.8125 C423.3388,189.4288 457.0963,207.65 487.9288,224.2918 " fill="none" id="CreateOrderController-to-Order" style="stroke:#A80036;stroke-width:1.25;stroke-dasharray:7.0,7.0;"/><polygon fill="#A80036" points="493.65,227.3799,486.1263,217.6353,488.1504,224.4105,481.3753,226.4346,493.65,227.3799" style="stroke:#A80036;stroke-width:1.25;"/><!--MD5=[b4eabd1a63a4ad1f2f93b60573323bf1]
link Order to Client--><path codeLine="38" d="M672.6,246.2395 C712.295,233.2991 758.5625,218.2162 796.1213,205.9725 " fill="none" id="Order-Client" style="stroke:#A80036;stroke-width:1.25;"/><polygon fill="#000000" points="722.1922,207.0326,710.304,207.0441,712.5812,214.0296,722.1922,207.0326" style="stroke:#000000;stroke-width:1.25;"/><text fill="#000000" font-family="sans-serif" font-size="16.25" lengthAdjust="spacing" textLength="30" x="727.5" y="215.6189">Of a</text><text fill="#000000" font-family="sans-serif" font-size="16.25" lengthAdjust="spacing" textLength="8.75" x="682.2783" y="261.1848">1</text><text fill="#000000" font-family="sans-serif" font-size="16.25" lengthAdjust="spacing" textLength="8.75" x="777.4251" y="227.1701">1</text><!--MD5=[d8de21c207608ba1fe1134102382e7b3]
@startuml
skinparam classAttributeIconSize 0

left to right direction

class Platform {
}

class CreateOrderUI {
}

class CreateOrderController {
    +makePayment()
}

class Client {
  -String name
  -String email
  -int NIF
  -int creditCardNumber
  -int creditCardValidity
  -int ccv
  -Address address
}

class Order {
    -int orderID
    -int clientID
    -int state
    -Date orderDate
    -ArrayList<OrderLine> cart
}


CreateOrderUI ..> CreateOrderController
CreateOrderController ..> Platform
CreateOrderController ..> Client
CreateOrderController ..> Order
Order "1" - - "1" Client : Of a  >


@enduml

PlantUML version 1.2021.00(Sun Jan 10 10:25:05 GMT 2021)
(GPL source distribution)
Java Runtime: OpenJDK Runtime Environment
JVM: OpenJDK 64-Bit Server VM
Default Encoding: Cp1252
Language: pt
Country: PT
--></g></svg>