<?xml version="1.0" encoding="UTF-8" standalone="no"?><svg xmlns="http://www.w3.org/2000/svg" xmlns:xlink="http://www.w3.org/1999/xlink" contentScriptType="application/ecmascript" contentStyleType="text/css" height="325px" preserveAspectRatio="none" style="width:148px;height:325px;" version="1.1" viewBox="0 0 148 325" width="148.75px" zoomAndPan="magnify"><defs><filter height="300%" id="ffcz247m3wnhq" width="300%" x="-1" y="-1"><feGaussianBlur result="blurOut" stdDeviation="2.5"/><feColorMatrix in="blurOut" result="blurOut2" type="matrix" values="0 0 0 0 0 0 0 0 0 0 0 0 0 0 0 0 0 0 .4 0"/><feOffset dx="5.0" dy="5.0" in="blurOut2" result="blurOut3"/><feBlend in="SourceGraphic" in2="blurOut3" mode="normal"/></filter></defs><g><!--MD5=[cf4d6237fcae255cd2e1656cf84a30e2]
class Order--><rect codeLine="5" fill="#FEFECE" filter="url(#ffcz247m3wnhq)" height="94.5898" id="Order" style="stroke:#A80036;stroke-width:1.875;" width="122.5" x="8.75" y="8.75"/><ellipse cx="47.1875" cy="28.75" fill="#ADD1B2" rx="13.75" ry="13.75" style="stroke:#A80036;stroke-width:1.25;"/><path d="M49.6875,24.375 Q49.9414,23.75 50.2344,23.4375 Q50.5273,23.125 50.8594,23.125 Q51.4453,23.125 51.8164,23.4766 Q52.1875,23.8281 52.1875,24.6484 L52.1875,26.6016 Q52.1875,27.4219 51.8359,27.7734 Q51.4844,28.125 50.9375,28.125 Q50.4492,28.125 50.1367,27.9102 Q49.8242,27.6953 49.6875,27.1289 Q49.6289,26.7383 49.4141,26.5234 Q49.0234,26.1133 48.3203,25.8789 Q47.6172,25.625 46.9141,25.625 Q46.0352,25.625 45.293,25.9766 Q44.5703,26.3281 44.0039,27.1094 Q43.4375,27.8906 43.4375,28.9648 L43.4375,30.1172 Q43.4375,31.4063 44.4922,32.2656 Q45.5469,33.125 47.4219,33.125 Q48.5352,33.125 49.3164,32.8711 Q49.7656,32.7344 50.2734,32.2852 Q50.6055,32.0313 50.7813,31.9531 Q50.957,31.875 51.1719,31.875 Q51.582,31.875 51.875,32.207 Q52.1875,32.5195 52.1875,32.9688 Q52.1875,33.3984 51.7578,33.9063 Q51.1328,34.6484 50.1367,35.0586 Q48.8281,35.625 47.2266,35.625 Q45.3516,35.625 43.8477,34.8828 Q42.6367,34.2969 41.7773,33.0273 Q40.9375,31.7578 40.9375,30.2539 L40.9375,28.8867 Q40.9375,27.3242 41.6797,25.957 Q42.4414,24.5898 43.75,23.8672 Q45.0781,23.125 46.5625,23.125 Q47.4609,23.125 48.2422,23.4375 Q49.0234,23.75 49.6875,24.375 Z " fill="#000000"/><text fill="#000000" font-family="sans-serif" font-size="15" lengthAdjust="spacing" textLength="38.75" x="69.0625" y="34.8877">Order</text><line style="stroke:#A80036;stroke-width:1.875;" x1="10" x2="130" y1="48.75" y2="48.75"/><rect fill="none" height="7.5" style="stroke:#C82930;stroke-width:1.25;" width="7.5" x="18.75" y="58.75"/><text fill="#000000" font-family="sans-serif" font-size="13.75" lengthAdjust="spacing" textLength="48.75" x="33.75" y="68.0237">String id</text><rect fill="none" height="7.5" style="stroke:#C82930;stroke-width:1.25;" width="7.5" x="18.75" y="76.0449"/><text fill="#000000" font-family="sans-serif" font-size="13.75" lengthAdjust="spacing" textLength="90" x="33.75" y="85.3186">list of products</text><line style="stroke:#A80036;stroke-width:1.875;" x1="10" x2="130" y1="93.3398" y2="93.3398"/><!--MD5=[ed6624c6556d5e7b1bd23032162d20b7]
class Client--><rect codeLine="10" fill="#FEFECE" filter="url(#ffcz247m3wnhq)" height="129.1797" id="Client" style="stroke:#A80036;stroke-width:1.875;" width="103.75" x="18.125" y="178.75"/><ellipse cx="47.5625" cy="198.75" fill="#ADD1B2" rx="13.75" ry="13.75" style="stroke:#A80036;stroke-width:1.25;"/><path d="M50.0625,194.375 Q50.3164,193.75 50.6094,193.4375 Q50.9023,193.125 51.2344,193.125 Q51.8203,193.125 52.1914,193.4766 Q52.5625,193.8281 52.5625,194.6484 L52.5625,196.6016 Q52.5625,197.4219 52.2109,197.7734 Q51.8594,198.125 51.3125,198.125 Q50.8242,198.125 50.5117,197.9102 Q50.1992,197.6953 50.0625,197.1289 Q50.0039,196.7383 49.7891,196.5234 Q49.3984,196.1133 48.6953,195.8789 Q47.9922,195.625 47.2891,195.625 Q46.4102,195.625 45.668,195.9766 Q44.9453,196.3281 44.3789,197.1094 Q43.8125,197.8906 43.8125,198.9648 L43.8125,200.1172 Q43.8125,201.4063 44.8672,202.2656 Q45.9219,203.125 47.7969,203.125 Q48.9102,203.125 49.6914,202.8711 Q50.1406,202.7344 50.6484,202.2852 Q50.9805,202.0313 51.1563,201.9531 Q51.332,201.875 51.5469,201.875 Q51.957,201.875 52.25,202.207 Q52.5625,202.5195 52.5625,202.9688 Q52.5625,203.3984 52.1328,203.9063 Q51.5078,204.6484 50.5117,205.0586 Q49.2031,205.625 47.6016,205.625 Q45.7266,205.625 44.2227,204.8828 Q43.0117,204.2969 42.1523,203.0273 Q41.3125,201.7578 41.3125,200.2539 L41.3125,198.8867 Q41.3125,197.3242 42.0547,195.957 Q42.8164,194.5898 44.125,193.8672 Q45.4531,193.125 46.9375,193.125 Q47.8359,193.125 48.6172,193.4375 Q49.3984,193.75 50.0625,194.375 Z " fill="#000000"/><text fill="#000000" font-family="sans-serif" font-size="15" lengthAdjust="spacing" textLength="40" x="67.4375" y="204.8877">Client</text><line style="stroke:#A80036;stroke-width:1.875;" x1="19.375" x2="120.625" y1="218.75" y2="218.75"/><rect fill="none" height="7.5" style="stroke:#C82930;stroke-width:1.25;" width="7.5" x="28.125" y="228.75"/><text fill="#000000" font-family="sans-serif" font-size="13.75" lengthAdjust="spacing" textLength="71.25" x="43.125" y="238.0237">String name</text><rect fill="none" height="7.5" style="stroke:#C82930;stroke-width:1.25;" width="7.5" x="28.125" y="246.0449"/><text fill="#000000" font-family="sans-serif" font-size="13.75" lengthAdjust="spacing" textLength="68.75" x="43.125" y="255.3186">String email</text><rect fill="none" height="7.5" style="stroke:#C82930;stroke-width:1.25;" width="7.5" x="28.125" y="263.3398"/><text fill="#000000" font-family="sans-serif" font-size="13.75" lengthAdjust="spacing" textLength="36.25" x="43.125" y="272.6135">int NIF</text><rect fill="none" height="7.5" style="stroke:#C82930;stroke-width:1.25;" width="7.5" x="28.125" y="280.6348"/><text fill="#000000" font-family="sans-serif" font-size="13.75" lengthAdjust="spacing" textLength="58.75" x="43.125" y="289.9084">int credits</text><line style="stroke:#A80036;stroke-width:1.875;" x1="19.375" x2="120.625" y1="297.9297" y2="297.9297"/><!--MD5=[b4eabd1a63a4ad1f2f93b60573323bf1]
link Order to Client--><path codeLine="17" d="M70,114.395 C70,131.4063 70,150.3063 70,168.23 " fill="none" id="Order-Client" style="stroke:#A80036;stroke-width:1.25;"/><line style="stroke:#A80036;stroke-width:1.25;" x1="70" x2="70" y1="164.8987" y2="178.6487"/><ellipse cx="70" cy="164.8987" fill="none" rx="5" ry="5" style="stroke:#A80036;stroke-width:1.25;"/><line style="stroke:#A80036;stroke-width:1.25;" x1="75" x2="65" y1="173.6487" y2="173.6487"/><line style="stroke:#A80036;stroke-width:1.25;" x1="70" x2="70" y1="117.775" y2="104.025"/><ellipse cx="70" cy="117.775" fill="none" rx="5" ry="5" style="stroke:#A80036;stroke-width:1.25;"/><line style="stroke:#A80036;stroke-width:1.25;" x1="65" x2="75" y1="109.025" y2="109.025"/><!--MD5=[20e7ca4d01772dfc1064c3cac3de6ab7]
@startuml
'skinparam linetype polyline



class Order {
    -String id
    -list of products
}

class Client {
    -String name
    -String email
    -int NIF
    -int credits
}

Order |o- -o| Client

@enduml

@startuml



class Order {
    -String id
    -list of products
}

class Client {
    -String name
    -String email
    -int NIF
    -int credits
}

Order |o- -o| Client

@enduml

PlantUML version 1.2021.00(Sun Jan 10 10:25:05 GMT 2021)
(GPL source distribution)
Java Runtime: OpenJDK Runtime Environment
JVM: OpenJDK 64-Bit Server VM
Default Encoding: Cp1252
Language: pt
Country: PT
--></g></svg>