<?xml version="1.0" encoding="UTF-8" standalone="no"?><svg xmlns="http://www.w3.org/2000/svg" xmlns:xlink="http://www.w3.org/1999/xlink" contentScriptType="application/ecmascript" contentStyleType="text/css" height="606.25px" preserveAspectRatio="none" style="width:1157px;height:606px;" version="1.1" viewBox="0 0 1157 606" width="1157.5px" zoomAndPan="magnify"><defs><filter height="300%" id="f1x0cymhskv863" width="300%" x="-1" y="-1"><feGaussianBlur result="blurOut" stdDeviation="2.5"/><feColorMatrix in="blurOut" result="blurOut2" type="matrix" values="0 0 0 0 0 0 0 0 0 0 0 0 0 0 0 0 0 0 .4 0"/><feOffset dx="5.0" dy="5.0" in="blurOut2" result="blurOut3"/><feBlend in="SourceGraphic" in2="blurOut3" mode="normal"/></filter></defs><g><rect fill="#FFFFFF" filter="url(#f1x0cymhskv863)" height="343.9551" style="stroke:#A80036;stroke-width:1.25;" width="12.5" x="26.25" y="124.5117"/><rect fill="#FFFFFF" filter="url(#f1x0cymhskv863)" height="210.9473" style="stroke:#A80036;stroke-width:1.25;" width="12.5" x="707.5" y="212.0801"/><rect fill="#FFFFFF" filter="url(#f1x0cymhskv863)" height="75.4395" style="stroke:#A80036;stroke-width:1.25;" width="12.5" x="891.25" y="250.0195"/><rect fill="#FFFFFF" filter="url(#f1x0cymhskv863)" height="37.5" style="stroke:#A80036;stroke-width:1.25;" width="12.5" x="1056.25" y="287.959"/><line style="stroke:#A80036;stroke-width:1.25;stroke-dasharray:5.0,5.0;" x1="32.5" x2="32.5" y1="112.0117" y2="499.7168"/><line style="stroke:#A80036;stroke-width:1.25;stroke-dasharray:5.0,5.0;" x1="713.75" x2="713.75" y1="112.0117" y2="499.7168"/><line style="stroke:#A80036;stroke-width:1.25;stroke-dasharray:5.0,5.0;" x1="897.5" x2="897.5" y1="112.0117" y2="499.7168"/><line style="stroke:#A80036;stroke-width:1.25;stroke-dasharray:5.0,5.0;" x1="1062.5" x2="1062.5" y1="112.0117" y2="499.7168"/><text fill="#000000" font-family="sans-serif" font-size="17.5" lengthAdjust="spacing" textLength="45" x="6.25" y="108.1665">Client</text><ellipse cx="32.5" cy="18.75" fill="#FEFECE" filter="url(#f1x0cymhskv863)" rx="10" ry="10" style="stroke:#A80036;stroke-width:2.5;"/><path d="M32.5,28.75 L32.5,62.5 M16.25,38.75 L48.75,38.75 M32.5,62.5 L16.25,81.25 M32.5,62.5 L48.75,81.25 " fill="none" filter="url(#f1x0cymhskv863)" style="stroke:#A80036;stroke-width:2.5;"/><text fill="#000000" font-family="sans-serif" font-size="17.5" lengthAdjust="spacing" textLength="45" x="6.25" y="516.6333">Client</text><ellipse cx="32.5" cy="532.9785" fill="#FEFECE" filter="url(#f1x0cymhskv863)" rx="10" ry="10" style="stroke:#A80036;stroke-width:2.5;"/><path d="M32.5,542.9785 L32.5,576.7285 M16.25,552.9785 L48.75,552.9785 M32.5,576.7285 L16.25,595.4785 M32.5,576.7285 L48.75,595.4785 " fill="none" filter="url(#f1x0cymhskv863)" style="stroke:#A80036;stroke-width:2.5;"/><rect fill="#FEFECE" filter="url(#f1x0cymhskv863)" height="39.5117" style="stroke:#A80036;stroke-width:1.875;" width="137.5" x="642.5" y="66.25"/><text fill="#000000" font-family="sans-serif" font-size="17.5" lengthAdjust="spacing" textLength="120" x="651.25" y="93.1665">:CreateOrderUI</text><rect fill="#FEFECE" filter="url(#f1x0cymhskv863)" height="39.5117" style="stroke:#A80036;stroke-width:1.875;" width="137.5" x="642.5" y="498.4668"/><text fill="#000000" font-family="sans-serif" font-size="17.5" lengthAdjust="spacing" textLength="120" x="651.25" y="525.3833">:CreateOrderUI</text><rect fill="#FEFECE" filter="url(#f1x0cymhskv863)" height="39.5117" style="stroke:#A80036;stroke-width:1.875;" width="195" x="797.5" y="66.25"/><text fill="#000000" font-family="sans-serif" font-size="17.5" lengthAdjust="spacing" textLength="177.5" x="806.25" y="93.1665">CreateOrderController</text><rect fill="#FEFECE" filter="url(#f1x0cymhskv863)" height="39.5117" style="stroke:#A80036;stroke-width:1.875;" width="195" x="797.5" y="498.4668"/><text fill="#000000" font-family="sans-serif" font-size="17.5" lengthAdjust="spacing" textLength="177.5" x="806.25" y="525.3833">CreateOrderController</text><rect fill="#FEFECE" filter="url(#f1x0cymhskv863)" height="39.5117" style="stroke:#A80036;stroke-width:1.875;" width="80" x="1020" y="66.25"/><text fill="#000000" font-family="sans-serif" font-size="17.5" lengthAdjust="spacing" textLength="62.5" x="1028.75" y="93.1665">:System</text><rect fill="#FEFECE" filter="url(#f1x0cymhskv863)" height="39.5117" style="stroke:#A80036;stroke-width:1.875;" width="80" x="1020" y="498.4668"/><text fill="#000000" font-family="sans-serif" font-size="17.5" lengthAdjust="spacing" textLength="62.5" x="1028.75" y="525.3833">:System</text><rect fill="#FFFFFF" filter="url(#f1x0cymhskv863)" height="343.9551" style="stroke:#A80036;stroke-width:1.25;" width="12.5" x="26.25" y="124.5117"/><rect fill="#FFFFFF" filter="url(#f1x0cymhskv863)" height="210.9473" style="stroke:#A80036;stroke-width:1.25;" width="12.5" x="707.5" y="212.0801"/><rect fill="#FFFFFF" filter="url(#f1x0cymhskv863)" height="75.4395" style="stroke:#A80036;stroke-width:1.25;" width="12.5" x="891.25" y="250.0195"/><rect fill="#FFFFFF" filter="url(#f1x0cymhskv863)" height="37.5" style="stroke:#A80036;stroke-width:1.25;" width="12.5" x="1056.25" y="287.959"/><rect fill="#FFFFFF" filter="url(#f1x0cymhskv863)" height="53.3789" style="stroke:#000000;stroke-width:2.5;" width="130" x="2.5" y="124.5117"/><polygon fill="#EEEEEE" points="2.5,124.5117,80,124.5117,80,134.5117,67.5,147.0117,2.5,147.0117,2.5,124.5117" style="stroke:#000000;stroke-width:2.5;"/><text fill="#000000" font-family="sans-serif" font-size="16.25" font-weight="bold" lengthAdjust="spacing" textLength="21.25" x="18.75" y="143.8806">ref</text><text fill="#000000" font-family="sans-serif" font-size="16.25" lengthAdjust="spacing" textLength="120" x="10" y="168.8806">MEN_01_57_SD</text><polygon fill="#A80036" points="692.5,207.0801,705,212.0801,692.5,217.0801,697.5,212.0801" style="stroke:#A80036;stroke-width:1.25;"/><line style="stroke:#A80036;stroke-width:1.25;" x1="38.75" x2="700" y1="212.0801" y2="212.0801"/><text fill="#000000" font-family="sans-serif" font-size="16.25" font-weight="bold" lengthAdjust="spacing" textLength="8.75" x="47.5" y="206.0095">1</text><text fill="#000000" font-family="sans-serif" font-size="16.25" lengthAdjust="spacing" textLength="408.75" x="61.25" y="206.0095">confirms an order and starts automatic payment process</text><polygon fill="#A80036" points="876.25,245.0195,888.75,250.0195,876.25,255.0195,881.25,250.0195" style="stroke:#A80036;stroke-width:1.25;"/><line style="stroke:#A80036;stroke-width:1.25;" x1="720" x2="883.75" y1="250.0195" y2="250.0195"/><text fill="#000000" font-family="sans-serif" font-size="16.25" font-weight="bold" lengthAdjust="spacing" textLength="8.75" x="728.75" y="243.949">2</text><text fill="#000000" font-family="sans-serif" font-size="16.25" lengthAdjust="spacing" textLength="115" x="742.5" y="243.949">makePayment()</text><polygon fill="#A80036" points="1041.25,282.959,1053.75,287.959,1041.25,292.959,1046.25,287.959" style="stroke:#A80036;stroke-width:1.25;"/><line style="stroke:#A80036;stroke-width:1.25;" x1="903.75" x2="1048.75" y1="287.959" y2="287.959"/><text fill="#000000" font-family="sans-serif" font-size="16.25" font-weight="bold" lengthAdjust="spacing" textLength="8.75" x="912.5" y="281.8884">3</text><text fill="#000000" font-family="sans-serif" font-size="16.25" lengthAdjust="spacing" textLength="115" x="926.25" y="281.8884">makePayment()</text><rect fill="#FFFFFF" filter="url(#f1x0cymhskv863)" height="53.3789" style="stroke:#000000;stroke-width:2.5;" width="130" x="1016.25" y="335.459"/><polygon fill="#EEEEEE" points="1016.25,335.459,1093.75,335.459,1093.75,345.459,1081.25,357.959,1016.25,357.959,1016.25,335.459" style="stroke:#000000;stroke-width:2.5;"/><text fill="#000000" font-family="sans-serif" font-size="16.25" font-weight="bold" lengthAdjust="spacing" textLength="21.25" x="1032.5" y="354.8279">ref</text><text fill="#000000" font-family="sans-serif" font-size="16.25" lengthAdjust="spacing" textLength="120" x="1023.75" y="379.8279">MEN_01_36_SD</text><polygon fill="#A80036" points="52.5,418.0273,40,423.0273,52.5,428.0273,47.5,423.0273" style="stroke:#A80036;stroke-width:1.25;"/><line style="stroke:#A80036;stroke-width:1.25;" x1="45" x2="712.5" y1="423.0273" y2="423.0273"/><text fill="#000000" font-family="sans-serif" font-size="16.25" font-weight="bold" lengthAdjust="spacing" textLength="8.75" x="60" y="416.9568">4</text><text fill="#000000" font-family="sans-serif" font-size="16.25" lengthAdjust="spacing" textLength="625" x="73.75" y="416.9568">begins the automatic payment process and generates an invoice and sends it by email</text><line style="stroke:#A80036;stroke-width:1.25;" x1="38.75" x2="91.25" y1="467.2168" y2="467.2168"/><line style="stroke:#A80036;stroke-width:1.25;" x1="91.25" x2="91.25" y1="467.2168" y2="483.4668"/><line style="stroke:#A80036;stroke-width:1.25;" x1="32.5" x2="91.25" y1="483.4668" y2="483.4668"/><polygon fill="#A80036" points="45,478.4668,32.5,483.4668,45,488.4668,40,483.4668" style="stroke:#A80036;stroke-width:1.25;"/><text fill="#000000" font-family="sans-serif" font-size="16.25" font-weight="bold" lengthAdjust="spacing" textLength="8.75" x="47.5" y="461.1462">5</text><text fill="#000000" font-family="sans-serif" font-size="16.25" lengthAdjust="spacing" textLength="178.75" x="61.25" y="461.1462">receives invoice by email</text><!--MD5=[9ee51d173d171aafb7cd0350b6a3da55]
@startuml
autonumber

actor "Client" as CLN
participant ":CreateOrderUI" as UI
participant "CreateOrderController" as CTRL
participant ":System" as SYS

activate CLN
ref over CLN
MEN_01_57_SD
end ref
CLN -> UI : confirms an order and starts automatic payment process
activate UI
UI -> CTRL : makePayment()
activate CTRL
CTRL -> SYS : makePayment()
activate SYS
ref over SYS
MEN_01_36_SD
end ref
deactivate SYS
deactivate CTRL
UI -> CLN : begins the automatic payment process and generates an invoice and sends it by email
deactivate UI
CLN -> CLN : receives invoice by email

deactivate CLN
@enduml

PlantUML version 1.2021.00(Sun Jan 10 10:25:05 GMT 2021)
(GPL source distribution)
Java Runtime: OpenJDK Runtime Environment
JVM: OpenJDK 64-Bit Server VM
Default Encoding: Cp1252
Language: pt
Country: PT
--></g></svg>