<?xml version="1.0" encoding="UTF-8" standalone="no"?><svg xmlns="http://www.w3.org/2000/svg" xmlns:xlink="http://www.w3.org/1999/xlink" contentScriptType="application/ecmascript" contentStyleType="text/css" height="587.5px" preserveAspectRatio="none" style="width:457px;height:587px;" version="1.1" viewBox="0 0 457 587" width="457.5px" zoomAndPan="magnify"><defs><filter height="300%" id="f1gjrw6y8toulx" width="300%" x="-1" y="-1"><feGaussianBlur result="blurOut" stdDeviation="2.5"/><feColorMatrix in="blurOut" result="blurOut2" type="matrix" values="0 0 0 0 0 0 0 0 0 0 0 0 0 0 0 0 0 0 .4 0"/><feOffset dx="5.0" dy="5.0" in="blurOut2" result="blurOut3"/><feBlend in="SourceGraphic" in2="blurOut3" mode="normal"/></filter></defs><g><rect fill="#FFFFFF" filter="url(#f1gjrw6y8toulx)" height="333.9551" style="stroke: #A80036; stroke-width: 1.25;" width="12.5" x="45" y="124.5117"/><rect fill="#FFFFFF" filter="url(#f1gjrw6y8toulx)" height="37.9395" style="stroke: #A80036; stroke-width: 1.25;" width="12.5" x="375" y="152.4512"/><rect fill="#FFFFFF" filter="url(#f1gjrw6y8toulx)" height="37.9395" style="stroke: #A80036; stroke-width: 1.25;" width="12.5" x="375" y="260.0195"/><rect fill="#FFFFFF" filter="url(#f1gjrw6y8toulx)" height="37.9395" style="stroke: #A80036; stroke-width: 1.25;" width="12.5" x="375" y="335.8984"/><rect fill="#FFFFFF" filter="url(#f1gjrw6y8toulx)" height="37.9395" style="stroke: #A80036; stroke-width: 1.25;" width="12.5" x="375" y="420.5273"/><rect fill="#FFFFFF" filter="url(#f1gjrw6y8toulx)" height="174.6973" style="stroke: #000000; stroke-width: 2.5;" width="427.5" x="12.5" y="209.1406"/><line style="stroke: #A80036; stroke-width: 1.25; stroke-dasharray: 5.0,5.0;" x1="51.25" x2="51.25" y1="112.0117" y2="480.9668"/><line style="stroke: #A80036; stroke-width: 1.25; stroke-dasharray: 5.0,5.0;" x1="381.25" x2="381.25" y1="112.0117" y2="480.9668"/><text fill="#000000" font-family="sans-serif" font-size="17.5" lengthAdjust="spacingAndGlyphs" textLength="45" x="25" y="108.1665">Client</text><ellipse cx="51.25" cy="18.75" fill="#FEFECE" filter="url(#f1gjrw6y8toulx)" rx="10" ry="10" style="stroke: #A80036; stroke-width: 2.5;"/><path d="M51.25,28.75 L51.25,62.5 M35,38.75 L67.5,38.75 M51.25,62.5 L35,81.25 M51.25,62.5 L67.5,81.25 " fill="none" filter="url(#f1gjrw6y8toulx)" style="stroke: #A80036; stroke-width: 2.5;"/><text fill="#000000" font-family="sans-serif" font-size="17.5" lengthAdjust="spacingAndGlyphs" textLength="45" x="25" y="497.8833">Client</text><ellipse cx="51.25" cy="514.2285" fill="#FEFECE" filter="url(#f1gjrw6y8toulx)" rx="10" ry="10" style="stroke: #A80036; stroke-width: 2.5;"/><path d="M51.25,524.2285 L51.25,557.9785 M35,534.2285 L67.5,534.2285 M51.25,557.9785 L35,576.7285 M51.25,557.9785 L67.5,576.7285 " fill="none" filter="url(#f1gjrw6y8toulx)" style="stroke: #A80036; stroke-width: 2.5;"/><rect fill="#FEFECE" filter="url(#f1gjrw6y8toulx)" height="39.5117" style="stroke: #A80036; stroke-width: 1.875;" width="87.5" x="335" y="66.25"/><text fill="#000000" font-family="sans-serif" font-size="17.5" lengthAdjust="spacingAndGlyphs" textLength="70" x="343.75" y="93.1665">:Platform</text><rect fill="#FEFECE" filter="url(#f1gjrw6y8toulx)" height="39.5117" style="stroke: #A80036; stroke-width: 1.875;" width="87.5" x="335" y="479.7168"/><text fill="#000000" font-family="sans-serif" font-size="17.5" lengthAdjust="spacingAndGlyphs" textLength="70" x="343.75" y="506.6333">:Platform</text><rect fill="#FFFFFF" filter="url(#f1gjrw6y8toulx)" height="333.9551" style="stroke: #A80036; stroke-width: 1.25;" width="12.5" x="45" y="124.5117"/><rect fill="#FFFFFF" filter="url(#f1gjrw6y8toulx)" height="37.9395" style="stroke: #A80036; stroke-width: 1.25;" width="12.5" x="375" y="152.4512"/><rect fill="#FFFFFF" filter="url(#f1gjrw6y8toulx)" height="37.9395" style="stroke: #A80036; stroke-width: 1.25;" width="12.5" x="375" y="260.0195"/><rect fill="#FFFFFF" filter="url(#f1gjrw6y8toulx)" height="37.9395" style="stroke: #A80036; stroke-width: 1.25;" width="12.5" x="375" y="335.8984"/><rect fill="#FFFFFF" filter="url(#f1gjrw6y8toulx)" height="37.9395" style="stroke: #A80036; stroke-width: 1.25;" width="12.5" x="375" y="420.5273"/><polygon fill="#A80036" points="360,147.4512,372.5,152.4512,360,157.4512,365,152.4512" style="stroke: #A80036; stroke-width: 1.25;"/><line style="stroke: #A80036; stroke-width: 1.25;" x1="57.5" x2="367.5" y1="152.4512" y2="152.4512"/><text fill="#000000" font-family="sans-serif" font-size="16.25" font-weight="bold" lengthAdjust="spacingAndGlyphs" textLength="8.75" x="66.25" y="146.3806">1</text><text fill="#000000" font-family="sans-serif" font-size="16.25" lengthAdjust="spacingAndGlyphs" textLength="191.25" x="80" y="146.3806">Wants to choose products</text><polygon fill="#A80036" points="71.25,185.3906,58.75,190.3906,71.25,195.3906,66.25,190.3906" style="stroke: #A80036; stroke-width: 1.25;"/><line style="stroke: #A80036; stroke-width: 1.25; stroke-dasharray: 2.0,2.0;" x1="63.75" x2="380" y1="190.3906" y2="190.3906"/><text fill="#000000" font-family="sans-serif" font-size="16.25" font-weight="bold" lengthAdjust="spacingAndGlyphs" textLength="8.75" x="78.75" y="184.3201">2</text><text fill="#000000" font-family="sans-serif" font-size="16.25" lengthAdjust="spacingAndGlyphs" textLength="195" x="92.5" y="184.3201">shows list with all products</text><path d="M12.5,209.1406 L103.75,209.1406 L103.75,219.1406 L91.25,231.6406 L12.5,231.6406 L12.5,209.1406 " fill="#EEEEEE" style="stroke: #000000; stroke-width: 1.25;"/><rect fill="none" height="174.6973" style="stroke: #000000; stroke-width: 2.5;" width="427.5" x="12.5" y="209.1406"/><text fill="#000000" font-family="sans-serif" font-size="16.25" font-weight="bold" lengthAdjust="spacingAndGlyphs" textLength="35" x="31.25" y="227.2595">loop</text><polygon fill="#A80036" points="360,255.0195,372.5,260.0195,360,265.0195,365,260.0195" style="stroke: #A80036; stroke-width: 1.25;"/><line style="stroke: #A80036; stroke-width: 1.25;" x1="57.5" x2="367.5" y1="260.0195" y2="260.0195"/><text fill="#000000" font-family="sans-serif" font-size="16.25" font-weight="bold" lengthAdjust="spacingAndGlyphs" textLength="8.75" x="66.25" y="253.949">3</text><text fill="#000000" font-family="sans-serif" font-size="16.25" lengthAdjust="spacingAndGlyphs" textLength="61.25" x="80" y="253.949">chooses</text><polygon fill="#A80036" points="71.25,292.959,58.75,297.959,71.25,302.959,66.25,297.959" style="stroke: #A80036; stroke-width: 1.25;"/><line style="stroke: #A80036; stroke-width: 1.25; stroke-dasharray: 2.0,2.0;" x1="63.75" x2="380" y1="297.959" y2="297.959"/><text fill="#000000" font-family="sans-serif" font-size="16.25" font-weight="bold" lengthAdjust="spacingAndGlyphs" textLength="8.75" x="78.75" y="291.8884">4</text><text fill="#000000" font-family="sans-serif" font-size="16.25" lengthAdjust="spacingAndGlyphs" textLength="273.75" x="92.5" y="291.8884">shows data and requests confirmation</text><polygon fill="#A80036" points="360,330.8984,372.5,335.8984,360,340.8984,365,335.8984" style="stroke: #A80036; stroke-width: 1.25;"/><line style="stroke: #A80036; stroke-width: 1.25;" x1="57.5" x2="367.5" y1="335.8984" y2="335.8984"/><text fill="#000000" font-family="sans-serif" font-size="16.25" font-weight="bold" lengthAdjust="spacingAndGlyphs" textLength="8.75" x="66.25" y="329.8279">5</text><text fill="#000000" font-family="sans-serif" font-size="16.25" lengthAdjust="spacingAndGlyphs" textLength="61.25" x="80" y="329.8279">confirms</text><polygon fill="#A80036" points="71.25,368.8379,58.75,373.8379,71.25,378.8379,66.25,373.8379" style="stroke: #A80036; stroke-width: 1.25;"/><line style="stroke: #A80036; stroke-width: 1.25; stroke-dasharray: 2.0,2.0;" x1="63.75" x2="380" y1="373.8379" y2="373.8379"/><text fill="#000000" font-family="sans-serif" font-size="16.25" font-weight="bold" lengthAdjust="spacingAndGlyphs" textLength="8.75" x="78.75" y="367.7673">6</text><text fill="#000000" font-family="sans-serif" font-size="16.25" lengthAdjust="spacingAndGlyphs" textLength="145" x="92.5" y="367.7673">adds product to cart</text><polygon fill="#A80036" points="360,415.5273,372.5,420.5273,360,425.5273,365,420.5273" style="stroke: #A80036; stroke-width: 1.25;"/><line style="stroke: #A80036; stroke-width: 1.25;" x1="57.5" x2="367.5" y1="420.5273" y2="420.5273"/><text fill="#000000" font-family="sans-serif" font-size="16.25" font-weight="bold" lengthAdjust="spacingAndGlyphs" textLength="8.75" x="66.25" y="414.4568">7</text><text fill="#000000" font-family="sans-serif" font-size="16.25" lengthAdjust="spacingAndGlyphs" textLength="107.5" x="80" y="414.4568">complete order</text><polygon fill="#A80036" points="65,453.4668,52.5,458.4668,65,463.4668,60,458.4668" style="stroke: #A80036; stroke-width: 1.25;"/><line style="stroke: #A80036; stroke-width: 1.25; stroke-dasharray: 2.0,2.0;" x1="57.5" x2="380" y1="458.4668" y2="458.4668"/><text fill="#000000" font-family="sans-serif" font-size="16.25" font-weight="bold" lengthAdjust="spacingAndGlyphs" textLength="8.75" x="72.5" y="452.3962">8</text><text fill="#000000" font-family="sans-serif" font-size="16.25" lengthAdjust="spacingAndGlyphs" textLength="148.75" x="86.25" y="452.3962">successful operation</text><!--MD5=[0edfbc88eaca28c234936fc3642dfc6a]
@startuml
autonumber
actor "Client" as CLN

activate CLN
CLN -> ":Platform" : Wants to choose products
activate ":Platform"
":Platform" - -> CLN : shows list with all products
deactivate ":Platform"
loop
CLN -> ":Platform" : chooses
activate ":Platform"

":Platform" - -> CLN : shows data and requests confirmation
deactivate ":Platform"

CLN -> ":Platform" : confirms
activate ":Platform"

":Platform" - -> CLN : adds product to cart
deactivate ":Platform"
end loop

CLN -> ":Platform" : complete order
activate ":Platform"

":Platform" - -> CLN : successful operation
deactivate
deactivate CLN
@enduml

PlantUML version 1.2020.20(Sat Nov 21 10:02:45 GMT 2020)
(GPL source distribution)
Java Runtime: OpenJDK Runtime Environment
JVM: OpenJDK 64-Bit Server VM
Default Encoding: Cp1252
Language: pt
Country: PT
--></g></svg>