<?xml version="1.0" encoding="UTF-8" standalone="no"?><svg xmlns="http://www.w3.org/2000/svg" xmlns:xlink="http://www.w3.org/1999/xlink" contentScriptType="application/ecmascript" contentStyleType="text/css" height="393.75px" preserveAspectRatio="none" style="width:1501px;height:393px;" version="1.1" viewBox="0 0 1501 393" width="1501.25px" zoomAndPan="magnify"><defs><filter height="300%" id="f3ee1df38zn6s" width="300%" x="-1" y="-1"><feGaussianBlur result="blurOut" stdDeviation="2.5"/><feColorMatrix in="blurOut" result="blurOut2" type="matrix" values="0 0 0 0 0 0 0 0 0 0 0 0 0 0 0 0 0 0 .4 0"/><feOffset dx="5.0" dy="5.0" in="blurOut2" result="blurOut3"/><feBlend in="SourceGraphic" in2="blurOut3" mode="normal"/></filter></defs><g><!--MD5=[99b8db98afdc2c8404e39242ef4c1e65]
class Platform--><rect codeLine="5" fill="#FEFECE" filter="url(#f3ee1df38zn6s)" height="60" id="Platform" style="stroke: #A80036; stroke-width: 1.875;" width="97.5" x="538.75" y="8.75"/><ellipse cx="557.5" cy="28.75" fill="#ADD1B2" rx="13.75" ry="13.75" style="stroke: #A80036; stroke-width: 1.25;"/><path d="M560,24.375 Q560.2539,23.75 560.5469,23.4375 Q560.8398,23.125 561.1719,23.125 Q561.7578,23.125 562.1289,23.4766 Q562.5,23.8281 562.5,24.6484 L562.5,26.6016 Q562.5,27.4219 562.1484,27.7734 Q561.7969,28.125 561.25,28.125 Q560.7617,28.125 560.4492,27.9102 Q560.1367,27.6953 560,27.1289 Q559.9414,26.7383 559.7266,26.5234 Q559.3359,26.1133 558.6328,25.8789 Q557.9297,25.625 557.2266,25.625 Q556.3477,25.625 555.6055,25.9766 Q554.8828,26.3281 554.3164,27.1094 Q553.75,27.8906 553.75,28.9648 L553.75,30.1172 Q553.75,31.4063 554.8047,32.2656 Q555.8594,33.125 557.7344,33.125 Q558.8477,33.125 559.6289,32.8711 Q560.0781,32.7344 560.5859,32.2852 Q560.918,32.0313 561.0938,31.9531 Q561.2695,31.875 561.4844,31.875 Q561.8945,31.875 562.1875,32.207 Q562.5,32.5195 562.5,32.9688 Q562.5,33.3984 562.0703,33.9063 Q561.4453,34.6484 560.4492,35.0586 Q559.1406,35.625 557.5391,35.625 Q555.6641,35.625 554.1602,34.8828 Q552.9492,34.2969 552.0898,33.0273 Q551.25,31.7578 551.25,30.2539 L551.25,28.8867 Q551.25,27.3242 551.9922,25.957 Q552.7539,24.5898 554.0625,23.8672 Q555.3906,23.125 556.875,23.125 Q557.7734,23.125 558.5547,23.4375 Q559.3359,23.75 560,24.375 Z " fill="#000000"/><text fill="#000000" font-family="sans-serif" font-size="15" lengthAdjust="spacingAndGlyphs" textLength="57.5" x="575" y="34.8877">Platform</text><line style="stroke: #A80036; stroke-width: 1.875;" x1="540" x2="635" y1="48.75" y2="48.75"/><line style="stroke: #A80036; stroke-width: 1.875;" x1="540" x2="635" y1="58.75" y2="58.75"/><!--MD5=[15f08415ae6aea1722afc01d0846f94b]
class CreateOrderUI--><rect codeLine="8" fill="#FEFECE" filter="url(#f3ee1df38zn6s)" height="60" id="CreateOrderUI" style="stroke: #A80036; stroke-width: 1.875;" width="140" x="8.75" y="41.25"/><ellipse cx="27.5" cy="61.25" fill="#ADD1B2" rx="13.75" ry="13.75" style="stroke: #A80036; stroke-width: 1.25;"/><path d="M30,56.875 Q30.2539,56.25 30.5469,55.9375 Q30.8398,55.625 31.1719,55.625 Q31.7578,55.625 32.1289,55.9766 Q32.5,56.3281 32.5,57.1484 L32.5,59.1016 Q32.5,59.9219 32.1484,60.2734 Q31.7969,60.625 31.25,60.625 Q30.7617,60.625 30.4492,60.4102 Q30.1367,60.1953 30,59.6289 Q29.9414,59.2383 29.7266,59.0234 Q29.3359,58.6133 28.6328,58.3789 Q27.9297,58.125 27.2266,58.125 Q26.3477,58.125 25.6055,58.4766 Q24.8828,58.8281 24.3164,59.6094 Q23.75,60.3906 23.75,61.4648 L23.75,62.6172 Q23.75,63.9063 24.8047,64.7656 Q25.8594,65.625 27.7344,65.625 Q28.8477,65.625 29.6289,65.3711 Q30.0781,65.2344 30.5859,64.7852 Q30.918,64.5313 31.0938,64.4531 Q31.2695,64.375 31.4844,64.375 Q31.8945,64.375 32.1875,64.707 Q32.5,65.0195 32.5,65.4688 Q32.5,65.8984 32.0703,66.4063 Q31.4453,67.1484 30.4492,67.5586 Q29.1406,68.125 27.5391,68.125 Q25.6641,68.125 24.1602,67.3828 Q22.9492,66.7969 22.0898,65.5273 Q21.25,64.2578 21.25,62.7539 L21.25,61.3867 Q21.25,59.8242 21.9922,58.457 Q22.7539,57.0898 24.0625,56.3672 Q25.3906,55.625 26.875,55.625 Q27.7734,55.625 28.5547,55.9375 Q29.3359,56.25 30,56.875 Z " fill="#000000"/><text fill="#000000" font-family="sans-serif" font-size="15" lengthAdjust="spacingAndGlyphs" textLength="100" x="45" y="67.3877">CreateOrderUI</text><line style="stroke: #A80036; stroke-width: 1.875;" x1="10" x2="147.5" y1="81.25" y2="81.25"/><line style="stroke: #A80036; stroke-width: 1.875;" x1="10" x2="147.5" y1="91.25" y2="91.25"/><!--MD5=[20b085a3c6e09282e42db4a951cc1e16]
class CreateOrderController--><rect codeLine="11" fill="#FEFECE" filter="url(#f3ee1df38zn6s)" height="111.8848" id="CreateOrderController" style="stroke: #A80036; stroke-width: 1.875;" width="192.5" x="225" y="15"/><ellipse cx="243.75" cy="35" fill="#ADD1B2" rx="13.75" ry="13.75" style="stroke: #A80036; stroke-width: 1.25;"/><path d="M246.25,30.625 Q246.5039,30 246.7969,29.6875 Q247.0898,29.375 247.4219,29.375 Q248.0078,29.375 248.3789,29.7266 Q248.75,30.0781 248.75,30.8984 L248.75,32.8516 Q248.75,33.6719 248.3984,34.0234 Q248.0469,34.375 247.5,34.375 Q247.0117,34.375 246.6992,34.1602 Q246.3867,33.9453 246.25,33.3789 Q246.1914,32.9883 245.9766,32.7734 Q245.5859,32.3633 244.8828,32.1289 Q244.1797,31.875 243.4766,31.875 Q242.5977,31.875 241.8555,32.2266 Q241.1328,32.5781 240.5664,33.3594 Q240,34.1406 240,35.2148 L240,36.3672 Q240,37.6563 241.0547,38.5156 Q242.1094,39.375 243.9844,39.375 Q245.0977,39.375 245.8789,39.1211 Q246.3281,38.9844 246.8359,38.5352 Q247.168,38.2813 247.3438,38.2031 Q247.5195,38.125 247.7344,38.125 Q248.1445,38.125 248.4375,38.457 Q248.75,38.7695 248.75,39.2188 Q248.75,39.6484 248.3203,40.1563 Q247.6953,40.8984 246.6992,41.3086 Q245.3906,41.875 243.7891,41.875 Q241.9141,41.875 240.4102,41.1328 Q239.1992,40.5469 238.3398,39.2773 Q237.5,38.0078 237.5,36.5039 L237.5,35.1367 Q237.5,33.5742 238.2422,32.207 Q239.0039,30.8398 240.3125,30.1172 Q241.6406,29.375 243.125,29.375 Q244.0234,29.375 244.8047,29.6875 Q245.5859,30 246.25,30.625 Z " fill="#000000"/><text fill="#000000" font-family="sans-serif" font-size="15" lengthAdjust="spacingAndGlyphs" textLength="152.5" x="261.25" y="41.1377">CreateOrderController</text><line style="stroke: #A80036; stroke-width: 1.875;" x1="226.25" x2="416.25" y1="55" y2="55"/><line style="stroke: #A80036; stroke-width: 1.875;" x1="226.25" x2="416.25" y1="65" y2="65"/><text fill="#000000" font-family="sans-serif" font-size="13.75" lengthAdjust="spacingAndGlyphs" textLength="91.25" x="232.5" y="84.2737">+createOrder()</text><text fill="#000000" font-family="sans-serif" font-size="13.75" lengthAdjust="spacingAndGlyphs" textLength="172.5" x="232.5" y="101.5686">+addProductToCart(Product)</text><text fill="#000000" font-family="sans-serif" font-size="13.75" lengthAdjust="spacingAndGlyphs" textLength="147.5" x="232.5" y="118.8635">+confirmedOrder(Order)</text><!--MD5=[f18f330c2228279a666283655e2db579]
class CreateOrder--><rect codeLine="18" fill="#FEFECE" filter="url(#f3ee1df38zn6s)" height="111.8848" id="CreateOrder" style="stroke: #A80036; stroke-width: 1.875;" width="187.5" x="493.75" y="112.5"/><ellipse cx="540.625" cy="132.5" fill="#ADD1B2" rx="13.75" ry="13.75" style="stroke: #A80036; stroke-width: 1.25;"/><path d="M543.125,128.125 Q543.3789,127.5 543.6719,127.1875 Q543.9648,126.875 544.2969,126.875 Q544.8828,126.875 545.2539,127.2266 Q545.625,127.5781 545.625,128.3984 L545.625,130.3516 Q545.625,131.1719 545.2734,131.5234 Q544.9219,131.875 544.375,131.875 Q543.8867,131.875 543.5742,131.6602 Q543.2617,131.4453 543.125,130.8789 Q543.0664,130.4883 542.8516,130.2734 Q542.4609,129.8633 541.7578,129.6289 Q541.0547,129.375 540.3516,129.375 Q539.4727,129.375 538.7305,129.7266 Q538.0078,130.0781 537.4414,130.8594 Q536.875,131.6406 536.875,132.7148 L536.875,133.8672 Q536.875,135.1563 537.9297,136.0156 Q538.9844,136.875 540.8594,136.875 Q541.9727,136.875 542.7539,136.6211 Q543.2031,136.4844 543.7109,136.0352 Q544.043,135.7813 544.2188,135.7031 Q544.3945,135.625 544.6094,135.625 Q545.0195,135.625 545.3125,135.957 Q545.625,136.2695 545.625,136.7188 Q545.625,137.1484 545.1953,137.6563 Q544.5703,138.3984 543.5742,138.8086 Q542.2656,139.375 540.6641,139.375 Q538.7891,139.375 537.2852,138.6328 Q536.0742,138.0469 535.2148,136.7773 Q534.375,135.5078 534.375,134.0039 L534.375,132.6367 Q534.375,131.0742 535.1172,129.707 Q535.8789,128.3398 537.1875,127.6172 Q538.5156,126.875 540,126.875 Q540.8984,126.875 541.6797,127.1875 Q542.4609,127.5 543.125,128.125 Z " fill="#000000"/><text fill="#000000" font-family="sans-serif" font-size="15" lengthAdjust="spacingAndGlyphs" textLength="85" x="564.375" y="138.6377">CreateOrder</text><line style="stroke: #A80036; stroke-width: 1.875;" x1="495" x2="680" y1="152.5" y2="152.5"/><line style="stroke: #A80036; stroke-width: 1.875;" x1="495" x2="680" y1="162.5" y2="162.5"/><text fill="#000000" font-family="sans-serif" font-size="13.75" lengthAdjust="spacingAndGlyphs" textLength="91.25" x="501.25" y="181.7737">+createOrder()</text><text fill="#000000" font-family="sans-serif" font-size="13.75" lengthAdjust="spacingAndGlyphs" textLength="172.5" x="501.25" y="199.0686">+addProductToCart(Product)</text><text fill="#000000" font-family="sans-serif" font-size="13.75" lengthAdjust="spacingAndGlyphs" textLength="147.5" x="501.25" y="216.3635">+confirmedOrder(Order)</text><!--MD5=[7f2a9fafcebe4f099f71398fd3e2ed00]
class Pharmacy--><rect codeLine="24" fill="#FEFECE" filter="url(#f3ee1df38zn6s)" height="111.8848" id="Pharmacy" style="stroke: #A80036; stroke-width: 1.875;" width="152.5" x="1331.25" y="247.5"/><ellipse cx="1369.6875" cy="267.5" fill="#ADD1B2" rx="13.75" ry="13.75" style="stroke: #A80036; stroke-width: 1.25;"/><path d="M1372.1875,263.125 Q1372.4414,262.5 1372.7344,262.1875 Q1373.0273,261.875 1373.3594,261.875 Q1373.9453,261.875 1374.3164,262.2266 Q1374.6875,262.5781 1374.6875,263.3984 L1374.6875,265.3516 Q1374.6875,266.1719 1374.3359,266.5234 Q1373.9844,266.875 1373.4375,266.875 Q1372.9492,266.875 1372.6367,266.6602 Q1372.3242,266.4453 1372.1875,265.8789 Q1372.1289,265.4883 1371.9141,265.2734 Q1371.5234,264.8633 1370.8203,264.6289 Q1370.1172,264.375 1369.4141,264.375 Q1368.5352,264.375 1367.793,264.7266 Q1367.0703,265.0781 1366.5039,265.8594 Q1365.9375,266.6406 1365.9375,267.7148 L1365.9375,268.8672 Q1365.9375,270.1563 1366.9922,271.0156 Q1368.0469,271.875 1369.9219,271.875 Q1371.0352,271.875 1371.8164,271.6211 Q1372.2656,271.4844 1372.7734,271.0352 Q1373.1055,270.7813 1373.2813,270.7031 Q1373.457,270.625 1373.6719,270.625 Q1374.082,270.625 1374.375,270.957 Q1374.6875,271.2695 1374.6875,271.7188 Q1374.6875,272.1484 1374.2578,272.6563 Q1373.6328,273.3984 1372.6367,273.8086 Q1371.3281,274.375 1369.7266,274.375 Q1367.8516,274.375 1366.3477,273.6328 Q1365.1367,273.0469 1364.2773,271.7773 Q1363.4375,270.5078 1363.4375,269.0039 L1363.4375,267.6367 Q1363.4375,266.0742 1364.1797,264.707 Q1364.9414,263.3398 1366.25,262.6172 Q1367.5781,261.875 1369.0625,261.875 Q1369.9609,261.875 1370.7422,262.1875 Q1371.5234,262.5 1372.1875,263.125 Z " fill="#000000"/><text fill="#000000" font-family="sans-serif" font-size="15" lengthAdjust="spacingAndGlyphs" textLength="68.75" x="1391.5625" y="273.6377">Pharmacy</text><line style="stroke: #A80036; stroke-width: 1.875;" x1="1332.5" x2="1482.5" y1="287.5" y2="287.5"/><text fill="#000000" font-family="sans-serif" font-size="13.75" lengthAdjust="spacingAndGlyphs" textLength="137.5" x="1338.75" y="306.7737">-String pharmacyName</text><text fill="#000000" font-family="sans-serif" font-size="13.75" lengthAdjust="spacingAndGlyphs" textLength="132.5" x="1338.75" y="324.0686">-String companyName</text><text fill="#000000" font-family="sans-serif" font-size="13.75" lengthAdjust="spacingAndGlyphs" textLength="41.25" x="1338.75" y="341.3635">-int NIF</text><line style="stroke: #A80036; stroke-width: 1.875;" x1="1332.5" x2="1482.5" y1="349.3848" y2="349.3848"/><!--MD5=[cf4d6237fcae255cd2e1656cf84a30e2]
class Order--><rect codeLine="30" fill="#FEFECE" filter="url(#f3ee1df38zn6s)" height="146.4746" id="Order" style="stroke: #A80036; stroke-width: 1.875;" width="187.5" x="757.5" y="95.625"/><ellipse cx="826.5625" cy="115.625" fill="#ADD1B2" rx="13.75" ry="13.75" style="stroke: #A80036; stroke-width: 1.25;"/><path d="M829.0625,111.25 Q829.3164,110.625 829.6094,110.3125 Q829.9023,110 830.2344,110 Q830.8203,110 831.1914,110.3516 Q831.5625,110.7031 831.5625,111.5234 L831.5625,113.4766 Q831.5625,114.2969 831.2109,114.6484 Q830.8594,115 830.3125,115 Q829.8242,115 829.5117,114.7852 Q829.1992,114.5703 829.0625,114.0039 Q829.0039,113.6133 828.7891,113.3984 Q828.3984,112.9883 827.6953,112.7539 Q826.9922,112.5 826.2891,112.5 Q825.4102,112.5 824.668,112.8516 Q823.9453,113.2031 823.3789,113.9844 Q822.8125,114.7656 822.8125,115.8398 L822.8125,116.9922 Q822.8125,118.2813 823.8672,119.1406 Q824.9219,120 826.7969,120 Q827.9102,120 828.6914,119.7461 Q829.1406,119.6094 829.6484,119.1602 Q829.9805,118.9063 830.1563,118.8281 Q830.332,118.75 830.5469,118.75 Q830.957,118.75 831.25,119.082 Q831.5625,119.3945 831.5625,119.8438 Q831.5625,120.2734 831.1328,120.7813 Q830.5078,121.5234 829.5117,121.9336 Q828.2031,122.5 826.6016,122.5 Q824.7266,122.5 823.2227,121.7578 Q822.0117,121.1719 821.1523,119.9023 Q820.3125,118.6328 820.3125,117.1289 L820.3125,115.7617 Q820.3125,114.1992 821.0547,112.832 Q821.8164,111.4648 823.125,110.7422 Q824.4531,110 825.9375,110 Q826.8359,110 827.6172,110.3125 Q828.3984,110.625 829.0625,111.25 Z " fill="#000000"/><text fill="#000000" font-family="sans-serif" font-size="15" lengthAdjust="spacingAndGlyphs" textLength="38.75" x="852.1875" y="121.7627">Order</text><line style="stroke: #A80036; stroke-width: 1.875;" x1="758.75" x2="943.75" y1="135.625" y2="135.625"/><text fill="#000000" font-family="sans-serif" font-size="13.75" lengthAdjust="spacingAndGlyphs" textLength="53.75" x="765" y="154.8987">-String id</text><text fill="#000000" font-family="sans-serif" font-size="13.75" lengthAdjust="spacingAndGlyphs" textLength="95" x="765" y="172.1936">-list of products</text><line style="stroke: #A80036; stroke-width: 1.875;" x1="758.75" x2="943.75" y1="180.2148" y2="180.2148"/><text fill="#000000" font-family="sans-serif" font-size="13.75" lengthAdjust="spacingAndGlyphs" textLength="110" x="765" y="199.4885">+addOrder(Order)</text><text fill="#000000" font-family="sans-serif" font-size="13.75" lengthAdjust="spacingAndGlyphs" textLength="133.75" x="765" y="216.7834">+new Order(NIF, cart)</text><text fill="#000000" font-family="sans-serif" font-size="13.75" lengthAdjust="spacingAndGlyphs" textLength="172.5" x="765" y="234.0784">+addProductToCart(Product)</text><!--MD5=[ed6624c6556d5e7b1bd23032162d20b7]
class Client--><rect codeLine="38" fill="#FEFECE" filter="url(#f3ee1df38zn6s)" height="129.1797" id="Client" style="stroke: #A80036; stroke-width: 1.875;" width="91.25" x="1092.5" y="58.125"/><ellipse cx="1116.3125" cy="78.125" fill="#ADD1B2" rx="13.75" ry="13.75" style="stroke: #A80036; stroke-width: 1.25;"/><path d="M1118.8125,73.75 Q1119.0664,73.125 1119.3594,72.8125 Q1119.6523,72.5 1119.9844,72.5 Q1120.5703,72.5 1120.9414,72.8516 Q1121.3125,73.2031 1121.3125,74.0234 L1121.3125,75.9766 Q1121.3125,76.7969 1120.9609,77.1484 Q1120.6094,77.5 1120.0625,77.5 Q1119.5742,77.5 1119.2617,77.2852 Q1118.9492,77.0703 1118.8125,76.5039 Q1118.7539,76.1133 1118.5391,75.8984 Q1118.1484,75.4883 1117.4453,75.2539 Q1116.7422,75 1116.0391,75 Q1115.1602,75 1114.418,75.3516 Q1113.6953,75.7031 1113.1289,76.4844 Q1112.5625,77.2656 1112.5625,78.3398 L1112.5625,79.4922 Q1112.5625,80.7813 1113.6172,81.6406 Q1114.6719,82.5 1116.5469,82.5 Q1117.6602,82.5 1118.4414,82.2461 Q1118.8906,82.1094 1119.3984,81.6602 Q1119.7305,81.4063 1119.9063,81.3281 Q1120.082,81.25 1120.2969,81.25 Q1120.707,81.25 1121,81.582 Q1121.3125,81.8945 1121.3125,82.3438 Q1121.3125,82.7734 1120.8828,83.2813 Q1120.2578,84.0234 1119.2617,84.4336 Q1117.9531,85 1116.3516,85 Q1114.4766,85 1112.9727,84.2578 Q1111.7617,83.6719 1110.9023,82.4023 Q1110.0625,81.1328 1110.0625,79.6289 L1110.0625,78.2617 Q1110.0625,76.6992 1110.8047,75.332 Q1111.5664,73.9648 1112.875,73.2422 Q1114.2031,72.5 1115.6875,72.5 Q1116.5859,72.5 1117.3672,72.8125 Q1118.1484,73.125 1118.8125,73.75 Z " fill="#000000"/><text fill="#000000" font-family="sans-serif" font-size="15" lengthAdjust="spacingAndGlyphs" textLength="40" x="1134.9375" y="84.2627">Client</text><line style="stroke: #A80036; stroke-width: 1.875;" x1="1093.75" x2="1182.5" y1="98.125" y2="98.125"/><text fill="#000000" font-family="sans-serif" font-size="13.75" lengthAdjust="spacingAndGlyphs" textLength="76.25" x="1100" y="117.3987">-String name</text><text fill="#000000" font-family="sans-serif" font-size="13.75" lengthAdjust="spacingAndGlyphs" textLength="73.75" x="1100" y="134.6936">-String email</text><text fill="#000000" font-family="sans-serif" font-size="13.75" lengthAdjust="spacingAndGlyphs" textLength="41.25" x="1100" y="151.9885">-int NIF</text><text fill="#000000" font-family="sans-serif" font-size="13.75" lengthAdjust="spacingAndGlyphs" textLength="63.75" x="1100" y="169.2834">-int credits</text><line style="stroke: #A80036; stroke-width: 1.875;" x1="1093.75" x2="1182.5" y1="177.3047" y2="177.3047"/><!--MD5=[72136138052d025cffdce3c22fbd185f]
class Product--><rect codeLine="45" fill="#FEFECE" filter="url(#f3ee1df38zn6s)" height="146.4746" id="Product" style="stroke: #A80036; stroke-width: 1.875;" width="138.75" x="1068.75" y="230.625"/><ellipse cx="1108.3125" cy="250.625" fill="#ADD1B2" rx="13.75" ry="13.75" style="stroke: #A80036; stroke-width: 1.25;"/><path d="M1110.8125,246.25 Q1111.0664,245.625 1111.3594,245.3125 Q1111.6523,245 1111.9844,245 Q1112.5703,245 1112.9414,245.3516 Q1113.3125,245.7031 1113.3125,246.5234 L1113.3125,248.4766 Q1113.3125,249.2969 1112.9609,249.6484 Q1112.6094,250 1112.0625,250 Q1111.5742,250 1111.2617,249.7852 Q1110.9492,249.5703 1110.8125,249.0039 Q1110.7539,248.6133 1110.5391,248.3984 Q1110.1484,247.9883 1109.4453,247.7539 Q1108.7422,247.5 1108.0391,247.5 Q1107.1602,247.5 1106.418,247.8516 Q1105.6953,248.2031 1105.1289,248.9844 Q1104.5625,249.7656 1104.5625,250.8398 L1104.5625,251.9922 Q1104.5625,253.2813 1105.6172,254.1406 Q1106.6719,255 1108.5469,255 Q1109.6602,255 1110.4414,254.7461 Q1110.8906,254.6094 1111.3984,254.1602 Q1111.7305,253.9063 1111.9063,253.8281 Q1112.082,253.75 1112.2969,253.75 Q1112.707,253.75 1113,254.082 Q1113.3125,254.3945 1113.3125,254.8438 Q1113.3125,255.2734 1112.8828,255.7813 Q1112.2578,256.5234 1111.2617,256.9336 Q1109.9531,257.5 1108.3516,257.5 Q1106.4766,257.5 1104.9727,256.7578 Q1103.7617,256.1719 1102.9023,254.9023 Q1102.0625,253.6328 1102.0625,252.1289 L1102.0625,250.7617 Q1102.0625,249.1992 1102.8047,247.832 Q1103.5664,246.4648 1104.875,245.7422 Q1106.2031,245 1107.6875,245 Q1108.5859,245 1109.3672,245.3125 Q1110.1484,245.625 1110.8125,246.25 Z " fill="#000000"/><text fill="#000000" font-family="sans-serif" font-size="15" lengthAdjust="spacingAndGlyphs" textLength="52.5" x="1130.4375" y="256.7627">Product</text><line style="stroke: #A80036; stroke-width: 1.875;" x1="1070" x2="1206.25" y1="270.625" y2="270.625"/><text fill="#000000" font-family="sans-serif" font-size="13.75" lengthAdjust="spacingAndGlyphs" textLength="120" x="1076.25" y="289.8987">-String productType</text><text fill="#000000" font-family="sans-serif" font-size="13.75" lengthAdjust="spacingAndGlyphs" textLength="123.75" x="1076.25" y="307.1936">-String productName</text><text fill="#000000" font-family="sans-serif" font-size="13.75" lengthAdjust="spacingAndGlyphs" textLength="78.75" x="1076.25" y="324.4885">-double price</text><text fill="#000000" font-family="sans-serif" font-size="13.75" lengthAdjust="spacingAndGlyphs" textLength="90" x="1076.25" y="341.7834">-double weight</text><line style="stroke: #A80036; stroke-width: 1.875;" x1="1070" x2="1206.25" y1="349.8047" y2="349.8047"/><text fill="#000000" font-family="sans-serif" font-size="13.75" lengthAdjust="spacingAndGlyphs" textLength="70" x="1076.25" y="369.0784">+getStock()</text><!--MD5=[0dfa2b8e696be82cdd4e9d20a6763629]
link CreateOrderUI to CreateOrderController--><path codeLine="53" d="M148.7738,71.25 C170.425,71.25 194.8138,71.25 218.2525,71.25 " fill="none" id="CreateOrderUI-to-CreateOrderController" style="stroke: #A80036; stroke-width: 1.25; stroke-dasharray: 7.0,7.0;"/><polygon fill="#A80036" points="224.835,71.25,213.585,66.25,218.585,71.25,213.585,76.25,224.835,71.25" style="stroke: #A80036; stroke-width: 1.25;"/><!--MD5=[b7ffe02e4953ad9b20c785888fac3db2]
link CreateOrderController to Platform--><path codeLine="54" d="M417.72,59.5163 C456.1763,54.7775 499.15,49.4825 532.0775,45.425 " fill="none" id="CreateOrderController-to-Platform" style="stroke: #A80036; stroke-width: 1.25; stroke-dasharray: 7.0,7.0;"/><polygon fill="#A80036" points="538.525,44.6312,526.748,41.0444,532.3219,45.3955,527.9708,50.9693,538.525,44.6312" style="stroke: #A80036; stroke-width: 1.25;"/><!--MD5=[e91ebd7a5706ad1736660361fa5753b3]
link CreateOrderController to CreateOrder--><path codeLine="55" d="M417.72,106.45 C440.2438,114.7763 464.3175,123.675 487.015,132.0663 " fill="none" id="CreateOrderController-to-CreateOrder" style="stroke: #A80036; stroke-width: 1.25; stroke-dasharray: 7.0,7.0;"/><polygon fill="#A80036" points="493.3775,134.4175,484.56,125.826,487.5155,132.2498,481.0917,135.2053,493.3775,134.4175" style="stroke: #A80036; stroke-width: 1.25;"/><!--MD5=[1f89b3ef6860740a8582c7b2cb8b09e8]
link CreateOrder to Order--><path codeLine="56" d="M681.5925,168.75 C704.1138,168.75 728.275,168.75 751.0675,168.75 " fill="none" id="CreateOrder-to-Order" style="stroke: #A80036; stroke-width: 1.25; stroke-dasharray: 7.0,7.0;"/><polygon fill="#A80036" points="757.4563,168.75,746.2063,163.75,751.2063,168.75,746.2063,173.75,757.4563,168.75" style="stroke: #A80036; stroke-width: 1.25;"/><!--MD5=[b4eabd1a63a4ad1f2f93b60573323bf1]
link Order to Client--><path codeLine="57" d="M945.2213,153.67 C994.6563,145.63 1053.205,136.1075 1092.4663,129.7225 " fill="none" id="Order-Client" style="stroke: #A80036; stroke-width: 1.25;"/><polygon fill="#000000" points="994.9189,127.9664,983.1695,126.1554,984.3489,133.4074,994.9189,127.9664" style="stroke: #000000; stroke-width: 1.25;"/><text fill="#000000" font-family="sans-serif" font-size="16.25" lengthAdjust="spacingAndGlyphs" textLength="30" x="1000" y="135.6189">Of a</text><text fill="#000000" font-family="sans-serif" font-size="16.25" lengthAdjust="spacingAndGlyphs" textLength="8.75" x="954.9022" y="170.0494">1</text><text fill="#000000" font-family="sans-serif" font-size="16.25" lengthAdjust="spacingAndGlyphs" textLength="8.75" x="1073.8659" y="149.983">1</text><!--MD5=[5df16df72a49edaa4f00919f1e597f76]
link Order to Product--><path codeLine="58" d="M945.2213,212.7675 C985.4175,231.85 1031.64,253.7921 1068.6188,271.347 " fill="none" id="Order-Product" style="stroke: #A80036; stroke-width: 1.25;"/><polygon fill="#000000" points="995.0211,222.9001,986.3827,214.7326,983.2318,221.37,995.0211,222.9001" style="stroke: #000000; stroke-width: 1.25;"/><text fill="#000000" font-family="sans-serif" font-size="16.25" lengthAdjust="spacingAndGlyphs" textLength="28.75" x="1000.625" y="226.8689">Has</text><text fill="#000000" font-family="sans-serif" font-size="16.25" lengthAdjust="spacingAndGlyphs" textLength="8.75" x="954.9022" y="234.9643">1</text><text fill="#000000" font-family="sans-serif" font-size="16.25" lengthAdjust="spacingAndGlyphs" textLength="6.25" x="1052.6089" y="285.2199">*</text><!--MD5=[ba87ef001a42588939f676dd8642ea05]
link Product to Pharmacy--><path codeLine="59" d="M1207.755,303.75 C1245.4375,303.75 1292.2875,303.75 1331,303.75 " fill="none" id="Product-Pharmacy" style="stroke: #A80036; stroke-width: 1.25;"/><polygon fill="#000000" points="1257.5,292.7197,1246.1936,289.0461,1246.1936,296.3934,1257.5,292.7197" style="stroke: #000000; stroke-width: 1.25;"/><text fill="#000000" font-family="sans-serif" font-size="16.25" lengthAdjust="spacingAndGlyphs" textLength="30" x="1262.5" y="299.3689">Of a</text><text fill="#000000" font-family="sans-serif" font-size="16.25" lengthAdjust="spacingAndGlyphs" textLength="6.25" x="1217.5315" y="321.9771">*</text><text fill="#000000" font-family="sans-serif" font-size="16.25" lengthAdjust="spacingAndGlyphs" textLength="8.75" x="1312.3934" y="321.9019">1</text><!--MD5=[5c16ecdbd706d3d6a67e50f885f6f229]
@startuml
skinparam classAttributeIconSize 0

left to right direction

class Platform {
}

class CreateOrderUI {
}

class CreateOrderController {
  +createOrder()
  +addProductToCart(Product)
  +confirmedOrder(Order)
}


class CreateOrder {
  +createOrder()
  +addProductToCart(Product)
  +confirmedOrder(Order)
}

class Pharmacy {
  -String pharmacyName
  -String companyName
  -int NIF
}

class Order {
    -String id
    -list of products
    +addOrder(Order)
    +new Order(NIF, cart)
    +addProductToCart(Product)
}

class Client {
    -String name
    -String email
    -int NIF
    -int credits
}

class Product{
    -String productType
    -String productName
    -double price
    -double weight
    +getStock()
}

CreateOrderUI   ..> CreateOrderController
CreateOrderController ..> Platform
CreateOrderController ..> CreateOrder
CreateOrder ..> Order
Order "1" - - "1" Client : Of a  >
Order "1" - - "*" Product : Has >
Product "*" - - "1" Pharmacy : Of a >



@enduml

PlantUML version 1.2020.20(Sat Nov 21 10:02:45 GMT 2020)
(GPL source distribution)
Java Runtime: OpenJDK Runtime Environment
JVM: OpenJDK 64-Bit Server VM
Default Encoding: Cp1252
Language: pt
Country: PT
--></g></svg>