<?xml version="1.0" encoding="UTF-8" standalone="no"?><svg xmlns="http://www.w3.org/2000/svg" xmlns:xlink="http://www.w3.org/1999/xlink" contentScriptType="application/ecmascript" contentStyleType="text/css" height="329px" preserveAspectRatio="none" style="width:188px;height:329px;" version="1.1" viewBox="0 0 188 329" width="188px" zoomAndPan="magnify"><defs><filter height="300%" id="f1txwxr22fvlrd" width="300%" x="-1" y="-1"><feGaussianBlur result="blurOut" stdDeviation="2.0"/><feColorMatrix in="blurOut" result="blurOut2" type="matrix" values="0 0 0 0 0 0 0 0 0 0 0 0 0 0 0 0 0 0 .4 0"/><feOffset dx="4.0" dy="4.0" in="blurOut2" result="blurOut3"/><feBlend in="SourceGraphic" in2="blurOut3" mode="normal"/></filter></defs><g><!--MD5=[ed6624c6556d5e7b1bd23032162d20b7]
class Client--><rect codeLine="4" fill="#FEFECE" filter="url(#f1txwxr22fvlrd)" height="158.6875" id="Client" style="stroke:#A80036;stroke-width:1.5;" width="167" x="7" y="7"/><ellipse cx="70.25" cy="23" fill="#ADD1B2" rx="11" ry="11" style="stroke:#A80036;stroke-width:1.0;"/><path d="M72.25,19.5 Q72.4531,19 72.6875,18.75 Q72.9219,18.5 73.1875,18.5 Q73.6563,18.5 73.9531,18.7813 Q74.25,19.0625 74.25,19.7188 L74.25,21.2813 Q74.25,21.9375 73.9688,22.2188 Q73.6875,22.5 73.25,22.5 Q72.8594,22.5 72.6094,22.3281 Q72.3594,22.1563 72.25,21.7031 Q72.2031,21.3906 72.0313,21.2188 Q71.7188,20.8906 71.1563,20.7031 Q70.5938,20.5 70.0313,20.5 Q69.3281,20.5 68.7344,20.7813 Q68.1563,21.0625 67.7031,21.6875 Q67.25,22.3125 67.25,23.1719 L67.25,24.0938 Q67.25,25.125 68.0938,25.8125 Q68.9375,26.5 70.4375,26.5 Q71.3281,26.5 71.9531,26.2969 Q72.3125,26.1875 72.7188,25.8281 Q72.9844,25.625 73.125,25.5625 Q73.2656,25.5 73.4375,25.5 Q73.7656,25.5 74,25.7656 Q74.25,26.0156 74.25,26.375 Q74.25,26.7188 73.9063,27.125 Q73.4063,27.7188 72.6094,28.0469 Q71.5625,28.5 70.2813,28.5 Q68.7813,28.5 67.5781,27.9063 Q66.6094,27.4375 65.9219,26.4219 Q65.25,25.4063 65.25,24.2031 L65.25,23.1094 Q65.25,21.8594 65.8438,20.7656 Q66.4531,19.6719 67.5,19.0938 Q68.5625,18.5 69.75,18.5 Q70.4688,18.5 71.0938,18.75 Q71.7188,19 72.25,19.5 Z " fill="#000000"/><text fill="#000000" font-family="sans-serif" font-size="12" lengthAdjust="spacingAndGlyphs" textLength="32" x="90.75" y="27.9102">Client</text><line style="stroke:#A80036;stroke-width:1.5;" x1="8" x2="173" y1="39" y2="39"/><rect fill="none" height="6" style="stroke:#C82930;stroke-width:1.0;" width="6" x="15" y="47"/><text fill="#000000" font-family="sans-serif" font-size="11" lengthAdjust="spacingAndGlyphs" textLength="92" x="27" y="54.4189">String clientid «PK»</text><rect fill="none" height="6" style="stroke:#C82930;stroke-width:1.0;" width="6" x="15" y="60.8359"/><text fill="#000000" font-family="sans-serif" font-size="11" lengthAdjust="spacingAndGlyphs" textLength="57" x="27" y="68.2549">String name</text><rect fill="none" height="6" style="stroke:#C82930;stroke-width:1.0;" width="6" x="15" y="74.6719"/><text fill="#000000" font-family="sans-serif" font-size="11" lengthAdjust="spacingAndGlyphs" textLength="55" x="27" y="82.0908">String email</text><rect fill="none" height="6" style="stroke:#C82930;stroke-width:1.0;" width="6" x="15" y="88.5078"/><text fill="#000000" font-family="sans-serif" font-size="11" lengthAdjust="spacingAndGlyphs" textLength="29" x="27" y="95.9268">int NIF</text><rect fill="none" height="6" style="stroke:#C82930;stroke-width:1.0;" width="6" x="15" y="102.3438"/><text fill="#000000" font-family="sans-serif" font-size="11" lengthAdjust="spacingAndGlyphs" textLength="47" x="27" y="109.7627">int credits</text><rect fill="none" height="6" style="stroke:#C82930;stroke-width:1.0;" width="6" x="15" y="116.1797"/><text fill="#000000" font-family="sans-serif" font-size="11" lengthAdjust="spacingAndGlyphs" textLength="129" x="27" y="123.5986">int creditCardNumber «FK»</text><rect fill="none" height="6" style="stroke:#C82930;stroke-width:1.0;" width="6" x="15" y="130.0156"/><text fill="#000000" font-family="sans-serif" font-size="11" lengthAdjust="spacingAndGlyphs" textLength="140" x="27" y="137.4346">double gpsCoordinateX «FK»</text><rect fill="none" height="6" style="stroke:#C82930;stroke-width:1.0;" width="6" x="15" y="143.8516"/><text fill="#000000" font-family="sans-serif" font-size="11" lengthAdjust="spacingAndGlyphs" textLength="141" x="27" y="151.2705">double gpsCoordinateY «FK»</text><line style="stroke:#A80036;stroke-width:1.5;" x1="8" x2="173" y1="157.6875" y2="157.6875"/><!--MD5=[cf4d6237fcae255cd2e1656cf84a30e2]
class Order--><rect codeLine="15" fill="#FEFECE" filter="url(#f1txwxr22fvlrd)" height="89.5078" id="Order" style="stroke:#A80036;stroke-width:1.5;" width="156" x="12.5" y="226"/><ellipse cx="70.75" cy="242" fill="#ADD1B2" rx="11" ry="11" style="stroke:#A80036;stroke-width:1.0;"/><path d="M72.75,238.5 Q72.9531,238 73.1875,237.75 Q73.4219,237.5 73.6875,237.5 Q74.1563,237.5 74.4531,237.7813 Q74.75,238.0625 74.75,238.7188 L74.75,240.2813 Q74.75,240.9375 74.4688,241.2188 Q74.1875,241.5 73.75,241.5 Q73.3594,241.5 73.1094,241.3281 Q72.8594,241.1563 72.75,240.7031 Q72.7031,240.3906 72.5313,240.2188 Q72.2188,239.8906 71.6563,239.7031 Q71.0938,239.5 70.5313,239.5 Q69.8281,239.5 69.2344,239.7813 Q68.6563,240.0625 68.2031,240.6875 Q67.75,241.3125 67.75,242.1719 L67.75,243.0938 Q67.75,244.125 68.5938,244.8125 Q69.4375,245.5 70.9375,245.5 Q71.8281,245.5 72.4531,245.2969 Q72.8125,245.1875 73.2188,244.8281 Q73.4844,244.625 73.625,244.5625 Q73.7656,244.5 73.9375,244.5 Q74.2656,244.5 74.5,244.7656 Q74.75,245.0156 74.75,245.375 Q74.75,245.7188 74.4063,246.125 Q73.9063,246.7188 73.1094,247.0469 Q72.0625,247.5 70.7813,247.5 Q69.2813,247.5 68.0781,246.9063 Q67.1094,246.4375 66.4219,245.4219 Q65.75,244.4063 65.75,243.2031 L65.75,242.1094 Q65.75,240.8594 66.3438,239.7656 Q66.9531,238.6719 68,238.0938 Q69.0625,237.5 70.25,237.5 Q70.9688,237.5 71.5938,237.75 Q72.2188,238 72.75,238.5 Z " fill="#000000"/><text fill="#000000" font-family="sans-serif" font-size="12" lengthAdjust="spacingAndGlyphs" textLength="31" x="91.25" y="246.9102">Order</text><line style="stroke:#A80036;stroke-width:1.5;" x1="13.5" x2="167.5" y1="258" y2="258"/><rect fill="none" height="6" style="stroke:#C82930;stroke-width:1.0;" width="6" x="20.5" y="266"/><text fill="#000000" font-family="sans-serif" font-size="11" lengthAdjust="spacingAndGlyphs" textLength="77" x="32.5" y="273.4189">int orderID «PK»</text><rect fill="none" height="6" style="stroke:#C82930;stroke-width:1.0;" width="6" x="20.5" y="279.8359"/><text fill="#000000" font-family="sans-serif" font-size="11" lengthAdjust="spacingAndGlyphs" textLength="75" x="32.5" y="287.2549">int clientid «FK»</text><rect fill="none" height="6" style="stroke:#C82930;stroke-width:1.0;" width="6" x="20.5" y="293.6719"/><text fill="#000000" font-family="sans-serif" font-size="11" lengthAdjust="spacingAndGlyphs" textLength="130" x="32.5" y="301.0908">Map&lt;Product, Integer&gt; cart</text><line style="stroke:#A80036;stroke-width:1.5;" x1="13.5" x2="167.5" y1="307.5078" y2="307.5078"/><!--MD5=[879bec428a80d843af24dc47845bf14c]
link Client to Order--><path codeLine="21" d="M90.5,174.4 C90.5,189.2 90.5,204.15 90.5,217.69 " fill="none" id="Client-Order" style="stroke:#A80036;stroke-width:1.0;"/><line style="stroke:#A80036;stroke-width:1.0;" x1="90.5" x2="90.5" y1="214.93" y2="225.93"/><ellipse cx="90.5" cy="214.93" fill="none" rx="4" ry="4" style="stroke:#A80036;stroke-width:1.0;"/><line style="stroke:#A80036;stroke-width:1.0;" x1="94.5" x2="86.5" y1="221.93" y2="221.93"/><line style="stroke:#A80036;stroke-width:1.0;" x1="90.5" x2="90.5" y1="177.22" y2="166.22"/><ellipse cx="90.5" cy="177.22" fill="none" rx="4" ry="4" style="stroke:#A80036;stroke-width:1.0;"/><line style="stroke:#A80036;stroke-width:1.0;" x1="86.5" x2="94.5" y1="170.22" y2="170.22"/><!--MD5=[42366c1d961baa34a4966198f4b5bf06]
@startuml
'skinparam linetype polyline


class Client {
    -String clientid «PK»
    -String name
    -String email
    -int NIF
    -int credits
    -int creditCardNumber «FK»
    -double gpsCoordinateX «FK»
    -double gpsCoordinateY «FK»
}

class Order{
    -int orderID «PK»
    -int clientid «FK»
    -Map<Product, Integer> cart
}

Client |o- -o| Order

@enduml

@startuml


class Client {
    -String clientid «PK»
    -String name
    -String email
    -int NIF
    -int credits
    -int creditCardNumber «FK»
    -double gpsCoordinateX «FK»
    -double gpsCoordinateY «FK»
}

class Order{
    -int orderID «PK»
    -int clientid «FK»
    -Map<Product, Integer> cart
}

Client |o- -o| Order

@enduml

PlantUML version 1.2020.26(Mon Dec 21 17:45:07 GMT 2020)
(GPL source distribution)
Java Runtime: OpenJDK Runtime Environment
JVM: OpenJDK 64-Bit Server VM
Default Encoding: Cp1252
Language: en
Country: US
--></g></svg>