<?xml version="1.0" encoding="UTF-8" standalone="no"?><svg xmlns="http://www.w3.org/2000/svg" xmlns:xlink="http://www.w3.org/1999/xlink" contentScriptType="application/ecmascript" contentStyleType="text/css" height="124px" preserveAspectRatio="none" style="width:104px;height:124px;" version="1.1" viewBox="0 0 104 124" width="104px" zoomAndPan="magnify"><defs><filter height="300%" id="fcnrvec61aqbw" width="300%" x="-1" y="-1"><feGaussianBlur result="blurOut" stdDeviation="2.0"/><feColorMatrix in="blurOut" result="blurOut2" type="matrix" values="0 0 0 0 0 0 0 0 0 0 0 0 0 0 0 0 0 0 .4 0"/><feOffset dx="4.0" dy="4.0" in="blurOut2" result="blurOut3"/><feBlend in="SourceGraphic" in2="blurOut3" mode="normal"/></filter></defs><g><!--MD5=[ed6624c6556d5e7b1bd23032162d20b7]
class Client--><rect codeLine="6" fill="#FEFECE" filter="url(#fcnrvec61aqbw)" height="103.3438" id="Client" style="stroke:#A80036;stroke-width:1.5;" width="83" x="7" y="7"/><ellipse cx="30.55" cy="23" fill="#ADD1B2" rx="11" ry="11" style="stroke:#A80036;stroke-width:1.0;"/><path d="M32.55,19.5 Q32.7531,19 32.9875,18.75 Q33.2219,18.5 33.4875,18.5 Q33.9563,18.5 34.2531,18.7813 Q34.55,19.0625 34.55,19.7188 L34.55,21.2813 Q34.55,21.9375 34.2688,22.2188 Q33.9875,22.5 33.55,22.5 Q33.1594,22.5 32.9094,22.3281 Q32.6594,22.1563 32.55,21.7031 Q32.5031,21.3906 32.3313,21.2188 Q32.0188,20.8906 31.4563,20.7031 Q30.8938,20.5 30.3313,20.5 Q29.6281,20.5 29.0344,20.7813 Q28.4563,21.0625 28.0031,21.6875 Q27.55,22.3125 27.55,23.1719 L27.55,24.0938 Q27.55,25.125 28.3938,25.8125 Q29.2375,26.5 30.7375,26.5 Q31.6281,26.5 32.2531,26.2969 Q32.6125,26.1875 33.0188,25.8281 Q33.2844,25.625 33.425,25.5625 Q33.5656,25.5 33.7375,25.5 Q34.0656,25.5 34.3,25.7656 Q34.55,26.0156 34.55,26.375 Q34.55,26.7188 34.2063,27.125 Q33.7063,27.7188 32.9094,28.0469 Q31.8625,28.5 30.5813,28.5 Q29.0813,28.5 27.8781,27.9063 Q26.9094,27.4375 26.2219,26.4219 Q25.55,25.4063 25.55,24.2031 L25.55,23.1094 Q25.55,21.8594 26.1438,20.7656 Q26.7531,19.6719 27.8,19.0938 Q28.8625,18.5 30.05,18.5 Q30.7688,18.5 31.3938,18.75 Q32.0188,19 32.55,19.5 Z " fill="#000000"/><text fill="#000000" font-family="sans-serif" font-size="12" lengthAdjust="spacingAndGlyphs" textLength="32" x="46.45" y="27.9102">Client</text><line style="stroke:#A80036;stroke-width:1.5;" x1="8" x2="89" y1="39" y2="39"/><rect fill="none" height="6" style="stroke:#C82930;stroke-width:1.0;" width="6" x="15" y="47"/><text fill="#000000" font-family="sans-serif" font-size="11" lengthAdjust="spacingAndGlyphs" textLength="57" x="27" y="54.4189">String name</text><rect fill="none" height="6" style="stroke:#C82930;stroke-width:1.0;" width="6" x="15" y="60.8359"/><text fill="#000000" font-family="sans-serif" font-size="11" lengthAdjust="spacingAndGlyphs" textLength="55" x="27" y="68.2549">String email</text><rect fill="none" height="6" style="stroke:#C82930;stroke-width:1.0;" width="6" x="15" y="74.6719"/><text fill="#000000" font-family="sans-serif" font-size="11" lengthAdjust="spacingAndGlyphs" textLength="29" x="27" y="82.0908">int NIF</text><rect fill="none" height="6" style="stroke:#C82930;stroke-width:1.0;" width="6" x="15" y="88.5078"/><text fill="#000000" font-family="sans-serif" font-size="11" lengthAdjust="spacingAndGlyphs" textLength="47" x="27" y="95.9268">int credits</text><line style="stroke:#A80036;stroke-width:1.5;" x1="8" x2="89" y1="102.3438" y2="102.3438"/><!--MD5=[81b7f2c8f800f520013cdc3d95288098]
@startuml
'skinparam linetype polyline




class Client {
    -String name
    -String email
    -int NIF
    -int credits
}



@enduml

@startuml




class Client {
    -String name
    -String email
    -int NIF
    -int credits
}



@enduml

PlantUML version 1.2020.26(Mon Dec 21 17:45:07 GMT 2020)
(GPL source distribution)
Java Runtime: OpenJDK Runtime Environment
JVM: OpenJDK 64-Bit Server VM
Default Encoding: Cp1252
Language: en
Country: US
--></g></svg>