<?xml version="1.0" encoding="UTF-8" standalone="no"?><svg xmlns="http://www.w3.org/2000/svg" xmlns:xlink="http://www.w3.org/1999/xlink" contentScriptType="application/ecmascript" contentStyleType="text/css" height="285px" preserveAspectRatio="none" style="width:1677px;height:285px;" version="1.1" viewBox="0 0 1677 285" width="1677px" zoomAndPan="magnify"><defs><filter height="300%" id="f46hrgskz6qr8" width="300%" x="-1" y="-1"><feGaussianBlur result="blurOut" stdDeviation="2.0"/><feColorMatrix in="blurOut" result="blurOut2" type="matrix" values="0 0 0 0 0 0 0 0 0 0 0 0 0 0 0 0 0 0 .4 0"/><feOffset dx="4.0" dy="4.0" in="blurOut2" result="blurOut3"/><feBlend in="SourceGraphic" in2="blurOut3" mode="normal"/></filter></defs><g><!--MD5=[3e53f45a90de988900137c8c228fe9fe]
class ClientRegistry--><rect codeLine="6" fill="#FEFECE" filter="url(#f46hrgskz6qr8)" height="117.1797" id="ClientRegistry" style="stroke:#A80036;stroke-width:1.5;" width="620" x="7" y="104"/><ellipse cx="274.25" cy="120" fill="#ADD1B2" rx="11" ry="11" style="stroke:#A80036;stroke-width:1.0;"/><path d="M276.25,116.5 Q276.4531,116 276.6875,115.75 Q276.9219,115.5 277.1875,115.5 Q277.6563,115.5 277.9531,115.7813 Q278.25,116.0625 278.25,116.7188 L278.25,118.2813 Q278.25,118.9375 277.9688,119.2188 Q277.6875,119.5 277.25,119.5 Q276.8594,119.5 276.6094,119.3281 Q276.3594,119.1563 276.25,118.7031 Q276.2031,118.3906 276.0313,118.2188 Q275.7188,117.8906 275.1563,117.7031 Q274.5938,117.5 274.0313,117.5 Q273.3281,117.5 272.7344,117.7813 Q272.1563,118.0625 271.7031,118.6875 Q271.25,119.3125 271.25,120.1719 L271.25,121.0938 Q271.25,122.125 272.0938,122.8125 Q272.9375,123.5 274.4375,123.5 Q275.3281,123.5 275.9531,123.2969 Q276.3125,123.1875 276.7188,122.8281 Q276.9844,122.625 277.125,122.5625 Q277.2656,122.5 277.4375,122.5 Q277.7656,122.5 278,122.7656 Q278.25,123.0156 278.25,123.375 Q278.25,123.7188 277.9063,124.125 Q277.4063,124.7188 276.6094,125.0469 Q275.5625,125.5 274.2813,125.5 Q272.7813,125.5 271.5781,124.9063 Q270.6094,124.4375 269.9219,123.4219 Q269.25,122.4063 269.25,121.2031 L269.25,120.1094 Q269.25,118.8594 269.8438,117.7656 Q270.4531,116.6719 271.5,116.0938 Q272.5625,115.5 273.75,115.5 Q274.4688,115.5 275.0938,115.75 Q275.7188,116 276.25,116.5 Z " fill="#000000"/><text fill="#000000" font-family="sans-serif" font-size="12" lengthAdjust="spacingAndGlyphs" textLength="77" x="294.75" y="124.9102">ClientRegistry</text><line style="stroke:#A80036;stroke-width:1.5;" x1="8" x2="626" y1="136" y2="136"/><line style="stroke:#A80036;stroke-width:1.5;" x1="8" x2="626" y1="144" y2="144"/><text fill="#000000" font-family="sans-serif" font-size="11" lengthAdjust="spacingAndGlyphs" textLength="608" x="13" y="159.4189">+Client newClient(name, email, address, postalCode, coordinateX, coordinateY, nif, creditCardNumber, creditCardValidity, ccv)</text><text fill="#000000" font-family="sans-serif" font-size="11" lengthAdjust="spacingAndGlyphs" textLength="102" x="13" y="173.2549">+registerClient(client)</text><text fill="#000000" font-family="sans-serif" font-size="11" lengthAdjust="spacingAndGlyphs" textLength="102" x="13" y="187.0908">+validateClient(client)</text><text fill="#000000" font-family="sans-serif" font-size="11" lengthAdjust="spacingAndGlyphs" textLength="81" x="13" y="200.9268">-addClient(client)</text><text fill="#000000" font-family="sans-serif" font-size="11" lengthAdjust="spacingAndGlyphs" textLength="114" x="13" y="214.7627">+registerClientAsUser()</text><!--MD5=[ed6624c6556d5e7b1bd23032162d20b7]
class Client--><rect codeLine="14" fill="#FEFECE" filter="url(#f46hrgskz6qr8)" height="158.6875" id="Client" style="stroke:#A80036;stroke-width:1.5;" width="591" x="784" y="7"/><ellipse cx="1059.25" cy="23" fill="#ADD1B2" rx="11" ry="11" style="stroke:#A80036;stroke-width:1.0;"/><path d="M1061.25,19.5 Q1061.4531,19 1061.6875,18.75 Q1061.9219,18.5 1062.1875,18.5 Q1062.6563,18.5 1062.9531,18.7813 Q1063.25,19.0625 1063.25,19.7188 L1063.25,21.2813 Q1063.25,21.9375 1062.9688,22.2188 Q1062.6875,22.5 1062.25,22.5 Q1061.8594,22.5 1061.6094,22.3281 Q1061.3594,22.1563 1061.25,21.7031 Q1061.2031,21.3906 1061.0313,21.2188 Q1060.7188,20.8906 1060.1563,20.7031 Q1059.5938,20.5 1059.0313,20.5 Q1058.3281,20.5 1057.7344,20.7813 Q1057.1563,21.0625 1056.7031,21.6875 Q1056.25,22.3125 1056.25,23.1719 L1056.25,24.0938 Q1056.25,25.125 1057.0938,25.8125 Q1057.9375,26.5 1059.4375,26.5 Q1060.3281,26.5 1060.9531,26.2969 Q1061.3125,26.1875 1061.7188,25.8281 Q1061.9844,25.625 1062.125,25.5625 Q1062.2656,25.5 1062.4375,25.5 Q1062.7656,25.5 1063,25.7656 Q1063.25,26.0156 1063.25,26.375 Q1063.25,26.7188 1062.9063,27.125 Q1062.4063,27.7188 1061.6094,28.0469 Q1060.5625,28.5 1059.2813,28.5 Q1057.7813,28.5 1056.5781,27.9063 Q1055.6094,27.4375 1054.9219,26.4219 Q1054.25,25.4063 1054.25,24.2031 L1054.25,23.1094 Q1054.25,21.8594 1054.8438,20.7656 Q1055.4531,19.6719 1056.5,19.0938 Q1057.5625,18.5 1058.75,18.5 Q1059.4688,18.5 1060.0938,18.75 Q1060.7188,19 1061.25,19.5 Z " fill="#000000"/><text fill="#000000" font-family="sans-serif" font-size="12" lengthAdjust="spacingAndGlyphs" textLength="32" x="1079.75" y="27.9102">Client</text><line style="stroke:#A80036;stroke-width:1.5;" x1="785" x2="1374" y1="39" y2="39"/><text fill="#000000" font-family="sans-serif" font-size="11" lengthAdjust="spacingAndGlyphs" textLength="61" x="790" y="54.4189">-String name</text><text fill="#000000" font-family="sans-serif" font-size="11" lengthAdjust="spacingAndGlyphs" textLength="59" x="790" y="68.2549">-String email</text><text fill="#000000" font-family="sans-serif" font-size="11" lengthAdjust="spacingAndGlyphs" textLength="33" x="790" y="82.0908">-int NIF</text><text fill="#000000" font-family="sans-serif" font-size="11" lengthAdjust="spacingAndGlyphs" textLength="105" x="790" y="95.9268">-int creditCardNumber</text><text fill="#000000" font-family="sans-serif" font-size="11" lengthAdjust="spacingAndGlyphs" textLength="103" x="790" y="109.7627">-int creditCardValidity</text><text fill="#000000" font-family="sans-serif" font-size="11" lengthAdjust="spacingAndGlyphs" textLength="36" x="790" y="123.5986">-int ccv</text><text fill="#000000" font-family="sans-serif" font-size="11" lengthAdjust="spacingAndGlyphs" textLength="89" x="790" y="137.4346">-Address address</text><line style="stroke:#A80036;stroke-width:1.5;" x1="785" x2="1374" y1="143.8516" y2="143.8516"/><text fill="#000000" font-family="sans-serif" font-size="11" lengthAdjust="spacingAndGlyphs" textLength="579" x="790" y="159.2705">+newClient(name, email, address, postalCode, coordinateX, coordinateY, nif, creditCardNumber, creditCardValidity, ccv)</text><!--MD5=[c770a74bfa57c89e52aad2356be61140]
class PasswordGeneratorAlgorithm--><rect codeLine="27" fill="#FEFECE" filter="url(#f46hrgskz6qr8)" height="70.0234" id="PasswordGeneratorAlgorithm" style="stroke:#A80036;stroke-width:1.5;" width="193" x="983" y="201.5"/><ellipse cx="998" cy="221.5938" fill="#B4A7E5" rx="11" ry="11" style="stroke:#A80036;stroke-width:1.0;"/><path d="M999,218.5938 L999,224.5938 L1001,224.5938 L1001.4844,224.5938 L1002,225.2188 L1002,225.5938 L1002,225.9688 L1001.4844,226.5938 L1001,226.5938 L995,226.5938 L994.5156,226.5938 L994,225.9688 L994,225.5938 L994,225.2188 L994.5156,224.5938 L995,224.5938 L997,224.5938 L997,218.5938 L995,218.5938 L994.5156,218.5938 L994,217.9688 L994,217.5938 L994,217.2188 L994.5156,216.5938 L995,216.5938 L1001,216.5938 L1001.4844,216.5938 L1002,217.2188 L1002,217.5938 L1002,217.9688 L1001.4844,218.5938 L1001,218.5938 L999,218.5938 Z " fill="#000000"/><text fill="#000000" font-family="sans-serif" font-size="12" font-style="italic" lengthAdjust="spacingAndGlyphs" textLength="61" x="1062" y="218.957">«interface»</text><text fill="#000000" font-family="sans-serif" font-size="12" font-style="italic" lengthAdjust="spacingAndGlyphs" textLength="161" x="1012" y="234.0508">PasswordGeneratorAlgorithm</text><line style="stroke:#A80036;stroke-width:1.5;" x1="984" x2="1175" y1="241.6875" y2="241.6875"/><line style="stroke:#A80036;stroke-width:1.5;" x1="984" x2="1175" y1="249.6875" y2="249.6875"/><text fill="#000000" font-family="sans-serif" font-size="11" lengthAdjust="spacingAndGlyphs" textLength="160" x="989" y="265.1064">+generatePassword(name,email)</text><!--MD5=[3fd616f346a44cd59a91eb10b19e157c]
class User--><rect codeLine="32" fill="#FEFECE" filter="url(#f46hrgskz6qr8)" height="89.5078" id="User" style="stroke:#A80036;stroke-width:1.5;" width="97" x="1566" y="116.5"/><ellipse cx="1598.1" cy="132.5" fill="#ADD1B2" rx="11" ry="11" style="stroke:#A80036;stroke-width:1.0;"/><path d="M1600.1,129 Q1600.3031,128.5 1600.5375,128.25 Q1600.7719,128 1601.0375,128 Q1601.5063,128 1601.8031,128.2813 Q1602.1,128.5625 1602.1,129.2188 L1602.1,130.7813 Q1602.1,131.4375 1601.8188,131.7188 Q1601.5375,132 1601.1,132 Q1600.7094,132 1600.4594,131.8281 Q1600.2094,131.6563 1600.1,131.2031 Q1600.0531,130.8906 1599.8813,130.7188 Q1599.5688,130.3906 1599.0063,130.2031 Q1598.4438,130 1597.8813,130 Q1597.1781,130 1596.5844,130.2813 Q1596.0063,130.5625 1595.5531,131.1875 Q1595.1,131.8125 1595.1,132.6719 L1595.1,133.5938 Q1595.1,134.625 1595.9438,135.3125 Q1596.7875,136 1598.2875,136 Q1599.1781,136 1599.8031,135.7969 Q1600.1625,135.6875 1600.5688,135.3281 Q1600.8344,135.125 1600.975,135.0625 Q1601.1156,135 1601.2875,135 Q1601.6156,135 1601.85,135.2656 Q1602.1,135.5156 1602.1,135.875 Q1602.1,136.2188 1601.7563,136.625 Q1601.2563,137.2188 1600.4594,137.5469 Q1599.4125,138 1598.1313,138 Q1596.6313,138 1595.4281,137.4063 Q1594.4594,136.9375 1593.7719,135.9219 Q1593.1,134.9063 1593.1,133.7031 L1593.1,132.6094 Q1593.1,131.3594 1593.6938,130.2656 Q1594.3031,129.1719 1595.35,128.5938 Q1596.4125,128 1597.6,128 Q1598.3188,128 1598.9438,128.25 Q1599.5688,128.5 1600.1,129 Z " fill="#000000"/><text fill="#000000" font-family="sans-serif" font-size="12" lengthAdjust="spacingAndGlyphs" textLength="27" x="1615.9" y="137.4102">User</text><line style="stroke:#A80036;stroke-width:1.5;" x1="1567" x2="1662" y1="148.5" y2="148.5"/><text fill="#000000" font-family="sans-serif" font-size="11" lengthAdjust="spacingAndGlyphs" textLength="59" x="1572" y="163.9189">-String email</text><text fill="#000000" font-family="sans-serif" font-size="11" lengthAdjust="spacingAndGlyphs" textLength="85" x="1572" y="177.7549">-String password</text><text fill="#000000" font-family="sans-serif" font-size="11" lengthAdjust="spacingAndGlyphs" textLength="81" x="1572" y="191.5908">-String userType</text><line style="stroke:#A80036;stroke-width:1.5;" x1="1567" x2="1662" y1="198.0078" y2="198.0078"/><!--MD5=[6439a18da3062968c715ba01a99c74dc]
link ClientRegistry to Client--><path codeLine="39" d="M627.05,131.62 C678.88,126.44 732.54,121.07 783.99,115.93 " fill="none" id="ClientRegistry-Client" style="stroke:#A80036;stroke-width:1.0;"/><polygon fill="#000000" points="666.9752,111.1784,657.6826,109.1538,658.2673,115.0025,666.9752,111.1784" style="stroke:#000000;stroke-width:1.0;"/><text fill="#000000" font-family="sans-serif" font-size="13" lengthAdjust="spacingAndGlyphs" textLength="82" x="671" y="116.9951">has registered</text><text fill="#000000" font-family="sans-serif" font-size="13" lengthAdjust="spacingAndGlyphs" textLength="7" x="635.3787" y="144.5096">1</text><text fill="#000000" font-family="sans-serif" font-size="13" lengthAdjust="spacingAndGlyphs" textLength="5" x="771.0741" y="130.4282">*</text><!--MD5=[e9f5728b743c3a685c972bb4cc3b5658]
link ClientRegistry to PasswordGeneratorAlgorithm--><path codeLine="40" d="M627.05,192.57 C754.57,204.98 893.17,218.47 982.68,227.18 " fill="none" id="ClientRegistry-PasswordGeneratorAlgorithm" style="stroke:#A80036;stroke-width:1.0;"/><polygon fill="#000000" points="708.9765,190.4843,700.2586,186.6831,699.6893,192.5333,708.9765,190.4843" style="stroke:#000000;stroke-width:1.0;"/><text fill="#000000" font-family="sans-serif" font-size="13" lengthAdjust="spacingAndGlyphs" textLength="7" x="635.3787" y="207.0786">1</text><text fill="#000000" font-family="sans-serif" font-size="13" lengthAdjust="spacingAndGlyphs" textLength="5" x="970.0758" y="240.5866">*</text><!--MD5=[9a8dc34b38f85b9f3fcdb440f4bffc6a]
link Client to User--><path codeLine="41" d="M1375.06,127.95 C1449.46,138.42 1520.9,148.47 1565.86,154.8 " fill="none" id="Client-User" style="stroke:#A80036;stroke-width:1.0;"/><polygon fill="#000000" points="1451.4512,125.3725,1442.9039,121.2018,1442.0848,127.0223,1451.4512,125.3725" style="stroke:#000000;stroke-width:1.0;"/><text fill="#000000" font-family="sans-serif" font-size="13" lengthAdjust="spacingAndGlyphs" textLength="43" x="1455.5" y="129.9951">acts as</text><text fill="#000000" font-family="sans-serif" font-size="13" lengthAdjust="spacingAndGlyphs" textLength="22" x="1383.203" y="142.7675">0..1</text><text fill="#000000" font-family="sans-serif" font-size="13" lengthAdjust="spacingAndGlyphs" textLength="7" x="1550.8761" y="150.1088">1</text><!--MD5=[f5ac6d5785d769a4cf253258a22d8de0]
link PasswordGeneratorAlgorithm to User--><path codeLine="42" d="M1176.22,224.97 C1268.52,213.55 1412.06,194.98 1536,175.5 C1545.59,173.99 1555.82,172.24 1565.6,170.5 " fill="none" id="PasswordGeneratorAlgorithm-User" style="stroke:#A80036;stroke-width:1.0;"/><polygon fill="#000000" points="1414.9518,165.9831,1405.5868,164.3256,1406.4011,170.1468,1414.9518,165.9831" style="stroke:#000000;stroke-width:1.0;"/><text fill="#000000" font-family="sans-serif" font-size="13" lengthAdjust="spacingAndGlyphs" textLength="116" x="1419" y="171.9951">generates password</text><text fill="#000000" font-family="sans-serif" font-size="13" lengthAdjust="spacingAndGlyphs" textLength="7" x="1183.8931" y="238.2074">1</text><text fill="#000000" font-family="sans-serif" font-size="13" lengthAdjust="spacingAndGlyphs" textLength="7" x="1550.9038" y="186.554">1</text><!--MD5=[00b625e155ec622ce6eeb013e0879eb5]
@startuml
skinparam classAttributeIconSize 0

left to right direction


class ClientRegistry {
  +Client newClient(name, email, address, postalCode, coordinateX, coordinateY, nif, creditCardNumber, creditCardValidity, ccv)
  +registerClient(client)
  +validateClient(client)
  -addClient(client)
  +registerClientAsUser()
}

class Client {
  -String name
  -String email
  -int NIF
  -int creditCardNumber
  -int creditCardValidity
  -int ccv
  -Address address

  +newClient(name, email, address, postalCode, coordinateX, coordinateY, nif, creditCardNumber, creditCardValidity, ccv)

}

interface PasswordGeneratorAlgorithm  <<interface>>{
  +generatePassword(name,email)
}


class User {
  -String email
  -String password
  -String userType
}


ClientRegistry "1" - - "*" Client : has registered >
ClientRegistry "1" - - "*" PasswordGeneratorAlgorithm : >
Client "0..1" - - "1" User: acts as >
PasswordGeneratorAlgorithm "1" - - "1" User : generates password >

@enduml

PlantUML version 1.2020.23(Sun Dec 13 19:14:58 GMT 2020)
(GPL source distribution)
Java Runtime: OpenJDK Runtime Environment
JVM: OpenJDK 64-Bit Server VM
Default Encoding: Cp1252
Language: en
Country: US
--></g></svg>