<?xml version="1.0" encoding="UTF-8" standalone="no"?><svg xmlns="http://www.w3.org/2000/svg" xmlns:xlink="http://www.w3.org/1999/xlink" contentScriptType="application/ecmascript" contentStyleType="text/css" height="368px" preserveAspectRatio="none" style="width:256px;height:368px;" version="1.1" viewBox="0 0 256 368" width="256px" zoomAndPan="magnify"><defs><filter height="300%" id="fyxfrjq6w08r5" width="300%" x="-1" y="-1"><feGaussianBlur result="blurOut" stdDeviation="2.0"/><feColorMatrix in="blurOut" result="blurOut2" type="matrix" values="0 0 0 0 0 0 0 0 0 0 0 0 0 0 0 0 0 0 .4 0"/><feOffset dx="4.0" dy="4.0" in="blurOut2" result="blurOut3"/><feBlend in="SourceGraphic" in2="blurOut3" mode="normal"/></filter></defs><g><rect fill="#FFFFFF" filter="url(#fyxfrjq6w08r5)" height="158.4063" style="stroke:#A80036;stroke-width:1.0;" width="10" x="26" y="99.6094"/><line style="stroke:#A80036;stroke-width:1.0;stroke-dasharray:5.0,5.0;" x1="31" x2="31" y1="89.6094" y2="283.0156"/><text fill="#000000" font-family="sans-serif" font-size="14" lengthAdjust="spacingAndGlyphs" textLength="46" x="5" y="86.5332">System</text><ellipse cx="31" cy="15" fill="#FEFECE" filter="url(#fyxfrjq6w08r5)" rx="8" ry="8" style="stroke:#A80036;stroke-width:2.0;"/><path d="M31,23 L31,50 M18,31 L44,31 M31,50 L18,65 M31,50 L44,65 " fill="none" filter="url(#fyxfrjq6w08r5)" style="stroke:#A80036;stroke-width:2.0;"/><text fill="#000000" font-family="sans-serif" font-size="14" lengthAdjust="spacingAndGlyphs" textLength="46" x="5" y="296.5488">System</text><ellipse cx="31" cy="309.625" fill="#FEFECE" filter="url(#fyxfrjq6w08r5)" rx="8" ry="8" style="stroke:#A80036;stroke-width:2.0;"/><path d="M31,317.625 L31,344.625 M18,325.625 L44,325.625 M31,344.625 L18,359.625 M31,344.625 L44,359.625 " fill="none" filter="url(#fyxfrjq6w08r5)" style="stroke:#A80036;stroke-width:2.0;"/><rect fill="#FFFFFF" filter="url(#fyxfrjq6w08r5)" height="158.4063" style="stroke:#A80036;stroke-width:1.0;" width="10" x="26" y="99.6094"/><line style="stroke:#A80036;stroke-width:1.0;" x1="36" x2="78" y1="121.9609" y2="121.9609"/><line style="stroke:#A80036;stroke-width:1.0;" x1="78" x2="78" y1="121.9609" y2="134.9609"/><line style="stroke:#A80036;stroke-width:1.0;" x1="37" x2="78" y1="134.9609" y2="134.9609"/><polygon fill="#A80036" points="47,130.9609,37,134.9609,47,138.9609,43,134.9609" style="stroke:#A80036;stroke-width:1.0;"/><text fill="#000000" font-family="sans-serif" font-size="13" font-weight="bold" lengthAdjust="spacingAndGlyphs" textLength="7" x="43" y="117.1045">1</text><text fill="#000000" font-family="sans-serif" font-size="13" lengthAdjust="spacingAndGlyphs" textLength="195" x="54" y="117.1045">Non-registered user confirms data</text><line style="stroke:#A80036;stroke-width:1.0;" x1="36" x2="78" y1="165.3125" y2="165.3125"/><line style="stroke:#A80036;stroke-width:1.0;" x1="78" x2="78" y1="165.3125" y2="178.3125"/><line style="stroke:#A80036;stroke-width:1.0;" x1="37" x2="78" y1="178.3125" y2="178.3125"/><polygon fill="#A80036" points="47,174.3125,37,178.3125,47,182.3125,43,178.3125" style="stroke:#A80036;stroke-width:1.0;"/><text fill="#000000" font-family="sans-serif" font-size="13" font-weight="bold" lengthAdjust="spacingAndGlyphs" textLength="7" x="43" y="160.4561">2</text><text fill="#000000" font-family="sans-serif" font-size="13" lengthAdjust="spacingAndGlyphs" textLength="119" x="54" y="160.4561">Generates password</text><line style="stroke:#A80036;stroke-width:1.0;" x1="36" x2="78" y1="208.6641" y2="208.6641"/><line style="stroke:#A80036;stroke-width:1.0;" x1="78" x2="78" y1="208.6641" y2="221.6641"/><line style="stroke:#A80036;stroke-width:1.0;" x1="37" x2="78" y1="221.6641" y2="221.6641"/><polygon fill="#A80036" points="47,217.6641,37,221.6641,47,225.6641,43,221.6641" style="stroke:#A80036;stroke-width:1.0;"/><text fill="#000000" font-family="sans-serif" font-size="13" font-weight="bold" lengthAdjust="spacingAndGlyphs" textLength="7" x="43" y="203.8076">3</text><text fill="#000000" font-family="sans-serif" font-size="13" lengthAdjust="spacingAndGlyphs" textLength="101" x="54" y="203.8076">Gets user's email</text><line style="stroke:#A80036;stroke-width:1.0;" x1="36" x2="78" y1="257.0156" y2="257.0156"/><line style="stroke:#A80036;stroke-width:1.0;" x1="78" x2="78" y1="257.0156" y2="270.0156"/><line style="stroke:#A80036;stroke-width:1.0;" x1="31" x2="78" y1="270.0156" y2="270.0156"/><polygon fill="#A80036" points="41,266.0156,31,270.0156,41,274.0156,37,270.0156" style="stroke:#A80036;stroke-width:1.0;"/><text fill="#000000" font-family="sans-serif" font-size="13" font-weight="bold" lengthAdjust="spacingAndGlyphs" textLength="7" x="43" y="252.1592">4</text><text fill="#000000" font-family="sans-serif" font-size="13" lengthAdjust="spacingAndGlyphs" textLength="120" x="54" y="252.1592">Sends e-mail to user</text><!--MD5=[6793f31fddf4a6f89f12260c5da5f506]
@startuml
autonumber
actor "System" as SYS

activate SYS
SYS -> SYS : Non-registered user confirms data
SYS -> SYS : Generates password
SYS -> SYS : Gets user's email
SYS -> SYS : Sends e-mail to user

deactivate SYS
@enduml

PlantUML version 1.2020.23(Sun Dec 13 19:14:58 GMT 2020)
(GPL source distribution)
Java Runtime: OpenJDK Runtime Environment
JVM: OpenJDK 64-Bit Server VM
Default Encoding: Cp1252
Language: en
Country: US
--></g></svg>