<?xml version="1.0" encoding="UTF-8" standalone="no"?><svg xmlns="http://www.w3.org/2000/svg" xmlns:xlink="http://www.w3.org/1999/xlink" contentScriptType="application/ecmascript" contentStyleType="text/css" height="329px" preserveAspectRatio="none" style="width:188px;height:329px;" version="1.1" viewBox="0 0 188 329" width="188px" zoomAndPan="magnify"><defs><filter height="300%" id="fsnn1x4lavd9i" width="300%" x="-1" y="-1"><feGaussianBlur result="blurOut" stdDeviation="2.0"/><feColorMatrix in="blurOut" result="blurOut2" type="matrix" values="0 0 0 0 0 0 0 0 0 0 0 0 0 0 0 0 0 0 .4 0"/><feOffset dx="4.0" dy="4.0" in="blurOut2" result="blurOut3"/><feBlend in="SourceGraphic" in2="blurOut3" mode="normal"/></filter></defs><g><!--MD5=[ed6624c6556d5e7b1bd23032162d20b7]
class Client--><rect codeLine="4" fill="#FEFECE" filter="url(#fsnn1x4lavd9i)" height="158.6875" id="Client" style="stroke:#A80036;stroke-width:1.5;" width="167" x="7" y="7"/><ellipse cx="70.25" cy="23" fill="#ADD1B2" rx="11" ry="11" style="stroke:#A80036;stroke-width:1.0;"/><path d="M72.25,19.5 Q72.4531,19 72.6875,18.75 Q72.9219,18.5 73.1875,18.5 Q73.6563,18.5 73.9531,18.7813 Q74.25,19.0625 74.25,19.7188 L74.25,21.2813 Q74.25,21.9375 73.9688,22.2188 Q73.6875,22.5 73.25,22.5 Q72.8594,22.5 72.6094,22.3281 Q72.3594,22.1563 72.25,21.7031 Q72.2031,21.3906 72.0313,21.2188 Q71.7188,20.8906 71.1563,20.7031 Q70.5938,20.5 70.0313,20.5 Q69.3281,20.5 68.7344,20.7813 Q68.1563,21.0625 67.7031,21.6875 Q67.25,22.3125 67.25,23.1719 L67.25,24.0938 Q67.25,25.125 68.0938,25.8125 Q68.9375,26.5 70.4375,26.5 Q71.3281,26.5 71.9531,26.2969 Q72.3125,26.1875 72.7188,25.8281 Q72.9844,25.625 73.125,25.5625 Q73.2656,25.5 73.4375,25.5 Q73.7656,25.5 74,25.7656 Q74.25,26.0156 74.25,26.375 Q74.25,26.7188 73.9063,27.125 Q73.4063,27.7188 72.6094,28.0469 Q71.5625,28.5 70.2813,28.5 Q68.7813,28.5 67.5781,27.9063 Q66.6094,27.4375 65.9219,26.4219 Q65.25,25.4063 65.25,24.2031 L65.25,23.1094 Q65.25,21.8594 65.8438,20.7656 Q66.4531,19.6719 67.5,19.0938 Q68.5625,18.5 69.75,18.5 Q70.4688,18.5 71.0938,18.75 Q71.7188,19 72.25,19.5 Z " fill="#000000"/><text fill="#000000" font-family="sans-serif" font-size="12" lengthAdjust="spacingAndGlyphs" textLength="32" x="90.75" y="27.9102">Client</text><line style="stroke:#A80036;stroke-width:1.5;" x1="8" x2="173" y1="39" y2="39"/><rect fill="none" height="6" style="stroke:#C82930;stroke-width:1.0;" width="6" x="15" y="47"/><text fill="#000000" font-family="sans-serif" font-size="11" lengthAdjust="spacingAndGlyphs" textLength="92" x="27" y="54.4189">String clientid «PK»</text><rect fill="none" height="6" style="stroke:#C82930;stroke-width:1.0;" width="6" x="15" y="60.8359"/><text fill="#000000" font-family="sans-serif" font-size="11" lengthAdjust="spacingAndGlyphs" textLength="57" x="27" y="68.2549">String name</text><rect fill="none" height="6" style="stroke:#C82930;stroke-width:1.0;" width="6" x="15" y="74.6719"/><text fill="#000000" font-family="sans-serif" font-size="11" lengthAdjust="spacingAndGlyphs" textLength="55" x="27" y="82.0908">String email</text><rect fill="none" height="6" style="stroke:#C82930;stroke-width:1.0;" width="6" x="15" y="88.5078"/><text fill="#000000" font-family="sans-serif" font-size="11" lengthAdjust="spacingAndGlyphs" textLength="29" x="27" y="95.9268">int NIF</text><rect fill="none" height="6" style="stroke:#C82930;stroke-width:1.0;" width="6" x="15" y="102.3438"/><text fill="#000000" font-family="sans-serif" font-size="11" lengthAdjust="spacingAndGlyphs" textLength="47" x="27" y="109.7627">int credits</text><rect fill="none" height="6" style="stroke:#C82930;stroke-width:1.0;" width="6" x="15" y="116.1797"/><text fill="#000000" font-family="sans-serif" font-size="11" lengthAdjust="spacingAndGlyphs" textLength="129" x="27" y="123.5986">int creditCardNumber «FK»</text><rect fill="none" height="6" style="stroke:#C82930;stroke-width:1.0;" width="6" x="15" y="130.0156"/><text fill="#000000" font-family="sans-serif" font-size="11" lengthAdjust="spacingAndGlyphs" textLength="140" x="27" y="137.4346">double gpsCoordinateX «FK»</text><rect fill="none" height="6" style="stroke:#C82930;stroke-width:1.0;" width="6" x="15" y="143.8516"/><text fill="#000000" font-family="sans-serif" font-size="11" lengthAdjust="spacingAndGlyphs" textLength="141" x="27" y="151.2705">double gpsCoordinateY «FK»</text><line style="stroke:#A80036;stroke-width:1.5;" x1="8" x2="173" y1="157.6875" y2="157.6875"/><!--MD5=[3fd616f346a44cd59a91eb10b19e157c]
class User--><rect codeLine="16" fill="#FEFECE" filter="url(#fsnn1x4lavd9i)" height="89.5078" id="User" style="stroke:#A80036;stroke-width:1.5;" width="107" x="37" y="226"/><ellipse cx="73.6" cy="242" fill="#ADD1B2" rx="11" ry="11" style="stroke:#A80036;stroke-width:1.0;"/><path d="M75.6,238.5 Q75.8031,238 76.0375,237.75 Q76.2719,237.5 76.5375,237.5 Q77.0063,237.5 77.3031,237.7813 Q77.6,238.0625 77.6,238.7188 L77.6,240.2813 Q77.6,240.9375 77.3188,241.2188 Q77.0375,241.5 76.6,241.5 Q76.2094,241.5 75.9594,241.3281 Q75.7094,241.1563 75.6,240.7031 Q75.5531,240.3906 75.3813,240.2188 Q75.0688,239.8906 74.5063,239.7031 Q73.9438,239.5 73.3813,239.5 Q72.6781,239.5 72.0844,239.7813 Q71.5063,240.0625 71.0531,240.6875 Q70.6,241.3125 70.6,242.1719 L70.6,243.0938 Q70.6,244.125 71.4438,244.8125 Q72.2875,245.5 73.7875,245.5 Q74.6781,245.5 75.3031,245.2969 Q75.6625,245.1875 76.0688,244.8281 Q76.3344,244.625 76.475,244.5625 Q76.6156,244.5 76.7875,244.5 Q77.1156,244.5 77.35,244.7656 Q77.6,245.0156 77.6,245.375 Q77.6,245.7188 77.2563,246.125 Q76.7563,246.7188 75.9594,247.0469 Q74.9125,247.5 73.6313,247.5 Q72.1313,247.5 70.9281,246.9063 Q69.9594,246.4375 69.2719,245.4219 Q68.6,244.4063 68.6,243.2031 L68.6,242.1094 Q68.6,240.8594 69.1938,239.7656 Q69.8031,238.6719 70.85,238.0938 Q71.9125,237.5 73.1,237.5 Q73.8188,237.5 74.4438,237.75 Q75.0688,238 75.6,238.5 Z " fill="#000000"/><text fill="#000000" font-family="sans-serif" font-size="12" lengthAdjust="spacingAndGlyphs" textLength="27" x="92.4" y="246.9102">User</text><line style="stroke:#A80036;stroke-width:1.5;" x1="38" x2="143" y1="258" y2="258"/><rect fill="none" height="6" style="stroke:#C82930;stroke-width:1.0;" width="6" x="45" y="266"/><text fill="#000000" font-family="sans-serif" font-size="11" lengthAdjust="spacingAndGlyphs" textLength="55" x="57" y="273.4189">String email</text><rect fill="none" height="6" style="stroke:#C82930;stroke-width:1.0;" width="6" x="45" y="279.8359"/><text fill="#000000" font-family="sans-serif" font-size="11" lengthAdjust="spacingAndGlyphs" textLength="81" x="57" y="287.2549">String password</text><rect fill="none" height="6" style="stroke:#C82930;stroke-width:1.0;" width="6" x="45" y="293.6719"/><text fill="#000000" font-family="sans-serif" font-size="11" lengthAdjust="spacingAndGlyphs" textLength="80" x="57" y="301.0908">String user_type</text><line style="stroke:#A80036;stroke-width:1.5;" x1="38" x2="143" y1="307.5078" y2="307.5078"/><!--MD5=[9a8dc34b38f85b9f3fcdb440f4bffc6a]
link Client to User--><path codeLine="22" d="M90.5,174.4 C90.5,189.2 90.5,204.15 90.5,217.69 " fill="none" id="Client-User" style="stroke:#A80036;stroke-width:1.0;"/><line style="stroke:#A80036;stroke-width:1.0;" x1="90.5" x2="90.5" y1="214.93" y2="225.93"/><ellipse cx="90.5" cy="214.93" fill="none" rx="4" ry="4" style="stroke:#A80036;stroke-width:1.0;"/><line style="stroke:#A80036;stroke-width:1.0;" x1="94.5" x2="86.5" y1="221.93" y2="221.93"/><line style="stroke:#A80036;stroke-width:1.0;" x1="90.5" x2="90.5" y1="177.22" y2="166.22"/><ellipse cx="90.5" cy="177.22" fill="none" rx="4" ry="4" style="stroke:#A80036;stroke-width:1.0;"/><line style="stroke:#A80036;stroke-width:1.0;" x1="86.5" x2="94.5" y1="170.22" y2="170.22"/><!--MD5=[aa6d47f0ae8d7490687af7bad07e5a55]
@startuml
'skinparam linetype polyline


class Client {
    -String clientid «PK»
    -String name
    -String email
    -int NIF
    -int credits
    -int creditCardNumber «FK»
    -double gpsCoordinateX «FK»
    -double gpsCoordinateY «FK»
}


class User {
  -String email
  -String password
  -String user_type
}

Client |o- -o| User

@enduml

@startuml


class Client {
    -String clientid «PK»
    -String name
    -String email
    -int NIF
    -int credits
    -int creditCardNumber «FK»
    -double gpsCoordinateX «FK»
    -double gpsCoordinateY «FK»
}


class User {
  -String email
  -String password
  -String user_type
}

Client |o- -o| User

@enduml

PlantUML version 1.2020.23(Sun Dec 13 19:14:58 GMT 2020)
(GPL source distribution)
Java Runtime: OpenJDK Runtime Environment
JVM: OpenJDK 64-Bit Server VM
Default Encoding: Cp1252
Language: en
Country: US
--></g></svg>