<?xml version="1.0" encoding="UTF-8" standalone="no"?><svg xmlns="http://www.w3.org/2000/svg" xmlns:xlink="http://www.w3.org/1999/xlink" contentScriptType="application/ecmascript" contentStyleType="text/css" height="267.5px" preserveAspectRatio="none" style="width:1583px;height:267px;" version="1.1" viewBox="0 0 1583 267" width="1583.75px" zoomAndPan="magnify"><defs><filter height="300%" id="f1bpjxe5owqbco" width="300%" x="-1" y="-1"><feGaussianBlur result="blurOut" stdDeviation="2.5"/><feColorMatrix in="blurOut" result="blurOut2" type="matrix" values="0 0 0 0 0 0 0 0 0 0 0 0 0 0 0 0 0 0 .4 0"/><feOffset dx="5.0" dy="5.0" in="blurOut2" result="blurOut3"/><feBlend in="SourceGraphic" in2="blurOut3" mode="normal"/></filter></defs><g><!--MD5=[99b8db98afdc2c8404e39242ef4c1e65]
class Platform--><rect codeLine="5" fill="#FEFECE" filter="url(#f1bpjxe5owqbco)" height="60" id="Platform" style="stroke: #A80036; stroke-width: 1.875;" width="97.5" x="718.75" y="8.75"/><ellipse cx="737.5" cy="28.75" fill="#ADD1B2" rx="13.75" ry="13.75" style="stroke: #A80036; stroke-width: 1.25;"/><path d="M740,24.375 Q740.2539,23.75 740.5469,23.4375 Q740.8398,23.125 741.1719,23.125 Q741.7578,23.125 742.1289,23.4766 Q742.5,23.8281 742.5,24.6484 L742.5,26.6016 Q742.5,27.4219 742.1484,27.7734 Q741.7969,28.125 741.25,28.125 Q740.7617,28.125 740.4492,27.9102 Q740.1367,27.6953 740,27.1289 Q739.9414,26.7383 739.7266,26.5234 Q739.3359,26.1133 738.6328,25.8789 Q737.9297,25.625 737.2266,25.625 Q736.3477,25.625 735.6055,25.9766 Q734.8828,26.3281 734.3164,27.1094 Q733.75,27.8906 733.75,28.9648 L733.75,30.1172 Q733.75,31.4063 734.8047,32.2656 Q735.8594,33.125 737.7344,33.125 Q738.8477,33.125 739.6289,32.8711 Q740.0781,32.7344 740.5859,32.2852 Q740.918,32.0313 741.0938,31.9531 Q741.2695,31.875 741.4844,31.875 Q741.8945,31.875 742.1875,32.207 Q742.5,32.5195 742.5,32.9688 Q742.5,33.3984 742.0703,33.9063 Q741.4453,34.6484 740.4492,35.0586 Q739.1406,35.625 737.5391,35.625 Q735.6641,35.625 734.1602,34.8828 Q732.9492,34.2969 732.0898,33.0273 Q731.25,31.7578 731.25,30.2539 L731.25,28.8867 Q731.25,27.3242 731.9922,25.957 Q732.7539,24.5898 734.0625,23.8672 Q735.3906,23.125 736.875,23.125 Q737.7734,23.125 738.5547,23.4375 Q739.3359,23.75 740,24.375 Z " fill="#000000"/><text fill="#000000" font-family="sans-serif" font-size="15" lengthAdjust="spacingAndGlyphs" textLength="57.5" x="755" y="34.8877">Platform</text><line style="stroke: #A80036; stroke-width: 1.875;" x1="720" x2="815" y1="48.75" y2="48.75"/><line style="stroke: #A80036; stroke-width: 1.875;" x1="720" x2="815" y1="58.75" y2="58.75"/><!--MD5=[ed5746eb60d3016c929b34ad3eccdd42]
class ScooterChargingUI--><rect codeLine="8" fill="#FEFECE" filter="url(#f1bpjxe5owqbco)" height="60" id="ScooterChargingUI" style="stroke: #A80036; stroke-width: 1.875;" width="171.25" x="8.75" y="37.5"/><ellipse cx="27.5" cy="57.5" fill="#ADD1B2" rx="13.75" ry="13.75" style="stroke: #A80036; stroke-width: 1.25;"/><path d="M30,53.125 Q30.2539,52.5 30.5469,52.1875 Q30.8398,51.875 31.1719,51.875 Q31.7578,51.875 32.1289,52.2266 Q32.5,52.5781 32.5,53.3984 L32.5,55.3516 Q32.5,56.1719 32.1484,56.5234 Q31.7969,56.875 31.25,56.875 Q30.7617,56.875 30.4492,56.6602 Q30.1367,56.4453 30,55.8789 Q29.9414,55.4883 29.7266,55.2734 Q29.3359,54.8633 28.6328,54.6289 Q27.9297,54.375 27.2266,54.375 Q26.3477,54.375 25.6055,54.7266 Q24.8828,55.0781 24.3164,55.8594 Q23.75,56.6406 23.75,57.7148 L23.75,58.8672 Q23.75,60.1563 24.8047,61.0156 Q25.8594,61.875 27.7344,61.875 Q28.8477,61.875 29.6289,61.6211 Q30.0781,61.4844 30.5859,61.0352 Q30.918,60.7813 31.0938,60.7031 Q31.2695,60.625 31.4844,60.625 Q31.8945,60.625 32.1875,60.957 Q32.5,61.2695 32.5,61.7188 Q32.5,62.1484 32.0703,62.6563 Q31.4453,63.3984 30.4492,63.8086 Q29.1406,64.375 27.5391,64.375 Q25.6641,64.375 24.1602,63.6328 Q22.9492,63.0469 22.0898,61.7773 Q21.25,60.5078 21.25,59.0039 L21.25,57.6367 Q21.25,56.0742 21.9922,54.707 Q22.7539,53.3398 24.0625,52.6172 Q25.3906,51.875 26.875,51.875 Q27.7734,51.875 28.5547,52.1875 Q29.3359,52.5 30,53.125 Z " fill="#000000"/><text fill="#000000" font-family="sans-serif" font-size="15" lengthAdjust="spacingAndGlyphs" textLength="131.25" x="45" y="63.6377">ScooterChargingUI</text><line style="stroke: #A80036; stroke-width: 1.875;" x1="10" x2="178.75" y1="77.5" y2="77.5"/><line style="stroke: #A80036; stroke-width: 1.875;" x1="10" x2="178.75" y1="87.5" y2="87.5"/><!--MD5=[6c6c66eaf19667fb23e131c4462bcce0]
class ScooterChargingController--><rect codeLine="11" fill="#FEFECE" filter="url(#f1bpjxe5owqbco)" height="77.2949" id="ScooterChargingController" style="stroke: #A80036; stroke-width: 1.875;" width="290" x="256.25" y="28.75"/><ellipse cx="304.8125" cy="48.75" fill="#ADD1B2" rx="13.75" ry="13.75" style="stroke: #A80036; stroke-width: 1.25;"/><path d="M307.3125,44.375 Q307.5664,43.75 307.8594,43.4375 Q308.1523,43.125 308.4844,43.125 Q309.0703,43.125 309.4414,43.4766 Q309.8125,43.8281 309.8125,44.6484 L309.8125,46.6016 Q309.8125,47.4219 309.4609,47.7734 Q309.1094,48.125 308.5625,48.125 Q308.0742,48.125 307.7617,47.9102 Q307.4492,47.6953 307.3125,47.1289 Q307.2539,46.7383 307.0391,46.5234 Q306.6484,46.1133 305.9453,45.8789 Q305.2422,45.625 304.5391,45.625 Q303.6602,45.625 302.918,45.9766 Q302.1953,46.3281 301.6289,47.1094 Q301.0625,47.8906 301.0625,48.9648 L301.0625,50.1172 Q301.0625,51.4063 302.1172,52.2656 Q303.1719,53.125 305.0469,53.125 Q306.1602,53.125 306.9414,52.8711 Q307.3906,52.7344 307.8984,52.2852 Q308.2305,52.0313 308.4063,51.9531 Q308.582,51.875 308.7969,51.875 Q309.207,51.875 309.5,52.207 Q309.8125,52.5195 309.8125,52.9688 Q309.8125,53.3984 309.3828,53.9063 Q308.7578,54.6484 307.7617,55.0586 Q306.4531,55.625 304.8516,55.625 Q302.9766,55.625 301.4727,54.8828 Q300.2617,54.2969 299.4023,53.0273 Q298.5625,51.7578 298.5625,50.2539 L298.5625,48.8867 Q298.5625,47.3242 299.3047,45.957 Q300.0664,44.5898 301.375,43.8672 Q302.7031,43.125 304.1875,43.125 Q305.0859,43.125 305.8672,43.4375 Q306.6484,43.75 307.3125,44.375 Z " fill="#000000"/><text fill="#000000" font-family="sans-serif" font-size="15" lengthAdjust="spacingAndGlyphs" textLength="183.75" x="328.9375" y="54.8877">ScooterChargingController</text><line style="stroke: #A80036; stroke-width: 1.875;" x1="257.5" x2="545" y1="68.75" y2="68.75"/><line style="stroke: #A80036; stroke-width: 1.875;" x1="257.5" x2="545" y1="78.75" y2="78.75"/><text fill="#000000" font-family="sans-serif" font-size="13.75" lengthAdjust="spacingAndGlyphs" textLength="275" x="263.75" y="98.0237">+getChargingTimeAndLockingStatus(Scooter)</text><!--MD5=[8e5702410ac3e17e0c316daae69bafe3]
class ScooterCharging--><rect codeLine="16" fill="#FEFECE" filter="url(#f1bpjxe5owqbco)" height="77.2949" id="ScooterCharging" style="stroke: #A80036; stroke-width: 1.875;" width="290" x="622.5" y="112.5"/><ellipse cx="704.0625" cy="132.5" fill="#ADD1B2" rx="13.75" ry="13.75" style="stroke: #A80036; stroke-width: 1.25;"/><path d="M706.5625,128.125 Q706.8164,127.5 707.1094,127.1875 Q707.4023,126.875 707.7344,126.875 Q708.3203,126.875 708.6914,127.2266 Q709.0625,127.5781 709.0625,128.3984 L709.0625,130.3516 Q709.0625,131.1719 708.7109,131.5234 Q708.3594,131.875 707.8125,131.875 Q707.3242,131.875 707.0117,131.6602 Q706.6992,131.4453 706.5625,130.8789 Q706.5039,130.4883 706.2891,130.2734 Q705.8984,129.8633 705.1953,129.6289 Q704.4922,129.375 703.7891,129.375 Q702.9102,129.375 702.168,129.7266 Q701.4453,130.0781 700.8789,130.8594 Q700.3125,131.6406 700.3125,132.7148 L700.3125,133.8672 Q700.3125,135.1563 701.3672,136.0156 Q702.4219,136.875 704.2969,136.875 Q705.4102,136.875 706.1914,136.6211 Q706.6406,136.4844 707.1484,136.0352 Q707.4805,135.7813 707.6563,135.7031 Q707.832,135.625 708.0469,135.625 Q708.457,135.625 708.75,135.957 Q709.0625,136.2695 709.0625,136.7188 Q709.0625,137.1484 708.6328,137.6563 Q708.0078,138.3984 707.0117,138.8086 Q705.7031,139.375 704.1016,139.375 Q702.2266,139.375 700.7227,138.6328 Q699.5117,138.0469 698.6523,136.7773 Q697.8125,135.5078 697.8125,134.0039 L697.8125,132.6367 Q697.8125,131.0742 698.5547,129.707 Q699.3164,128.3398 700.625,127.6172 Q701.9531,126.875 703.4375,126.875 Q704.3359,126.875 705.1172,127.1875 Q705.8984,127.5 706.5625,128.125 Z " fill="#000000"/><text fill="#000000" font-family="sans-serif" font-size="15" lengthAdjust="spacingAndGlyphs" textLength="116.25" x="729.6875" y="138.6377">ScooterCharging</text><line style="stroke: #A80036; stroke-width: 1.875;" x1="623.75" x2="911.25" y1="152.5" y2="152.5"/><line style="stroke: #A80036; stroke-width: 1.875;" x1="623.75" x2="911.25" y1="162.5" y2="162.5"/><text fill="#000000" font-family="sans-serif" font-size="13.75" lengthAdjust="spacingAndGlyphs" textLength="275" x="630" y="181.7737">+getChargingTimeAndLockingStatus(Scooter)</text><!--MD5=[f4402668d5d5bb8485350c0fdb60ac8e]
class Scooter--><rect codeLine="20" fill="#FEFECE" filter="url(#f1bpjxe5owqbco)" height="198.3594" id="Scooter" style="stroke: #A80036; stroke-width: 1.875;" width="290" x="988.75" y="51.875"/><ellipse cx="1102.1875" cy="71.875" fill="#ADD1B2" rx="13.75" ry="13.75" style="stroke: #A80036; stroke-width: 1.25;"/><path d="M1104.6875,67.5 Q1104.9414,66.875 1105.2344,66.5625 Q1105.5273,66.25 1105.8594,66.25 Q1106.4453,66.25 1106.8164,66.6016 Q1107.1875,66.9531 1107.1875,67.7734 L1107.1875,69.7266 Q1107.1875,70.5469 1106.8359,70.8984 Q1106.4844,71.25 1105.9375,71.25 Q1105.4492,71.25 1105.1367,71.0352 Q1104.8242,70.8203 1104.6875,70.2539 Q1104.6289,69.8633 1104.4141,69.6484 Q1104.0234,69.2383 1103.3203,69.0039 Q1102.6172,68.75 1101.9141,68.75 Q1101.0352,68.75 1100.293,69.1016 Q1099.5703,69.4531 1099.0039,70.2344 Q1098.4375,71.0156 1098.4375,72.0898 L1098.4375,73.2422 Q1098.4375,74.5313 1099.4922,75.3906 Q1100.5469,76.25 1102.4219,76.25 Q1103.5352,76.25 1104.3164,75.9961 Q1104.7656,75.8594 1105.2734,75.4102 Q1105.6055,75.1563 1105.7813,75.0781 Q1105.957,75 1106.1719,75 Q1106.582,75 1106.875,75.332 Q1107.1875,75.6445 1107.1875,76.0938 Q1107.1875,76.5234 1106.7578,77.0313 Q1106.1328,77.7734 1105.1367,78.1836 Q1103.8281,78.75 1102.2266,78.75 Q1100.3516,78.75 1098.8477,78.0078 Q1097.6367,77.4219 1096.7773,76.1523 Q1095.9375,74.8828 1095.9375,73.3789 L1095.9375,72.0117 Q1095.9375,70.4492 1096.6797,69.082 Q1097.4414,67.7148 1098.75,66.9922 Q1100.0781,66.25 1101.5625,66.25 Q1102.4609,66.25 1103.2422,66.5625 Q1104.0234,66.875 1104.6875,67.5 Z " fill="#000000"/><text fill="#000000" font-family="sans-serif" font-size="15" lengthAdjust="spacingAndGlyphs" textLength="52.5" x="1127.8125" y="78.0127">Scooter</text><line style="stroke: #A80036; stroke-width: 1.875;" x1="990" x2="1277.5" y1="91.875" y2="91.875"/><text fill="#000000" font-family="sans-serif" font-size="13.75" lengthAdjust="spacingAndGlyphs" textLength="37.5" x="996.25" y="111.1487">-int ID;</text><text fill="#000000" font-family="sans-serif" font-size="13.75" lengthAdjust="spacingAndGlyphs" textLength="173.75" x="996.25" y="128.4436">-double maxBatteryCapacity;</text><text fill="#000000" font-family="sans-serif" font-size="13.75" lengthAdjust="spacingAndGlyphs" textLength="141.25" x="996.25" y="145.7385">-double stateOfCharge;</text><text fill="#000000" font-family="sans-serif" font-size="13.75" lengthAdjust="spacingAndGlyphs" textLength="132.5" x="996.25" y="163.0334">-double powerOutput;</text><text fill="#000000" font-family="sans-serif" font-size="13.75" lengthAdjust="spacingAndGlyphs" textLength="93.75" x="996.25" y="180.3284">-double weight;</text><text fill="#000000" font-family="sans-serif" font-size="13.75" lengthAdjust="spacingAndGlyphs" textLength="125" x="996.25" y="197.6233">-double maxPayload;</text><text fill="#000000" font-family="sans-serif" font-size="13.75" lengthAdjust="spacingAndGlyphs" textLength="97.5" x="996.25" y="214.9182">-int pharmacyID;</text><line style="stroke: #A80036; stroke-width: 1.875;" x1="990" x2="1277.5" y1="222.9395" y2="222.9395"/><text fill="#000000" font-family="sans-serif" font-size="13.75" lengthAdjust="spacingAndGlyphs" textLength="275" x="996.25" y="242.2131">+getChargingTimeAndLockingStatus(Scooter)</text><!--MD5=[6171c3a2f2c752b4019101857dc83635]
class ParkingSlot--><rect codeLine="31" fill="#FEFECE" filter="url(#f1bpjxe5owqbco)" height="94.5898" id="ParkingSlot" style="stroke: #A80036; stroke-width: 1.875;" width="118.75" x="1447.5" y="103.75"/><ellipse cx="1466.25" cy="123.75" fill="#ADD1B2" rx="13.75" ry="13.75" style="stroke: #A80036; stroke-width: 1.25;"/><path d="M1468.75,119.375 Q1469.0039,118.75 1469.2969,118.4375 Q1469.5898,118.125 1469.9219,118.125 Q1470.5078,118.125 1470.8789,118.4766 Q1471.25,118.8281 1471.25,119.6484 L1471.25,121.6016 Q1471.25,122.4219 1470.8984,122.7734 Q1470.5469,123.125 1470,123.125 Q1469.5117,123.125 1469.1992,122.9102 Q1468.8867,122.6953 1468.75,122.1289 Q1468.6914,121.7383 1468.4766,121.5234 Q1468.0859,121.1133 1467.3828,120.8789 Q1466.6797,120.625 1465.9766,120.625 Q1465.0977,120.625 1464.3555,120.9766 Q1463.6328,121.3281 1463.0664,122.1094 Q1462.5,122.8906 1462.5,123.9648 L1462.5,125.1172 Q1462.5,126.4063 1463.5547,127.2656 Q1464.6094,128.125 1466.4844,128.125 Q1467.5977,128.125 1468.3789,127.8711 Q1468.8281,127.7344 1469.3359,127.2852 Q1469.668,127.0313 1469.8438,126.9531 Q1470.0195,126.875 1470.2344,126.875 Q1470.6445,126.875 1470.9375,127.207 Q1471.25,127.5195 1471.25,127.9688 Q1471.25,128.3984 1470.8203,128.9063 Q1470.1953,129.6484 1469.1992,130.0586 Q1467.8906,130.625 1466.2891,130.625 Q1464.4141,130.625 1462.9102,129.8828 Q1461.6992,129.2969 1460.8398,128.0273 Q1460,126.7578 1460,125.2539 L1460,123.8867 Q1460,122.3242 1460.7422,120.957 Q1461.5039,119.5898 1462.8125,118.8672 Q1464.1406,118.125 1465.625,118.125 Q1466.5234,118.125 1467.3047,118.4375 Q1468.0859,118.75 1468.75,119.375 Z " fill="#000000"/><text fill="#000000" font-family="sans-serif" font-size="15" lengthAdjust="spacingAndGlyphs" textLength="78.75" x="1483.75" y="129.8877">ParkingSlot</text><line style="stroke: #A80036; stroke-width: 1.875;" x1="1448.75" x2="1565" y1="143.75" y2="143.75"/><text fill="#000000" font-family="sans-serif" font-size="13.75" lengthAdjust="spacingAndGlyphs" textLength="93.75" x="1455" y="163.0237">-int pharmacyID</text><text fill="#000000" font-family="sans-serif" font-size="13.75" lengthAdjust="spacingAndGlyphs" textLength="100" x="1455" y="180.3186">-int parkingSlotID</text><line style="stroke: #A80036; stroke-width: 1.875;" x1="1448.75" x2="1565" y1="188.3398" y2="188.3398"/><!--MD5=[45cd5743d2d9b6d5d9e0db386ac0386f]
link ScooterChargingUI to ScooterChargingController--><path codeLine="37" d="M180.0063,67.5 C201.555,67.5 225.385,67.5 249.1688,67.5 " fill="none" id="ScooterChargingUI-to-ScooterChargingController" style="stroke: #A80036; stroke-width: 1.25; stroke-dasharray: 7.0,7.0;"/><polygon fill="#A80036" points="255.875,67.5,244.625,62.5,249.625,67.5,244.625,72.5,255.875,67.5" style="stroke: #A80036; stroke-width: 1.25;"/><!--MD5=[04cd341b05ee8e0d4bf8702877f629a5]
link ScooterChargingController to Platform--><path codeLine="38" d="M546.2638,56.1375 C604.56,51.53 668.3263,46.49 712.125,43.0275 " fill="none" id="ScooterChargingController-to-Platform" style="stroke: #A80036; stroke-width: 1.25; stroke-dasharray: 7.0,7.0;"/><polygon fill="#A80036" points="718.4388,42.5287,706.8295,38.4315,712.2082,43.0216,707.6181,48.4003,718.4388,42.5287" style="stroke: #A80036; stroke-width: 1.25;"/><!--MD5=[696860c28c55732fdef089808a9a09be]
link ScooterChargingController to ScooterCharging--><path codeLine="39" d="M546.2638,100.6 C569.135,105.8663 592.8475,111.3263 615.8663,116.6263 " fill="none" id="ScooterChargingController-to-ScooterCharging" style="stroke: #A80036; stroke-width: 1.25; stroke-dasharray: 7.0,7.0;"/><polygon fill="#A80036" points="622.34,118.1163,612.5,110.7178,616.2496,116.7128,610.2546,120.4624,622.34,118.1163" style="stroke: #A80036; stroke-width: 1.25;"/><!--MD5=[d6bc35926f639b8d6c2888bdc87c05d1]
link ScooterCharging to Scooter--><path codeLine="40" d="M912.5138,151.25 C935.385,151.25 959.0975,151.25 982.1163,151.25 " fill="none" id="ScooterCharging-to-Scooter" style="stroke: #A80036; stroke-width: 1.25; stroke-dasharray: 7.0,7.0;"/><polygon fill="#A80036" points="988.59,151.25,977.34,146.25,982.34,151.25,977.34,156.25,988.59,151.25" style="stroke: #A80036; stroke-width: 1.25;"/><!--MD5=[3309342f2ead9dc717332be17a9b1b21]
link Scooter to ParkingSlot--><path codeLine="41" d="M1278.825,151.25 C1337.625,151.25 1402.3125,151.25 1447.5,151.25 " fill="none" id="Scooter-ParkingSlot" style="stroke: #A80036; stroke-width: 1.25;"/><polygon fill="#000000" points="1328.75,140.2197,1317.4436,136.5461,1317.4436,143.8934,1328.75,140.2197" style="stroke: #000000; stroke-width: 1.25;"/><text fill="#000000" font-family="sans-serif" font-size="16.25" lengthAdjust="spacingAndGlyphs" textLength="75" x="1333.75" y="146.8689">charges in</text><text fill="#000000" font-family="sans-serif" font-size="16.25" lengthAdjust="spacingAndGlyphs" textLength="8.75" x="1288.8662" y="168.8187">1</text><text fill="#000000" font-family="sans-serif" font-size="16.25" lengthAdjust="spacingAndGlyphs" textLength="8.75" x="1428.5898" y="169.7803">1</text><!--MD5=[89da3b70852d1acdc3d6ff3087e378ad]
@startuml
skinparam classAttributeIconSize 0

left to right direction

class Platform {
}

class ScooterChargingUI {
}

class ScooterChargingController {
  +getChargingTimeAndLockingStatus(Scooter)
}


class ScooterCharging {
  +getChargingTimeAndLockingStatus(Scooter)
}

class Scooter {
    -int ID;
    -double maxBatteryCapacity;
    -double stateOfCharge;
    -double powerOutput;
    -double weight;
    -double maxPayload;
    -int pharmacyID;
  +getChargingTimeAndLockingStatus(Scooter)
}

class ParkingSlot {
    -int pharmacyID
    -int parkingSlotID
}


ScooterChargingUI   ..> ScooterChargingController
ScooterChargingController ..> Platform
ScooterChargingController ..> ScooterCharging
ScooterCharging ..> Scooter
Scooter "1" - - "1" ParkingSlot: charges in >




@enduml

PlantUML version 1.2020.20(Sat Nov 21 10:02:45 GMT 2020)
(GPL source distribution)
Java Runtime: OpenJDK Runtime Environment
JVM: OpenJDK 64-Bit Server VM
Default Encoding: Cp1252
Language: pt
Country: PT
--></g></svg>