<?xml version="1.0" encoding="UTF-8" standalone="no"?><svg xmlns="http://www.w3.org/2000/svg" xmlns:xlink="http://www.w3.org/1999/xlink" contentScriptType="application/ecmascript" contentStyleType="text/css" height="767.5px" preserveAspectRatio="none" style="width:561px;height:767px;" version="1.1" viewBox="0 0 561 767" width="561.25px" zoomAndPan="magnify"><defs><filter height="300%" id="f63uy192s3po7" width="300%" x="-1" y="-1"><feGaussianBlur result="blurOut" stdDeviation="2.5"/><feColorMatrix in="blurOut" result="blurOut2" type="matrix" values="0 0 0 0 0 0 0 0 0 0 0 0 0 0 0 0 0 0 .4 0"/><feOffset dx="5.0" dy="5.0" in="blurOut2" result="blurOut3"/><feBlend in="SourceGraphic" in2="blurOut3" mode="normal"/></filter></defs><g><!--MD5=[f4402668d5d5bb8485350c0fdb60ac8e]
class Scooter--><rect codeLine="4" fill="#FEFECE" filter="url(#f63uy192s3po7)" height="181.0645" id="Scooter" style="stroke: #A80036; stroke-width: 1.875;" width="262.5" x="153.75" y="8.75"/><ellipse cx="253.4375" cy="28.75" fill="#ADD1B2" rx="13.75" ry="13.75" style="stroke: #A80036; stroke-width: 1.25;"/><path d="M255.9375,24.375 Q256.1914,23.75 256.4844,23.4375 Q256.7773,23.125 257.1094,23.125 Q257.6953,23.125 258.0664,23.4766 Q258.4375,23.8281 258.4375,24.6484 L258.4375,26.6016 Q258.4375,27.4219 258.0859,27.7734 Q257.7344,28.125 257.1875,28.125 Q256.6992,28.125 256.3867,27.9102 Q256.0742,27.6953 255.9375,27.1289 Q255.8789,26.7383 255.6641,26.5234 Q255.2734,26.1133 254.5703,25.8789 Q253.8672,25.625 253.1641,25.625 Q252.2852,25.625 251.543,25.9766 Q250.8203,26.3281 250.2539,27.1094 Q249.6875,27.8906 249.6875,28.9648 L249.6875,30.1172 Q249.6875,31.4063 250.7422,32.2656 Q251.7969,33.125 253.6719,33.125 Q254.7852,33.125 255.5664,32.8711 Q256.0156,32.7344 256.5234,32.2852 Q256.8555,32.0313 257.0313,31.9531 Q257.207,31.875 257.4219,31.875 Q257.832,31.875 258.125,32.207 Q258.4375,32.5195 258.4375,32.9688 Q258.4375,33.3984 258.0078,33.9063 Q257.3828,34.6484 256.3867,35.0586 Q255.0781,35.625 253.4766,35.625 Q251.6016,35.625 250.0977,34.8828 Q248.8867,34.2969 248.0273,33.0273 Q247.1875,31.7578 247.1875,30.2539 L247.1875,28.8867 Q247.1875,27.3242 247.9297,25.957 Q248.6914,24.5898 250,23.8672 Q251.3281,23.125 252.8125,23.125 Q253.7109,23.125 254.4922,23.4375 Q255.2734,23.75 255.9375,24.375 Z " fill="#000000"/><text fill="#000000" font-family="sans-serif" font-size="15" lengthAdjust="spacingAndGlyphs" textLength="52.5" x="279.0625" y="34.8877">Scooter</text><line style="stroke: #A80036; stroke-width: 1.875;" x1="155" x2="415" y1="48.75" y2="48.75"/><rect fill="none" height="7.5" style="stroke: #C82930; stroke-width: 1.25;" width="7.5" x="163.75" y="58.75"/><text fill="#000000" font-family="sans-serif" font-size="13.75" lengthAdjust="spacingAndGlyphs" textLength="155" x="178.75" y="68.0237">NUMBER id_scooter «PK»</text><rect fill="none" height="7.5" style="stroke: #C82930; stroke-width: 1.25;" width="7.5" x="163.75" y="76.0449"/><text fill="#000000" font-family="sans-serif" font-size="13.75" lengthAdjust="spacingAndGlyphs" textLength="180" x="178.75" y="85.3186">double max_Battery_Capacity</text><rect fill="none" height="7.5" style="stroke: #C82930; stroke-width: 1.25;" width="7.5" x="163.75" y="93.3398"/><text fill="#000000" font-family="sans-serif" font-size="13.75" lengthAdjust="spacingAndGlyphs" textLength="147.5" x="178.75" y="102.6135">double state_Of_Charge</text><rect fill="none" height="7.5" style="stroke: #C82930; stroke-width: 1.25;" width="7.5" x="163.75" y="110.6348"/><text fill="#000000" font-family="sans-serif" font-size="13.75" lengthAdjust="spacingAndGlyphs" textLength="131.25" x="178.75" y="119.9084">double power_Output</text><rect fill="none" height="7.5" style="stroke: #C82930; stroke-width: 1.25;" width="7.5" x="163.75" y="127.9297"/><text fill="#000000" font-family="sans-serif" font-size="13.75" lengthAdjust="spacingAndGlyphs" textLength="85" x="178.75" y="137.2034">double weight</text><rect fill="none" height="7.5" style="stroke: #C82930; stroke-width: 1.25;" width="7.5" x="163.75" y="145.2246"/><text fill="#000000" font-family="sans-serif" font-size="13.75" lengthAdjust="spacingAndGlyphs" textLength="123.75" x="178.75" y="154.4983">double max_payload</text><rect fill="none" height="7.5" style="stroke: #C82930; stroke-width: 1.25;" width="7.5" x="163.75" y="162.5195"/><text fill="#000000" font-family="sans-serif" font-size="13.75" lengthAdjust="spacingAndGlyphs" textLength="230" x="178.75" y="171.7932">NUMBER PharmacyID_pharmacy «FK»</text><line style="stroke: #A80036; stroke-width: 1.875;" x1="155" x2="415" y1="179.8145" y2="179.8145"/><!--MD5=[1ad2a630e8ba9788eb4b13b97b352306]
class ParkingSlotScootersUsage--><rect codeLine="14" fill="#FEFECE" filter="url(#f63uy192s3po7)" height="129.1797" id="ParkingSlotScootersUsage" style="stroke: #A80036; stroke-width: 1.875;" width="422.5" x="73.75" y="265"/><ellipse cx="186.5625" cy="285" fill="#ADD1B2" rx="13.75" ry="13.75" style="stroke: #A80036; stroke-width: 1.25;"/><path d="M189.0625,280.625 Q189.3164,280 189.6094,279.6875 Q189.9023,279.375 190.2344,279.375 Q190.8203,279.375 191.1914,279.7266 Q191.5625,280.0781 191.5625,280.8984 L191.5625,282.8516 Q191.5625,283.6719 191.2109,284.0234 Q190.8594,284.375 190.3125,284.375 Q189.8242,284.375 189.5117,284.1602 Q189.1992,283.9453 189.0625,283.3789 Q189.0039,282.9883 188.7891,282.7734 Q188.3984,282.3633 187.6953,282.1289 Q186.9922,281.875 186.2891,281.875 Q185.4102,281.875 184.668,282.2266 Q183.9453,282.5781 183.3789,283.3594 Q182.8125,284.1406 182.8125,285.2148 L182.8125,286.3672 Q182.8125,287.6563 183.8672,288.5156 Q184.9219,289.375 186.7969,289.375 Q187.9102,289.375 188.6914,289.1211 Q189.1406,288.9844 189.6484,288.5352 Q189.9805,288.2813 190.1563,288.2031 Q190.332,288.125 190.5469,288.125 Q190.957,288.125 191.25,288.457 Q191.5625,288.7695 191.5625,289.2188 Q191.5625,289.6484 191.1328,290.1563 Q190.5078,290.8984 189.5117,291.3086 Q188.2031,291.875 186.6016,291.875 Q184.7266,291.875 183.2227,291.1328 Q182.0117,290.5469 181.1523,289.2773 Q180.3125,288.0078 180.3125,286.5039 L180.3125,285.1367 Q180.3125,283.5742 181.0547,282.207 Q181.8164,280.8398 183.125,280.1172 Q184.4531,279.375 185.9375,279.375 Q186.8359,279.375 187.6172,279.6875 Q188.3984,280 189.0625,280.625 Z " fill="#000000"/><text fill="#000000" font-family="sans-serif" font-size="15" lengthAdjust="spacingAndGlyphs" textLength="186.25" x="212.1875" y="291.1377">ParkingSlotScootersUsage</text><line style="stroke: #A80036; stroke-width: 1.875;" x1="75" x2="495" y1="305" y2="305"/><rect fill="none" height="7.5" style="stroke: #C82930; stroke-width: 1.25;" width="7.5" x="83.75" y="315"/><text fill="#000000" font-family="sans-serif" font-size="13.75" lengthAdjust="spacingAndGlyphs" textLength="101.25" x="98.75" y="324.2737">date dateIn «PK»</text><rect fill="none" height="7.5" style="stroke: #C82930; stroke-width: 1.25;" width="7.5" x="83.75" y="332.2949"/><text fill="#000000" font-family="sans-serif" font-size="13.75" lengthAdjust="spacingAndGlyphs" textLength="77.5" x="98.75" y="341.5686">date dateOut</text><rect fill="none" height="7.5" style="stroke: #C82930; stroke-width: 1.25;" width="7.5" x="83.75" y="349.5898"/><text fill="#000000" font-family="sans-serif" font-size="13.75" lengthAdjust="spacingAndGlyphs" textLength="223.75" x="98.75" y="358.8635">NUMBER ScooterId_Scooter «PK,FK»</text><rect fill="none" height="7.5" style="stroke: #C82930; stroke-width: 1.25;" width="7.5" x="83.75" y="366.8848"/><text fill="#000000" font-family="sans-serif" font-size="13.75" lengthAdjust="spacingAndGlyphs" textLength="390" x="98.75" y="376.1584">NUMBER ParkingSlotsScootersParkingSlotId_parkingSlot «PK,FK»</text><line style="stroke: #A80036; stroke-width: 1.875;" x1="75" x2="495" y1="384.1797" y2="384.1797"/><!--MD5=[6171c3a2f2c752b4019101857dc83635]
class ParkingSlot--><rect codeLine="21" fill="#FEFECE" filter="url(#f63uy192s3po7)" height="94.5898" id="ParkingSlot" style="stroke: #A80036; stroke-width: 1.875;" width="262.5" x="8.75" y="656.25"/><ellipse cx="95.3125" cy="676.25" fill="#ADD1B2" rx="13.75" ry="13.75" style="stroke: #A80036; stroke-width: 1.25;"/><path d="M97.8125,671.875 Q98.0664,671.25 98.3594,670.9375 Q98.6523,670.625 98.9844,670.625 Q99.5703,670.625 99.9414,670.9766 Q100.3125,671.3281 100.3125,672.1484 L100.3125,674.1016 Q100.3125,674.9219 99.9609,675.2734 Q99.6094,675.625 99.0625,675.625 Q98.5742,675.625 98.2617,675.4102 Q97.9492,675.1953 97.8125,674.6289 Q97.7539,674.2383 97.5391,674.0234 Q97.1484,673.6133 96.4453,673.3789 Q95.7422,673.125 95.0391,673.125 Q94.1602,673.125 93.418,673.4766 Q92.6953,673.8281 92.1289,674.6094 Q91.5625,675.3906 91.5625,676.4648 L91.5625,677.6172 Q91.5625,678.9063 92.6172,679.7656 Q93.6719,680.625 95.5469,680.625 Q96.6602,680.625 97.4414,680.3711 Q97.8906,680.2344 98.3984,679.7852 Q98.7305,679.5313 98.9063,679.4531 Q99.082,679.375 99.2969,679.375 Q99.707,679.375 100,679.707 Q100.3125,680.0195 100.3125,680.4688 Q100.3125,680.8984 99.8828,681.4063 Q99.2578,682.1484 98.2617,682.5586 Q96.9531,683.125 95.3516,683.125 Q93.4766,683.125 91.9727,682.3828 Q90.7617,681.7969 89.9023,680.5273 Q89.0625,679.2578 89.0625,677.7539 L89.0625,676.3867 Q89.0625,674.8242 89.8047,673.457 Q90.5664,672.0898 91.875,671.3672 Q93.2031,670.625 94.6875,670.625 Q95.5859,670.625 96.3672,670.9375 Q97.1484,671.25 97.8125,671.875 Z " fill="#000000"/><text fill="#000000" font-family="sans-serif" font-size="15" lengthAdjust="spacingAndGlyphs" textLength="78.75" x="120.9375" y="682.3877">ParkingSlot</text><line style="stroke: #A80036; stroke-width: 1.875;" x1="10" x2="270" y1="696.25" y2="696.25"/><rect fill="none" height="7.5" style="stroke: #C82930; stroke-width: 1.25;" width="7.5" x="18.75" y="706.25"/><text fill="#000000" font-family="sans-serif" font-size="13.75" lengthAdjust="spacingAndGlyphs" textLength="176.25" x="33.75" y="715.5237">NUMBER ID_parkingSlot «PK»</text><rect fill="none" height="7.5" style="stroke: #C82930; stroke-width: 1.25;" width="7.5" x="18.75" y="723.5449"/><text fill="#000000" font-family="sans-serif" font-size="13.75" lengthAdjust="spacingAndGlyphs" textLength="230" x="33.75" y="732.8186">NUMBER PharmacyID_pharmacy «FK»</text><line style="stroke: #A80036; stroke-width: 1.875;" x1="10" x2="270" y1="740.8398" y2="740.8398"/><!--MD5=[271e9ec5f05e38e8bd6c7ee33209db96]
class ParkingSlotScooters--><rect codeLine="26" fill="#FEFECE" filter="url(#f63uy192s3po7)" height="111.8848" id="ParkingSlotScooters" style="stroke: #A80036; stroke-width: 1.875;" width="337.5" x="116.25" y="468.75"/><ellipse cx="209.6875" cy="488.75" fill="#ADD1B2" rx="13.75" ry="13.75" style="stroke: #A80036; stroke-width: 1.25;"/><path d="M212.1875,484.375 Q212.4414,483.75 212.7344,483.4375 Q213.0273,483.125 213.3594,483.125 Q213.9453,483.125 214.3164,483.4766 Q214.6875,483.8281 214.6875,484.6484 L214.6875,486.6016 Q214.6875,487.4219 214.3359,487.7734 Q213.9844,488.125 213.4375,488.125 Q212.9492,488.125 212.6367,487.9102 Q212.3242,487.6953 212.1875,487.1289 Q212.1289,486.7383 211.9141,486.5234 Q211.5234,486.1133 210.8203,485.8789 Q210.1172,485.625 209.4141,485.625 Q208.5352,485.625 207.793,485.9766 Q207.0703,486.3281 206.5039,487.1094 Q205.9375,487.8906 205.9375,488.9648 L205.9375,490.1172 Q205.9375,491.4063 206.9922,492.2656 Q208.0469,493.125 209.9219,493.125 Q211.0352,493.125 211.8164,492.8711 Q212.2656,492.7344 212.7734,492.2852 Q213.1055,492.0313 213.2813,491.9531 Q213.457,491.875 213.6719,491.875 Q214.082,491.875 214.375,492.207 Q214.6875,492.5195 214.6875,492.9688 Q214.6875,493.3984 214.2578,493.9063 Q213.6328,494.6484 212.6367,495.0586 Q211.3281,495.625 209.7266,495.625 Q207.8516,495.625 206.3477,494.8828 Q205.1367,494.2969 204.2773,493.0273 Q203.4375,491.7578 203.4375,490.2539 L203.4375,488.8867 Q203.4375,487.3242 204.1797,485.957 Q204.9414,484.5898 206.25,483.8672 Q207.5781,483.125 209.0625,483.125 Q209.9609,483.125 210.7422,483.4375 Q211.5234,483.75 212.1875,484.375 Z " fill="#000000"/><text fill="#000000" font-family="sans-serif" font-size="15" lengthAdjust="spacingAndGlyphs" textLength="140" x="235.3125" y="494.8877">ParkingSlotScooters</text><line style="stroke: #A80036; stroke-width: 1.875;" x1="117.5" x2="452.5" y1="508.75" y2="508.75"/><rect fill="none" height="7.5" style="stroke: #C82930; stroke-width: 1.25;" width="7.5" x="126.25" y="518.75"/><text fill="#000000" font-family="sans-serif" font-size="13.75" lengthAdjust="spacingAndGlyphs" textLength="196.25" x="141.25" y="528.0237">CHAR has_charging_capabilities</text><rect fill="none" height="7.5" style="stroke: #C82930; stroke-width: 1.25;" width="7.5" x="126.25" y="536.0449"/><text fill="#000000" font-family="sans-serif" font-size="13.75" lengthAdjust="spacingAndGlyphs" textLength="305" x="141.25" y="545.3186">NUMBER State_of_use_typeID_state_of_use «FK»</text><rect fill="none" height="7.5" style="stroke: #C82930; stroke-width: 1.25;" width="7.5" x="126.25" y="553.3398"/><text fill="#000000" font-family="sans-serif" font-size="13.75" lengthAdjust="spacingAndGlyphs" textLength="262.5" x="141.25" y="562.6135">NUMBER ParkingSlotID_parkingSlot «PK,FK»</text><line style="stroke: #A80036; stroke-width: 1.875;" x1="117.5" x2="452.5" y1="570.6348" y2="570.6348"/><!--MD5=[a0c801dbb0d53d3cf79988b8c1c9dee3]
class State_of_use_type--><rect codeLine="32" fill="#FEFECE" filter="url(#f63uy192s3po7)" height="94.5898" id="State_of_use_type" style="stroke: #A80036; stroke-width: 1.875;" width="228.75" x="315.625" y="656.25"/><ellipse cx="361.9375" cy="676.25" fill="#ADD1B2" rx="13.75" ry="13.75" style="stroke: #A80036; stroke-width: 1.25;"/><path d="M364.4375,671.875 Q364.6914,671.25 364.9844,670.9375 Q365.2773,670.625 365.6094,670.625 Q366.1953,670.625 366.5664,670.9766 Q366.9375,671.3281 366.9375,672.1484 L366.9375,674.1016 Q366.9375,674.9219 366.5859,675.2734 Q366.2344,675.625 365.6875,675.625 Q365.1992,675.625 364.8867,675.4102 Q364.5742,675.1953 364.4375,674.6289 Q364.3789,674.2383 364.1641,674.0234 Q363.7734,673.6133 363.0703,673.3789 Q362.3672,673.125 361.6641,673.125 Q360.7852,673.125 360.043,673.4766 Q359.3203,673.8281 358.7539,674.6094 Q358.1875,675.3906 358.1875,676.4648 L358.1875,677.6172 Q358.1875,678.9063 359.2422,679.7656 Q360.2969,680.625 362.1719,680.625 Q363.2852,680.625 364.0664,680.3711 Q364.5156,680.2344 365.0234,679.7852 Q365.3555,679.5313 365.5313,679.4531 Q365.707,679.375 365.9219,679.375 Q366.332,679.375 366.625,679.707 Q366.9375,680.0195 366.9375,680.4688 Q366.9375,680.8984 366.5078,681.4063 Q365.8828,682.1484 364.8867,682.5586 Q363.5781,683.125 361.9766,683.125 Q360.1016,683.125 358.5977,682.3828 Q357.3867,681.7969 356.5273,680.5273 Q355.6875,679.2578 355.6875,677.7539 L355.6875,676.3867 Q355.6875,674.8242 356.4297,673.457 Q357.1914,672.0898 358.5,671.3672 Q359.8281,670.625 361.3125,670.625 Q362.2109,670.625 362.9922,670.9375 Q363.7734,671.25 364.4375,671.875 Z " fill="#000000"/><text fill="#000000" font-family="sans-serif" font-size="15" lengthAdjust="spacingAndGlyphs" textLength="127.5" x="385.5625" y="682.3877">State_of_use_type</text><line style="stroke: #A80036; stroke-width: 1.875;" x1="316.875" x2="543.125" y1="696.25" y2="696.25"/><rect fill="none" height="7.5" style="stroke: #C82930; stroke-width: 1.25;" width="7.5" x="325.625" y="706.25"/><text fill="#000000" font-family="sans-serif" font-size="13.75" lengthAdjust="spacingAndGlyphs" textLength="190" x="340.625" y="715.5237">NUMBER ID_state_of_use «PK»</text><rect fill="none" height="7.5" style="stroke: #C82930; stroke-width: 1.25;" width="7.5" x="325.625" y="723.5449"/><text fill="#000000" font-family="sans-serif" font-size="13.75" lengthAdjust="spacingAndGlyphs" textLength="196.25" x="340.625" y="732.8186">VARCHAR2 name_state_of_use</text><line style="stroke: #A80036; stroke-width: 1.875;" x1="316.875" x2="543.125" y1="740.8398" y2="740.8398"/><!--MD5=[598d8caf3ab5d51980b1e8af477eee20]
link Scooter to ParkingSlotScootersUsage--><path codeLine="38" d="M285,200.245 C285,218.6113 285,237.4763 285,254.885 " fill="none" id="Scooter-ParkingSlotScootersUsage" style="stroke: #A80036; stroke-width: 1.25;"/><line style="stroke: #A80036; stroke-width: 1.25;" x1="285" x2="292.5" y1="254.9525" y2="264.9525"/><line style="stroke: #A80036; stroke-width: 1.25;" x1="285" x2="277.5" y1="254.9525" y2="264.9525"/><line style="stroke: #A80036; stroke-width: 1.25;" x1="285" x2="285" y1="254.9525" y2="264.9525"/><ellipse cx="285" cy="247.4525" fill="none" rx="5" ry="5" style="stroke: #A80036; stroke-width: 1.25;"/><line style="stroke: #A80036; stroke-width: 1.25;" x1="285" x2="285" y1="203.9625" y2="190.2125"/><ellipse cx="285" cy="203.9625" fill="none" rx="5" ry="5" style="stroke: #A80036; stroke-width: 1.25;"/><line style="stroke: #A80036; stroke-width: 1.25;" x1="280" x2="290" y1="195.2125" y2="195.2125"/><!--MD5=[1a0ee94305fae30e9ac7223ae30f2622]
link ParkingSlotScootersUsage to ParkingSlotScooters--><path codeLine="39" d="M285,404.1925 C285,422.035 285,440.9913 285,458.425 " fill="none" id="ParkingSlotScootersUsage-ParkingSlotScooters" style="stroke: #A80036; stroke-width: 1.25;"/><line style="stroke: #A80036; stroke-width: 1.25;" x1="285" x2="285" y1="454.7425" y2="468.4925"/><ellipse cx="285" cy="454.7425" fill="none" rx="5" ry="5" style="stroke: #A80036; stroke-width: 1.25;"/><line style="stroke: #A80036; stroke-width: 1.25;" x1="290" x2="280" y1="463.4925" y2="463.4925"/><line style="stroke: #A80036; stroke-width: 1.25;" x1="285" x2="277.5" y1="403.8613" y2="393.8613"/><line style="stroke: #A80036; stroke-width: 1.25;" x1="285" x2="292.5" y1="403.8613" y2="393.8613"/><line style="stroke: #A80036; stroke-width: 1.25;" x1="285" x2="285" y1="403.8613" y2="393.8613"/><ellipse cx="285" cy="411.3613" fill="none" rx="5" ry="5" style="stroke: #A80036; stroke-width: 1.25;"/><!--MD5=[38d6dca94a58c5c66961acd142e9a80b]
link ParkingSlotScooters to State_of_use_type--><path codeLine="40" d="M337.0137,589.4738 C352.7475,608.5988 369.8837,629.4275 385.11,647.935 " fill="none" id="ParkingSlotScooters-State_of_use_type" style="stroke: #A80036; stroke-width: 1.25;"/><line style="stroke: #A80036; stroke-width: 1.25;" x1="382.7722" x2="391.5087" y1="645.0952" y2="655.7129"/><ellipse cx="382.7722" cy="645.0952" fill="none" rx="5" ry="5" style="stroke: #A80036; stroke-width: 1.25;"/><line style="stroke: #A80036; stroke-width: 1.25;" x1="392.1928" x2="384.4708" y1="648.675" y2="655.0288"/><line style="stroke: #A80036; stroke-width: 1.25;" x1="336.8343" x2="324.6893" y1="589.2551" y2="586.2973"/><line style="stroke: #A80036; stroke-width: 1.25;" x1="336.8343" x2="336.2732" y1="589.2551" y2="576.7677"/><line style="stroke: #A80036; stroke-width: 1.25;" x1="336.8343" x2="330.4813" y1="589.2551" y2="581.5325"/><ellipse cx="341.5991" cy="595.0471" fill="none" rx="5" ry="5" style="stroke: #A80036; stroke-width: 1.25;"/><!--MD5=[29428014ea447c5833ab8fd374be4fb6]
link ParkingSlotScooters to ParkingSlot--><path codeLine="41" d="M232.9863,589.4738 C217.2525,608.5988 200.1162,629.4275 184.89,647.935 " fill="none" id="ParkingSlotScooters-ParkingSlot" style="stroke: #A80036; stroke-width: 1.25;"/><line style="stroke: #A80036; stroke-width: 1.25;" x1="187.2278" x2="178.4913" y1="645.0952" y2="655.7129"/><ellipse cx="187.2278" cy="645.0952" fill="none" rx="5" ry="5" style="stroke: #A80036; stroke-width: 1.25;"/><line style="stroke: #A80036; stroke-width: 1.25;" x1="185.5292" x2="177.8072" y1="655.0288" y2="648.675"/><line style="stroke: #A80036; stroke-width: 1.25;" x1="230.7833" x2="239.5188" y1="592.1511" y2="581.5325"/><ellipse cx="230.7833" cy="592.1511" fill="none" rx="5" ry="5" style="stroke: #A80036; stroke-width: 1.25;"/><line style="stroke: #A80036; stroke-width: 1.25;" x1="232.4809" x2="240.2035" y1="582.2173" y2="588.5703"/><!--MD5=[baddcec66e66734df91f4ee6a0b02c8c]
@startuml
'skinparam linetype polyline


class Scooter {
    -NUMBER id_scooter «PK»
    -double max_Battery_Capacity
    -double state_Of_Charge
    -double power_Output
    -double weight
    -double max_payload
    -NUMBER PharmacyID_pharmacy «FK»
}

class ParkingSlotScootersUsage {
    -date dateIn «PK»
    -date dateOut
    -NUMBER ScooterId_Scooter «PK,FK»
    -NUMBER ParkingSlotsScootersParkingSlotId_parkingSlot «PK,FK»
}

class ParkingSlot{
    -NUMBER ID_parkingSlot «PK»
    -NUMBER PharmacyID_pharmacy «FK»
}

class ParkingSlotScooters{
    -CHAR has_charging_capabilities
    -NUMBER State_of_use_typeID_state_of_use «FK»
    -NUMBER ParkingSlotID_parkingSlot «PK,FK»
}

class State_of_use_type{
    -NUMBER ID_state_of_use «PK»
    -VARCHAR2 name_state_of_use
}


Scooter |o- -o{ ParkingSlotScootersUsage
ParkingSlotScootersUsage }o- -o| ParkingSlotScooters
ParkingSlotScooters }o- -o| State_of_use_type
ParkingSlotScooters |o- -o| ParkingSlot

@enduml

@startuml


class Scooter {
    -NUMBER id_scooter «PK»
    -double max_Battery_Capacity
    -double state_Of_Charge
    -double power_Output
    -double weight
    -double max_payload
    -NUMBER PharmacyID_pharmacy «FK»
}

class ParkingSlotScootersUsage {
    -date dateIn «PK»
    -date dateOut
    -NUMBER ScooterId_Scooter «PK,FK»
    -NUMBER ParkingSlotsScootersParkingSlotId_parkingSlot «PK,FK»
}

class ParkingSlot{
    -NUMBER ID_parkingSlot «PK»
    -NUMBER PharmacyID_pharmacy «FK»
}

class ParkingSlotScooters{
    -CHAR has_charging_capabilities
    -NUMBER State_of_use_typeID_state_of_use «FK»
    -NUMBER ParkingSlotID_parkingSlot «PK,FK»
}

class State_of_use_type{
    -NUMBER ID_state_of_use «PK»
    -VARCHAR2 name_state_of_use
}


Scooter |o- -o{ ParkingSlotScootersUsage
ParkingSlotScootersUsage }o- -o| ParkingSlotScooters
ParkingSlotScooters }o- -o| State_of_use_type
ParkingSlotScooters |o- -o| ParkingSlot

@enduml

PlantUML version 1.2020.20(Sat Nov 21 10:02:45 GMT 2020)
(GPL source distribution)
Java Runtime: OpenJDK Runtime Environment
JVM: OpenJDK 64-Bit Server VM
Default Encoding: Cp1252
Language: pt
Country: PT
--></g></svg>