<?xml version="1.0" encoding="UTF-8" standalone="no"?><svg xmlns="http://www.w3.org/2000/svg" xmlns:xlink="http://www.w3.org/1999/xlink" contentScriptType="application/ecmascript" contentStyleType="text/css" height="785px" preserveAspectRatio="none" style="width:973px;height:785px;" version="1.1" viewBox="0 0 973 785" width="973.75px" zoomAndPan="magnify"><defs><filter height="300%" id="fzotdeqm2rh0c" width="300%" x="-1" y="-1"><feGaussianBlur result="blurOut" stdDeviation="2.5"/><feColorMatrix in="blurOut" result="blurOut2" type="matrix" values="0 0 0 0 0 0 0 0 0 0 0 0 0 0 0 0 0 0 .4 0"/><feOffset dx="5.0" dy="5.0" in="blurOut2" result="blurOut3"/><feBlend in="SourceGraphic" in2="blurOut3" mode="normal"/></filter></defs><g><!--MD5=[f4402668d5d5bb8485350c0fdb60ac8e]
class Scooter--><rect codeLine="4" fill="#FEFECE" filter="url(#fzotdeqm2rh0c)" height="181.0645" id="Scooter" style="stroke: #A80036; stroke-width: 1.875;" width="262.5" x="153.75" y="17.5"/><ellipse cx="253.4375" cy="37.5" fill="#ADD1B2" rx="13.75" ry="13.75" style="stroke: #A80036; stroke-width: 1.25;"/><path d="M255.9375,33.125 Q256.1914,32.5 256.4844,32.1875 Q256.7773,31.875 257.1094,31.875 Q257.6953,31.875 258.0664,32.2266 Q258.4375,32.5781 258.4375,33.3984 L258.4375,35.3516 Q258.4375,36.1719 258.0859,36.5234 Q257.7344,36.875 257.1875,36.875 Q256.6992,36.875 256.3867,36.6602 Q256.0742,36.4453 255.9375,35.8789 Q255.8789,35.4883 255.6641,35.2734 Q255.2734,34.8633 254.5703,34.6289 Q253.8672,34.375 253.1641,34.375 Q252.2852,34.375 251.543,34.7266 Q250.8203,35.0781 250.2539,35.8594 Q249.6875,36.6406 249.6875,37.7148 L249.6875,38.8672 Q249.6875,40.1563 250.7422,41.0156 Q251.7969,41.875 253.6719,41.875 Q254.7852,41.875 255.5664,41.6211 Q256.0156,41.4844 256.5234,41.0352 Q256.8555,40.7813 257.0313,40.7031 Q257.207,40.625 257.4219,40.625 Q257.832,40.625 258.125,40.957 Q258.4375,41.2695 258.4375,41.7188 Q258.4375,42.1484 258.0078,42.6563 Q257.3828,43.3984 256.3867,43.8086 Q255.0781,44.375 253.4766,44.375 Q251.6016,44.375 250.0977,43.6328 Q248.8867,43.0469 248.0273,41.7773 Q247.1875,40.5078 247.1875,39.0039 L247.1875,37.6367 Q247.1875,36.0742 247.9297,34.707 Q248.6914,33.3398 250,32.6172 Q251.3281,31.875 252.8125,31.875 Q253.7109,31.875 254.4922,32.1875 Q255.2734,32.5 255.9375,33.125 Z " fill="#000000"/><text fill="#000000" font-family="sans-serif" font-size="15" lengthAdjust="spacingAndGlyphs" textLength="52.5" x="279.0625" y="43.6377">Scooter</text><line style="stroke: #A80036; stroke-width: 1.875;" x1="155" x2="415" y1="57.5" y2="57.5"/><rect fill="none" height="7.5" style="stroke: #C82930; stroke-width: 1.25;" width="7.5" x="163.75" y="67.5"/><text fill="#000000" font-family="sans-serif" font-size="13.75" lengthAdjust="spacingAndGlyphs" textLength="155" x="178.75" y="76.7737">NUMBER id_scooter «PK»</text><rect fill="none" height="7.5" style="stroke: #C82930; stroke-width: 1.25;" width="7.5" x="163.75" y="84.7949"/><text fill="#000000" font-family="sans-serif" font-size="13.75" lengthAdjust="spacingAndGlyphs" textLength="180" x="178.75" y="94.0686">double max_Battery_Capacity</text><rect fill="none" height="7.5" style="stroke: #C82930; stroke-width: 1.25;" width="7.5" x="163.75" y="102.0898"/><text fill="#000000" font-family="sans-serif" font-size="13.75" lengthAdjust="spacingAndGlyphs" textLength="147.5" x="178.75" y="111.3635">double state_Of_Charge</text><rect fill="none" height="7.5" style="stroke: #C82930; stroke-width: 1.25;" width="7.5" x="163.75" y="119.3848"/><text fill="#000000" font-family="sans-serif" font-size="13.75" lengthAdjust="spacingAndGlyphs" textLength="131.25" x="178.75" y="128.6584">double power_Output</text><rect fill="none" height="7.5" style="stroke: #C82930; stroke-width: 1.25;" width="7.5" x="163.75" y="136.6797"/><text fill="#000000" font-family="sans-serif" font-size="13.75" lengthAdjust="spacingAndGlyphs" textLength="85" x="178.75" y="145.9534">double weight</text><rect fill="none" height="7.5" style="stroke: #C82930; stroke-width: 1.25;" width="7.5" x="163.75" y="153.9746"/><text fill="#000000" font-family="sans-serif" font-size="13.75" lengthAdjust="spacingAndGlyphs" textLength="123.75" x="178.75" y="163.2483">double max_payload</text><rect fill="none" height="7.5" style="stroke: #C82930; stroke-width: 1.25;" width="7.5" x="163.75" y="171.2695"/><text fill="#000000" font-family="sans-serif" font-size="13.75" lengthAdjust="spacingAndGlyphs" textLength="230" x="178.75" y="180.5432">NUMBER PharmacyID_pharmacy «FK»</text><line style="stroke: #A80036; stroke-width: 1.875;" x1="155" x2="415" y1="188.5645" y2="188.5645"/><!--MD5=[1ad2a630e8ba9788eb4b13b97b352306]
class ParkingSlotScootersUsage--><rect codeLine="14" fill="#FEFECE" filter="url(#fzotdeqm2rh0c)" height="129.1797" id="ParkingSlotScootersUsage" style="stroke: #A80036; stroke-width: 1.875;" width="422.5" x="73.75" y="282.5"/><ellipse cx="186.5625" cy="302.5" fill="#ADD1B2" rx="13.75" ry="13.75" style="stroke: #A80036; stroke-width: 1.25;"/><path d="M189.0625,298.125 Q189.3164,297.5 189.6094,297.1875 Q189.9023,296.875 190.2344,296.875 Q190.8203,296.875 191.1914,297.2266 Q191.5625,297.5781 191.5625,298.3984 L191.5625,300.3516 Q191.5625,301.1719 191.2109,301.5234 Q190.8594,301.875 190.3125,301.875 Q189.8242,301.875 189.5117,301.6602 Q189.1992,301.4453 189.0625,300.8789 Q189.0039,300.4883 188.7891,300.2734 Q188.3984,299.8633 187.6953,299.6289 Q186.9922,299.375 186.2891,299.375 Q185.4102,299.375 184.668,299.7266 Q183.9453,300.0781 183.3789,300.8594 Q182.8125,301.6406 182.8125,302.7148 L182.8125,303.8672 Q182.8125,305.1563 183.8672,306.0156 Q184.9219,306.875 186.7969,306.875 Q187.9102,306.875 188.6914,306.6211 Q189.1406,306.4844 189.6484,306.0352 Q189.9805,305.7813 190.1563,305.7031 Q190.332,305.625 190.5469,305.625 Q190.957,305.625 191.25,305.957 Q191.5625,306.2695 191.5625,306.7188 Q191.5625,307.1484 191.1328,307.6563 Q190.5078,308.3984 189.5117,308.8086 Q188.2031,309.375 186.6016,309.375 Q184.7266,309.375 183.2227,308.6328 Q182.0117,308.0469 181.1523,306.7773 Q180.3125,305.5078 180.3125,304.0039 L180.3125,302.6367 Q180.3125,301.0742 181.0547,299.707 Q181.8164,298.3398 183.125,297.6172 Q184.4531,296.875 185.9375,296.875 Q186.8359,296.875 187.6172,297.1875 Q188.3984,297.5 189.0625,298.125 Z " fill="#000000"/><text fill="#000000" font-family="sans-serif" font-size="15" lengthAdjust="spacingAndGlyphs" textLength="186.25" x="212.1875" y="308.6377">ParkingSlotScootersUsage</text><line style="stroke: #A80036; stroke-width: 1.875;" x1="75" x2="495" y1="322.5" y2="322.5"/><rect fill="none" height="7.5" style="stroke: #C82930; stroke-width: 1.25;" width="7.5" x="83.75" y="332.5"/><text fill="#000000" font-family="sans-serif" font-size="13.75" lengthAdjust="spacingAndGlyphs" textLength="101.25" x="98.75" y="341.7737">date dateIn «PK»</text><rect fill="none" height="7.5" style="stroke: #C82930; stroke-width: 1.25;" width="7.5" x="83.75" y="349.7949"/><text fill="#000000" font-family="sans-serif" font-size="13.75" lengthAdjust="spacingAndGlyphs" textLength="77.5" x="98.75" y="359.0686">date dateOut</text><rect fill="none" height="7.5" style="stroke: #C82930; stroke-width: 1.25;" width="7.5" x="83.75" y="367.0898"/><text fill="#000000" font-family="sans-serif" font-size="13.75" lengthAdjust="spacingAndGlyphs" textLength="223.75" x="98.75" y="376.3635">NUMBER ScooterId_Scooter «PK,FK»</text><rect fill="none" height="7.5" style="stroke: #C82930; stroke-width: 1.25;" width="7.5" x="83.75" y="384.3848"/><text fill="#000000" font-family="sans-serif" font-size="13.75" lengthAdjust="spacingAndGlyphs" textLength="390" x="98.75" y="393.6584">NUMBER ParkingSlotsScootersParkingSlotId_parkingSlot «PK,FK»</text><line style="stroke: #A80036; stroke-width: 1.875;" x1="75" x2="495" y1="401.6797" y2="401.6797"/><!--MD5=[6171c3a2f2c752b4019101857dc83635]
class ParkingSlot--><rect codeLine="21" fill="#FEFECE" filter="url(#fzotdeqm2rh0c)" height="94.5898" id="ParkingSlot" style="stroke: #A80036; stroke-width: 1.875;" width="262.5" x="8.75" y="673.75"/><ellipse cx="95.3125" cy="693.75" fill="#ADD1B2" rx="13.75" ry="13.75" style="stroke: #A80036; stroke-width: 1.25;"/><path d="M97.8125,689.375 Q98.0664,688.75 98.3594,688.4375 Q98.6523,688.125 98.9844,688.125 Q99.5703,688.125 99.9414,688.4766 Q100.3125,688.8281 100.3125,689.6484 L100.3125,691.6016 Q100.3125,692.4219 99.9609,692.7734 Q99.6094,693.125 99.0625,693.125 Q98.5742,693.125 98.2617,692.9102 Q97.9492,692.6953 97.8125,692.1289 Q97.7539,691.7383 97.5391,691.5234 Q97.1484,691.1133 96.4453,690.8789 Q95.7422,690.625 95.0391,690.625 Q94.1602,690.625 93.418,690.9766 Q92.6953,691.3281 92.1289,692.1094 Q91.5625,692.8906 91.5625,693.9648 L91.5625,695.1172 Q91.5625,696.4063 92.6172,697.2656 Q93.6719,698.125 95.5469,698.125 Q96.6602,698.125 97.4414,697.8711 Q97.8906,697.7344 98.3984,697.2852 Q98.7305,697.0313 98.9063,696.9531 Q99.082,696.875 99.2969,696.875 Q99.707,696.875 100,697.207 Q100.3125,697.5195 100.3125,697.9688 Q100.3125,698.3984 99.8828,698.9063 Q99.2578,699.6484 98.2617,700.0586 Q96.9531,700.625 95.3516,700.625 Q93.4766,700.625 91.9727,699.8828 Q90.7617,699.2969 89.9023,698.0273 Q89.0625,696.7578 89.0625,695.2539 L89.0625,693.8867 Q89.0625,692.3242 89.8047,690.957 Q90.5664,689.5898 91.875,688.8672 Q93.2031,688.125 94.6875,688.125 Q95.5859,688.125 96.3672,688.4375 Q97.1484,688.75 97.8125,689.375 Z " fill="#000000"/><text fill="#000000" font-family="sans-serif" font-size="15" lengthAdjust="spacingAndGlyphs" textLength="78.75" x="120.9375" y="699.8877">ParkingSlot</text><line style="stroke: #A80036; stroke-width: 1.875;" x1="10" x2="270" y1="713.75" y2="713.75"/><rect fill="none" height="7.5" style="stroke: #C82930; stroke-width: 1.25;" width="7.5" x="18.75" y="723.75"/><text fill="#000000" font-family="sans-serif" font-size="13.75" lengthAdjust="spacingAndGlyphs" textLength="176.25" x="33.75" y="733.0237">NUMBER ID_parkingSlot «PK»</text><rect fill="none" height="7.5" style="stroke: #C82930; stroke-width: 1.25;" width="7.5" x="18.75" y="741.0449"/><text fill="#000000" font-family="sans-serif" font-size="13.75" lengthAdjust="spacingAndGlyphs" textLength="230" x="33.75" y="750.3186">NUMBER PharmacyID_pharmacy «FK»</text><line style="stroke: #A80036; stroke-width: 1.875;" x1="10" x2="270" y1="758.3398" y2="758.3398"/><!--MD5=[271e9ec5f05e38e8bd6c7ee33209db96]
class ParkingSlotScooters--><rect codeLine="26" fill="#FEFECE" filter="url(#fzotdeqm2rh0c)" height="111.8848" id="ParkingSlotScooters" style="stroke: #A80036; stroke-width: 1.875;" width="337.5" x="116.25" y="486.25"/><ellipse cx="209.6875" cy="506.25" fill="#ADD1B2" rx="13.75" ry="13.75" style="stroke: #A80036; stroke-width: 1.25;"/><path d="M212.1875,501.875 Q212.4414,501.25 212.7344,500.9375 Q213.0273,500.625 213.3594,500.625 Q213.9453,500.625 214.3164,500.9766 Q214.6875,501.3281 214.6875,502.1484 L214.6875,504.1016 Q214.6875,504.9219 214.3359,505.2734 Q213.9844,505.625 213.4375,505.625 Q212.9492,505.625 212.6367,505.4102 Q212.3242,505.1953 212.1875,504.6289 Q212.1289,504.2383 211.9141,504.0234 Q211.5234,503.6133 210.8203,503.3789 Q210.1172,503.125 209.4141,503.125 Q208.5352,503.125 207.793,503.4766 Q207.0703,503.8281 206.5039,504.6094 Q205.9375,505.3906 205.9375,506.4648 L205.9375,507.6172 Q205.9375,508.9063 206.9922,509.7656 Q208.0469,510.625 209.9219,510.625 Q211.0352,510.625 211.8164,510.3711 Q212.2656,510.2344 212.7734,509.7852 Q213.1055,509.5313 213.2813,509.4531 Q213.457,509.375 213.6719,509.375 Q214.082,509.375 214.375,509.707 Q214.6875,510.0195 214.6875,510.4688 Q214.6875,510.8984 214.2578,511.4063 Q213.6328,512.1484 212.6367,512.5586 Q211.3281,513.125 209.7266,513.125 Q207.8516,513.125 206.3477,512.3828 Q205.1367,511.7969 204.2773,510.5273 Q203.4375,509.2578 203.4375,507.7539 L203.4375,506.3867 Q203.4375,504.8242 204.1797,503.457 Q204.9414,502.0898 206.25,501.3672 Q207.5781,500.625 209.0625,500.625 Q209.9609,500.625 210.7422,500.9375 Q211.5234,501.25 212.1875,501.875 Z " fill="#000000"/><text fill="#000000" font-family="sans-serif" font-size="15" lengthAdjust="spacingAndGlyphs" textLength="140" x="235.3125" y="512.3877">ParkingSlotScooters</text><line style="stroke: #A80036; stroke-width: 1.875;" x1="117.5" x2="452.5" y1="526.25" y2="526.25"/><rect fill="none" height="7.5" style="stroke: #C82930; stroke-width: 1.25;" width="7.5" x="126.25" y="536.25"/><text fill="#000000" font-family="sans-serif" font-size="13.75" lengthAdjust="spacingAndGlyphs" textLength="196.25" x="141.25" y="545.5237">CHAR has_charging_capabilities</text><rect fill="none" height="7.5" style="stroke: #C82930; stroke-width: 1.25;" width="7.5" x="126.25" y="553.5449"/><text fill="#000000" font-family="sans-serif" font-size="13.75" lengthAdjust="spacingAndGlyphs" textLength="305" x="141.25" y="562.8186">NUMBER State_of_use_typeID_state_of_use «FK»</text><rect fill="none" height="7.5" style="stroke: #C82930; stroke-width: 1.25;" width="7.5" x="126.25" y="570.8398"/><text fill="#000000" font-family="sans-serif" font-size="13.75" lengthAdjust="spacingAndGlyphs" textLength="262.5" x="141.25" y="580.1135">NUMBER ParkingSlotID_parkingSlot «PK,FK»</text><line style="stroke: #A80036; stroke-width: 1.875;" x1="117.5" x2="452.5" y1="588.1348" y2="588.1348"/><!--MD5=[a0c801dbb0d53d3cf79988b8c1c9dee3]
class State_of_use_type--><rect codeLine="32" fill="#FEFECE" filter="url(#fzotdeqm2rh0c)" height="94.5898" id="State_of_use_type" style="stroke: #A80036; stroke-width: 1.875;" width="228.75" x="315.625" y="673.75"/><ellipse cx="361.9375" cy="693.75" fill="#ADD1B2" rx="13.75" ry="13.75" style="stroke: #A80036; stroke-width: 1.25;"/><path d="M364.4375,689.375 Q364.6914,688.75 364.9844,688.4375 Q365.2773,688.125 365.6094,688.125 Q366.1953,688.125 366.5664,688.4766 Q366.9375,688.8281 366.9375,689.6484 L366.9375,691.6016 Q366.9375,692.4219 366.5859,692.7734 Q366.2344,693.125 365.6875,693.125 Q365.1992,693.125 364.8867,692.9102 Q364.5742,692.6953 364.4375,692.1289 Q364.3789,691.7383 364.1641,691.5234 Q363.7734,691.1133 363.0703,690.8789 Q362.3672,690.625 361.6641,690.625 Q360.7852,690.625 360.043,690.9766 Q359.3203,691.3281 358.7539,692.1094 Q358.1875,692.8906 358.1875,693.9648 L358.1875,695.1172 Q358.1875,696.4063 359.2422,697.2656 Q360.2969,698.125 362.1719,698.125 Q363.2852,698.125 364.0664,697.8711 Q364.5156,697.7344 365.0234,697.2852 Q365.3555,697.0313 365.5313,696.9531 Q365.707,696.875 365.9219,696.875 Q366.332,696.875 366.625,697.207 Q366.9375,697.5195 366.9375,697.9688 Q366.9375,698.3984 366.5078,698.9063 Q365.8828,699.6484 364.8867,700.0586 Q363.5781,700.625 361.9766,700.625 Q360.1016,700.625 358.5977,699.8828 Q357.3867,699.2969 356.5273,698.0273 Q355.6875,696.7578 355.6875,695.2539 L355.6875,693.8867 Q355.6875,692.3242 356.4297,690.957 Q357.1914,689.5898 358.5,688.8672 Q359.8281,688.125 361.3125,688.125 Q362.2109,688.125 362.9922,688.4375 Q363.7734,688.75 364.4375,689.375 Z " fill="#000000"/><text fill="#000000" font-family="sans-serif" font-size="15" lengthAdjust="spacingAndGlyphs" textLength="127.5" x="385.5625" y="699.8877">State_of_use_type</text><line style="stroke: #A80036; stroke-width: 1.875;" x1="316.875" x2="543.125" y1="713.75" y2="713.75"/><rect fill="none" height="7.5" style="stroke: #C82930; stroke-width: 1.25;" width="7.5" x="325.625" y="723.75"/><text fill="#000000" font-family="sans-serif" font-size="13.75" lengthAdjust="spacingAndGlyphs" textLength="190" x="340.625" y="733.0237">NUMBER ID_state_of_use «PK»</text><rect fill="none" height="7.5" style="stroke: #C82930; stroke-width: 1.25;" width="7.5" x="325.625" y="741.0449"/><text fill="#000000" font-family="sans-serif" font-size="13.75" lengthAdjust="spacingAndGlyphs" textLength="196.25" x="340.625" y="750.3186">VARCHAR2 name_state_of_use</text><line style="stroke: #A80036; stroke-width: 1.875;" x1="316.875" x2="543.125" y1="758.3398" y2="758.3398"/><!--MD5=[2163d4ba525d4912722d46d6694f53f4]
class CourierScooter--><rect codeLine="37" fill="#FEFECE" filter="url(#fzotdeqm2rh0c)" height="129.1797" id="CourierScooter" style="stroke: #A80036; stroke-width: 1.875;" width="200" x="460" y="43.75"/><ellipse cx="504.0625" cy="63.75" fill="#ADD1B2" rx="13.75" ry="13.75" style="stroke: #A80036; stroke-width: 1.25;"/><path d="M506.5625,59.375 Q506.8164,58.75 507.1094,58.4375 Q507.4023,58.125 507.7344,58.125 Q508.3203,58.125 508.6914,58.4766 Q509.0625,58.8281 509.0625,59.6484 L509.0625,61.6016 Q509.0625,62.4219 508.7109,62.7734 Q508.3594,63.125 507.8125,63.125 Q507.3242,63.125 507.0117,62.9102 Q506.6992,62.6953 506.5625,62.1289 Q506.5039,61.7383 506.2891,61.5234 Q505.8984,61.1133 505.1953,60.8789 Q504.4922,60.625 503.7891,60.625 Q502.9102,60.625 502.168,60.9766 Q501.4453,61.3281 500.8789,62.1094 Q500.3125,62.8906 500.3125,63.9648 L500.3125,65.1172 Q500.3125,66.4063 501.3672,67.2656 Q502.4219,68.125 504.2969,68.125 Q505.4102,68.125 506.1914,67.8711 Q506.6406,67.7344 507.1484,67.2852 Q507.4805,67.0313 507.6563,66.9531 Q507.832,66.875 508.0469,66.875 Q508.457,66.875 508.75,67.207 Q509.0625,67.5195 509.0625,67.9688 Q509.0625,68.3984 508.6328,68.9063 Q508.0078,69.6484 507.0117,70.0586 Q505.7031,70.625 504.1016,70.625 Q502.2266,70.625 500.7227,69.8828 Q499.5117,69.2969 498.6523,68.0273 Q497.8125,66.7578 497.8125,65.2539 L497.8125,63.8867 Q497.8125,62.3242 498.5547,60.957 Q499.3164,59.5898 500.625,58.8672 Q501.9531,58.125 503.4375,58.125 Q504.3359,58.125 505.1172,58.4375 Q505.8984,58.75 506.5625,59.375 Z " fill="#000000"/><text fill="#000000" font-family="sans-serif" font-size="15" lengthAdjust="spacingAndGlyphs" textLength="103.75" x="527.1875" y="69.8877">CourierScooter</text><line style="stroke: #A80036; stroke-width: 1.875;" x1="461.25" x2="658.75" y1="83.75" y2="83.75"/><rect fill="none" height="7.5" style="stroke: #C82930; stroke-width: 1.25;" width="7.5" x="470" y="93.75"/><text fill="#000000" font-family="sans-serif" font-size="13.75" lengthAdjust="spacingAndGlyphs" textLength="66.25" x="485" y="103.0237">date dateIn</text><rect fill="none" height="7.5" style="stroke: #C82930; stroke-width: 1.25;" width="7.5" x="470" y="111.0449"/><text fill="#000000" font-family="sans-serif" font-size="13.75" lengthAdjust="spacingAndGlyphs" textLength="77.5" x="485" y="120.3186">date dateOut</text><rect fill="none" height="7.5" style="stroke: #C82930; stroke-width: 1.25;" width="7.5" x="470" y="128.3398"/><text fill="#000000" font-family="sans-serif" font-size="13.75" lengthAdjust="spacingAndGlyphs" textLength="160" x="485" y="137.6135">NUMBER courierID_courier</text><rect fill="none" height="7.5" style="stroke: #C82930; stroke-width: 1.25;" width="7.5" x="470" y="145.6348"/><text fill="#000000" font-family="sans-serif" font-size="13.75" lengthAdjust="spacingAndGlyphs" textLength="167.5" x="485" y="154.9084">NUMBER scooterID_scooter</text><line style="stroke: #A80036; stroke-width: 1.875;" x1="461.25" x2="658.75" y1="162.9297" y2="162.9297"/><!--MD5=[c6a2171c11447acbe08a3dfeee0e1710]
class Courier--><rect codeLine="44" fill="#FEFECE" filter="url(#fzotdeqm2rh0c)" height="198.3594" id="Courier" style="stroke: #A80036; stroke-width: 1.875;" width="252.5" x="703.75" y="8.75"/><ellipse cx="799.0625" cy="28.75" fill="#ADD1B2" rx="13.75" ry="13.75" style="stroke: #A80036; stroke-width: 1.25;"/><path d="M801.5625,24.375 Q801.8164,23.75 802.1094,23.4375 Q802.4023,23.125 802.7344,23.125 Q803.3203,23.125 803.6914,23.4766 Q804.0625,23.8281 804.0625,24.6484 L804.0625,26.6016 Q804.0625,27.4219 803.7109,27.7734 Q803.3594,28.125 802.8125,28.125 Q802.3242,28.125 802.0117,27.9102 Q801.6992,27.6953 801.5625,27.1289 Q801.5039,26.7383 801.2891,26.5234 Q800.8984,26.1133 800.1953,25.8789 Q799.4922,25.625 798.7891,25.625 Q797.9102,25.625 797.168,25.9766 Q796.4453,26.3281 795.8789,27.1094 Q795.3125,27.8906 795.3125,28.9648 L795.3125,30.1172 Q795.3125,31.4063 796.3672,32.2656 Q797.4219,33.125 799.2969,33.125 Q800.4102,33.125 801.1914,32.8711 Q801.6406,32.7344 802.1484,32.2852 Q802.4805,32.0313 802.6563,31.9531 Q802.832,31.875 803.0469,31.875 Q803.457,31.875 803.75,32.207 Q804.0625,32.5195 804.0625,32.9688 Q804.0625,33.3984 803.6328,33.9063 Q803.0078,34.6484 802.0117,35.0586 Q800.7031,35.625 799.1016,35.625 Q797.2266,35.625 795.7227,34.8828 Q794.5117,34.2969 793.6523,33.0273 Q792.8125,31.7578 792.8125,30.2539 L792.8125,28.8867 Q792.8125,27.3242 793.5547,25.957 Q794.3164,24.5898 795.625,23.8672 Q796.9531,23.125 798.4375,23.125 Q799.3359,23.125 800.1172,23.4375 Q800.8984,23.75 801.5625,24.375 Z " fill="#000000"/><text fill="#000000" font-family="sans-serif" font-size="15" lengthAdjust="spacingAndGlyphs" textLength="51.25" x="824.6875" y="34.8877">Courier</text><line style="stroke: #A80036; stroke-width: 1.875;" x1="705" x2="955" y1="48.75" y2="48.75"/><rect fill="none" height="7.5" style="stroke: #C82930; stroke-width: 1.25;" width="7.5" x="713.75" y="58.75"/><text fill="#000000" font-family="sans-serif" font-size="13.75" lengthAdjust="spacingAndGlyphs" textLength="152.5" x="728.75" y="68.0237">NUMBER ID_courier «PK»</text><rect fill="none" height="7.5" style="stroke: #C82930; stroke-width: 1.25;" width="7.5" x="713.75" y="76.0449"/><text fill="#000000" font-family="sans-serif" font-size="13.75" lengthAdjust="spacingAndGlyphs" textLength="220" x="728.75" y="85.3186">VARCAHR2 name_courierID_courier</text><rect fill="none" height="7.5" style="stroke: #C82930; stroke-width: 1.25;" width="7.5" x="713.75" y="93.3398"/><text fill="#000000" font-family="sans-serif" font-size="13.75" lengthAdjust="spacingAndGlyphs" textLength="85" x="728.75" y="102.6135">NUMBER NISS</text><rect fill="none" height="7.5" style="stroke: #C82930; stroke-width: 1.25;" width="7.5" x="713.75" y="110.6348"/><text fill="#000000" font-family="sans-serif" font-size="13.75" lengthAdjust="spacingAndGlyphs" textLength="125" x="728.75" y="119.9084">NUMBER NIF_courier</text><rect fill="none" height="7.5" style="stroke: #C82930; stroke-width: 1.25;" width="7.5" x="713.75" y="127.9297"/><text fill="#000000" font-family="sans-serif" font-size="13.75" lengthAdjust="spacingAndGlyphs" textLength="85" x="728.75" y="137.2034">double weight</text><rect fill="none" height="7.5" style="stroke: #C82930; stroke-width: 1.25;" width="7.5" x="713.75" y="145.2246"/><text fill="#000000" font-family="sans-serif" font-size="13.75" lengthAdjust="spacingAndGlyphs" textLength="168.75" x="728.75" y="154.4983">NUMBER ScooterId_Scooter</text><rect fill="none" height="7.5" style="stroke: #C82930; stroke-width: 1.25;" width="7.5" x="713.75" y="162.5195"/><text fill="#000000" font-family="sans-serif" font-size="13.75" lengthAdjust="spacingAndGlyphs" textLength="195" x="728.75" y="171.7932">NUMBER PharmacyID_pharmacy</text><rect fill="none" height="7.5" style="stroke: #C82930; stroke-width: 1.25;" width="7.5" x="713.75" y="179.8145"/><text fill="#000000" font-family="sans-serif" font-size="13.75" lengthAdjust="spacingAndGlyphs" textLength="170" x="728.75" y="189.0881">VARCHAR2 Useruser_email</text><line style="stroke: #A80036; stroke-width: 1.875;" x1="705" x2="955" y1="197.1094" y2="197.1094"/><!--MD5=[598d8caf3ab5d51980b1e8af477eee20]
link Scooter to ParkingSlotScootersUsage--><path codeLine="56" d="M285,209.215 C285,230.3575 285,252.3 285,272.245 " fill="none" id="Scooter-ParkingSlotScootersUsage" style="stroke: #A80036; stroke-width: 1.25;"/><line style="stroke: #A80036; stroke-width: 1.25;" x1="285" x2="292.5" y1="272.4788" y2="282.4788"/><line style="stroke: #A80036; stroke-width: 1.25;" x1="285" x2="277.5" y1="272.4788" y2="282.4788"/><line style="stroke: #A80036; stroke-width: 1.25;" x1="285" x2="285" y1="272.4788" y2="282.4788"/><ellipse cx="285" cy="264.9788" fill="none" rx="5" ry="5" style="stroke: #A80036; stroke-width: 1.25;"/><line style="stroke: #A80036; stroke-width: 1.25;" x1="285" x2="285" y1="212.7775" y2="199.0275"/><ellipse cx="285" cy="212.7775" fill="none" rx="5" ry="5" style="stroke: #A80036; stroke-width: 1.25;"/><line style="stroke: #A80036; stroke-width: 1.25;" x1="280" x2="290" y1="204.0275" y2="204.0275"/><!--MD5=[1a0ee94305fae30e9ac7223ae30f2622]
link ParkingSlotScootersUsage to ParkingSlotScooters--><path codeLine="57" d="M285,421.6925 C285,439.535 285,458.4913 285,475.925 " fill="none" id="ParkingSlotScootersUsage-ParkingSlotScooters" style="stroke: #A80036; stroke-width: 1.25;"/><line style="stroke: #A80036; stroke-width: 1.25;" x1="285" x2="285" y1="472.2425" y2="485.9925"/><ellipse cx="285" cy="472.2425" fill="none" rx="5" ry="5" style="stroke: #A80036; stroke-width: 1.25;"/><line style="stroke: #A80036; stroke-width: 1.25;" x1="290" x2="280" y1="480.9925" y2="480.9925"/><line style="stroke: #A80036; stroke-width: 1.25;" x1="285" x2="277.5" y1="421.3613" y2="411.3613"/><line style="stroke: #A80036; stroke-width: 1.25;" x1="285" x2="292.5" y1="421.3613" y2="411.3613"/><line style="stroke: #A80036; stroke-width: 1.25;" x1="285" x2="285" y1="421.3613" y2="411.3613"/><ellipse cx="285" cy="428.8613" fill="none" rx="5" ry="5" style="stroke: #A80036; stroke-width: 1.25;"/><!--MD5=[38d6dca94a58c5c66961acd142e9a80b]
link ParkingSlotScooters to State_of_use_type--><path codeLine="58" d="M337.0137,606.9738 C352.7475,626.0988 369.8837,646.9275 385.11,665.435 " fill="none" id="ParkingSlotScooters-State_of_use_type" style="stroke: #A80036; stroke-width: 1.25;"/><line style="stroke: #A80036; stroke-width: 1.25;" x1="382.7722" x2="391.5087" y1="662.5952" y2="673.2129"/><ellipse cx="382.7722" cy="662.5952" fill="none" rx="5" ry="5" style="stroke: #A80036; stroke-width: 1.25;"/><line style="stroke: #A80036; stroke-width: 1.25;" x1="392.1928" x2="384.4708" y1="666.175" y2="672.5288"/><line style="stroke: #A80036; stroke-width: 1.25;" x1="336.8343" x2="324.6893" y1="606.7551" y2="603.7973"/><line style="stroke: #A80036; stroke-width: 1.25;" x1="336.8343" x2="336.2732" y1="606.7551" y2="594.2677"/><line style="stroke: #A80036; stroke-width: 1.25;" x1="336.8343" x2="330.4813" y1="606.7551" y2="599.0325"/><ellipse cx="341.5991" cy="612.5471" fill="none" rx="5" ry="5" style="stroke: #A80036; stroke-width: 1.25;"/><!--MD5=[29428014ea447c5833ab8fd374be4fb6]
link ParkingSlotScooters to ParkingSlot--><path codeLine="59" d="M232.9863,606.9738 C217.2525,626.0988 200.1162,646.9275 184.89,665.435 " fill="none" id="ParkingSlotScooters-ParkingSlot" style="stroke: #A80036; stroke-width: 1.25;"/><line style="stroke: #A80036; stroke-width: 1.25;" x1="187.2278" x2="178.4913" y1="662.5952" y2="673.2129"/><ellipse cx="187.2278" cy="662.5952" fill="none" rx="5" ry="5" style="stroke: #A80036; stroke-width: 1.25;"/><line style="stroke: #A80036; stroke-width: 1.25;" x1="185.5292" x2="177.8072" y1="672.5288" y2="666.175"/><line style="stroke: #A80036; stroke-width: 1.25;" x1="230.7833" x2="239.5188" y1="609.6511" y2="599.0325"/><ellipse cx="230.7833" cy="609.6511" fill="none" rx="5" ry="5" style="stroke: #A80036; stroke-width: 1.25;"/><line style="stroke: #A80036; stroke-width: 1.25;" x1="232.4809" x2="240.2035" y1="599.7173" y2="606.0703"/><!--MD5=[d46b50136beccecd7e4fa57e1b0c2400]
link Scooter to CourierScooter--><path codeLine="60" d="M426.7012,108.125 C434.27,108.125 441.8375,108.125 449.4063,108.125 " fill="none" id="Scooter-CourierScooter" style="stroke: #A80036; stroke-width: 1.25;"/><line style="stroke: #A80036; stroke-width: 1.25;" x1="449.7263" x2="459.7263" y1="108.125" y2="100.625"/><line style="stroke: #A80036; stroke-width: 1.25;" x1="449.7263" x2="459.7263" y1="108.125" y2="115.625"/><line style="stroke: #A80036; stroke-width: 1.25;" x1="449.7263" x2="459.7263" y1="108.125" y2="108.125"/><ellipse cx="442.2263" cy="108.125" fill="none" rx="5" ry="5" style="stroke: #A80036; stroke-width: 1.25;"/><line style="stroke: #A80036; stroke-width: 1.25;" x1="430.3413" x2="416.5913" y1="108.125" y2="108.125"/><ellipse cx="430.3413" cy="108.125" fill="none" rx="5" ry="5" style="stroke: #A80036; stroke-width: 1.25;"/><line style="stroke: #A80036; stroke-width: 1.25;" x1="421.5913" x2="421.5913" y1="113.125" y2="103.125"/><!--MD5=[e1c533f90931749784f45edd21a216f1]
link CourierScooter to Courier--><path codeLine="61" d="M670.3775,108.125 C678.0012,108.125 685.6238,108.125 693.2462,108.125 " fill="none" id="CourierScooter-Courier" style="stroke: #A80036; stroke-width: 1.25;"/><line style="stroke: #A80036; stroke-width: 1.25;" x1="689.8913" x2="703.6413" y1="108.125" y2="108.125"/><ellipse cx="689.8913" cy="108.125" fill="none" rx="5" ry="5" style="stroke: #A80036; stroke-width: 1.25;"/><line style="stroke: #A80036; stroke-width: 1.25;" x1="698.6413" x2="698.6413" y1="103.125" y2="113.125"/><line style="stroke: #A80036; stroke-width: 1.25;" x1="670.195" x2="660.195" y1="108.125" y2="115.625"/><line style="stroke: #A80036; stroke-width: 1.25;" x1="670.195" x2="660.195" y1="108.125" y2="100.625"/><line style="stroke: #A80036; stroke-width: 1.25;" x1="670.195" x2="660.195" y1="108.125" y2="108.125"/><ellipse cx="677.695" cy="108.125" fill="none" rx="5" ry="5" style="stroke: #A80036; stroke-width: 1.25;"/><!--MD5=[3dff98b257f8e9deb39faf1c8a617311]
@startuml
'skinparam linetype polyline


class Scooter {
    -NUMBER id_scooter «PK»
    -double max_Battery_Capacity
    -double state_Of_Charge
    -double power_Output
    -double weight
    -double max_payload
    -NUMBER PharmacyID_pharmacy «FK»
}

class ParkingSlotScootersUsage {
    -date dateIn «PK»
    -date dateOut
    -NUMBER ScooterId_Scooter «PK,FK»
    -NUMBER ParkingSlotsScootersParkingSlotId_parkingSlot «PK,FK»
}

class ParkingSlot{
    -NUMBER ID_parkingSlot «PK»
    -NUMBER PharmacyID_pharmacy «FK»
}

class ParkingSlotScooters{
    -CHAR has_charging_capabilities
    -NUMBER State_of_use_typeID_state_of_use «FK»
    -NUMBER ParkingSlotID_parkingSlot «PK,FK»
}

class State_of_use_type{
    -NUMBER ID_state_of_use «PK»
    -VARCHAR2 name_state_of_use
}

class CourierScooter{
    -date dateIn
    -date dateOut
    -NUMBER courierID_courier
    -NUMBER scooterID_scooter
}

class Courier{
    -NUMBER ID_courier «PK»
    -VARCAHR2 name_courierID_courier
    -NUMBER NISS
    -NUMBER NIF_courier
    -double weight
    -NUMBER ScooterId_Scooter
    -NUMBER PharmacyID_pharmacy
    -VARCHAR2 Useruser_email
}


Scooter |o- -o{ ParkingSlotScootersUsage
ParkingSlotScootersUsage }o- -o| ParkingSlotScooters
ParkingSlotScooters }o- -o| State_of_use_type
ParkingSlotScooters |o- -o| ParkingSlot
Scooter |o-o{ CourierScooter
CourierScooter }o-o| Courier

@enduml

@startuml


class Scooter {
    -NUMBER id_scooter «PK»
    -double max_Battery_Capacity
    -double state_Of_Charge
    -double power_Output
    -double weight
    -double max_payload
    -NUMBER PharmacyID_pharmacy «FK»
}

class ParkingSlotScootersUsage {
    -date dateIn «PK»
    -date dateOut
    -NUMBER ScooterId_Scooter «PK,FK»
    -NUMBER ParkingSlotsScootersParkingSlotId_parkingSlot «PK,FK»
}

class ParkingSlot{
    -NUMBER ID_parkingSlot «PK»
    -NUMBER PharmacyID_pharmacy «FK»
}

class ParkingSlotScooters{
    -CHAR has_charging_capabilities
    -NUMBER State_of_use_typeID_state_of_use «FK»
    -NUMBER ParkingSlotID_parkingSlot «PK,FK»
}

class State_of_use_type{
    -NUMBER ID_state_of_use «PK»
    -VARCHAR2 name_state_of_use
}

class CourierScooter{
    -date dateIn
    -date dateOut
    -NUMBER courierID_courier
    -NUMBER scooterID_scooter
}

class Courier{
    -NUMBER ID_courier «PK»
    -VARCAHR2 name_courierID_courier
    -NUMBER NISS
    -NUMBER NIF_courier
    -double weight
    -NUMBER ScooterId_Scooter
    -NUMBER PharmacyID_pharmacy
    -VARCHAR2 Useruser_email
}


Scooter |o- -o{ ParkingSlotScootersUsage
ParkingSlotScootersUsage }o- -o| ParkingSlotScooters
ParkingSlotScooters }o- -o| State_of_use_type
ParkingSlotScooters |o- -o| ParkingSlot
Scooter |o-o{ CourierScooter
CourierScooter }o-o| Courier

@enduml

PlantUML version 1.2020.20(Sat Nov 21 10:02:45 GMT 2020)
(GPL source distribution)
Java Runtime: OpenJDK Runtime Environment
JVM: OpenJDK 64-Bit Server VM
Default Encoding: Cp1252
Language: pt
Country: PT
--></g></svg>