<?xml version="1.0" encoding="UTF-8" standalone="no"?><svg xmlns="http://www.w3.org/2000/svg" xmlns:xlink="http://www.w3.org/1999/xlink" contentScriptType="application/ecmascript" contentStyleType="text/css" height="111.6px" preserveAspectRatio="none" style="width:110px;height:111px;" version="1.1" viewBox="0 0 110 111" width="110.7px" zoomAndPan="magnify"><defs><filter height="300%" id="fuv6i67y3cnic" width="300%" x="-1" y="-1"><feGaussianBlur result="blurOut" stdDeviation="1.8"/><feColorMatrix in="blurOut" result="blurOut2" type="matrix" values="0 0 0 0 0 0 0 0 0 0 0 0 0 0 0 0 0 0 .4 0"/><feOffset dx="3.6" dy="3.6" in="blurOut2" result="blurOut3"/><feBlend in="SourceGraphic" in2="blurOut3" mode="normal"/></filter></defs><g><!--MD5=[cf4d6237fcae255cd2e1656cf84a30e2]
class Order--><rect codeLine="3" fill="#FEFECE" filter="url(#fuv6i67y3cnic)" height="93.0094" id="Order" style="stroke:#A80036;stroke-width:1.35;" width="91.8" x="6.3" y="6.3"/><ellipse cx="35.595" cy="20.7" fill="#ADD1B2" rx="9.9" ry="9.9" style="stroke:#A80036;stroke-width:0.9;"/><path d="M37.395,17.55 Q37.5778,17.1 37.7888,16.875 Q37.9997,16.65 38.2387,16.65 Q38.6606,16.65 38.9278,16.9031 Q39.195,17.1563 39.195,17.7469 L39.195,19.1531 Q39.195,19.7438 38.9419,19.9969 Q38.6888,20.25 38.295,20.25 Q37.9434,20.25 37.7184,20.0953 Q37.4934,19.9406 37.395,19.5328 Q37.3528,19.2516 37.1981,19.0969 Q36.9169,18.8016 36.4106,18.6328 Q35.9044,18.45 35.3981,18.45 Q34.7653,18.45 34.2309,18.7031 Q33.7106,18.9563 33.3028,19.5188 Q32.895,20.0813 32.895,20.8547 L32.895,21.6844 Q32.895,22.6125 33.6544,23.2313 Q34.4138,23.85 35.7638,23.85 Q36.5653,23.85 37.1278,23.6672 Q37.4513,23.5688 37.8169,23.2453 Q38.0559,23.0625 38.1825,23.0063 Q38.3091,22.95 38.4638,22.95 Q38.7591,22.95 38.97,23.1891 Q39.195,23.4141 39.195,23.7375 Q39.195,24.0469 38.8856,24.4125 Q38.4356,24.9469 37.7184,25.2422 Q36.7763,25.65 35.6231,25.65 Q34.2731,25.65 33.1903,25.1156 Q32.3184,24.6938 31.6997,23.7797 Q31.095,22.8656 31.095,21.7828 L31.095,20.7984 Q31.095,19.6734 31.6294,18.6891 Q32.1778,17.7047 33.12,17.1844 Q34.0763,16.65 35.145,16.65 Q35.7919,16.65 36.3544,16.875 Q36.9169,17.1 37.395,17.55 Z " fill="#000000"/><text fill="#000000" font-family="sans-serif" font-size="10.8" lengthAdjust="spacingAndGlyphs" textLength="27.9" x="51.705" y="25.1191">Order</text><line style="stroke:#A80036;stroke-width:1.35;" x1="7.2" x2="97.2" y1="35.1" y2="35.1"/><rect fill="none" height="5.4" style="stroke:#C82930;stroke-width:0.9;" width="5.4" x="13.5" y="42.3"/><text fill="#000000" font-family="sans-serif" font-size="9.9" lengthAdjust="spacingAndGlyphs" textLength="46.8" x="24.3" y="48.9771">int orderID;</text><rect fill="none" height="5.4" style="stroke:#C82930;stroke-width:0.9;" width="5.4" x="13.5" y="54.7523"/><text fill="#000000" font-family="sans-serif" font-size="9.9" lengthAdjust="spacingAndGlyphs" textLength="45.9" x="24.3" y="61.4294">int clientID;</text><rect fill="none" height="5.4" style="stroke:#C82930;stroke-width:0.9;" width="5.4" x="13.5" y="67.2047"/><text fill="#000000" font-family="sans-serif" font-size="9.9" lengthAdjust="spacingAndGlyphs" textLength="68.4" x="24.3" y="73.8817">Date orderDate;</text><rect fill="none" height="5.4" style="stroke:#C82930;stroke-width:0.9;" width="5.4" x="13.5" y="79.657"/><text fill="#000000" font-family="sans-serif" font-size="9.9" lengthAdjust="spacingAndGlyphs" textLength="36.9" x="24.3" y="86.3341">int state;</text><line style="stroke:#A80036;stroke-width:1.35;" x1="7.2" x2="97.2" y1="92.1094" y2="92.1094"/><!--MD5=[0f31977b0ae6a6a33b1a0e3c96ed86f1]
@startuml
'skinparam linetype polyline

class Order {
    -int orderID;
    -int clientID;
    -Date orderDate;
    -int state;
}


@enduml

@startuml

class Order {
    -int orderID;
    -int clientID;
    -Date orderDate;
    -int state;
}


@enduml

PlantUML version 1.2020.23(Sun Dec 13 19:14:58 GMT 2020)
(GPL source distribution)
Java Runtime: OpenJDK Runtime Environment
JVM: OpenJDK 64-Bit Server VM
Default Encoding: Cp1252
Language: en
Country: US
--></g></svg>