<?xml version="1.0" encoding="UTF-8" standalone="no"?><svg xmlns="http://www.w3.org/2000/svg" xmlns:xlink="http://www.w3.org/1999/xlink" contentScriptType="application/ecmascript" contentStyleType="text/css" height="241.2px" preserveAspectRatio="none" style="width:151px;height:241px;" version="1.1" viewBox="0 0 151 241" width="151.2px" zoomAndPan="magnify"><defs><filter height="300%" id="f11ofi60cryx02" width="300%" x="-1" y="-1"><feGaussianBlur result="blurOut" stdDeviation="1.8"/><feColorMatrix in="blurOut" result="blurOut2" type="matrix" values="0 0 0 0 0 0 0 0 0 0 0 0 0 0 0 0 0 0 .4 0"/><feOffset dx="3.6" dy="3.6" in="blurOut2" result="blurOut3"/><feBlend in="SourceGraphic" in2="blurOut3" mode="normal"/></filter></defs><g><rect fill="#FFFFFF" filter="url(#f11ofi60cryx02)" height="25.2" style="stroke:#A80036;stroke-width:0.9;" width="9" x="23.4" y="116.9648"/><line style="stroke:#A80036;stroke-width:0.9;stroke-dasharray:5.0,5.0;" x1="27.9" x2="27.9" y1="80.6484" y2="164.6648"/><text fill="#000000" font-family="sans-serif" font-size="12.6" lengthAdjust="spacingAndGlyphs" textLength="41.4" x="4.5" y="77.8799">System</text><ellipse cx="27.9" cy="13.5" fill="#FEFECE" filter="url(#f11ofi60cryx02)" rx="7.2" ry="7.2" style="stroke:#A80036;stroke-width:1.8;"/><path d="M27.9,20.7 L27.9,45 M16.2,27.9 L39.6,27.9 M27.9,45 L16.2,58.5 M27.9,45 L39.6,58.5 " fill="none" filter="url(#f11ofi60cryx02)" style="stroke:#A80036;stroke-width:1.8;"/><text fill="#000000" font-family="sans-serif" font-size="12.6" lengthAdjust="spacingAndGlyphs" textLength="41.4" x="4.5" y="176.8447">System</text><ellipse cx="27.9" cy="188.6133" fill="#FEFECE" filter="url(#f11ofi60cryx02)" rx="7.2" ry="7.2" style="stroke:#A80036;stroke-width:1.8;"/><path d="M27.9,195.8133 L27.9,220.1133 M16.2,203.0133 L39.6,203.0133 M27.9,220.1133 L16.2,233.6133 M27.9,220.1133 L39.6,233.6133 " fill="none" filter="url(#f11ofi60cryx02)" style="stroke:#A80036;stroke-width:1.8;"/><rect fill="#FFFFFF" filter="url(#f11ofi60cryx02)" height="25.2" style="stroke:#A80036;stroke-width:0.9;" width="9" x="23.4" y="116.9648"/><line style="stroke:#A80036;stroke-width:0.9;" x1="32.4" x2="70.2" y1="109.7648" y2="109.7648"/><line style="stroke:#A80036;stroke-width:0.9;" x1="70.2" x2="70.2" y1="109.7648" y2="121.4648"/><line style="stroke:#A80036;stroke-width:0.9;" x1="33.3" x2="70.2" y1="121.4648" y2="121.4648"/><polygon fill="#A80036" points="42.3,117.8648,33.3,121.4648,42.3,125.0648,38.7,121.4648" style="stroke:#A80036;stroke-width:0.9;"/><text fill="#000000" font-family="sans-serif" font-size="11.7" font-weight="bold" lengthAdjust="spacingAndGlyphs" textLength="6.3" x="38.7" y="105.394">1</text><text fill="#000000" font-family="sans-serif" font-size="11.7" lengthAdjust="spacingAndGlyphs" textLength="96.3" x="48.6" y="105.394">get pending orders</text><!--MD5=[2b5384359b4d7b2d9ac09e7b1f7af00c]
@startuml
autonumber
actor "System" as SYS

SYS -> SYS : get pending orders
activate SYS
deactivate SYS

@enduml

PlantUML version 1.2020.23(Sun Dec 13 19:14:58 GMT 2020)
(GPL source distribution)
Java Runtime: OpenJDK Runtime Environment
JVM: OpenJDK 64-Bit Server VM
Default Encoding: Cp1252
Language: en
Country: US
--></g></svg>