<?xml version="1.0" encoding="UTF-8" standalone="no"?><svg xmlns="http://www.w3.org/2000/svg" xmlns:xlink="http://www.w3.org/1999/xlink" contentScriptType="application/ecmascript" contentStyleType="text/css" height="443px" preserveAspectRatio="none" style="width:219px;height:443px;" version="1.1" viewBox="0 0 219 443" width="219px" zoomAndPan="magnify"><defs><filter height="300%" id="fr2lbsw0pvhk1" width="300%" x="-1" y="-1"><feGaussianBlur result="blurOut" stdDeviation="2.0"/><feColorMatrix in="blurOut" result="blurOut2" type="matrix" values="0 0 0 0 0 0 0 0 0 0 0 0 0 0 0 0 0 0 .4 0"/><feOffset dx="4.0" dy="4.0" in="blurOut2" result="blurOut3"/><feBlend in="SourceGraphic" in2="blurOut3" mode="normal"/></filter></defs><g><!--MD5=[cf4d6237fcae255cd2e1656cf84a30e2]
class Order--><rect codeLine="6" fill="#FEFECE" filter="url(#fr2lbsw0pvhk1)" height="200.1953" id="Order" style="stroke:#A80036;stroke-width:1.5;" width="160" x="23.5" y="7"/><ellipse cx="83.75" cy="23" fill="#ADD1B2" rx="11" ry="11" style="stroke:#A80036;stroke-width:1.0;"/><path d="M85.75,19.5 Q85.9531,19 86.1875,18.75 Q86.4219,18.5 86.6875,18.5 Q87.1563,18.5 87.4531,18.7813 Q87.75,19.0625 87.75,19.7188 L87.75,21.2813 Q87.75,21.9375 87.4688,22.2188 Q87.1875,22.5 86.75,22.5 Q86.3594,22.5 86.1094,22.3281 Q85.8594,22.1563 85.75,21.7031 Q85.7031,21.3906 85.5313,21.2188 Q85.2188,20.8906 84.6563,20.7031 Q84.0938,20.5 83.5313,20.5 Q82.8281,20.5 82.2344,20.7813 Q81.6563,21.0625 81.2031,21.6875 Q80.75,22.3125 80.75,23.1719 L80.75,24.0938 Q80.75,25.125 81.5938,25.8125 Q82.4375,26.5 83.9375,26.5 Q84.8281,26.5 85.4531,26.2969 Q85.8125,26.1875 86.2188,25.8281 Q86.4844,25.625 86.625,25.5625 Q86.7656,25.5 86.9375,25.5 Q87.2656,25.5 87.5,25.7656 Q87.75,26.0156 87.75,26.375 Q87.75,26.7188 87.4063,27.125 Q86.9063,27.7188 86.1094,28.0469 Q85.0625,28.5 83.7813,28.5 Q82.2813,28.5 81.0781,27.9063 Q80.1094,27.4375 79.4219,26.4219 Q78.75,25.4063 78.75,24.2031 L78.75,23.1094 Q78.75,21.8594 79.3438,20.7656 Q79.9531,19.6719 81,19.0938 Q82.0625,18.5 83.25,18.5 Q83.9688,18.5 84.5938,18.75 Q85.2188,19 85.75,19.5 Z " fill="#000000"/><text fill="#000000" font-family="sans-serif" font-size="12" lengthAdjust="spacingAndGlyphs" textLength="31" x="104.25" y="27.9102">Order</text><line style="stroke:#A80036;stroke-width:1.5;" x1="24.5" x2="182.5" y1="39" y2="39"/><text fill="#000000" font-family="sans-serif" font-size="11" lengthAdjust="spacingAndGlyphs" textLength="97" x="29.5" y="54.4189">-String orderId «PK»</text><text fill="#000000" font-family="sans-serif" font-size="11" lengthAdjust="spacingAndGlyphs" textLength="112" x="29.5" y="68.2549">-String clientId «PK,FK»</text><text fill="#000000" font-family="sans-serif" font-size="11" lengthAdjust="spacingAndGlyphs" textLength="42" x="29.5" y="82.0908">-int state</text><line style="stroke:#A80036;stroke-width:1.5;" x1="24.5" x2="182.5" y1="88.5078" y2="88.5078"/><text fill="#000000" font-family="sans-serif" font-size="11" lengthAdjust="spacingAndGlyphs" textLength="148" x="29.5" y="103.9268">+Order(orderID, clientNIF, cart)</text><text fill="#000000" font-family="sans-serif" font-size="11" lengthAdjust="spacingAndGlyphs" textLength="80" x="29.5" y="117.7627">+makePayment()</text><text fill="#000000" font-family="sans-serif" font-size="11" lengthAdjust="spacingAndGlyphs" textLength="91" x="29.5" y="131.5986">+generateInvoice()</text><text fill="#000000" font-family="sans-serif" font-size="11" lengthAdjust="spacingAndGlyphs" textLength="100" x="29.5" y="145.4346">+calculatePrice(cart)</text><text fill="#000000" font-family="sans-serif" font-size="11" lengthAdjust="spacingAndGlyphs" textLength="112" x="29.5" y="159.2705">+addClientOrder(order)</text><text fill="#000000" font-family="sans-serif" font-size="11" lengthAdjust="spacingAndGlyphs" textLength="119" x="29.5" y="173.1064">+updateState(newState)</text><text fill="#000000" font-family="sans-serif" font-size="11" lengthAdjust="spacingAndGlyphs" textLength="129" x="29.5" y="186.9424">+updateStateToDelivered()</text><text fill="#000000" font-family="sans-serif" font-size="11" lengthAdjust="spacingAndGlyphs" textLength="113" x="29.5" y="200.7783">+getAllPendingOrders()</text><!--MD5=[7f8ba452e770dbfb21ec284bbfea5c40]
class ClientOrderDB--><rect codeLine="20" fill="#FEFECE" filter="url(#fr2lbsw0pvhk1)" height="144.8516" id="ClientOrderDB" style="stroke:#A80036;stroke-width:1.5;" width="193" x="7" y="285"/><ellipse cx="59.25" cy="301" fill="#ADD1B2" rx="11" ry="11" style="stroke:#A80036;stroke-width:1.0;"/><path d="M61.25,297.5 Q61.4531,297 61.6875,296.75 Q61.9219,296.5 62.1875,296.5 Q62.6563,296.5 62.9531,296.7813 Q63.25,297.0625 63.25,297.7188 L63.25,299.2813 Q63.25,299.9375 62.9688,300.2188 Q62.6875,300.5 62.25,300.5 Q61.8594,300.5 61.6094,300.3281 Q61.3594,300.1563 61.25,299.7031 Q61.2031,299.3906 61.0313,299.2188 Q60.7188,298.8906 60.1563,298.7031 Q59.5938,298.5 59.0313,298.5 Q58.3281,298.5 57.7344,298.7813 Q57.1563,299.0625 56.7031,299.6875 Q56.25,300.3125 56.25,301.1719 L56.25,302.0938 Q56.25,303.125 57.0938,303.8125 Q57.9375,304.5 59.4375,304.5 Q60.3281,304.5 60.9531,304.2969 Q61.3125,304.1875 61.7188,303.8281 Q61.9844,303.625 62.125,303.5625 Q62.2656,303.5 62.4375,303.5 Q62.7656,303.5 63,303.7656 Q63.25,304.0156 63.25,304.375 Q63.25,304.7188 62.9063,305.125 Q62.4063,305.7188 61.6094,306.0469 Q60.5625,306.5 59.2813,306.5 Q57.7813,306.5 56.5781,305.9063 Q55.6094,305.4375 54.9219,304.4219 Q54.25,303.4063 54.25,302.2031 L54.25,301.1094 Q54.25,299.8594 54.8438,298.7656 Q55.4531,297.6719 56.5,297.0938 Q57.5625,296.5 58.75,296.5 Q59.4688,296.5 60.0938,296.75 Q60.7188,297 61.25,297.5 Z " fill="#000000"/><text fill="#000000" font-family="sans-serif" font-size="12" lengthAdjust="spacingAndGlyphs" textLength="80" x="79.75" y="305.9102">ClientOrderDB</text><line style="stroke:#A80036;stroke-width:1.5;" x1="8" x2="199" y1="317" y2="317"/><line style="stroke:#A80036;stroke-width:1.5;" x1="8" x2="199" y1="325" y2="325"/><text fill="#000000" font-family="sans-serif" font-size="11" lengthAdjust="spacingAndGlyphs" textLength="147" x="13" y="340.4189">+getLastClientOrderID(clientID)</text><text fill="#000000" font-family="sans-serif" font-size="11" lengthAdjust="spacingAndGlyphs" textLength="102" x="13" y="354.2549">+addClientOrder(ord)</text><text fill="#000000" font-family="sans-serif" font-size="11" lengthAdjust="spacingAndGlyphs" textLength="181" x="13" y="368.0908">-addClientOrder(clientID, date, status)</text><text fill="#000000" font-family="sans-serif" font-size="11" lengthAdjust="spacingAndGlyphs" textLength="177" x="13" y="381.9268">+updateOrderStatus(orderID, status)</text><text fill="#000000" font-family="sans-serif" font-size="11" lengthAdjust="spacingAndGlyphs" textLength="139" x="13" y="395.7627">+removeClientOrder(orderID)</text><text fill="#000000" font-family="sans-serif" font-size="11" lengthAdjust="spacingAndGlyphs" textLength="106" x="13" y="409.5986">+getAllReadyOrders()</text><text fill="#000000" font-family="sans-serif" font-size="11" lengthAdjust="spacingAndGlyphs" textLength="113" x="13" y="423.4346">+getAllPendingOrders()</text><!--MD5=[4f5ea4e0fff35c22515340b8d656a8c5]
link Order to ClientOrderDB--><path codeLine="30" d="M103.5,207.29 C103.5,231.42 103.5,256.86 103.5,279.76 " fill="none" id="Order-to-ClientOrderDB" style="stroke:#A80036;stroke-width:1.0;stroke-dasharray:7.0,7.0;"/><polygon fill="#A80036" points="103.5,284.92,107.5,275.92,103.5,279.92,99.5,275.92,103.5,284.92" style="stroke:#A80036;stroke-width:1.0;"/><text fill="#000000" font-family="sans-serif" font-size="13" lengthAdjust="spacingAndGlyphs" textLength="107" x="104.5" y="251.4951">get pending orders</text><!--MD5=[b896a4d1a6ff60335aa620c69a5dd09e]
@startuml
skinparam classAttributeIconSize 0

'left to right direction


class Order {
    -String orderId «PK»
    -String clientId «PK,FK»
    -int state
    +Order(orderID, clientNIF, cart)
    +makePayment()
    +generateInvoice()
    +calculatePrice(cart)
    +addClientOrder(order)
    +updateState(newState)
    +updateStateToDelivered()
    +getAllPendingOrders()
}

class ClientOrderDB {
    +getLastClientOrderID(clientID)
    +addClientOrder(ord)
    -addClientOrder(clientID, date, status)
    +updateOrderStatus(orderID, status)
    +removeClientOrder(orderID)
    +getAllReadyOrders()
    +getAllPendingOrders()
}

Order ..> ClientOrderDB : get pending orders

@enduml

@startuml
skinparam classAttributeIconSize 0



class Order {
    -String orderId «PK»
    -String clientId «PK,FK»
    -int state
    +Order(orderID, clientNIF, cart)
    +makePayment()
    +generateInvoice()
    +calculatePrice(cart)
    +addClientOrder(order)
    +updateState(newState)
    +updateStateToDelivered()
    +getAllPendingOrders()
}

class ClientOrderDB {
    +getLastClientOrderID(clientID)
    +addClientOrder(ord)
    -addClientOrder(clientID, date, status)
    +updateOrderStatus(orderID, status)
    +removeClientOrder(orderID)
    +getAllReadyOrders()
    +getAllPendingOrders()
}

Order ..> ClientOrderDB : get pending orders

@enduml

PlantUML version 1.2020.23(Sun Dec 13 19:14:58 GMT 2020)
(GPL source distribution)
Java Runtime: OpenJDK Runtime Environment
JVM: OpenJDK 64-Bit Server VM
Default Encoding: Cp1252
Language: en
Country: US
--></g></svg>