<?xml version="1.0" encoding="UTF-8" standalone="no"?><svg xmlns="http://www.w3.org/2000/svg" xmlns:xlink="http://www.w3.org/1999/xlink" contentScriptType="application/ecmascript" contentStyleType="text/css" height="356px" preserveAspectRatio="none" style="width:638px;height:356px;" version="1.1" viewBox="0 0 638 356" width="638px" zoomAndPan="magnify"><defs><filter height="300%" id="ftuylos93d7i0" width="300%" x="-1" y="-1"><feGaussianBlur result="blurOut" stdDeviation="2.0"/><feColorMatrix in="blurOut" result="blurOut2" type="matrix" values="0 0 0 0 0 0 0 0 0 0 0 0 0 0 0 0 0 0 .4 0"/><feOffset dx="4.0" dy="4.0" in="blurOut2" result="blurOut3"/><feBlend in="SourceGraphic" in2="blurOut3" mode="normal"/></filter></defs><g><!--MD5=[da547346deef918ea16944ba046651ef]
class Administrator--><rect codeLine="4" fill="#FEFECE" filter="url(#ftuylos93d7i0)" height="89.5078" id="Administrator" style="stroke:#A80036;stroke-width:1.5;" width="175" x="7" y="27.5"/><ellipse cx="53.75" cy="43.5" fill="#ADD1B2" rx="11" ry="11" style="stroke:#A80036;stroke-width:1.0;"/><path d="M55.75,40 Q55.9531,39.5 56.1875,39.25 Q56.4219,39 56.6875,39 Q57.1563,39 57.4531,39.2813 Q57.75,39.5625 57.75,40.2188 L57.75,41.7813 Q57.75,42.4375 57.4688,42.7188 Q57.1875,43 56.75,43 Q56.3594,43 56.1094,42.8281 Q55.8594,42.6563 55.75,42.2031 Q55.7031,41.8906 55.5313,41.7188 Q55.2188,41.3906 54.6563,41.2031 Q54.0938,41 53.5313,41 Q52.8281,41 52.2344,41.2813 Q51.6563,41.5625 51.2031,42.1875 Q50.75,42.8125 50.75,43.6719 L50.75,44.5938 Q50.75,45.625 51.5938,46.3125 Q52.4375,47 53.9375,47 Q54.8281,47 55.4531,46.7969 Q55.8125,46.6875 56.2188,46.3281 Q56.4844,46.125 56.625,46.0625 Q56.7656,46 56.9375,46 Q57.2656,46 57.5,46.2656 Q57.75,46.5156 57.75,46.875 Q57.75,47.2188 57.4063,47.625 Q56.9063,48.2188 56.1094,48.5469 Q55.0625,49 53.7813,49 Q52.2813,49 51.0781,48.4063 Q50.1094,47.9375 49.4219,46.9219 Q48.75,45.9063 48.75,44.7031 L48.75,43.6094 Q48.75,42.3594 49.3438,41.2656 Q49.9531,40.1719 51,39.5938 Q52.0625,39 53.25,39 Q53.9688,39 54.5938,39.25 Q55.2188,39.5 55.75,40 Z " fill="#000000"/><text fill="#000000" font-family="sans-serif" font-size="12" lengthAdjust="spacingAndGlyphs" textLength="73" x="74.25" y="48.4102">Administrator</text><line style="stroke:#A80036;stroke-width:1.5;" x1="8" x2="181" y1="59.5" y2="59.5"/><rect fill="none" height="6" style="stroke:#C82930;stroke-width:1.0;" width="6" x="15" y="67.5"/><text fill="#000000" font-family="sans-serif" font-size="11" lengthAdjust="spacingAndGlyphs" textLength="149" x="27" y="74.9189">NUMBER id_administrator «PK»</text><rect fill="none" height="6" style="stroke:#C82930;stroke-width:1.0;" width="6" x="15" y="81.3359"/><text fill="#000000" font-family="sans-serif" font-size="11" lengthAdjust="spacingAndGlyphs" textLength="149" x="27" y="88.7549">VARCHAR name_administrator</text><rect fill="none" height="6" style="stroke:#C82930;stroke-width:1.0;" width="6" x="15" y="95.1719"/><text fill="#000000" font-family="sans-serif" font-size="11" lengthAdjust="spacingAndGlyphs" textLength="107" x="27" y="102.5908">VARCHAR user_email</text><line style="stroke:#A80036;stroke-width:1.5;" x1="8" x2="181" y1="109.0078" y2="109.0078"/><!--MD5=[7f2a9fafcebe4f099f71398fd3e2ed00]
class Pharmacy--><rect codeLine="10" fill="#FEFECE" filter="url(#ftuylos93d7i0)" height="131.0156" id="Pharmacy" style="stroke:#A80036;stroke-width:1.5;" width="204" x="217.5" y="7"/><ellipse cx="287.75" cy="23" fill="#ADD1B2" rx="11" ry="11" style="stroke:#A80036;stroke-width:1.0;"/><path d="M289.75,19.5 Q289.9531,19 290.1875,18.75 Q290.4219,18.5 290.6875,18.5 Q291.1563,18.5 291.4531,18.7813 Q291.75,19.0625 291.75,19.7188 L291.75,21.2813 Q291.75,21.9375 291.4688,22.2188 Q291.1875,22.5 290.75,22.5 Q290.3594,22.5 290.1094,22.3281 Q289.8594,22.1563 289.75,21.7031 Q289.7031,21.3906 289.5313,21.2188 Q289.2188,20.8906 288.6563,20.7031 Q288.0938,20.5 287.5313,20.5 Q286.8281,20.5 286.2344,20.7813 Q285.6563,21.0625 285.2031,21.6875 Q284.75,22.3125 284.75,23.1719 L284.75,24.0938 Q284.75,25.125 285.5938,25.8125 Q286.4375,26.5 287.9375,26.5 Q288.8281,26.5 289.4531,26.2969 Q289.8125,26.1875 290.2188,25.8281 Q290.4844,25.625 290.625,25.5625 Q290.7656,25.5 290.9375,25.5 Q291.2656,25.5 291.5,25.7656 Q291.75,26.0156 291.75,26.375 Q291.75,26.7188 291.4063,27.125 Q290.9063,27.7188 290.1094,28.0469 Q289.0625,28.5 287.7813,28.5 Q286.2813,28.5 285.0781,27.9063 Q284.1094,27.4375 283.4219,26.4219 Q282.75,25.4063 282.75,24.2031 L282.75,23.1094 Q282.75,21.8594 283.3438,20.7656 Q283.9531,19.6719 285,19.0938 Q286.0625,18.5 287.25,18.5 Q287.9688,18.5 288.5938,18.75 Q289.2188,19 289.75,19.5 Z " fill="#000000"/><text fill="#000000" font-family="sans-serif" font-size="12" lengthAdjust="spacingAndGlyphs" textLength="55" x="308.25" y="27.9102">Pharmacy</text><line style="stroke:#A80036;stroke-width:1.5;" x1="218.5" x2="420.5" y1="39" y2="39"/><rect fill="none" height="6" style="stroke:#C82930;stroke-width:1.0;" width="6" x="225.5" y="47"/><text fill="#000000" font-family="sans-serif" font-size="11" lengthAdjust="spacingAndGlyphs" textLength="135" x="237.5" y="54.4189">NUMBER id_pharmacy «PK»</text><rect fill="none" height="6" style="stroke:#C82930;stroke-width:1.0;" width="6" x="225.5" y="60.8359"/><text fill="#000000" font-family="sans-serif" font-size="11" lengthAdjust="spacingAndGlyphs" textLength="135" x="237.5" y="68.2549">VARCHAR name_pharmacy</text><rect fill="none" height="6" style="stroke:#C82930;stroke-width:1.0;" width="6" x="225.5" y="74.6719"/><text fill="#000000" font-family="sans-serif" font-size="11" lengthAdjust="spacingAndGlyphs" textLength="114" x="237.5" y="82.0908">NUMBER NIF_pharmacy</text><rect fill="none" height="6" style="stroke:#C82930;stroke-width:1.0;" width="6" x="225.5" y="88.5078"/><text fill="#000000" font-family="sans-serif" font-size="11" lengthAdjust="spacingAndGlyphs" textLength="149" x="237.5" y="95.9268">NUMBER id_administrator «FK»</text><rect fill="none" height="6" style="stroke:#C82930;stroke-width:1.0;" width="6" x="225.5" y="102.3438"/><text fill="#000000" font-family="sans-serif" font-size="11" lengthAdjust="spacingAndGlyphs" textLength="177" x="237.5" y="109.7627">NUMBER address_coordinateX «FK»</text><rect fill="none" height="6" style="stroke:#C82930;stroke-width:1.0;" width="6" x="225.5" y="116.1797"/><text fill="#000000" font-family="sans-serif" font-size="11" lengthAdjust="spacingAndGlyphs" textLength="178" x="237.5" y="123.5986">NUMBER address_coordinateY «FK»</text><line style="stroke:#A80036;stroke-width:1.5;" x1="218.5" x2="420.5" y1="130.0156" y2="130.0156"/><!--MD5=[0f39e4cb6f03951afbf6d14bd2505654]
class Address--><rect codeLine="20" fill="#FEFECE" filter="url(#ftuylos93d7i0)" height="117.1797" id="Address" style="stroke:#A80036;stroke-width:1.5;" width="167" x="457" y="14"/><ellipse cx="513.25" cy="30" fill="#ADD1B2" rx="11" ry="11" style="stroke:#A80036;stroke-width:1.0;"/><path d="M515.25,26.5 Q515.4531,26 515.6875,25.75 Q515.9219,25.5 516.1875,25.5 Q516.6563,25.5 516.9531,25.7813 Q517.25,26.0625 517.25,26.7188 L517.25,28.2813 Q517.25,28.9375 516.9688,29.2188 Q516.6875,29.5 516.25,29.5 Q515.8594,29.5 515.6094,29.3281 Q515.3594,29.1563 515.25,28.7031 Q515.2031,28.3906 515.0313,28.2188 Q514.7188,27.8906 514.1563,27.7031 Q513.5938,27.5 513.0313,27.5 Q512.3281,27.5 511.7344,27.7813 Q511.1563,28.0625 510.7031,28.6875 Q510.25,29.3125 510.25,30.1719 L510.25,31.0938 Q510.25,32.125 511.0938,32.8125 Q511.9375,33.5 513.4375,33.5 Q514.3281,33.5 514.9531,33.2969 Q515.3125,33.1875 515.7188,32.8281 Q515.9844,32.625 516.125,32.5625 Q516.2656,32.5 516.4375,32.5 Q516.7656,32.5 517,32.7656 Q517.25,33.0156 517.25,33.375 Q517.25,33.7188 516.9063,34.125 Q516.4063,34.7188 515.6094,35.0469 Q514.5625,35.5 513.2813,35.5 Q511.7813,35.5 510.5781,34.9063 Q509.6094,34.4375 508.9219,33.4219 Q508.25,32.4063 508.25,31.2031 L508.25,30.1094 Q508.25,28.8594 508.8438,27.7656 Q509.4531,26.6719 510.5,26.0938 Q511.5625,25.5 512.75,25.5 Q513.4688,25.5 514.0938,25.75 Q514.7188,26 515.25,26.5 Z " fill="#000000"/><text fill="#000000" font-family="sans-serif" font-size="12" lengthAdjust="spacingAndGlyphs" textLength="46" x="533.75" y="34.9102">Address</text><line style="stroke:#A80036;stroke-width:1.5;" x1="458" x2="623" y1="46" y2="46"/><rect fill="none" height="6" style="stroke:#C82930;stroke-width:1.0;" width="6" x="465" y="54"/><text fill="#000000" font-family="sans-serif" font-size="11" lengthAdjust="spacingAndGlyphs" textLength="59" x="477" y="61.4189">String street</text><rect fill="none" height="6" style="stroke:#C82930;stroke-width:1.0;" width="6" x="465" y="67.8359"/><text fill="#000000" font-family="sans-serif" font-size="11" lengthAdjust="spacingAndGlyphs" textLength="140" x="477" y="75.2549">double gpsCoordinateX «PK»</text><rect fill="none" height="6" style="stroke:#C82930;stroke-width:1.0;" width="6" x="465" y="81.6719"/><text fill="#000000" font-family="sans-serif" font-size="11" lengthAdjust="spacingAndGlyphs" textLength="141" x="477" y="89.0908">double gpsCoordinateY «PK»</text><rect fill="none" height="6" style="stroke:#C82930;stroke-width:1.0;" width="6" x="465" y="95.5078"/><text fill="#000000" font-family="sans-serif" font-size="11" lengthAdjust="spacingAndGlyphs" textLength="79" x="477" y="102.9268">int postalId «FK»</text><rect fill="none" height="6" style="stroke:#C82930;stroke-width:1.0;" width="6" x="465" y="109.3438"/><text fill="#000000" font-family="sans-serif" font-size="11" lengthAdjust="spacingAndGlyphs" textLength="78" x="477" y="116.7627">double elevation</text><line style="stroke:#A80036;stroke-width:1.5;" x1="458" x2="623" y1="123.1797" y2="123.1797"/><!--MD5=[f4402668d5d5bb8485350c0fdb60ac8e]
class Scooter--><rect codeLine="29" fill="#FEFECE" filter="url(#ftuylos93d7i0)" height="144.8516" id="Scooter" style="stroke:#A80036;stroke-width:1.5;" width="180" x="229.5" y="198"/><ellipse cx="294.25" cy="214" fill="#ADD1B2" rx="11" ry="11" style="stroke:#A80036;stroke-width:1.0;"/><path d="M296.25,210.5 Q296.4531,210 296.6875,209.75 Q296.9219,209.5 297.1875,209.5 Q297.6563,209.5 297.9531,209.7813 Q298.25,210.0625 298.25,210.7188 L298.25,212.2813 Q298.25,212.9375 297.9688,213.2188 Q297.6875,213.5 297.25,213.5 Q296.8594,213.5 296.6094,213.3281 Q296.3594,213.1563 296.25,212.7031 Q296.2031,212.3906 296.0313,212.2188 Q295.7188,211.8906 295.1563,211.7031 Q294.5938,211.5 294.0313,211.5 Q293.3281,211.5 292.7344,211.7813 Q292.1563,212.0625 291.7031,212.6875 Q291.25,213.3125 291.25,214.1719 L291.25,215.0938 Q291.25,216.125 292.0938,216.8125 Q292.9375,217.5 294.4375,217.5 Q295.3281,217.5 295.9531,217.2969 Q296.3125,217.1875 296.7188,216.8281 Q296.9844,216.625 297.125,216.5625 Q297.2656,216.5 297.4375,216.5 Q297.7656,216.5 298,216.7656 Q298.25,217.0156 298.25,217.375 Q298.25,217.7188 297.9063,218.125 Q297.4063,218.7188 296.6094,219.0469 Q295.5625,219.5 294.2813,219.5 Q292.7813,219.5 291.5781,218.9063 Q290.6094,218.4375 289.9219,217.4219 Q289.25,216.4063 289.25,215.2031 L289.25,214.1094 Q289.25,212.8594 289.8438,211.7656 Q290.4531,210.6719 291.5,210.0938 Q292.5625,209.5 293.75,209.5 Q294.4688,209.5 295.0938,209.75 Q295.7188,210 296.25,210.5 Z " fill="#000000"/><text fill="#000000" font-family="sans-serif" font-size="12" lengthAdjust="spacingAndGlyphs" textLength="42" x="314.75" y="218.9102">Scooter</text><line style="stroke:#A80036;stroke-width:1.5;" x1="230.5" x2="408.5" y1="230" y2="230"/><rect fill="none" height="6" style="stroke:#C82930;stroke-width:1.0;" width="6" x="237.5" y="238"/><text fill="#000000" font-family="sans-serif" font-size="11" lengthAdjust="spacingAndGlyphs" textLength="124" x="249.5" y="245.4189">NUMBER id_scooter «PK»</text><rect fill="none" height="6" style="stroke:#C82930;stroke-width:1.0;" width="6" x="237.5" y="251.8359"/><text fill="#000000" font-family="sans-serif" font-size="11" lengthAdjust="spacingAndGlyphs" textLength="154" x="249.5" y="259.2549">NUMBER max_Battery_Capacity</text><rect fill="none" height="6" style="stroke:#C82930;stroke-width:1.0;" width="6" x="237.5" y="265.6719"/><text fill="#000000" font-family="sans-serif" font-size="11" lengthAdjust="spacingAndGlyphs" textLength="128" x="249.5" y="273.0908">NUMBER state_Of_Charge</text><rect fill="none" height="6" style="stroke:#C82930;stroke-width:1.0;" width="6" x="237.5" y="279.5078"/><text fill="#000000" font-family="sans-serif" font-size="11" lengthAdjust="spacingAndGlyphs" textLength="115" x="249.5" y="286.9268">NUMBER power_Output</text><rect fill="none" height="6" style="stroke:#C82930;stroke-width:1.0;" width="6" x="237.5" y="293.3438"/><text fill="#000000" font-family="sans-serif" font-size="11" lengthAdjust="spacingAndGlyphs" textLength="78" x="249.5" y="300.7627">NUMBER weight</text><rect fill="none" height="6" style="stroke:#C82930;stroke-width:1.0;" width="6" x="237.5" y="307.1797"/><text fill="#000000" font-family="sans-serif" font-size="11" lengthAdjust="spacingAndGlyphs" textLength="109" x="249.5" y="314.5986">NUMBER max_payload</text><rect fill="none" height="6" style="stroke:#C82930;stroke-width:1.0;" width="6" x="237.5" y="321.0156"/><text fill="#000000" font-family="sans-serif" font-size="11" lengthAdjust="spacingAndGlyphs" textLength="107" x="249.5" y="328.4346">NUMBER id_pharmacy</text><line style="stroke:#A80036;stroke-width:1.5;" x1="230.5" x2="408.5" y1="334.8516" y2="334.8516"/><!--MD5=[8aaadde0a51a6974a75b41b6a40c57cb]
link Administrator to Pharmacy--><path codeLine="40" d="M190.61,72.5 C196.77,72.5 202.92,72.5 209.08,72.5 " fill="none" id="Administrator-Pharmacy" style="stroke:#A80036;stroke-width:1.0;"/><line style="stroke:#A80036;stroke-width:1.0;" x1="209.47" x2="217.47" y1="72.5" y2="66.5"/><line style="stroke:#A80036;stroke-width:1.0;" x1="209.47" x2="217.47" y1="72.5" y2="78.5"/><line style="stroke:#A80036;stroke-width:1.0;" x1="209.47" x2="217.47" y1="72.5" y2="72.5"/><line style="stroke:#A80036;stroke-width:1.0;" x1="207.47" x2="207.47" y1="68.5" y2="76.5"/><line style="stroke:#A80036;stroke-width:1.0;" x1="193.39" x2="182.39" y1="72.5" y2="72.5"/><ellipse cx="193.39" cy="72.5" fill="none" rx="4" ry="4" style="stroke:#A80036;stroke-width:1.0;"/><line style="stroke:#A80036;stroke-width:1.0;" x1="186.39" x2="186.39" y1="76.5" y2="68.5"/><!--MD5=[cf4f95b832970cfa6e3a3c87e0aa2b32]
link Pharmacy to Scooter--><path codeLine="42" d="M319.5,146.37 C319.5,160.4 319.5,175.18 319.5,189.42 " fill="none" id="Pharmacy-Scooter" style="stroke:#A80036;stroke-width:1.0;"/><line style="stroke:#A80036;stroke-width:1.0;" x1="319.5" x2="325.5" y1="189.74" y2="197.74"/><line style="stroke:#A80036;stroke-width:1.0;" x1="319.5" x2="313.5" y1="189.74" y2="197.74"/><line style="stroke:#A80036;stroke-width:1.0;" x1="319.5" x2="319.5" y1="189.74" y2="197.74"/><line style="stroke:#A80036;stroke-width:1.0;" x1="323.5" x2="315.5" y1="187.74" y2="187.74"/><line style="stroke:#A80036;stroke-width:1.0;" x1="319.5" x2="319.5" y1="149.22" y2="138.22"/><ellipse cx="319.5" cy="149.22" fill="none" rx="4" ry="4" style="stroke:#A80036;stroke-width:1.0;"/><line style="stroke:#A80036;stroke-width:1.0;" x1="315.5" x2="323.5" y1="142.22" y2="142.22"/><!--MD5=[89baec1bfb4a213750f7c61516e0a0f1]
link Pharmacy to Address--><path codeLine="43" d="M429.95,72.5 C436.05,72.5 442.15,72.5 448.25,72.5 " fill="none" id="Pharmacy-Address" style="stroke:#A80036;stroke-width:1.0;"/><line style="stroke:#A80036;stroke-width:1.0;" x1="448.57" x2="456.57" y1="72.5" y2="66.5"/><line style="stroke:#A80036;stroke-width:1.0;" x1="448.57" x2="456.57" y1="72.5" y2="78.5"/><line style="stroke:#A80036;stroke-width:1.0;" x1="448.57" x2="456.57" y1="72.5" y2="72.5"/><line style="stroke:#A80036;stroke-width:1.0;" x1="446.57" x2="446.57" y1="68.5" y2="76.5"/><line style="stroke:#A80036;stroke-width:1.0;" x1="432.8" x2="421.8" y1="72.5" y2="72.5"/><ellipse cx="432.8" cy="72.5" fill="none" rx="4" ry="4" style="stroke:#A80036;stroke-width:1.0;"/><line style="stroke:#A80036;stroke-width:1.0;" x1="425.8" x2="425.8" y1="76.5" y2="68.5"/><!--MD5=[8f1d6318a95f6cf5e92130f9aa4ab7ae]
@startuml
'skinparam linetype polyline


class Administrator {
    -NUMBER id_administrator «PK»
    -VARCHAR name_administrator
    -VARCHAR user_email
}

class Pharmacy {
    -NUMBER id_pharmacy «PK»
    -VARCHAR name_pharmacy
    -NUMBER NIF_pharmacy
    -NUMBER id_administrator «FK»
    -NUMBER address_coordinateX «FK»
    -NUMBER address_coordinateY «FK»
}


class Address {
    -String street
    -double gpsCoordinateX «PK»
    -double gpsCoordinateY «PK»
    -int postalId «FK»
    -double elevation
}


class Scooter {
    -NUMBER id_scooter «PK»
    -NUMBER max_Battery_Capacity
    -NUMBER state_Of_Charge
    -NUMBER power_Output
    -NUMBER weight
    -NUMBER max_payload
    -NUMBER id_pharmacy
}


Administrator |o-|{ Pharmacy

Pharmacy |o- -|{ Scooter
Pharmacy |o-|{ Address




@enduml

@startuml


class Administrator {
    -NUMBER id_administrator «PK»
    -VARCHAR name_administrator
    -VARCHAR user_email
}

class Pharmacy {
    -NUMBER id_pharmacy «PK»
    -VARCHAR name_pharmacy
    -NUMBER NIF_pharmacy
    -NUMBER id_administrator «FK»
    -NUMBER address_coordinateX «FK»
    -NUMBER address_coordinateY «FK»
}


class Address {
    -String street
    -double gpsCoordinateX «PK»
    -double gpsCoordinateY «PK»
    -int postalId «FK»
    -double elevation
}


class Scooter {
    -NUMBER id_scooter «PK»
    -NUMBER max_Battery_Capacity
    -NUMBER state_Of_Charge
    -NUMBER power_Output
    -NUMBER weight
    -NUMBER max_payload
    -NUMBER id_pharmacy
}


Administrator |o-|{ Pharmacy

Pharmacy |o- -|{ Scooter
Pharmacy |o-|{ Address




@enduml

PlantUML version 1.2020.23(Sun Dec 13 19:14:58 GMT 2020)
(GPL source distribution)
Java Runtime: OpenJDK Runtime Environment
JVM: OpenJDK 64-Bit Server VM
Default Encoding: Cp1252
Language: en
Country: US
--></g></svg>