<?xml version="1.0" encoding="UTF-8" standalone="no"?><svg xmlns="http://www.w3.org/2000/svg" xmlns:xlink="http://www.w3.org/1999/xlink" contentScriptType="application/ecmascript" contentStyleType="text/css" height="124.2px" preserveAspectRatio="none" style="width:1040px;height:124px;" version="1.1" viewBox="0 0 1040 124" width="1040.4px" zoomAndPan="magnify"><defs><filter height="300%" id="fisw39bk4gliq" width="300%" x="-1" y="-1"><feGaussianBlur result="blurOut" stdDeviation="1.8"/><feColorMatrix in="blurOut" result="blurOut2" type="matrix" values="0 0 0 0 0 0 0 0 0 0 0 0 0 0 0 0 0 0 .4 0"/><feOffset dx="3.6" dy="3.6" in="blurOut2" result="blurOut3"/><feBlend in="SourceGraphic" in2="blurOut3" mode="normal"/></filter></defs><g><!--MD5=[2e02dc687a7adedd6993cedb12e41a52]
class RegisterScooterUI--><rect codeLine="5" fill="#FEFECE" filter="url(#fisw39bk4gliq)" height="43.2" id="RegisterScooterUI" style="stroke:#A80036;stroke-width:1.35;" width="119.7" x="6.3" y="37.35"/><ellipse cx="19.8" cy="51.75" fill="#ADD1B2" rx="9.9" ry="9.9" style="stroke:#A80036;stroke-width:0.9;"/><path d="M21.6,48.6 Q21.7828,48.15 21.9938,47.925 Q22.2047,47.7 22.4438,47.7 Q22.8656,47.7 23.1328,47.9531 Q23.4,48.2063 23.4,48.7969 L23.4,50.2031 Q23.4,50.7938 23.1469,51.0469 Q22.8938,51.3 22.5,51.3 Q22.1484,51.3 21.9234,51.1453 Q21.6984,50.9906 21.6,50.5828 Q21.5578,50.3016 21.4031,50.1469 Q21.1219,49.8516 20.6156,49.6828 Q20.1094,49.5 19.6031,49.5 Q18.9703,49.5 18.4359,49.7531 Q17.9156,50.0063 17.5078,50.5688 Q17.1,51.1313 17.1,51.9047 L17.1,52.7344 Q17.1,53.6625 17.8594,54.2813 Q18.6188,54.9 19.9688,54.9 Q20.7703,54.9 21.3328,54.7172 Q21.6563,54.6188 22.0219,54.2953 Q22.2609,54.1125 22.3875,54.0563 Q22.5141,54 22.6688,54 Q22.9641,54 23.175,54.2391 Q23.4,54.4641 23.4,54.7875 Q23.4,55.0969 23.0906,55.4625 Q22.6406,55.9969 21.9234,56.2922 Q20.9813,56.7 19.8281,56.7 Q18.4781,56.7 17.3953,56.1656 Q16.5234,55.7438 15.9047,54.8297 Q15.3,53.9156 15.3,52.8328 L15.3,51.8484 Q15.3,50.7234 15.8344,49.7391 Q16.3828,48.7547 17.325,48.2344 Q18.2813,47.7 19.35,47.7 Q19.9969,47.7 20.5594,47.925 Q21.1219,48.15 21.6,48.6 Z " fill="#000000"/><text fill="#000000" font-family="sans-serif" font-size="10.8" lengthAdjust="spacingAndGlyphs" textLength="90.9" x="32.4" y="56.1691">RegisterScooterUI</text><line style="stroke:#A80036;stroke-width:1.35;" x1="7.2" x2="125.1" y1="66.15" y2="66.15"/><line style="stroke:#A80036;stroke-width:1.35;" x1="7.2" x2="125.1" y1="73.35" y2="73.35"/><!--MD5=[b762eabfe222fdd6cf4857c585db3ba3]
class RegisterScooterController--><rect codeLine="8" fill="#FEFECE" filter="url(#fisw39bk4gliq)" height="80.557" id="RegisterScooterController" style="stroke:#A80036;stroke-width:1.35;" width="230.4" x="180.9" y="18.45"/><ellipse cx="227.925" cy="32.85" fill="#ADD1B2" rx="9.9" ry="9.9" style="stroke:#A80036;stroke-width:0.9;"/><path d="M229.725,29.7 Q229.9078,29.25 230.1188,29.025 Q230.3297,28.8 230.5688,28.8 Q230.9906,28.8 231.2578,29.0531 Q231.525,29.3063 231.525,29.8969 L231.525,31.3031 Q231.525,31.8938 231.2719,32.1469 Q231.0188,32.4 230.625,32.4 Q230.2734,32.4 230.0484,32.2453 Q229.8234,32.0906 229.725,31.6828 Q229.6828,31.4016 229.5281,31.2469 Q229.2469,30.9516 228.7406,30.7828 Q228.2344,30.6 227.7281,30.6 Q227.0953,30.6 226.5609,30.8531 Q226.0406,31.1063 225.6328,31.6688 Q225.225,32.2313 225.225,33.0047 L225.225,33.8344 Q225.225,34.7625 225.9844,35.3813 Q226.7438,36 228.0938,36 Q228.8953,36 229.4578,35.8172 Q229.7813,35.7188 230.1469,35.3953 Q230.3859,35.2125 230.5125,35.1563 Q230.6391,35.1 230.7938,35.1 Q231.0891,35.1 231.3,35.3391 Q231.525,35.5641 231.525,35.8875 Q231.525,36.1969 231.2156,36.5625 Q230.7656,37.0969 230.0484,37.3922 Q229.1063,37.8 227.9531,37.8 Q226.6031,37.8 225.5203,37.2656 Q224.6484,36.8438 224.0297,35.9297 Q223.425,35.0156 223.425,33.9328 L223.425,32.9484 Q223.425,31.8234 223.9594,30.8391 Q224.5078,29.8547 225.45,29.3344 Q226.4063,28.8 227.475,28.8 Q228.1219,28.8 228.6844,29.025 Q229.2469,29.25 229.725,29.7 Z " fill="#000000"/><text fill="#000000" font-family="sans-serif" font-size="10.8" lengthAdjust="spacingAndGlyphs" textLength="128.7" x="246.375" y="37.2691">RegisterScooterController</text><line style="stroke:#A80036;stroke-width:1.35;" x1="181.8" x2="410.4" y1="47.25" y2="47.25"/><line style="stroke:#A80036;stroke-width:1.35;" x1="181.8" x2="410.4" y1="54.45" y2="54.45"/><text fill="#000000" font-family="sans-serif" font-size="9.9" lengthAdjust="spacingAndGlyphs" textLength="219.6" x="186.3" y="68.3271">+newScooter(maxBatteryCapacity,stateOfCharge,</text><text fill="#000000" font-family="sans-serif" font-size="9.9" lengthAdjust="spacingAndGlyphs" textLength="201.6" x="186.3" y="80.7794">powerOutput,weight,maxPayload,pharmacyId)</text><text fill="#000000" font-family="sans-serif" font-size="9.9" lengthAdjust="spacingAndGlyphs" textLength="80.1" x="186.3" y="93.2317">+registerScooter()</text><!--MD5=[1c5022e05ab65d79b6480bf80ed441d3]
class RegisterScooter--><rect codeLine="13" fill="#FEFECE" filter="url(#fisw39bk4gliq)" height="105.4617" id="RegisterScooter" style="stroke:#A80036;stroke-width:1.35;" width="230.4" x="466.2" y="6.3"/><ellipse cx="537.525" cy="20.7" fill="#ADD1B2" rx="9.9" ry="9.9" style="stroke:#A80036;stroke-width:0.9;"/><path d="M539.325,17.55 Q539.5078,17.1 539.7188,16.875 Q539.9297,16.65 540.1688,16.65 Q540.5906,16.65 540.8578,16.9031 Q541.125,17.1563 541.125,17.7469 L541.125,19.1531 Q541.125,19.7438 540.8719,19.9969 Q540.6188,20.25 540.225,20.25 Q539.8734,20.25 539.6484,20.0953 Q539.4234,19.9406 539.325,19.5328 Q539.2828,19.2516 539.1281,19.0969 Q538.8469,18.8016 538.3406,18.6328 Q537.8344,18.45 537.3281,18.45 Q536.6953,18.45 536.1609,18.7031 Q535.6406,18.9563 535.2328,19.5188 Q534.825,20.0813 534.825,20.8547 L534.825,21.6844 Q534.825,22.6125 535.5844,23.2313 Q536.3438,23.85 537.6938,23.85 Q538.4953,23.85 539.0578,23.6672 Q539.3813,23.5688 539.7469,23.2453 Q539.9859,23.0625 540.1125,23.0063 Q540.2391,22.95 540.3938,22.95 Q540.6891,22.95 540.9,23.1891 Q541.125,23.4141 541.125,23.7375 Q541.125,24.0469 540.8156,24.4125 Q540.3656,24.9469 539.6484,25.2422 Q538.7063,25.65 537.5531,25.65 Q536.2031,25.65 535.1203,25.1156 Q534.2484,24.6938 533.6297,23.7797 Q533.025,22.8656 533.025,21.7828 L533.025,20.7984 Q533.025,19.6734 533.5594,18.6891 Q534.1078,17.7047 535.05,17.1844 Q536.0063,16.65 537.075,16.65 Q537.7219,16.65 538.2844,16.875 Q538.8469,17.1 539.325,17.55 Z " fill="#000000"/><text fill="#000000" font-family="sans-serif" font-size="10.8" lengthAdjust="spacingAndGlyphs" textLength="80.1" x="555.975" y="25.1191">RegisterScooter</text><line style="stroke:#A80036;stroke-width:1.35;" x1="467.1" x2="695.7" y1="35.1" y2="35.1"/><line style="stroke:#A80036;stroke-width:1.35;" x1="467.1" x2="695.7" y1="42.3" y2="42.3"/><text fill="#000000" font-family="sans-serif" font-size="9.9" lengthAdjust="spacingAndGlyphs" textLength="82.8" x="471.6" y="56.1771">+RegisterScooter()</text><text fill="#000000" font-family="sans-serif" font-size="9.9" lengthAdjust="spacingAndGlyphs" textLength="219.6" x="471.6" y="68.6294">+newScooter(maxBatteryCapacity,stateOfCharge,</text><text fill="#000000" font-family="sans-serif" font-size="9.9" lengthAdjust="spacingAndGlyphs" textLength="201.6" x="471.6" y="81.0817">powerOutput,weight,maxPayload,pharmacyId)</text><text fill="#000000" font-family="sans-serif" font-size="9.9" lengthAdjust="spacingAndGlyphs" textLength="104.4" x="471.6" y="93.5341">+registerScooter(scoot)</text><text fill="#000000" font-family="sans-serif" font-size="9.9" lengthAdjust="spacingAndGlyphs" textLength="102.6" x="471.6" y="105.9864">-validateScooter(scoot)</text><!--MD5=[f4402668d5d5bb8485350c0fdb60ac8e]
class Scooter--><rect codeLine="20" fill="#FEFECE" filter="url(#fisw39bk4gliq)" height="105.4617" id="Scooter" style="stroke:#A80036;stroke-width:1.35;" width="230.4" x="797.4" y="6.3"/><ellipse cx="889.875" cy="20.7" fill="#ADD1B2" rx="9.9" ry="9.9" style="stroke:#A80036;stroke-width:0.9;"/><path d="M891.675,17.55 Q891.8578,17.1 892.0688,16.875 Q892.2797,16.65 892.5188,16.65 Q892.9406,16.65 893.2078,16.9031 Q893.475,17.1563 893.475,17.7469 L893.475,19.1531 Q893.475,19.7438 893.2219,19.9969 Q892.9688,20.25 892.575,20.25 Q892.2234,20.25 891.9984,20.0953 Q891.7734,19.9406 891.675,19.5328 Q891.6328,19.2516 891.4781,19.0969 Q891.1969,18.8016 890.6906,18.6328 Q890.1844,18.45 889.6781,18.45 Q889.0453,18.45 888.5109,18.7031 Q887.9906,18.9563 887.5828,19.5188 Q887.175,20.0813 887.175,20.8547 L887.175,21.6844 Q887.175,22.6125 887.9344,23.2313 Q888.6938,23.85 890.0438,23.85 Q890.8453,23.85 891.4078,23.6672 Q891.7313,23.5688 892.0969,23.2453 Q892.3359,23.0625 892.4625,23.0063 Q892.5891,22.95 892.7438,22.95 Q893.0391,22.95 893.25,23.1891 Q893.475,23.4141 893.475,23.7375 Q893.475,24.0469 893.1656,24.4125 Q892.7156,24.9469 891.9984,25.2422 Q891.0563,25.65 889.9031,25.65 Q888.5531,25.65 887.4703,25.1156 Q886.5984,24.6938 885.9797,23.7797 Q885.375,22.8656 885.375,21.7828 L885.375,20.7984 Q885.375,19.6734 885.9094,18.6891 Q886.4578,17.7047 887.4,17.1844 Q888.3563,16.65 889.425,16.65 Q890.0719,16.65 890.6344,16.875 Q891.1969,17.1 891.675,17.55 Z " fill="#000000"/><text fill="#000000" font-family="sans-serif" font-size="10.8" lengthAdjust="spacingAndGlyphs" textLength="37.8" x="908.325" y="25.1191">Scooter</text><line style="stroke:#A80036;stroke-width:1.35;" x1="798.3" x2="1026.9" y1="35.1" y2="35.1"/><line style="stroke:#A80036;stroke-width:1.35;" x1="798.3" x2="1026.9" y1="42.3" y2="42.3"/><text fill="#000000" font-family="sans-serif" font-size="9.9" lengthAdjust="spacingAndGlyphs" textLength="219.6" x="802.8" y="56.1771">+newScooter(maxBatteryCapacity,stateOfCharge,</text><text fill="#000000" font-family="sans-serif" font-size="9.9" lengthAdjust="spacingAndGlyphs" textLength="201.6" x="802.8" y="68.6294">powerOutput,weight,maxPayload,pharmacyId)</text><text fill="#000000" font-family="sans-serif" font-size="9.9" lengthAdjust="spacingAndGlyphs" textLength="40.5" x="802.8" y="81.0817">+create()</text><text fill="#000000" font-family="sans-serif" font-size="9.9" lengthAdjust="spacingAndGlyphs" textLength="87.3" x="802.8" y="93.5341">+addScooter(scoot)</text><text fill="#000000" font-family="sans-serif" font-size="9.9" lengthAdjust="spacingAndGlyphs" textLength="32.4" x="802.8" y="105.9864">-save()</text><!--MD5=[954f86ea882ac5dcad44771d5b1b4c17]
link RegisterScooterUI to RegisterScooterController--><path codeLine="28" d="M126.099,58.95 C141.426,58.95 158.499,58.95 175.734,58.95 " fill="none" id="RegisterScooterUI-to-RegisterScooterController" style="stroke:#A80036;stroke-width:0.9;stroke-dasharray:7.0,7.0;"/><polygon fill="#A80036" points="180.594,58.95,172.494,55.35,176.094,58.95,172.494,62.55,180.594,58.95" style="stroke:#A80036;stroke-width:0.9;"/><!--MD5=[f404754e352cc68e8c3186ef7841d220]
link RegisterScooterController to RegisterScooter--><path codeLine="29" d="M411.489,58.95 C427.932,58.95 444.87,58.95 461.394,58.95 " fill="none" id="RegisterScooterController-to-RegisterScooter" style="stroke:#A80036;stroke-width:0.9;stroke-dasharray:7.0,7.0;"/><polygon fill="#A80036" points="466.038,58.95,457.938,55.35,461.538,58.95,457.938,62.55,466.038,58.95" style="stroke:#A80036;stroke-width:0.9;"/><!--MD5=[5a06e4d08fcb384b7bf85fd401a99cbc]
link RegisterScooter to Scooter--><path codeLine="30" d="M696.816,58.95 C729.324,58.95 764.712,58.95 797.211,58.95 " fill="none" id="RegisterScooter-Scooter" style="stroke:#A80036;stroke-width:0.9;"/><text fill="#000000" font-family="sans-serif" font-size="11.7" lengthAdjust="spacingAndGlyphs" textLength="45" x="724.5" y="55.7956">registers</text><text fill="#000000" font-family="sans-serif" font-size="11.7" lengthAdjust="spacingAndGlyphs" textLength="6.3" x="703.6706" y="71.5163">1</text><text fill="#000000" font-family="sans-serif" font-size="11.7" lengthAdjust="spacingAndGlyphs" textLength="18" x="772.0198" y="71.5163">0..*</text><!--MD5=[cba6bb9d20c4bfafad86b78dfd25ddf8]
@startuml
skinparam classAttributeIconSize 0

left to right direction

class RegisterScooterUI {
}

class RegisterScooterController {
 +newScooter(maxBatteryCapacity,stateOfCharge,\npowerOutput,weight,maxPayload,pharmacyId)
 +registerScooter()
}

class RegisterScooter {
 +RegisterScooter()
 +newScooter(maxBatteryCapacity,stateOfCharge,\npowerOutput,weight,maxPayload,pharmacyId)
 +registerScooter(scoot)
 -validateScooter(scoot)
}

class Scooter {
 +newScooter(maxBatteryCapacity,stateOfCharge,\npowerOutput,weight,maxPayload,pharmacyId)
 +create()
 +addScooter(scoot)
 -save()
}


RegisterScooterUI ..> RegisterScooterController
RegisterScooterController ..> RegisterScooter
RegisterScooter "1"- -"0..*" Scooter : registers


@enduml

PlantUML version 1.2020.23(Sun Dec 13 19:14:58 GMT 2020)
(GPL source distribution)
Java Runtime: OpenJDK Runtime Environment
JVM: OpenJDK 64-Bit Server VM
Default Encoding: Cp1252
Language: en
Country: US
--></g></svg>