<?xml version="1.0" encoding="UTF-8" standalone="no"?><svg xmlns="http://www.w3.org/2000/svg" xmlns:xlink="http://www.w3.org/1999/xlink" contentScriptType="application/ecmascript" contentStyleType="text/css" height="378.75px" preserveAspectRatio="none" style="width:1737px;height:378px;" version="1.1" viewBox="0 0 1737 378" width="1737.5px" zoomAndPan="magnify"><defs><filter height="300%" id="fmo8hg0loqn49" width="300%" x="-1" y="-1"><feGaussianBlur result="blurOut" stdDeviation="2.5"/><feColorMatrix in="blurOut" result="blurOut2" type="matrix" values="0 0 0 0 0 0 0 0 0 0 0 0 0 0 0 0 0 0 .4 0"/><feOffset dx="5.0" dy="5.0" in="blurOut2" result="blurOut3"/><feBlend in="SourceGraphic" in2="blurOut3" mode="normal"/></filter></defs><g><!--MD5=[99b8db98afdc2c8404e39242ef4c1e65]
class Platform--><rect codeLine="5" fill="#FEFECE" filter="url(#fmo8hg0loqn49)" height="60" id="Platform" style="stroke:#A80036;stroke-width:1.875;" width="97.5" x="652.5" y="11.875"/><ellipse cx="671.25" cy="31.875" fill="#ADD1B2" rx="13.75" ry="13.75" style="stroke:#A80036;stroke-width:1.25;"/><path d="M673.75,27.5 Q674.0039,26.875 674.2969,26.5625 Q674.5898,26.25 674.9219,26.25 Q675.5078,26.25 675.8789,26.6016 Q676.25,26.9531 676.25,27.7734 L676.25,29.7266 Q676.25,30.5469 675.8984,30.8984 Q675.5469,31.25 675,31.25 Q674.5117,31.25 674.1992,31.0352 Q673.8867,30.8203 673.75,30.2539 Q673.6914,29.8633 673.4766,29.6484 Q673.0859,29.2383 672.3828,29.0039 Q671.6797,28.75 670.9766,28.75 Q670.0977,28.75 669.3555,29.1016 Q668.6328,29.4531 668.0664,30.2344 Q667.5,31.0156 667.5,32.0898 L667.5,33.2422 Q667.5,34.5313 668.5547,35.3906 Q669.6094,36.25 671.4844,36.25 Q672.5977,36.25 673.3789,35.9961 Q673.8281,35.8594 674.3359,35.4102 Q674.668,35.1563 674.8438,35.0781 Q675.0195,35 675.2344,35 Q675.6445,35 675.9375,35.332 Q676.25,35.6445 676.25,36.0938 Q676.25,36.5234 675.8203,37.0313 Q675.1953,37.7734 674.1992,38.1836 Q672.8906,38.75 671.2891,38.75 Q669.4141,38.75 667.9102,38.0078 Q666.6992,37.4219 665.8398,36.1523 Q665,34.8828 665,33.3789 L665,32.0117 Q665,30.4492 665.7422,29.082 Q666.5039,27.7148 667.8125,26.9922 Q669.1406,26.25 670.625,26.25 Q671.5234,26.25 672.3047,26.5625 Q673.0859,26.875 673.75,27.5 Z " fill="#000000"/><text fill="#000000" font-family="sans-serif" font-size="15" lengthAdjust="spacingAndGlyphs" textLength="57.5" x="688.75" y="38.0127">Platform</text><line style="stroke:#A80036;stroke-width:1.875;" x1="653.75" x2="748.75" y1="51.875" y2="51.875"/><line style="stroke:#A80036;stroke-width:1.875;" x1="653.75" x2="748.75" y1="61.875" y2="61.875"/><!--MD5=[fc9db3803f236bc12db675bf67fe5aec]
class CreateDeliveryRunUI--><rect codeLine="8" fill="#FEFECE" filter="url(#fmo8hg0loqn49)" height="60" id="CreateDeliveryRunUI" style="stroke:#A80036;stroke-width:1.875;" width="183.75" x="8.75" y="76.875"/><ellipse cx="27.5" cy="96.875" fill="#ADD1B2" rx="13.75" ry="13.75" style="stroke:#A80036;stroke-width:1.25;"/><path d="M30,92.5 Q30.2539,91.875 30.5469,91.5625 Q30.8398,91.25 31.1719,91.25 Q31.7578,91.25 32.1289,91.6016 Q32.5,91.9531 32.5,92.7734 L32.5,94.7266 Q32.5,95.5469 32.1484,95.8984 Q31.7969,96.25 31.25,96.25 Q30.7617,96.25 30.4492,96.0352 Q30.1367,95.8203 30,95.2539 Q29.9414,94.8633 29.7266,94.6484 Q29.3359,94.2383 28.6328,94.0039 Q27.9297,93.75 27.2266,93.75 Q26.3477,93.75 25.6055,94.1016 Q24.8828,94.4531 24.3164,95.2344 Q23.75,96.0156 23.75,97.0898 L23.75,98.2422 Q23.75,99.5313 24.8047,100.3906 Q25.8594,101.25 27.7344,101.25 Q28.8477,101.25 29.6289,100.9961 Q30.0781,100.8594 30.5859,100.4102 Q30.918,100.1563 31.0938,100.0781 Q31.2695,100 31.4844,100 Q31.8945,100 32.1875,100.332 Q32.5,100.6445 32.5,101.0938 Q32.5,101.5234 32.0703,102.0313 Q31.4453,102.7734 30.4492,103.1836 Q29.1406,103.75 27.5391,103.75 Q25.6641,103.75 24.1602,103.0078 Q22.9492,102.4219 22.0898,101.1523 Q21.25,99.8828 21.25,98.3789 L21.25,97.0117 Q21.25,95.4492 21.9922,94.082 Q22.7539,92.7148 24.0625,91.9922 Q25.3906,91.25 26.875,91.25 Q27.7734,91.25 28.5547,91.5625 Q29.3359,91.875 30,92.5 Z " fill="#000000"/><text fill="#000000" font-family="sans-serif" font-size="15" lengthAdjust="spacingAndGlyphs" textLength="143.75" x="45" y="103.0127">CreateDeliveryRunUI</text><line style="stroke:#A80036;stroke-width:1.875;" x1="10" x2="191.25" y1="116.875" y2="116.875"/><line style="stroke:#A80036;stroke-width:1.875;" x1="10" x2="191.25" y1="126.875" y2="126.875"/><!--MD5=[782bdc9396531c719c17dff44383a035]
class CreateDeliveryRunController--><rect codeLine="11" fill="#FEFECE" filter="url(#fmo8hg0loqn49)" height="111.8848" id="CreateDeliveryRunController" style="stroke:#A80036;stroke-width:1.875;" width="237.5" x="268.75" y="50.625"/><ellipse cx="288.0625" cy="70.625" fill="#ADD1B2" rx="13.75" ry="13.75" style="stroke:#A80036;stroke-width:1.25;"/><path d="M290.5625,66.25 Q290.8164,65.625 291.1094,65.3125 Q291.4023,65 291.7344,65 Q292.3203,65 292.6914,65.3516 Q293.0625,65.7031 293.0625,66.5234 L293.0625,68.4766 Q293.0625,69.2969 292.7109,69.6484 Q292.3594,70 291.8125,70 Q291.3242,70 291.0117,69.7852 Q290.6992,69.5703 290.5625,69.0039 Q290.5039,68.6133 290.2891,68.3984 Q289.8984,67.9883 289.1953,67.7539 Q288.4922,67.5 287.7891,67.5 Q286.9102,67.5 286.168,67.8516 Q285.4453,68.2031 284.8789,68.9844 Q284.3125,69.7656 284.3125,70.8398 L284.3125,71.9922 Q284.3125,73.2813 285.3672,74.1406 Q286.4219,75 288.2969,75 Q289.4102,75 290.1914,74.7461 Q290.6406,74.6094 291.1484,74.1602 Q291.4805,73.9063 291.6563,73.8281 Q291.832,73.75 292.0469,73.75 Q292.457,73.75 292.75,74.082 Q293.0625,74.3945 293.0625,74.8438 Q293.0625,75.2734 292.6328,75.7813 Q292.0078,76.5234 291.0117,76.9336 Q289.7031,77.5 288.1016,77.5 Q286.2266,77.5 284.7227,76.7578 Q283.5117,76.1719 282.6523,74.9023 Q281.8125,73.6328 281.8125,72.1289 L281.8125,70.7617 Q281.8125,69.1992 282.5547,67.832 Q283.3164,66.4648 284.625,65.7422 Q285.9531,65 287.4375,65 Q288.3359,65 289.1172,65.3125 Q289.8984,65.625 290.5625,66.25 Z " fill="#000000"/><text fill="#000000" font-family="sans-serif" font-size="15" lengthAdjust="spacingAndGlyphs" textLength="196.25" x="305.6875" y="76.7627">CreateDeliveryRunController</text><line style="stroke:#A80036;stroke-width:1.875;" x1="270" x2="505" y1="90.625" y2="90.625"/><line style="stroke:#A80036;stroke-width:1.875;" x1="270" x2="505" y1="100.625" y2="100.625"/><text fill="#000000" font-family="sans-serif" font-size="13.75" lengthAdjust="spacingAndGlyphs" textLength="140" x="276.25" y="119.8987">+DeliveryRunRegistry()</text><text fill="#000000" font-family="sans-serif" font-size="13.75" lengthAdjust="spacingAndGlyphs" textLength="197.5" x="276.25" y="137.1936">+addOrderToDeliveryRun(Order)</text><text fill="#000000" font-family="sans-serif" font-size="13.75" lengthAdjust="spacingAndGlyphs" textLength="222.5" x="276.25" y="154.4885">+confirmedDeliveryRun(DeliveryRun)</text><!--MD5=[fdb46a6b46f18eb9e178236900e91149]
class DeliveryRunRegistry--><rect codeLine="18" fill="#FEFECE" filter="url(#fmo8hg0loqn49)" height="111.8848" id="DeliveryRunRegistry" style="stroke:#A80036;stroke-width:1.875;" width="237.5" x="582.5" y="115.625"/><ellipse cx="627.6875" cy="135.625" fill="#ADD1B2" rx="13.75" ry="13.75" style="stroke:#A80036;stroke-width:1.25;"/><path d="M630.1875,131.25 Q630.4414,130.625 630.7344,130.3125 Q631.0273,130 631.3594,130 Q631.9453,130 632.3164,130.3516 Q632.6875,130.7031 632.6875,131.5234 L632.6875,133.4766 Q632.6875,134.2969 632.3359,134.6484 Q631.9844,135 631.4375,135 Q630.9492,135 630.6367,134.7852 Q630.3242,134.5703 630.1875,134.0039 Q630.1289,133.6133 629.9141,133.3984 Q629.5234,132.9883 628.8203,132.7539 Q628.1172,132.5 627.4141,132.5 Q626.5352,132.5 625.793,132.8516 Q625.0703,133.2031 624.5039,133.9844 Q623.9375,134.7656 623.9375,135.8398 L623.9375,136.9922 Q623.9375,138.2813 624.9922,139.1406 Q626.0469,140 627.9219,140 Q629.0352,140 629.8164,139.7461 Q630.2656,139.6094 630.7734,139.1602 Q631.1055,138.9063 631.2813,138.8281 Q631.457,138.75 631.6719,138.75 Q632.082,138.75 632.375,139.082 Q632.6875,139.3945 632.6875,139.8438 Q632.6875,140.2734 632.2578,140.7813 Q631.6328,141.5234 630.6367,141.9336 Q629.3281,142.5 627.7266,142.5 Q625.8516,142.5 624.3477,141.7578 Q623.1367,141.1719 622.2773,139.9023 Q621.4375,138.6328 621.4375,137.1289 L621.4375,135.7617 Q621.4375,134.1992 622.1797,132.832 Q622.9414,131.4648 624.25,130.7422 Q625.5781,130 627.0625,130 Q627.9609,130 628.7422,130.3125 Q629.5234,130.625 630.1875,131.25 Z " fill="#000000"/><text fill="#000000" font-family="sans-serif" font-size="15" lengthAdjust="spacingAndGlyphs" textLength="138.75" x="651.0625" y="141.7627">DeliveryRunRegistry</text><line style="stroke:#A80036;stroke-width:1.875;" x1="583.75" x2="818.75" y1="155.625" y2="155.625"/><line style="stroke:#A80036;stroke-width:1.875;" x1="583.75" x2="818.75" y1="165.625" y2="165.625"/><text fill="#000000" font-family="sans-serif" font-size="13.75" lengthAdjust="spacingAndGlyphs" textLength="140" x="590" y="184.8987">+DeliveryRunRegistry()</text><text fill="#000000" font-family="sans-serif" font-size="13.75" lengthAdjust="spacingAndGlyphs" textLength="197.5" x="590" y="202.1936">+addOrderToDeliveryRun(Order)</text><text fill="#000000" font-family="sans-serif" font-size="13.75" lengthAdjust="spacingAndGlyphs" textLength="222.5" x="590" y="219.4885">+confirmedDeliveryRun(DeliveryRun)</text><!--MD5=[7f2a9fafcebe4f099f71398fd3e2ed00]
class Pharmacy--><rect codeLine="24" fill="#FEFECE" filter="url(#fmo8hg0loqn49)" height="111.8848" id="Pharmacy" style="stroke:#A80036;stroke-width:1.875;" width="152.5" x="1567.5" y="215.625"/><ellipse cx="1605.9375" cy="235.625" fill="#ADD1B2" rx="13.75" ry="13.75" style="stroke:#A80036;stroke-width:1.25;"/><path d="M1608.4375,231.25 Q1608.6914,230.625 1608.9844,230.3125 Q1609.2773,230 1609.6094,230 Q1610.1953,230 1610.5664,230.3516 Q1610.9375,230.7031 1610.9375,231.5234 L1610.9375,233.4766 Q1610.9375,234.2969 1610.5859,234.6484 Q1610.2344,235 1609.6875,235 Q1609.1992,235 1608.8867,234.7852 Q1608.5742,234.5703 1608.4375,234.0039 Q1608.3789,233.6133 1608.1641,233.3984 Q1607.7734,232.9883 1607.0703,232.7539 Q1606.3672,232.5 1605.6641,232.5 Q1604.7852,232.5 1604.043,232.8516 Q1603.3203,233.2031 1602.7539,233.9844 Q1602.1875,234.7656 1602.1875,235.8398 L1602.1875,236.9922 Q1602.1875,238.2813 1603.2422,239.1406 Q1604.2969,240 1606.1719,240 Q1607.2852,240 1608.0664,239.7461 Q1608.5156,239.6094 1609.0234,239.1602 Q1609.3555,238.9063 1609.5313,238.8281 Q1609.707,238.75 1609.9219,238.75 Q1610.332,238.75 1610.625,239.082 Q1610.9375,239.3945 1610.9375,239.8438 Q1610.9375,240.2734 1610.5078,240.7813 Q1609.8828,241.5234 1608.8867,241.9336 Q1607.5781,242.5 1605.9766,242.5 Q1604.1016,242.5 1602.5977,241.7578 Q1601.3867,241.1719 1600.5273,239.9023 Q1599.6875,238.6328 1599.6875,237.1289 L1599.6875,235.7617 Q1599.6875,234.1992 1600.4297,232.832 Q1601.1914,231.4648 1602.5,230.7422 Q1603.8281,230 1605.3125,230 Q1606.2109,230 1606.9922,230.3125 Q1607.7734,230.625 1608.4375,231.25 Z " fill="#000000"/><text fill="#000000" font-family="sans-serif" font-size="15" lengthAdjust="spacingAndGlyphs" textLength="68.75" x="1627.8125" y="241.7627">Pharmacy</text><line style="stroke:#A80036;stroke-width:1.875;" x1="1568.75" x2="1718.75" y1="255.625" y2="255.625"/><text fill="#000000" font-family="sans-serif" font-size="13.75" lengthAdjust="spacingAndGlyphs" textLength="137.5" x="1575" y="274.8987">-String pharmacyName</text><text fill="#000000" font-family="sans-serif" font-size="13.75" lengthAdjust="spacingAndGlyphs" textLength="132.5" x="1575" y="292.1936">-String companyName</text><text fill="#000000" font-family="sans-serif" font-size="13.75" lengthAdjust="spacingAndGlyphs" textLength="41.25" x="1575" y="309.4885">-int NIF</text><line style="stroke:#A80036;stroke-width:1.875;" x1="1568.75" x2="1718.75" y1="317.5098" y2="317.5098"/><!--MD5=[30da194321b846ed0272a2c085d943b8]
class DeliveryRun--><rect codeLine="30" fill="#FEFECE" filter="url(#fmo8hg0loqn49)" height="163.7695" id="DeliveryRun" style="stroke:#A80036;stroke-width:1.875;" width="212.5" x="896.25" y="90"/><ellipse cx="955.9375" cy="110" fill="#ADD1B2" rx="13.75" ry="13.75" style="stroke:#A80036;stroke-width:1.25;"/><path d="M958.4375,105.625 Q958.6914,105 958.9844,104.6875 Q959.2773,104.375 959.6094,104.375 Q960.1953,104.375 960.5664,104.7266 Q960.9375,105.0781 960.9375,105.8984 L960.9375,107.8516 Q960.9375,108.6719 960.5859,109.0234 Q960.2344,109.375 959.6875,109.375 Q959.1992,109.375 958.8867,109.1602 Q958.5742,108.9453 958.4375,108.3789 Q958.3789,107.9883 958.1641,107.7734 Q957.7734,107.3633 957.0703,107.1289 Q956.3672,106.875 955.6641,106.875 Q954.7852,106.875 954.043,107.2266 Q953.3203,107.5781 952.7539,108.3594 Q952.1875,109.1406 952.1875,110.2148 L952.1875,111.3672 Q952.1875,112.6563 953.2422,113.5156 Q954.2969,114.375 956.1719,114.375 Q957.2852,114.375 958.0664,114.1211 Q958.5156,113.9844 959.0234,113.5352 Q959.3555,113.2813 959.5313,113.2031 Q959.707,113.125 959.9219,113.125 Q960.332,113.125 960.625,113.457 Q960.9375,113.7695 960.9375,114.2188 Q960.9375,114.6484 960.5078,115.1563 Q959.8828,115.8984 958.8867,116.3086 Q957.5781,116.875 955.9766,116.875 Q954.1016,116.875 952.5977,116.1328 Q951.3867,115.5469 950.5273,114.2773 Q949.6875,113.0078 949.6875,111.5039 L949.6875,110.1367 Q949.6875,108.5742 950.4297,107.207 Q951.1914,105.8398 952.5,105.1172 Q953.8281,104.375 955.3125,104.375 Q956.2109,104.375 956.9922,104.6875 Q957.7734,105 958.4375,105.625 Z " fill="#000000"/><text fill="#000000" font-family="sans-serif" font-size="15" lengthAdjust="spacingAndGlyphs" textLength="82.5" x="981.5625" y="116.1377">DeliveryRun</text><line style="stroke:#A80036;stroke-width:1.875;" x1="897.5" x2="1107.5" y1="130" y2="130"/><text fill="#000000" font-family="sans-serif" font-size="13.75" lengthAdjust="spacingAndGlyphs" textLength="32.5" x="903.75" y="149.2737">-int id</text><text fill="#000000" font-family="sans-serif" font-size="13.75" lengthAdjust="spacingAndGlyphs" textLength="37.5" x="903.75" y="166.5686">-list of</text><text fill="#000000" font-family="sans-serif" font-size="13.75" lengthAdjust="spacingAndGlyphs" textLength="97.5" x="903.75" y="183.8635">-String courierID</text><line style="stroke:#A80036;stroke-width:1.875;" x1="897.5" x2="1107.5" y1="191.8848" y2="191.8848"/><text fill="#000000" font-family="sans-serif" font-size="13.75" lengthAdjust="spacingAndGlyphs" textLength="185" x="903.75" y="211.1584">+addDeliveryRun(DeliveryRun)</text><text fill="#000000" font-family="sans-serif" font-size="13.75" lengthAdjust="spacingAndGlyphs" textLength="121.25" x="903.75" y="228.4534">+new DeliveryRun()</text><text fill="#000000" font-family="sans-serif" font-size="13.75" lengthAdjust="spacingAndGlyphs" textLength="197.5" x="903.75" y="245.7483">+addOrderToDeliveryRun(Order)</text><!--MD5=[cf4d6237fcae255cd2e1656cf84a30e2]
class Order--><rect codeLine="39" fill="#FEFECE" filter="url(#fmo8hg0loqn49)" height="129.1797" id="Order" style="stroke:#A80036;stroke-width:1.875;" width="178.75" x="1265" y="8.75"/><ellipse cx="1329.6875" cy="28.75" fill="#ADD1B2" rx="13.75" ry="13.75" style="stroke:#A80036;stroke-width:1.25;"/><path d="M1332.1875,24.375 Q1332.4414,23.75 1332.7344,23.4375 Q1333.0273,23.125 1333.3594,23.125 Q1333.9453,23.125 1334.3164,23.4766 Q1334.6875,23.8281 1334.6875,24.6484 L1334.6875,26.6016 Q1334.6875,27.4219 1334.3359,27.7734 Q1333.9844,28.125 1333.4375,28.125 Q1332.9492,28.125 1332.6367,27.9102 Q1332.3242,27.6953 1332.1875,27.1289 Q1332.1289,26.7383 1331.9141,26.5234 Q1331.5234,26.1133 1330.8203,25.8789 Q1330.1172,25.625 1329.4141,25.625 Q1328.5352,25.625 1327.793,25.9766 Q1327.0703,26.3281 1326.5039,27.1094 Q1325.9375,27.8906 1325.9375,28.9648 L1325.9375,30.1172 Q1325.9375,31.4063 1326.9922,32.2656 Q1328.0469,33.125 1329.9219,33.125 Q1331.0352,33.125 1331.8164,32.8711 Q1332.2656,32.7344 1332.7734,32.2852 Q1333.1055,32.0313 1333.2813,31.9531 Q1333.457,31.875 1333.6719,31.875 Q1334.082,31.875 1334.375,32.207 Q1334.6875,32.5195 1334.6875,32.9688 Q1334.6875,33.3984 1334.2578,33.9063 Q1333.6328,34.6484 1332.6367,35.0586 Q1331.3281,35.625 1329.7266,35.625 Q1327.8516,35.625 1326.3477,34.8828 Q1325.1367,34.2969 1324.2773,33.0273 Q1323.4375,31.7578 1323.4375,30.2539 L1323.4375,28.8867 Q1323.4375,27.3242 1324.1797,25.957 Q1324.9414,24.5898 1326.25,23.8672 Q1327.5781,23.125 1329.0625,23.125 Q1329.9609,23.125 1330.7422,23.4375 Q1331.5234,23.75 1332.1875,24.375 Z " fill="#000000"/><text fill="#000000" font-family="sans-serif" font-size="15" lengthAdjust="spacingAndGlyphs" textLength="38.75" x="1355.3125" y="34.8877">Order</text><line style="stroke:#A80036;stroke-width:1.875;" x1="1266.25" x2="1442.5" y1="48.75" y2="48.75"/><text fill="#000000" font-family="sans-serif" font-size="13.75" lengthAdjust="spacingAndGlyphs" textLength="66.25" x="1272.5" y="68.0237">-int orderID</text><text fill="#000000" font-family="sans-serif" font-size="13.75" lengthAdjust="spacingAndGlyphs" textLength="65" x="1272.5" y="85.3186">-int clientID</text><text fill="#000000" font-family="sans-serif" font-size="13.75" lengthAdjust="spacingAndGlyphs" textLength="52.5" x="1272.5" y="102.6135">-int state</text><text fill="#000000" font-family="sans-serif" font-size="13.75" lengthAdjust="spacingAndGlyphs" textLength="163.75" x="1272.5" y="119.9084">-ArrayList&lt;OrderLine&gt; cart</text><line style="stroke:#A80036;stroke-width:1.875;" x1="1266.25" x2="1442.5" y1="127.9297" y2="127.9297"/><!--MD5=[c6a2171c11447acbe08a3dfeee0e1710]
class Courier--><rect codeLine="46" fill="#FEFECE" filter="url(#fmo8hg0loqn49)" height="181.0645" id="Courier" style="stroke:#A80036;stroke-width:1.875;" width="111.25" x="1298.75" y="181.25"/><ellipse cx="1326.5" cy="201.25" fill="#ADD1B2" rx="13.75" ry="13.75" style="stroke:#A80036;stroke-width:1.25;"/><path d="M1329,196.875 Q1329.2539,196.25 1329.5469,195.9375 Q1329.8398,195.625 1330.1719,195.625 Q1330.7578,195.625 1331.1289,195.9766 Q1331.5,196.3281 1331.5,197.1484 L1331.5,199.1016 Q1331.5,199.9219 1331.1484,200.2734 Q1330.7969,200.625 1330.25,200.625 Q1329.7617,200.625 1329.4492,200.4102 Q1329.1367,200.1953 1329,199.6289 Q1328.9414,199.2383 1328.7266,199.0234 Q1328.3359,198.6133 1327.6328,198.3789 Q1326.9297,198.125 1326.2266,198.125 Q1325.3477,198.125 1324.6055,198.4766 Q1323.8828,198.8281 1323.3164,199.6094 Q1322.75,200.3906 1322.75,201.4648 L1322.75,202.6172 Q1322.75,203.9063 1323.8047,204.7656 Q1324.8594,205.625 1326.7344,205.625 Q1327.8477,205.625 1328.6289,205.3711 Q1329.0781,205.2344 1329.5859,204.7852 Q1329.918,204.5313 1330.0938,204.4531 Q1330.2695,204.375 1330.4844,204.375 Q1330.8945,204.375 1331.1875,204.707 Q1331.5,205.0195 1331.5,205.4688 Q1331.5,205.8984 1331.0703,206.4063 Q1330.4453,207.1484 1329.4492,207.5586 Q1328.1406,208.125 1326.5391,208.125 Q1324.6641,208.125 1323.1602,207.3828 Q1321.9492,206.7969 1321.0898,205.5273 Q1320.25,204.2578 1320.25,202.7539 L1320.25,201.3867 Q1320.25,199.8242 1320.9922,198.457 Q1321.7539,197.0898 1323.0625,196.3672 Q1324.3906,195.625 1325.875,195.625 Q1326.7734,195.625 1327.5547,195.9375 Q1328.3359,196.25 1329,196.875 Z " fill="#000000"/><text fill="#000000" font-family="sans-serif" font-size="15" lengthAdjust="spacingAndGlyphs" textLength="51.25" x="1346" y="207.3877">Courier</text><line style="stroke:#A80036;stroke-width:1.875;" x1="1300" x2="1408.75" y1="221.25" y2="221.25"/><text fill="#000000" font-family="sans-serif" font-size="13.75" lengthAdjust="spacingAndGlyphs" textLength="80" x="1306.25" y="240.5237">-String name;</text><text fill="#000000" font-family="sans-serif" font-size="13.75" lengthAdjust="spacingAndGlyphs" textLength="77.5" x="1306.25" y="257.8186">-double niss;</text><text fill="#000000" font-family="sans-serif" font-size="13.75" lengthAdjust="spacingAndGlyphs" textLength="41.25" x="1306.25" y="275.1135">-int nif;</text><text fill="#000000" font-family="sans-serif" font-size="13.75" lengthAdjust="spacingAndGlyphs" textLength="93.75" x="1306.25" y="292.4084">-double weight;</text><text fill="#000000" font-family="sans-serif" font-size="13.75" lengthAdjust="spacingAndGlyphs" textLength="77.5" x="1306.25" y="309.7034">-String email;</text><text fill="#000000" font-family="sans-serif" font-size="13.75" lengthAdjust="spacingAndGlyphs" textLength="96.25" x="1306.25" y="326.9983">-int pharmacyId;</text><text fill="#000000" font-family="sans-serif" font-size="13.75" lengthAdjust="spacingAndGlyphs" textLength="82.5" x="1306.25" y="344.2932">-int scooterId;</text><line style="stroke:#A80036;stroke-width:1.875;" x1="1300" x2="1408.75" y1="352.3145" y2="352.3145"/><!--MD5=[5a5cb6e829eb5cd8f57b92f665b78cac]
link CreateDeliveryRunUI to CreateDeliveryRunController--><path codeLine="56" d="M192.6375,106.875 C214.625,106.875 238.5125,106.875 261.75,106.875 " fill="none" id="CreateDeliveryRunUI-to-CreateDeliveryRunController" style="stroke:#A80036;stroke-width:1.25;stroke-dasharray:7.0,7.0;"/><polygon fill="#A80036" points="268.2875,106.875,257.0375,101.875,262.0375,106.875,257.0375,111.875,268.2875,106.875" style="stroke:#A80036;stroke-width:1.25;"/><!--MD5=[501589abefb2059ef89622c8ee0d23ef]
link CreateDeliveryRunController to Platform--><path codeLine="57" d="M506.425,82.3 C554.2625,72.3125 607.2,61.25 645.6125,53.2375 " fill="none" id="CreateDeliveryRunController-to-Platform" style="stroke:#A80036;stroke-width:1.25;stroke-dasharray:7.0,7.0;"/><polygon fill="#A80036" points="652.125,51.875,640.0863,49.2999,646.0091,53.1626,642.1464,59.0854,652.125,51.875" style="stroke:#A80036;stroke-width:1.25;"/><!--MD5=[58d181f738af6a8bb0f49ca4c9ccecfd]
link CreateDeliveryRunController to DeliveryRunRegistry--><path codeLine="58" d="M506.425,131.45 C529.075,136.175 552.8875,141.15 575.7375,145.925 " fill="none" id="CreateDeliveryRunController-to-DeliveryRunRegistry" style="stroke:#A80036;stroke-width:1.25;stroke-dasharray:7.0,7.0;"/><polygon fill="#A80036" points="582.1625,147.2625,572.1637,140.0801,576.043,145.9921,570.131,149.8713,582.1625,147.2625" style="stroke:#A80036;stroke-width:1.25;"/><!--MD5=[882e96fd3eaeffe50cdae26c27526c98]
link DeliveryRunRegistry to DeliveryRun--><path codeLine="59" d="M820.15,171.875 C842.975,171.875 866.85,171.875 889.4875,171.875 " fill="none" id="DeliveryRunRegistry-to-DeliveryRun" style="stroke:#A80036;stroke-width:1.25;stroke-dasharray:7.0,7.0;"/><polygon fill="#A80036" points="895.85,171.875,884.6,166.875,889.6,171.875,884.6,176.875,895.85,171.875" style="stroke:#A80036;stroke-width:1.25;"/><!--MD5=[a90b9a531bc353d7c5ff1fde072ac7cd]
link DeliveryRun to Order--><path codeLine="60" d="M1109.05,142.1125 C1158.675,128.0875 1217.225,111.5375 1264.5375,98.1625 " fill="none" id="DeliveryRun-Order" style="stroke:#A80036;stroke-width:1.25;"/><polygon fill="#000000" points="1181.6394,97.8947,1169.76,97.4349,1171.7585,104.5052,1181.6394,97.8947" style="stroke:#000000;stroke-width:1.25;"/><text fill="#000000" font-family="sans-serif" font-size="16.25" lengthAdjust="spacingAndGlyphs" textLength="16.25" x="1186.875" y="106.2439">Of</text><text fill="#000000" font-family="sans-serif" font-size="16.25" lengthAdjust="spacingAndGlyphs" textLength="8.75" x="1118.5826" y="157.3011">1</text><text fill="#000000" font-family="sans-serif" font-size="16.25" lengthAdjust="spacingAndGlyphs" textLength="25" x="1230.1033" y="118.2619">1..*</text><!--MD5=[b4470ce3575abd5b7d073686c8d1312f]
link DeliveryRun to Courier--><path codeLine="61" d="M1109.05,202.0125 C1171.5375,219.9 1248.1625,241.8375 1298.7,256.3 " fill="none" id="DeliveryRun-Courier" style="stroke:#A80036;stroke-width:1.25;"/><polygon fill="#000000" points="1158.5087,202.5647,1148.6499,195.9214,1146.6279,202.985,1158.5087,202.5647" style="stroke:#000000;stroke-width:1.25;"/><text fill="#000000" font-family="sans-serif" font-size="16.25" lengthAdjust="spacingAndGlyphs" textLength="62.5" x="1163.75" y="207.4939">Made by</text><text fill="#000000" font-family="sans-serif" font-size="16.25" lengthAdjust="spacingAndGlyphs" textLength="8.75" x="1118.5826" y="222.3488">1</text><text fill="#000000" font-family="sans-serif" font-size="16.25" lengthAdjust="spacingAndGlyphs" textLength="8.75" x="1280.0042" y="272.2973">1</text><!--MD5=[88616e74bf96530d476f0a19698bdbd4]
link Courier to Pharmacy--><path codeLine="62" d="M1410.2625,271.875 C1454.8,271.875 1518.1875,271.875 1567.475,271.875 " fill="none" id="Courier-Pharmacy" style="stroke:#A80036;stroke-width:1.25;"/><polygon fill="#000000" points="1493.75,260.8447,1482.4436,257.1711,1482.4436,264.5184,1493.75,260.8447" style="stroke:#000000;stroke-width:1.25;"/><text fill="#000000" font-family="sans-serif" font-size="16.25" lengthAdjust="spacingAndGlyphs" textLength="30" x="1498.75" y="267.4939">Of a</text><text fill="#000000" font-family="sans-serif" font-size="16.25" lengthAdjust="spacingAndGlyphs" textLength="8.75" x="1419.8668" y="290.3875">1</text><text fill="#000000" font-family="sans-serif" font-size="16.25" lengthAdjust="spacingAndGlyphs" textLength="8.75" x="1548.8958" y="290.0269">1</text><!--MD5=[fe534b27a53442cf034093121021f64d]
@startuml
skinparam classAttributeIconSize 0

left to right direction

class Platform {
}

class CreateDeliveryRunUI {
}

class CreateDeliveryRunController {
  +DeliveryRunRegistry()
  +addOrderToDeliveryRun(Order)
  +confirmedDeliveryRun(DeliveryRun)
}


class DeliveryRunRegistry {
  +DeliveryRunRegistry()
  +addOrderToDeliveryRun(Order)
  +confirmedDeliveryRun(DeliveryRun)
}

class Pharmacy {
  -String pharmacyName
  -String companyName
  -int NIF
}

class DeliveryRun {
    -int id
    -list of
    -String courierID
    +addDeliveryRun(DeliveryRun)
    +new DeliveryRun()
    +addOrderToDeliveryRun(Order)
}

class Order {
    -int orderID
    -int clientID
    -int state
    -ArrayList<OrderLine> cart
}

class Courier{
        -String name;
        -double niss;
        -int nif;
        -double weight;
        -String email;
        -int pharmacyId;
        -int scooterId;
    }

CreateDeliveryRunUI   ..> CreateDeliveryRunController
CreateDeliveryRunController ..> Platform
CreateDeliveryRunController ..> DeliveryRunRegistry
DeliveryRunRegistry ..> DeliveryRun
DeliveryRun "1" - - "1..*" Order : Of   >
DeliveryRun "1" - - "1" Courier : Made by >
Courier "1" - - "1" Pharmacy : Of a >



@enduml

PlantUML version 1.2020.23(Sun Dec 13 19:14:58 GMT 2020)
(GPL source distribution)
Java Runtime: OpenJDK Runtime Environment
JVM: OpenJDK 64-Bit Server VM
Default Encoding: Cp1252
Language: pt
Country: PT
--></g></svg>