<?xml version="1.0" encoding="UTF-8" standalone="no"?><svg xmlns="http://www.w3.org/2000/svg" xmlns:xlink="http://www.w3.org/1999/xlink" contentScriptType="application/ecmascript" contentStyleType="text/css" height="587.5px" preserveAspectRatio="none" style="width:481px;height:587px;" version="1.1" viewBox="0 0 481 587" width="481.25px" zoomAndPan="magnify"><defs><filter height="300%" id="f1gpc69ttybtag" width="300%" x="-1" y="-1"><feGaussianBlur result="blurOut" stdDeviation="2.5"/><feColorMatrix in="blurOut" result="blurOut2" type="matrix" values="0 0 0 0 0 0 0 0 0 0 0 0 0 0 0 0 0 0 .4 0"/><feOffset dx="5.0" dy="5.0" in="blurOut2" result="blurOut3"/><feBlend in="SourceGraphic" in2="blurOut3" mode="normal"/></filter></defs><g><rect fill="#FFFFFF" filter="url(#f1gpc69ttybtag)" height="333.9551" style="stroke:#A80036;stroke-width:1.25;" width="12.5" x="51.875" y="124.5117"/><rect fill="#FFFFFF" filter="url(#f1gpc69ttybtag)" height="37.9395" style="stroke:#A80036;stroke-width:1.25;" width="12.5" x="399.375" y="152.4512"/><rect fill="#FFFFFF" filter="url(#f1gpc69ttybtag)" height="37.9395" style="stroke:#A80036;stroke-width:1.25;" width="12.5" x="399.375" y="260.0195"/><rect fill="#FFFFFF" filter="url(#f1gpc69ttybtag)" height="37.9395" style="stroke:#A80036;stroke-width:1.25;" width="12.5" x="399.375" y="335.8984"/><rect fill="#FFFFFF" filter="url(#f1gpc69ttybtag)" height="37.9395" style="stroke:#A80036;stroke-width:1.25;" width="12.5" x="399.375" y="420.5273"/><rect fill="#FFFFFF" filter="url(#f1gpc69ttybtag)" height="174.6973" style="stroke:#000000;stroke-width:2.5;" width="451.875" x="12.5" y="209.1406"/><line style="stroke:#A80036;stroke-width:1.25;stroke-dasharray:5.0,5.0;" x1="57.5" x2="57.5" y1="112.0117" y2="480.9668"/><line style="stroke:#A80036;stroke-width:1.25;stroke-dasharray:5.0,5.0;" x1="405.625" x2="405.625" y1="112.0117" y2="480.9668"/><text fill="#000000" font-family="sans-serif" font-size="17.5" lengthAdjust="spacingAndGlyphs" textLength="58.75" x="25" y="108.1665">Courier</text><ellipse cx="58.125" cy="18.75" fill="#FEFECE" filter="url(#f1gpc69ttybtag)" rx="10" ry="10" style="stroke:#A80036;stroke-width:2.5;"/><path d="M58.125,28.75 L58.125,62.5 M41.875,38.75 L74.375,38.75 M58.125,62.5 L41.875,81.25 M58.125,62.5 L74.375,81.25 " fill="none" filter="url(#f1gpc69ttybtag)" style="stroke:#A80036;stroke-width:2.5;"/><text fill="#000000" font-family="sans-serif" font-size="17.5" lengthAdjust="spacingAndGlyphs" textLength="58.75" x="25" y="497.8833">Courier</text><ellipse cx="58.125" cy="514.2285" fill="#FEFECE" filter="url(#f1gpc69ttybtag)" rx="10" ry="10" style="stroke:#A80036;stroke-width:2.5;"/><path d="M58.125,524.2285 L58.125,557.9785 M41.875,534.2285 L74.375,534.2285 M58.125,557.9785 L41.875,576.7285 M58.125,557.9785 L74.375,576.7285 " fill="none" filter="url(#f1gpc69ttybtag)" style="stroke:#A80036;stroke-width:2.5;"/><rect fill="#FEFECE" filter="url(#f1gpc69ttybtag)" height="39.5117" style="stroke:#A80036;stroke-width:1.875;" width="87.5" x="359.375" y="66.25"/><text fill="#000000" font-family="sans-serif" font-size="17.5" lengthAdjust="spacingAndGlyphs" textLength="70" x="368.125" y="93.1665">:Platform</text><rect fill="#FEFECE" filter="url(#f1gpc69ttybtag)" height="39.5117" style="stroke:#A80036;stroke-width:1.875;" width="87.5" x="359.375" y="479.7168"/><text fill="#000000" font-family="sans-serif" font-size="17.5" lengthAdjust="spacingAndGlyphs" textLength="70" x="368.125" y="506.6333">:Platform</text><rect fill="#FFFFFF" filter="url(#f1gpc69ttybtag)" height="333.9551" style="stroke:#A80036;stroke-width:1.25;" width="12.5" x="51.875" y="124.5117"/><rect fill="#FFFFFF" filter="url(#f1gpc69ttybtag)" height="37.9395" style="stroke:#A80036;stroke-width:1.25;" width="12.5" x="399.375" y="152.4512"/><rect fill="#FFFFFF" filter="url(#f1gpc69ttybtag)" height="37.9395" style="stroke:#A80036;stroke-width:1.25;" width="12.5" x="399.375" y="260.0195"/><rect fill="#FFFFFF" filter="url(#f1gpc69ttybtag)" height="37.9395" style="stroke:#A80036;stroke-width:1.25;" width="12.5" x="399.375" y="335.8984"/><rect fill="#FFFFFF" filter="url(#f1gpc69ttybtag)" height="37.9395" style="stroke:#A80036;stroke-width:1.25;" width="12.5" x="399.375" y="420.5273"/><polygon fill="#A80036" points="384.375,147.4512,396.875,152.4512,384.375,157.4512,389.375,152.4512" style="stroke:#A80036;stroke-width:1.25;"/><line style="stroke:#A80036;stroke-width:1.25;" x1="64.375" x2="391.875" y1="152.4512" y2="152.4512"/><text fill="#000000" font-family="sans-serif" font-size="16.25" font-weight="bold" lengthAdjust="spacingAndGlyphs" textLength="8.75" x="73.125" y="146.3806">1</text><text fill="#000000" font-family="sans-serif" font-size="16.25" lengthAdjust="spacingAndGlyphs" textLength="242.5" x="86.875" y="146.3806">Wants to choose orders to deliver</text><polygon fill="#A80036" points="78.125,185.3906,65.625,190.3906,78.125,195.3906,73.125,190.3906" style="stroke:#A80036;stroke-width:1.25;"/><line style="stroke:#A80036;stroke-width:1.25;stroke-dasharray:2.0,2.0;" x1="70.625" x2="404.375" y1="190.3906" y2="190.3906"/><text fill="#000000" font-family="sans-serif" font-size="16.25" font-weight="bold" lengthAdjust="spacingAndGlyphs" textLength="8.75" x="85.625" y="184.3201">2</text><text fill="#000000" font-family="sans-serif" font-size="16.25" lengthAdjust="spacingAndGlyphs" textLength="291.25" x="99.375" y="184.3201">shows list with all ready to deliver orders</text><path d="M12.5,209.1406 L103.75,209.1406 L103.75,219.1406 L91.25,231.6406 L12.5,231.6406 L12.5,209.1406 " fill="#EEEEEE" style="stroke:#000000;stroke-width:1.25;"/><rect fill="none" height="174.6973" style="stroke:#000000;stroke-width:2.5;" width="451.875" x="12.5" y="209.1406"/><text fill="#000000" font-family="sans-serif" font-size="16.25" font-weight="bold" lengthAdjust="spacingAndGlyphs" textLength="35" x="31.25" y="227.2595">loop</text><polygon fill="#A80036" points="384.375,255.0195,396.875,260.0195,384.375,265.0195,389.375,260.0195" style="stroke:#A80036;stroke-width:1.25;"/><line style="stroke:#A80036;stroke-width:1.25;" x1="64.375" x2="391.875" y1="260.0195" y2="260.0195"/><text fill="#000000" font-family="sans-serif" font-size="16.25" font-weight="bold" lengthAdjust="spacingAndGlyphs" textLength="8.75" x="73.125" y="253.949">3</text><text fill="#000000" font-family="sans-serif" font-size="16.25" lengthAdjust="spacingAndGlyphs" textLength="61.25" x="86.875" y="253.949">chooses</text><polygon fill="#A80036" points="78.125,292.959,65.625,297.959,78.125,302.959,73.125,297.959" style="stroke:#A80036;stroke-width:1.25;"/><line style="stroke:#A80036;stroke-width:1.25;stroke-dasharray:2.0,2.0;" x1="70.625" x2="404.375" y1="297.959" y2="297.959"/><text fill="#000000" font-family="sans-serif" font-size="16.25" font-weight="bold" lengthAdjust="spacingAndGlyphs" textLength="8.75" x="85.625" y="291.8884">4</text><text fill="#000000" font-family="sans-serif" font-size="16.25" lengthAdjust="spacingAndGlyphs" textLength="273.75" x="99.375" y="291.8884">shows data and requests confirmation</text><polygon fill="#A80036" points="384.375,330.8984,396.875,335.8984,384.375,340.8984,389.375,335.8984" style="stroke:#A80036;stroke-width:1.25;"/><line style="stroke:#A80036;stroke-width:1.25;" x1="64.375" x2="391.875" y1="335.8984" y2="335.8984"/><text fill="#000000" font-family="sans-serif" font-size="16.25" font-weight="bold" lengthAdjust="spacingAndGlyphs" textLength="8.75" x="73.125" y="329.8279">5</text><text fill="#000000" font-family="sans-serif" font-size="16.25" lengthAdjust="spacingAndGlyphs" textLength="61.25" x="86.875" y="329.8279">confirms</text><polygon fill="#A80036" points="78.125,368.8379,65.625,373.8379,78.125,378.8379,73.125,373.8379" style="stroke:#A80036;stroke-width:1.25;"/><line style="stroke:#A80036;stroke-width:1.25;stroke-dasharray:2.0,2.0;" x1="70.625" x2="404.375" y1="373.8379" y2="373.8379"/><text fill="#000000" font-family="sans-serif" font-size="16.25" font-weight="bold" lengthAdjust="spacingAndGlyphs" textLength="8.75" x="85.625" y="367.7673">6</text><text fill="#000000" font-family="sans-serif" font-size="16.25" lengthAdjust="spacingAndGlyphs" textLength="181.25" x="99.375" y="367.7673">adds order to delivery run</text><polygon fill="#A80036" points="384.375,415.5273,396.875,420.5273,384.375,425.5273,389.375,420.5273" style="stroke:#A80036;stroke-width:1.25;"/><line style="stroke:#A80036;stroke-width:1.25;" x1="64.375" x2="391.875" y1="420.5273" y2="420.5273"/><text fill="#000000" font-family="sans-serif" font-size="16.25" font-weight="bold" lengthAdjust="spacingAndGlyphs" textLength="8.75" x="73.125" y="414.4568">7</text><text fill="#000000" font-family="sans-serif" font-size="16.25" lengthAdjust="spacingAndGlyphs" textLength="161.25" x="86.875" y="414.4568">completes delivery run</text><polygon fill="#A80036" points="71.875,453.4668,59.375,458.4668,71.875,463.4668,66.875,458.4668" style="stroke:#A80036;stroke-width:1.25;"/><line style="stroke:#A80036;stroke-width:1.25;stroke-dasharray:2.0,2.0;" x1="64.375" x2="404.375" y1="458.4668" y2="458.4668"/><text fill="#000000" font-family="sans-serif" font-size="16.25" font-weight="bold" lengthAdjust="spacingAndGlyphs" textLength="8.75" x="79.375" y="452.3962">8</text><text fill="#000000" font-family="sans-serif" font-size="16.25" lengthAdjust="spacingAndGlyphs" textLength="148.75" x="93.125" y="452.3962">successful operation</text><!--MD5=[90a818320a91fb4b959d7ef764a5795a]
@startuml
autonumber
actor "Courier" as CRR

activate CRR
CRR -> ":Platform" : Wants to choose orders to deliver
activate ":Platform"
":Platform" - -> CRR : shows list with all ready to deliver orders
deactivate ":Platform"
loop
CRR -> ":Platform" : chooses
activate ":Platform"

":Platform" - -> CRR : shows data and requests confirmation
deactivate ":Platform"

CRR -> ":Platform" : confirms
activate ":Platform"

":Platform" - -> CRR : adds order to delivery run
deactivate ":Platform"
end loop

CRR -> ":Platform" : completes delivery run
activate ":Platform"

":Platform" - -> CRR : successful operation
deactivate
deactivate CRR
@enduml

PlantUML version 1.2020.23(Sun Dec 13 19:14:58 GMT 2020)
(GPL source distribution)
Java Runtime: OpenJDK Runtime Environment
JVM: OpenJDK 64-Bit Server VM
Default Encoding: Cp1252
Language: pt
Country: PT
--></g></svg>