<?xml version="1.0" encoding="UTF-8" standalone="no"?><svg xmlns="http://www.w3.org/2000/svg" xmlns:xlink="http://www.w3.org/1999/xlink" contentScriptType="application/ecmascript" contentStyleType="text/css" height="377px" preserveAspectRatio="none" style="width:718px;height:377px;" version="1.1" viewBox="0 0 718 377" width="718px" zoomAndPan="magnify"><defs><filter height="300%" id="f1lm2n57lbpurb" width="300%" x="-1" y="-1"><feGaussianBlur result="blurOut" stdDeviation="2.0"/><feColorMatrix in="blurOut" result="blurOut2" type="matrix" values="0 0 0 0 0 0 0 0 0 0 0 0 0 0 0 0 0 0 .4 0"/><feOffset dx="4.0" dy="4.0" in="blurOut2" result="blurOut3"/><feBlend in="SourceGraphic" in2="blurOut3" mode="normal"/></filter></defs><g><rect fill="#FFFFFF" filter="url(#f1lm2n57lbpurb)" height="174.1094" style="stroke:#A80036;stroke-width:1.0;" width="10" x="69" y="99.6094"/><rect fill="#FFFFFF" filter="url(#f1lm2n57lbpurb)" height="30.3516" style="stroke:#A80036;stroke-width:1.0;" width="10" x="666" y="121.9609"/><rect fill="#FFFFFF" filter="url(#f1lm2n57lbpurb)" height="30.3516" style="stroke:#A80036;stroke-width:1.0;" width="10" x="666" y="182.6641"/><rect fill="#FFFFFF" filter="url(#f1lm2n57lbpurb)" height="30.3516" style="stroke:#A80036;stroke-width:1.0;" width="10" x="666" y="243.3672"/><line style="stroke:#A80036;stroke-width:1.0;stroke-dasharray:5.0,5.0;" x1="74" x2="74" y1="89.6094" y2="291.7188"/><line style="stroke:#A80036;stroke-width:1.0;stroke-dasharray:5.0,5.0;" x1="671" x2="671" y1="89.6094" y2="291.7188"/><text fill="#000000" font-family="sans-serif" font-size="14" lengthAdjust="spacingAndGlyphs" textLength="132" x="5" y="86.5332">Non-Registered User</text><ellipse cx="74" cy="15" fill="#FEFECE" filter="url(#f1lm2n57lbpurb)" rx="8" ry="8" style="stroke:#A80036;stroke-width:2.0;"/><path d="M74,23 L74,50 M61,31 L87,31 M74,50 L61,65 M74,50 L87,65 " fill="none" filter="url(#f1lm2n57lbpurb)" style="stroke:#A80036;stroke-width:2.0;"/><text fill="#000000" font-family="sans-serif" font-size="14" lengthAdjust="spacingAndGlyphs" textLength="132" x="5" y="305.252">Non-Registered User</text><ellipse cx="74" cy="318.3281" fill="#FEFECE" filter="url(#f1lm2n57lbpurb)" rx="8" ry="8" style="stroke:#A80036;stroke-width:2.0;"/><path d="M74,326.3281 L74,353.3281 M61,334.3281 L87,334.3281 M74,353.3281 L61,368.3281 M74,353.3281 L87,368.3281 " fill="none" filter="url(#f1lm2n57lbpurb)" style="stroke:#A80036;stroke-width:2.0;"/><rect fill="#FEFECE" filter="url(#f1lm2n57lbpurb)" height="31.6094" style="stroke:#A80036;stroke-width:1.5;" width="70" x="634" y="53"/><text fill="#000000" font-family="sans-serif" font-size="14" lengthAdjust="spacingAndGlyphs" textLength="56" x="641" y="74.5332">:Platform</text><rect fill="#FEFECE" filter="url(#f1lm2n57lbpurb)" height="31.6094" style="stroke:#A80036;stroke-width:1.5;" width="70" x="634" y="290.7188"/><text fill="#000000" font-family="sans-serif" font-size="14" lengthAdjust="spacingAndGlyphs" textLength="56" x="641" y="312.252">:Platform</text><rect fill="#FFFFFF" filter="url(#f1lm2n57lbpurb)" height="174.1094" style="stroke:#A80036;stroke-width:1.0;" width="10" x="69" y="99.6094"/><rect fill="#FFFFFF" filter="url(#f1lm2n57lbpurb)" height="30.3516" style="stroke:#A80036;stroke-width:1.0;" width="10" x="666" y="121.9609"/><rect fill="#FFFFFF" filter="url(#f1lm2n57lbpurb)" height="30.3516" style="stroke:#A80036;stroke-width:1.0;" width="10" x="666" y="182.6641"/><rect fill="#FFFFFF" filter="url(#f1lm2n57lbpurb)" height="30.3516" style="stroke:#A80036;stroke-width:1.0;" width="10" x="666" y="243.3672"/><polygon fill="#A80036" points="654,117.9609,664,121.9609,654,125.9609,658,121.9609" style="stroke:#A80036;stroke-width:1.0;"/><line style="stroke:#A80036;stroke-width:1.0;" x1="79" x2="660" y1="121.9609" y2="121.9609"/><text fill="#000000" font-family="sans-serif" font-size="13" font-weight="bold" lengthAdjust="spacingAndGlyphs" textLength="7" x="86" y="117.1045">1</text><text fill="#000000" font-family="sans-serif" font-size="13" lengthAdjust="spacingAndGlyphs" textLength="80" x="97" y="117.1045">register Client</text><polygon fill="#A80036" points="90,148.3125,80,152.3125,90,156.3125,86,152.3125" style="stroke:#A80036;stroke-width:1.0;"/><line style="stroke:#A80036;stroke-width:1.0;stroke-dasharray:2.0,2.0;" x1="84" x2="670" y1="152.3125" y2="152.3125"/><text fill="#000000" font-family="sans-serif" font-size="13" font-weight="bold" lengthAdjust="spacingAndGlyphs" textLength="7" x="96" y="147.4561">2</text><text fill="#000000" font-family="sans-serif" font-size="13" lengthAdjust="spacingAndGlyphs" textLength="552" x="107" y="147.4561">requests for Client data (name, email, address, GPS Decimal Degrees, NIF and credit card info)</text><polygon fill="#A80036" points="654,178.6641,664,182.6641,654,186.6641,658,182.6641" style="stroke:#A80036;stroke-width:1.0;"/><line style="stroke:#A80036;stroke-width:1.0;" x1="79" x2="660" y1="182.6641" y2="182.6641"/><text fill="#000000" font-family="sans-serif" font-size="13" font-weight="bold" lengthAdjust="spacingAndGlyphs" textLength="7" x="86" y="177.8076">3</text><text fill="#000000" font-family="sans-serif" font-size="13" lengthAdjust="spacingAndGlyphs" textLength="129" x="97" y="177.8076">inserts requested data</text><polygon fill="#A80036" points="90,209.0156,80,213.0156,90,217.0156,86,213.0156" style="stroke:#A80036;stroke-width:1.0;"/><line style="stroke:#A80036;stroke-width:1.0;stroke-dasharray:2.0,2.0;" x1="84" x2="670" y1="213.0156" y2="213.0156"/><text fill="#000000" font-family="sans-serif" font-size="13" font-weight="bold" lengthAdjust="spacingAndGlyphs" textLength="7" x="96" y="208.1592">4</text><text fill="#000000" font-family="sans-serif" font-size="13" lengthAdjust="spacingAndGlyphs" textLength="219" x="107" y="208.1592">shows data and requests confirmation</text><polygon fill="#A80036" points="654,239.3672,664,243.3672,654,247.3672,658,243.3672" style="stroke:#A80036;stroke-width:1.0;"/><line style="stroke:#A80036;stroke-width:1.0;" x1="79" x2="660" y1="243.3672" y2="243.3672"/><text fill="#000000" font-family="sans-serif" font-size="13" font-weight="bold" lengthAdjust="spacingAndGlyphs" textLength="7" x="86" y="238.5107">5</text><text fill="#000000" font-family="sans-serif" font-size="13" lengthAdjust="spacingAndGlyphs" textLength="49" x="97" y="238.5107">confirms</text><polygon fill="#A80036" points="85,269.7188,75,273.7188,85,277.7188,81,273.7188" style="stroke:#A80036;stroke-width:1.0;"/><line style="stroke:#A80036;stroke-width:1.0;stroke-dasharray:2.0,2.0;" x1="79" x2="670" y1="273.7188" y2="273.7188"/><text fill="#000000" font-family="sans-serif" font-size="13" font-weight="bold" lengthAdjust="spacingAndGlyphs" textLength="7" x="91" y="268.8623">6</text><text fill="#000000" font-family="sans-serif" font-size="13" lengthAdjust="spacingAndGlyphs" textLength="119" x="102" y="268.8623">successful operation</text><!--MD5=[fd51aed01b13e6cf6e69e9591c3cf344]
@startuml
autonumber
actor "Non-Registered User" as NRU

activate NRU
NRU -> ":Platform" : register Client
activate ":Platform"
":Platform" - -> NRU : requests for Client data (name, email, address, GPS Decimal Degrees, NIF and credit card info)
deactivate ":Platform"

NRU -> ":Platform" : inserts requested data
activate ":Platform"
":Platform" - -> NRU : shows data and requests confirmation
deactivate ":Platform"

NRU -> ":Platform" : confirms
activate ":Platform"
":Platform" - -> NRU : successful operation
deactivate ":Platform"

deactivate NRU
@enduml

PlantUML version 1.2020.23(Sun Dec 13 19:14:58 GMT 2020)
(GPL source distribution)
Java Runtime: OpenJDK Runtime Environment
JVM: OpenJDK 64-Bit Server VM
Default Encoding: Cp1252
Language: en
Country: US
--></g></svg>