<?xml version="1.0" encoding="UTF-8" standalone="no"?><svg xmlns="http://www.w3.org/2000/svg" xmlns:xlink="http://www.w3.org/1999/xlink" contentScriptType="application/ecmascript" contentStyleType="text/css" height="329px" preserveAspectRatio="none" style="width:519px;height:329px;" version="1.1" viewBox="0 0 519 329" width="519px" zoomAndPan="magnify"><defs><filter height="300%" id="f1b2w3zjztjpas" width="300%" x="-1" y="-1"><feGaussianBlur result="blurOut" stdDeviation="2.0"/><feColorMatrix in="blurOut" result="blurOut2" type="matrix" values="0 0 0 0 0 0 0 0 0 0 0 0 0 0 0 0 0 0 .4 0"/><feOffset dx="4.0" dy="4.0" in="blurOut2" result="blurOut3"/><feBlend in="SourceGraphic" in2="blurOut3" mode="normal"/></filter></defs><g><!--MD5=[ed6624c6556d5e7b1bd23032162d20b7]
class Client--><rect codeLine="4" fill="#FEFECE" filter="url(#f1b2w3zjztjpas)" height="158.6875" id="Client" style="stroke:#A80036;stroke-width:1.5;" width="167" x="136" y="7"/><ellipse cx="199.25" cy="23" fill="#ADD1B2" rx="11" ry="11" style="stroke:#A80036;stroke-width:1.0;"/><path d="M201.25,19.5 Q201.4531,19 201.6875,18.75 Q201.9219,18.5 202.1875,18.5 Q202.6563,18.5 202.9531,18.7813 Q203.25,19.0625 203.25,19.7188 L203.25,21.2813 Q203.25,21.9375 202.9688,22.2188 Q202.6875,22.5 202.25,22.5 Q201.8594,22.5 201.6094,22.3281 Q201.3594,22.1563 201.25,21.7031 Q201.2031,21.3906 201.0313,21.2188 Q200.7188,20.8906 200.1563,20.7031 Q199.5938,20.5 199.0313,20.5 Q198.3281,20.5 197.7344,20.7813 Q197.1563,21.0625 196.7031,21.6875 Q196.25,22.3125 196.25,23.1719 L196.25,24.0938 Q196.25,25.125 197.0938,25.8125 Q197.9375,26.5 199.4375,26.5 Q200.3281,26.5 200.9531,26.2969 Q201.3125,26.1875 201.7188,25.8281 Q201.9844,25.625 202.125,25.5625 Q202.2656,25.5 202.4375,25.5 Q202.7656,25.5 203,25.7656 Q203.25,26.0156 203.25,26.375 Q203.25,26.7188 202.9063,27.125 Q202.4063,27.7188 201.6094,28.0469 Q200.5625,28.5 199.2813,28.5 Q197.7813,28.5 196.5781,27.9063 Q195.6094,27.4375 194.9219,26.4219 Q194.25,25.4063 194.25,24.2031 L194.25,23.1094 Q194.25,21.8594 194.8438,20.7656 Q195.4531,19.6719 196.5,19.0938 Q197.5625,18.5 198.75,18.5 Q199.4688,18.5 200.0938,18.75 Q200.7188,19 201.25,19.5 Z " fill="#000000"/><text fill="#000000" font-family="sans-serif" font-size="12" lengthAdjust="spacingAndGlyphs" textLength="32" x="219.75" y="27.9102">Client</text><line style="stroke:#A80036;stroke-width:1.5;" x1="137" x2="302" y1="39" y2="39"/><rect fill="none" height="6" style="stroke:#C82930;stroke-width:1.0;" width="6" x="144" y="47"/><text fill="#000000" font-family="sans-serif" font-size="11" lengthAdjust="spacingAndGlyphs" textLength="92" x="156" y="54.4189">String clientid «PK»</text><rect fill="none" height="6" style="stroke:#C82930;stroke-width:1.0;" width="6" x="144" y="60.8359"/><text fill="#000000" font-family="sans-serif" font-size="11" lengthAdjust="spacingAndGlyphs" textLength="57" x="156" y="68.2549">String name</text><rect fill="none" height="6" style="stroke:#C82930;stroke-width:1.0;" width="6" x="144" y="74.6719"/><text fill="#000000" font-family="sans-serif" font-size="11" lengthAdjust="spacingAndGlyphs" textLength="55" x="156" y="82.0908">String email</text><rect fill="none" height="6" style="stroke:#C82930;stroke-width:1.0;" width="6" x="144" y="88.5078"/><text fill="#000000" font-family="sans-serif" font-size="11" lengthAdjust="spacingAndGlyphs" textLength="29" x="156" y="95.9268">int NIF</text><rect fill="none" height="6" style="stroke:#C82930;stroke-width:1.0;" width="6" x="144" y="102.3438"/><text fill="#000000" font-family="sans-serif" font-size="11" lengthAdjust="spacingAndGlyphs" textLength="47" x="156" y="109.7627">int credits</text><rect fill="none" height="6" style="stroke:#C82930;stroke-width:1.0;" width="6" x="144" y="116.1797"/><text fill="#000000" font-family="sans-serif" font-size="11" lengthAdjust="spacingAndGlyphs" textLength="129" x="156" y="123.5986">int creditCardNumber «FK»</text><rect fill="none" height="6" style="stroke:#C82930;stroke-width:1.0;" width="6" x="144" y="130.0156"/><text fill="#000000" font-family="sans-serif" font-size="11" lengthAdjust="spacingAndGlyphs" textLength="140" x="156" y="137.4346">double gpsCoordinateX «FK»</text><rect fill="none" height="6" style="stroke:#C82930;stroke-width:1.0;" width="6" x="144" y="143.8516"/><text fill="#000000" font-family="sans-serif" font-size="11" lengthAdjust="spacingAndGlyphs" textLength="141" x="156" y="151.2705">double gpsCoordinateY «FK»</text><line style="stroke:#A80036;stroke-width:1.5;" x1="137" x2="302" y1="157.6875" y2="157.6875"/><!--MD5=[0f39e4cb6f03951afbf6d14bd2505654]
class Address--><rect codeLine="15" fill="#FEFECE" filter="url(#f1b2w3zjztjpas)" height="117.1797" id="Address" style="stroke:#A80036;stroke-width:1.5;" width="167" x="338" y="28"/><ellipse cx="394.25" cy="44" fill="#ADD1B2" rx="11" ry="11" style="stroke:#A80036;stroke-width:1.0;"/><path d="M396.25,40.5 Q396.4531,40 396.6875,39.75 Q396.9219,39.5 397.1875,39.5 Q397.6563,39.5 397.9531,39.7813 Q398.25,40.0625 398.25,40.7188 L398.25,42.2813 Q398.25,42.9375 397.9688,43.2188 Q397.6875,43.5 397.25,43.5 Q396.8594,43.5 396.6094,43.3281 Q396.3594,43.1563 396.25,42.7031 Q396.2031,42.3906 396.0313,42.2188 Q395.7188,41.8906 395.1563,41.7031 Q394.5938,41.5 394.0313,41.5 Q393.3281,41.5 392.7344,41.7813 Q392.1563,42.0625 391.7031,42.6875 Q391.25,43.3125 391.25,44.1719 L391.25,45.0938 Q391.25,46.125 392.0938,46.8125 Q392.9375,47.5 394.4375,47.5 Q395.3281,47.5 395.9531,47.2969 Q396.3125,47.1875 396.7188,46.8281 Q396.9844,46.625 397.125,46.5625 Q397.2656,46.5 397.4375,46.5 Q397.7656,46.5 398,46.7656 Q398.25,47.0156 398.25,47.375 Q398.25,47.7188 397.9063,48.125 Q397.4063,48.7188 396.6094,49.0469 Q395.5625,49.5 394.2813,49.5 Q392.7813,49.5 391.5781,48.9063 Q390.6094,48.4375 389.9219,47.4219 Q389.25,46.4063 389.25,45.2031 L389.25,44.1094 Q389.25,42.8594 389.8438,41.7656 Q390.4531,40.6719 391.5,40.0938 Q392.5625,39.5 393.75,39.5 Q394.4688,39.5 395.0938,39.75 Q395.7188,40 396.25,40.5 Z " fill="#000000"/><text fill="#000000" font-family="sans-serif" font-size="12" lengthAdjust="spacingAndGlyphs" textLength="46" x="414.75" y="48.9102">Address</text><line style="stroke:#A80036;stroke-width:1.5;" x1="339" x2="504" y1="60" y2="60"/><rect fill="none" height="6" style="stroke:#C82930;stroke-width:1.0;" width="6" x="346" y="68"/><text fill="#000000" font-family="sans-serif" font-size="11" lengthAdjust="spacingAndGlyphs" textLength="59" x="358" y="75.4189">String street</text><rect fill="none" height="6" style="stroke:#C82930;stroke-width:1.0;" width="6" x="346" y="81.8359"/><text fill="#000000" font-family="sans-serif" font-size="11" lengthAdjust="spacingAndGlyphs" textLength="140" x="358" y="89.2549">double gpsCoordinateX «PK»</text><rect fill="none" height="6" style="stroke:#C82930;stroke-width:1.0;" width="6" x="346" y="95.6719"/><text fill="#000000" font-family="sans-serif" font-size="11" lengthAdjust="spacingAndGlyphs" textLength="141" x="358" y="103.0908">double gpsCoordinateY «PK»</text><rect fill="none" height="6" style="stroke:#C82930;stroke-width:1.0;" width="6" x="346" y="109.5078"/><text fill="#000000" font-family="sans-serif" font-size="11" lengthAdjust="spacingAndGlyphs" textLength="79" x="358" y="116.9268">int postalId «FK»</text><rect fill="none" height="6" style="stroke:#C82930;stroke-width:1.0;" width="6" x="346" y="123.3438"/><text fill="#000000" font-family="sans-serif" font-size="11" lengthAdjust="spacingAndGlyphs" textLength="78" x="358" y="130.7627">double elevation</text><line style="stroke:#A80036;stroke-width:1.5;" x1="339" x2="504" y1="137.1797" y2="137.1797"/><!--MD5=[f061b633de56a323bd4d344a8bec65fe]
class PostalCode--><rect codeLine="24" fill="#FEFECE" filter="url(#f1b2w3zjztjpas)" height="89.5078" id="PostalCode" style="stroke:#A80036;stroke-width:1.5;" width="105" x="369" y="226"/><ellipse cx="387.6" cy="242" fill="#ADD1B2" rx="11" ry="11" style="stroke:#A80036;stroke-width:1.0;"/><path d="M389.6,238.5 Q389.8031,238 390.0375,237.75 Q390.2719,237.5 390.5375,237.5 Q391.0063,237.5 391.3031,237.7813 Q391.6,238.0625 391.6,238.7188 L391.6,240.2813 Q391.6,240.9375 391.3188,241.2188 Q391.0375,241.5 390.6,241.5 Q390.2094,241.5 389.9594,241.3281 Q389.7094,241.1563 389.6,240.7031 Q389.5531,240.3906 389.3813,240.2188 Q389.0688,239.8906 388.5063,239.7031 Q387.9438,239.5 387.3813,239.5 Q386.6781,239.5 386.0844,239.7813 Q385.5063,240.0625 385.0531,240.6875 Q384.6,241.3125 384.6,242.1719 L384.6,243.0938 Q384.6,244.125 385.4438,244.8125 Q386.2875,245.5 387.7875,245.5 Q388.6781,245.5 389.3031,245.2969 Q389.6625,245.1875 390.0688,244.8281 Q390.3344,244.625 390.475,244.5625 Q390.6156,244.5 390.7875,244.5 Q391.1156,244.5 391.35,244.7656 Q391.6,245.0156 391.6,245.375 Q391.6,245.7188 391.2563,246.125 Q390.7563,246.7188 389.9594,247.0469 Q388.9125,247.5 387.6313,247.5 Q386.1313,247.5 384.9281,246.9063 Q383.9594,246.4375 383.2719,245.4219 Q382.6,244.4063 382.6,243.2031 L382.6,242.1094 Q382.6,240.8594 383.1938,239.7656 Q383.8031,238.6719 384.85,238.0938 Q385.9125,237.5 387.1,237.5 Q387.8188,237.5 388.4438,237.75 Q389.0688,238 389.6,238.5 Z " fill="#000000"/><text fill="#000000" font-family="sans-serif" font-size="12" lengthAdjust="spacingAndGlyphs" textLength="65" x="402.4" y="246.9102">PostalCode</text><line style="stroke:#A80036;stroke-width:1.5;" x1="370" x2="473" y1="258" y2="258"/><rect fill="none" height="6" style="stroke:#C82930;stroke-width:1.0;" width="6" x="377" y="266"/><text fill="#000000" font-family="sans-serif" font-size="11" lengthAdjust="spacingAndGlyphs" textLength="79" x="389" y="273.4189">int postalId «PK»</text><rect fill="none" height="6" style="stroke:#C82930;stroke-width:1.0;" width="6" x="377" y="279.8359"/><text fill="#000000" font-family="sans-serif" font-size="11" lengthAdjust="spacingAndGlyphs" textLength="31" x="389" y="287.2549">int city</text><rect fill="none" height="6" style="stroke:#C82930;stroke-width:1.0;" width="6" x="377" y="293.6719"/><text fill="#000000" font-family="sans-serif" font-size="11" lengthAdjust="spacingAndGlyphs" textLength="36" x="389" y="301.0908">int local</text><line style="stroke:#A80036;stroke-width:1.5;" x1="370" x2="473" y1="307.5078" y2="307.5078"/><!--MD5=[91d4151b6d4c9a3d01b6d84b2458eece]
class CreditCard--><rect codeLine="30" fill="#FEFECE" filter="url(#f1b2w3zjztjpas)" height="89.5078" id="CreditCard" style="stroke:#A80036;stroke-width:1.5;" width="155" x="7" y="226"/><ellipse cx="50.35" cy="242" fill="#ADD1B2" rx="11" ry="11" style="stroke:#A80036;stroke-width:1.0;"/><path d="M52.35,238.5 Q52.5531,238 52.7875,237.75 Q53.0219,237.5 53.2875,237.5 Q53.7563,237.5 54.0531,237.7813 Q54.35,238.0625 54.35,238.7188 L54.35,240.2813 Q54.35,240.9375 54.0688,241.2188 Q53.7875,241.5 53.35,241.5 Q52.9594,241.5 52.7094,241.3281 Q52.4594,241.1563 52.35,240.7031 Q52.3031,240.3906 52.1313,240.2188 Q51.8188,239.8906 51.2563,239.7031 Q50.6938,239.5 50.1313,239.5 Q49.4281,239.5 48.8344,239.7813 Q48.2563,240.0625 47.8031,240.6875 Q47.35,241.3125 47.35,242.1719 L47.35,243.0938 Q47.35,244.125 48.1938,244.8125 Q49.0375,245.5 50.5375,245.5 Q51.4281,245.5 52.0531,245.2969 Q52.4125,245.1875 52.8188,244.8281 Q53.0844,244.625 53.225,244.5625 Q53.3656,244.5 53.5375,244.5 Q53.8656,244.5 54.1,244.7656 Q54.35,245.0156 54.35,245.375 Q54.35,245.7188 54.0063,246.125 Q53.5063,246.7188 52.7094,247.0469 Q51.6625,247.5 50.3813,247.5 Q48.8813,247.5 47.6781,246.9063 Q46.7094,246.4375 46.0219,245.4219 Q45.35,244.4063 45.35,243.2031 L45.35,242.1094 Q45.35,240.8594 45.9438,239.7656 Q46.5531,238.6719 47.6,238.0938 Q48.6625,237.5 49.85,237.5 Q50.5688,237.5 51.1938,237.75 Q51.8188,238 52.35,238.5 Z " fill="#000000"/><text fill="#000000" font-family="sans-serif" font-size="12" lengthAdjust="spacingAndGlyphs" textLength="60" x="70.65" y="246.9102">CreditCard</text><line style="stroke:#A80036;stroke-width:1.5;" x1="8" x2="161" y1="258" y2="258"/><rect fill="none" height="6" style="stroke:#C82930;stroke-width:1.0;" width="6" x="15" y="266"/><text fill="#000000" font-family="sans-serif" font-size="11" lengthAdjust="spacingAndGlyphs" textLength="129" x="27" y="273.4189">int creditCardNumber «PK»</text><rect fill="none" height="6" style="stroke:#C82930;stroke-width:1.0;" width="6" x="15" y="279.8359"/><text fill="#000000" font-family="sans-serif" font-size="11" lengthAdjust="spacingAndGlyphs" textLength="57" x="27" y="287.2549">date validity</text><rect fill="none" height="6" style="stroke:#C82930;stroke-width:1.0;" width="6" x="15" y="293.6719"/><text fill="#000000" font-family="sans-serif" font-size="11" lengthAdjust="spacingAndGlyphs" textLength="92" x="27" y="301.0908">int verificationCode</text><line style="stroke:#A80036;stroke-width:1.5;" x1="8" x2="161" y1="307.5078" y2="307.5078"/><!--MD5=[3fd616f346a44cd59a91eb10b19e157c]
class User--><rect codeLine="36" fill="#FEFECE" filter="url(#f1b2w3zjztjpas)" height="89.5078" id="User" style="stroke:#A80036;stroke-width:1.5;" width="107" x="197" y="226"/><ellipse cx="233.6" cy="242" fill="#ADD1B2" rx="11" ry="11" style="stroke:#A80036;stroke-width:1.0;"/><path d="M235.6,238.5 Q235.8031,238 236.0375,237.75 Q236.2719,237.5 236.5375,237.5 Q237.0063,237.5 237.3031,237.7813 Q237.6,238.0625 237.6,238.7188 L237.6,240.2813 Q237.6,240.9375 237.3188,241.2188 Q237.0375,241.5 236.6,241.5 Q236.2094,241.5 235.9594,241.3281 Q235.7094,241.1563 235.6,240.7031 Q235.5531,240.3906 235.3813,240.2188 Q235.0688,239.8906 234.5063,239.7031 Q233.9438,239.5 233.3813,239.5 Q232.6781,239.5 232.0844,239.7813 Q231.5063,240.0625 231.0531,240.6875 Q230.6,241.3125 230.6,242.1719 L230.6,243.0938 Q230.6,244.125 231.4438,244.8125 Q232.2875,245.5 233.7875,245.5 Q234.6781,245.5 235.3031,245.2969 Q235.6625,245.1875 236.0688,244.8281 Q236.3344,244.625 236.475,244.5625 Q236.6156,244.5 236.7875,244.5 Q237.1156,244.5 237.35,244.7656 Q237.6,245.0156 237.6,245.375 Q237.6,245.7188 237.2563,246.125 Q236.7563,246.7188 235.9594,247.0469 Q234.9125,247.5 233.6313,247.5 Q232.1313,247.5 230.9281,246.9063 Q229.9594,246.4375 229.2719,245.4219 Q228.6,244.4063 228.6,243.2031 L228.6,242.1094 Q228.6,240.8594 229.1938,239.7656 Q229.8031,238.6719 230.85,238.0938 Q231.9125,237.5 233.1,237.5 Q233.8188,237.5 234.4438,237.75 Q235.0688,238 235.6,238.5 Z " fill="#000000"/><text fill="#000000" font-family="sans-serif" font-size="12" lengthAdjust="spacingAndGlyphs" textLength="27" x="252.4" y="246.9102">User</text><line style="stroke:#A80036;stroke-width:1.5;" x1="198" x2="303" y1="258" y2="258"/><rect fill="none" height="6" style="stroke:#C82930;stroke-width:1.0;" width="6" x="205" y="266"/><text fill="#000000" font-family="sans-serif" font-size="11" lengthAdjust="spacingAndGlyphs" textLength="55" x="217" y="273.4189">String email</text><rect fill="none" height="6" style="stroke:#C82930;stroke-width:1.0;" width="6" x="205" y="279.8359"/><text fill="#000000" font-family="sans-serif" font-size="11" lengthAdjust="spacingAndGlyphs" textLength="81" x="217" y="287.2549">String password</text><rect fill="none" height="6" style="stroke:#C82930;stroke-width:1.0;" width="6" x="205" y="293.6719"/><text fill="#000000" font-family="sans-serif" font-size="11" lengthAdjust="spacingAndGlyphs" textLength="80" x="217" y="301.0908">String user_type</text><line style="stroke:#A80036;stroke-width:1.5;" x1="198" x2="303" y1="307.5078" y2="307.5078"/><!--MD5=[9a8dc34b38f85b9f3fcdb440f4bffc6a]
link Client to User--><path codeLine="42" d="M234.26,174.4 C236.78,189.2 239.31,204.15 241.62,217.69 " fill="none" id="Client-User" style="stroke:#A80036;stroke-width:1.0;"/><line style="stroke:#A80036;stroke-width:1.0;" x1="241.1634" x2="243.01" y1="215.0861" y2="225.93"/><ellipse cx="241.1634" cy="215.0861" fill="none" rx="4" ry="4" style="stroke:#A80036;stroke-width:1.0;"/><line style="stroke:#A80036;stroke-width:1.0;" x1="246.2817" x2="238.3953" y1="221.3153" y2="222.6583"/><line style="stroke:#A80036;stroke-width:1.0;" x1="234.7166" x2="232.87" y1="177.0639" y2="166.22"/><ellipse cx="234.7166" cy="177.0639" fill="none" rx="4" ry="4" style="stroke:#A80036;stroke-width:1.0;"/><line style="stroke:#A80036;stroke-width:1.0;" x1="229.5983" x2="237.4847" y1="170.8347" y2="169.4917"/><!--MD5=[bd708f2371c655af07b49ddbdb30848a]
link Client to Address--><path codeLine="44" d="M311.27,86.5 C317.35,86.5 323.44,86.5 329.52,86.5 " fill="none" id="Client-Address" style="stroke:#A80036;stroke-width:1.0;"/><line style="stroke:#A80036;stroke-width:1.0;" x1="326.82" x2="337.82" y1="86.5" y2="86.5"/><ellipse cx="326.82" cy="86.5" fill="none" rx="4" ry="4" style="stroke:#A80036;stroke-width:1.0;"/><line style="stroke:#A80036;stroke-width:1.0;" x1="333.82" x2="333.82" y1="82.5" y2="90.5"/><line style="stroke:#A80036;stroke-width:1.0;" x1="311.14" x2="303.14" y1="86.5" y2="92.5"/><line style="stroke:#A80036;stroke-width:1.0;" x1="311.14" x2="303.14" y1="86.5" y2="80.5"/><line style="stroke:#A80036;stroke-width:1.0;" x1="311.14" x2="303.14" y1="86.5" y2="86.5"/><line style="stroke:#A80036;stroke-width:1.0;" x1="313.14" x2="313.14" y1="90.5" y2="82.5"/><!--MD5=[0748050afd2139cbb3c9faec3f892ae9]
link Client to CreditCard--><path codeLine="45" d="M156.29,172.96 C144.52,188.86 132.59,205 121.91,219.43 " fill="none" id="Client-CreditCard" style="stroke:#A80036;stroke-width:1.0;"/><line style="stroke:#A80036;stroke-width:1.0;" x1="123.6433" x2="117.1" y1="217.0877" y2="225.93"/><ellipse cx="123.6433" cy="217.0877" fill="none" rx="4" ry="4" style="stroke:#A80036;stroke-width:1.0;"/><line style="stroke:#A80036;stroke-width:1.0;" x1="122.6947" x2="116.264" y1="225.094" y2="220.3353"/><line style="stroke:#A80036;stroke-width:1.0;" x1="154.7267" x2="161.27" y1="175.0623" y2="166.22"/><ellipse cx="154.7267" cy="175.0623" fill="none" rx="4" ry="4" style="stroke:#A80036;stroke-width:1.0;"/><line style="stroke:#A80036;stroke-width:1.0;" x1="155.6753" x2="162.106" y1="167.056" y2="171.8147"/><!--MD5=[4da5c7c17dc5d5ecf3707ff92f3d6286]
link Address to PostalCode--><path codeLine="47" d="M421.5,153.32 C421.5,174.53 421.5,197.74 421.5,217.83 " fill="none" id="Address-PostalCode" style="stroke:#A80036;stroke-width:1.0;"/><line style="stroke:#A80036;stroke-width:1.0;" x1="421.5" x2="421.5" y1="214.94" y2="225.94"/><ellipse cx="421.5" cy="214.94" fill="none" rx="4" ry="4" style="stroke:#A80036;stroke-width:1.0;"/><line style="stroke:#A80036;stroke-width:1.0;" x1="425.5" x2="417.5" y1="221.94" y2="221.94"/><line style="stroke:#A80036;stroke-width:1.0;" x1="421.5" x2="415.5" y1="153.24" y2="145.24"/><line style="stroke:#A80036;stroke-width:1.0;" x1="421.5" x2="427.5" y1="153.24" y2="145.24"/><line style="stroke:#A80036;stroke-width:1.0;" x1="421.5" x2="421.5" y1="153.24" y2="145.24"/><line style="stroke:#A80036;stroke-width:1.0;" x1="417.5" x2="425.5" y1="155.24" y2="155.24"/><!--MD5=[ab7c2b95bb8fc025af1d3638cc345746]
@startuml
'skinparam linetype polyline


class Client {
    -String clientid «PK»
    -String name
    -String email
    -int NIF
    -int credits
    -int creditCardNumber «FK»
    -double gpsCoordinateX «FK»
    -double gpsCoordinateY «FK»
}

class Address {
    -String street
    -double gpsCoordinateX «PK»
    -double gpsCoordinateY «PK»
    -int postalId «FK»
    -double elevation
}


class PostalCode {
    -int postalId «PK»
    -int city
    -int local
}

class CreditCard {
    -int creditCardNumber «PK»
    -date validity
    -int verificationCode
}

class User {
  -String email
  -String password
  -String user_type
}

Client |o- -o| User

Client }|-o| Address
Client |o- -o| CreditCard

Address }|- -o| PostalCode




@enduml

@startuml


class Client {
    -String clientid «PK»
    -String name
    -String email
    -int NIF
    -int credits
    -int creditCardNumber «FK»
    -double gpsCoordinateX «FK»
    -double gpsCoordinateY «FK»
}

class Address {
    -String street
    -double gpsCoordinateX «PK»
    -double gpsCoordinateY «PK»
    -int postalId «FK»
    -double elevation
}


class PostalCode {
    -int postalId «PK»
    -int city
    -int local
}

class CreditCard {
    -int creditCardNumber «PK»
    -date validity
    -int verificationCode
}

class User {
  -String email
  -String password
  -String user_type
}

Client |o- -o| User

Client }|-o| Address
Client |o- -o| CreditCard

Address }|- -o| PostalCode




@enduml

PlantUML version 1.2020.23(Sun Dec 13 19:14:58 GMT 2020)
(GPL source distribution)
Java Runtime: OpenJDK Runtime Environment
JVM: OpenJDK 64-Bit Server VM
Default Encoding: Cp1252
Language: en
Country: US
--></g></svg>