<?xml version="1.0" encoding="UTF-8" standalone="no"?><svg xmlns="http://www.w3.org/2000/svg" xmlns:xlink="http://www.w3.org/1999/xlink" contentScriptType="application/ecmascript" contentStyleType="text/css" height="329.28px" preserveAspectRatio="none" style="width:3382px;height:329px;" version="1.1" viewBox="0 0 3382 329" width="3382.4px" zoomAndPan="magnify"><defs><filter height="300%" id="f5y6lapbfbe1h" width="300%" x="-1" y="-1"><feGaussianBlur result="blurOut" stdDeviation="2.24"/><feColorMatrix in="blurOut" result="blurOut2" type="matrix" values="0 0 0 0 0 0 0 0 0 0 0 0 0 0 0 0 0 0 .4 0"/><feOffset dx="4.48" dy="4.48" in="blurOut2" result="blurOut3"/><feBlend in="SourceGraphic" in2="blurOut3" mode="normal"/></filter></defs><g><!--MD5=[99b8db98afdc2c8404e39242ef4c1e65]
class Platform--><rect codeLine="5" fill="#FEFECE" filter="url(#f5y6lapbfbe1h)" height="53.76" id="Platform" style="stroke:#A80036;stroke-width:1.6800000000000002;" width="87.36" x="1019.2" y="185.36"/><ellipse cx="1036" cy="203.28" fill="#ADD1B2" rx="12.32" ry="12.32" style="stroke:#A80036;stroke-width:1.12;"/><path d="M1038.24,199.36 Q1038.4675,198.8 1038.73,198.52 Q1038.9925,198.24 1039.29,198.24 Q1039.815,198.24 1040.1475,198.555 Q1040.48,198.87 1040.48,199.605 L1040.48,201.355 Q1040.48,202.09 1040.165,202.405 Q1039.85,202.72 1039.36,202.72 Q1038.9225,202.72 1038.6425,202.5275 Q1038.3625,202.335 1038.24,201.8275 Q1038.1875,201.4775 1037.995,201.285 Q1037.645,200.9175 1037.015,200.7075 Q1036.385,200.48 1035.755,200.48 Q1034.9675,200.48 1034.3025,200.795 Q1033.655,201.11 1033.1475,201.81 Q1032.64,202.51 1032.64,203.4725 L1032.64,204.505 Q1032.64,205.66 1033.585,206.43 Q1034.53,207.2 1036.21,207.2 Q1037.2075,207.2 1037.9075,206.9725 Q1038.31,206.85 1038.765,206.4475 Q1039.0625,206.22 1039.22,206.15 Q1039.3775,206.08 1039.57,206.08 Q1039.9375,206.08 1040.2,206.3775 Q1040.48,206.6575 1040.48,207.06 Q1040.48,207.445 1040.095,207.9 Q1039.535,208.565 1038.6425,208.9325 Q1037.47,209.44 1036.035,209.44 Q1034.355,209.44 1033.0075,208.775 Q1031.9225,208.25 1031.1525,207.1125 Q1030.4,205.975 1030.4,204.6275 L1030.4,203.4025 Q1030.4,202.0025 1031.065,200.7775 Q1031.7475,199.5525 1032.92,198.905 Q1034.11,198.24 1035.44,198.24 Q1036.245,198.24 1036.945,198.52 Q1037.645,198.8 1038.24,199.36 Z " fill="#000000"/><text fill="#000000" font-family="sans-serif" font-size="13.44" lengthAdjust="spacingAndGlyphs" textLength="51.52" x="1051.68" y="208.7794">Platform</text><line style="stroke:#A80036;stroke-width:1.6800000000000002;" x1="1020.32" x2="1105.44" y1="221.2" y2="221.2"/><line style="stroke:#A80036;stroke-width:1.6800000000000002;" x1="1020.32" x2="1105.44" y1="230.16" y2="230.16"/><!--MD5=[5db81b08f3d99e8867372f214e0024e8]
class RegisterUnregisteredUserUI--><rect codeLine="8" fill="#FEFECE" filter="url(#f5y6lapbfbe1h)" height="53.76" id="RegisterUnregisteredUserUI" style="stroke:#A80036;stroke-width:1.6800000000000002;" width="212.8" x="7.84" y="122.64"/><ellipse cx="24.64" cy="140.56" fill="#ADD1B2" rx="12.32" ry="12.32" style="stroke:#A80036;stroke-width:1.12;"/><path d="M26.88,136.64 Q27.1075,136.08 27.37,135.8 Q27.6325,135.52 27.93,135.52 Q28.455,135.52 28.7875,135.835 Q29.12,136.15 29.12,136.885 L29.12,138.635 Q29.12,139.37 28.805,139.685 Q28.49,140 28,140 Q27.5625,140 27.2825,139.8075 Q27.0025,139.615 26.88,139.1075 Q26.8275,138.7575 26.635,138.565 Q26.285,138.1975 25.655,137.9875 Q25.025,137.76 24.395,137.76 Q23.6075,137.76 22.9425,138.075 Q22.295,138.39 21.7875,139.09 Q21.28,139.79 21.28,140.7525 L21.28,141.785 Q21.28,142.94 22.225,143.71 Q23.17,144.48 24.85,144.48 Q25.8475,144.48 26.5475,144.2525 Q26.95,144.13 27.405,143.7275 Q27.7025,143.5 27.86,143.43 Q28.0175,143.36 28.21,143.36 Q28.5775,143.36 28.84,143.6575 Q29.12,143.9375 29.12,144.34 Q29.12,144.725 28.735,145.18 Q28.175,145.845 27.2825,146.2125 Q26.11,146.72 24.675,146.72 Q22.995,146.72 21.6475,146.055 Q20.5625,145.53 19.7925,144.3925 Q19.04,143.255 19.04,141.9075 L19.04,140.6825 Q19.04,139.2825 19.705,138.0575 Q20.3875,136.8325 21.56,136.185 Q22.75,135.52 24.08,135.52 Q24.885,135.52 25.585,135.8 Q26.285,136.08 26.88,136.64 Z " fill="#000000"/><text fill="#000000" font-family="sans-serif" font-size="13.44" lengthAdjust="spacingAndGlyphs" textLength="176.96" x="40.32" y="146.0594">RegisterUnregisteredUserUI</text><line style="stroke:#A80036;stroke-width:1.6800000000000002;" x1="8.96" x2="219.52" y1="158.48" y2="158.48"/><line style="stroke:#A80036;stroke-width:1.6800000000000002;" x1="8.96" x2="219.52" y1="167.44" y2="167.44"/><!--MD5=[8ddaa16f441dd0164001ae631f833fcb]
class RegisterUnregisteredClientController--><rect codeLine="11" fill="#FEFECE" filter="url(#f5y6lapbfbe1h)" height="84.7525" id="RegisterUnregisteredClientController" style="stroke:#A80036;stroke-width:1.6800000000000002;" width="661.92" x="288.96" y="106.96"/><ellipse cx="500.36" cy="124.88" fill="#ADD1B2" rx="12.32" ry="12.32" style="stroke:#A80036;stroke-width:1.12;"/><path d="M502.6,120.96 Q502.8275,120.4 503.09,120.12 Q503.3525,119.84 503.65,119.84 Q504.175,119.84 504.5075,120.155 Q504.84,120.47 504.84,121.205 L504.84,122.955 Q504.84,123.69 504.525,124.005 Q504.21,124.32 503.72,124.32 Q503.2825,124.32 503.0025,124.1275 Q502.7225,123.935 502.6,123.4275 Q502.5475,123.0775 502.355,122.885 Q502.005,122.5175 501.375,122.3075 Q500.745,122.08 500.115,122.08 Q499.3275,122.08 498.6625,122.395 Q498.015,122.71 497.5075,123.41 Q497,124.11 497,125.0725 L497,126.105 Q497,127.26 497.945,128.03 Q498.89,128.8 500.57,128.8 Q501.5675,128.8 502.2675,128.5725 Q502.67,128.45 503.125,128.0475 Q503.4225,127.82 503.58,127.75 Q503.7375,127.68 503.93,127.68 Q504.2975,127.68 504.56,127.9775 Q504.84,128.2575 504.84,128.66 Q504.84,129.045 504.455,129.5 Q503.895,130.165 503.0025,130.5325 Q501.83,131.04 500.395,131.04 Q498.715,131.04 497.3675,130.375 Q496.2825,129.85 495.5125,128.7125 Q494.76,127.575 494.76,126.2275 L494.76,125.0025 Q494.76,123.6025 495.425,122.3775 Q496.1075,121.1525 497.28,120.505 Q498.47,119.84 499.8,119.84 Q500.605,119.84 501.305,120.12 Q502.005,120.4 502.6,120.96 Z " fill="#000000"/><text fill="#000000" font-family="sans-serif" font-size="13.44" lengthAdjust="spacingAndGlyphs" textLength="229.6" x="523.32" y="130.3794">RegisterUnregisteredClientController</text><line style="stroke:#A80036;stroke-width:1.6800000000000002;" x1="290.08" x2="949.76" y1="142.8" y2="142.8"/><line style="stroke:#A80036;stroke-width:1.6800000000000002;" x1="290.08" x2="949.76" y1="151.76" y2="151.76"/><text fill="#000000" font-family="sans-serif" font-size="12.32" lengthAdjust="spacingAndGlyphs" textLength="648.48" x="295.68" y="169.0292">+newClient(name, email, address, postalCode, coordinateX, coordinateY, nif, creditCardNumber, creditCardValidity, ccv)</text><text fill="#000000" font-family="sans-serif" font-size="12.32" lengthAdjust="spacingAndGlyphs" textLength="86.24" x="295.68" y="184.5255">+registerClient()</text><!--MD5=[3e53f45a90de988900137c8c228fe9fe]
class ClientRegistry--><rect codeLine="17" fill="#FEFECE" filter="url(#f5y6lapbfbe1h)" height="131.2413" id="ClientRegistry" style="stroke:#A80036;stroke-width:1.6800000000000002;" width="694.4" x="1174.88" y="106.4"/><ellipse cx="1474.2" cy="124.32" fill="#ADD1B2" rx="12.32" ry="12.32" style="stroke:#A80036;stroke-width:1.12;"/><path d="M1476.44,120.4 Q1476.6675,119.84 1476.93,119.56 Q1477.1925,119.28 1477.49,119.28 Q1478.015,119.28 1478.3475,119.595 Q1478.68,119.91 1478.68,120.645 L1478.68,122.395 Q1478.68,123.13 1478.365,123.445 Q1478.05,123.76 1477.56,123.76 Q1477.1225,123.76 1476.8425,123.5675 Q1476.5625,123.375 1476.44,122.8675 Q1476.3875,122.5175 1476.195,122.325 Q1475.845,121.9575 1475.215,121.7475 Q1474.585,121.52 1473.955,121.52 Q1473.1675,121.52 1472.5025,121.835 Q1471.855,122.15 1471.3475,122.85 Q1470.84,123.55 1470.84,124.5125 L1470.84,125.545 Q1470.84,126.7 1471.785,127.47 Q1472.73,128.24 1474.41,128.24 Q1475.4075,128.24 1476.1075,128.0125 Q1476.51,127.89 1476.965,127.4875 Q1477.2625,127.26 1477.42,127.19 Q1477.5775,127.12 1477.77,127.12 Q1478.1375,127.12 1478.4,127.4175 Q1478.68,127.6975 1478.68,128.1 Q1478.68,128.485 1478.295,128.94 Q1477.735,129.605 1476.8425,129.9725 Q1475.67,130.48 1474.235,130.48 Q1472.555,130.48 1471.2075,129.815 Q1470.1225,129.29 1469.3525,128.1525 Q1468.6,127.015 1468.6,125.6675 L1468.6,124.4425 Q1468.6,123.0425 1469.265,121.8175 Q1469.9475,120.5925 1471.12,119.945 Q1472.31,119.28 1473.64,119.28 Q1474.445,119.28 1475.145,119.56 Q1475.845,119.84 1476.44,120.4 Z " fill="#000000"/><text fill="#000000" font-family="sans-serif" font-size="13.44" lengthAdjust="spacingAndGlyphs" textLength="86.24" x="1497.16" y="129.8194">ClientRegistry</text><line style="stroke:#A80036;stroke-width:1.6800000000000002;" x1="1176" x2="1868.16" y1="142.24" y2="142.24"/><line style="stroke:#A80036;stroke-width:1.6800000000000002;" x1="1176" x2="1868.16" y1="151.2" y2="151.2"/><text fill="#000000" font-family="sans-serif" font-size="12.32" lengthAdjust="spacingAndGlyphs" textLength="680.96" x="1181.6" y="168.4692">+Client newClient(name, email, address, postalCode, coordinateX, coordinateY, nif, creditCardNumber, creditCardValidity, ccv)</text><text fill="#000000" font-family="sans-serif" font-size="12.32" lengthAdjust="spacingAndGlyphs" textLength="114.24" x="1181.6" y="183.9655">+registerClient(client)</text><text fill="#000000" font-family="sans-serif" font-size="12.32" lengthAdjust="spacingAndGlyphs" textLength="114.24" x="1181.6" y="199.4617">+validateClient(client)</text><text fill="#000000" font-family="sans-serif" font-size="12.32" lengthAdjust="spacingAndGlyphs" textLength="90.72" x="1181.6" y="214.958">-addClient(client)</text><text fill="#000000" font-family="sans-serif" font-size="12.32" lengthAdjust="spacingAndGlyphs" textLength="127.68" x="1181.6" y="230.4542">+registerClientAsUser()</text><!--MD5=[ed6624c6556d5e7b1bd23032162d20b7]
class Client--><rect codeLine="25" fill="#FEFECE" filter="url(#f5y6lapbfbe1h)" height="177.73" id="Client" style="stroke:#A80036;stroke-width:1.6800000000000002;" width="661.92" x="2045.12" y="7.84"/><ellipse cx="2353.4" cy="25.76" fill="#ADD1B2" rx="12.32" ry="12.32" style="stroke:#A80036;stroke-width:1.12;"/><path d="M2355.64,21.84 Q2355.8675,21.28 2356.13,21 Q2356.3925,20.72 2356.69,20.72 Q2357.215,20.72 2357.5475,21.035 Q2357.88,21.35 2357.88,22.085 L2357.88,23.835 Q2357.88,24.57 2357.565,24.885 Q2357.25,25.2 2356.76,25.2 Q2356.3225,25.2 2356.0425,25.0075 Q2355.7625,24.815 2355.64,24.3075 Q2355.5875,23.9575 2355.395,23.765 Q2355.045,23.3975 2354.415,23.1875 Q2353.785,22.96 2353.155,22.96 Q2352.3675,22.96 2351.7025,23.275 Q2351.055,23.59 2350.5475,24.29 Q2350.04,24.99 2350.04,25.9525 L2350.04,26.985 Q2350.04,28.14 2350.985,28.91 Q2351.93,29.68 2353.61,29.68 Q2354.6075,29.68 2355.3075,29.4525 Q2355.71,29.33 2356.165,28.9275 Q2356.4625,28.7 2356.62,28.63 Q2356.7775,28.56 2356.97,28.56 Q2357.3375,28.56 2357.6,28.8575 Q2357.88,29.1375 2357.88,29.54 Q2357.88,29.925 2357.495,30.38 Q2356.935,31.045 2356.0425,31.4125 Q2354.87,31.92 2353.435,31.92 Q2351.755,31.92 2350.4075,31.255 Q2349.3225,30.73 2348.5525,29.5925 Q2347.8,28.455 2347.8,27.1075 L2347.8,25.8825 Q2347.8,24.4825 2348.465,23.2575 Q2349.1475,22.0325 2350.32,21.385 Q2351.51,20.72 2352.84,20.72 Q2353.645,20.72 2354.345,21 Q2355.045,21.28 2355.64,21.84 Z " fill="#000000"/><text fill="#000000" font-family="sans-serif" font-size="13.44" lengthAdjust="spacingAndGlyphs" textLength="35.84" x="2376.36" y="31.2594">Client</text><line style="stroke:#A80036;stroke-width:1.6800000000000002;" x1="2046.24" x2="2705.92" y1="43.68" y2="43.68"/><text fill="#000000" font-family="sans-serif" font-size="12.32" lengthAdjust="spacingAndGlyphs" textLength="68.32" x="2051.84" y="60.9492">-String name</text><text fill="#000000" font-family="sans-serif" font-size="12.32" lengthAdjust="spacingAndGlyphs" textLength="66.08" x="2051.84" y="76.4455">-String email</text><text fill="#000000" font-family="sans-serif" font-size="12.32" lengthAdjust="spacingAndGlyphs" textLength="36.96" x="2051.84" y="91.9417">-int NIF</text><text fill="#000000" font-family="sans-serif" font-size="12.32" lengthAdjust="spacingAndGlyphs" textLength="117.6" x="2051.84" y="107.438">-int creditCardNumber</text><text fill="#000000" font-family="sans-serif" font-size="12.32" lengthAdjust="spacingAndGlyphs" textLength="115.36" x="2051.84" y="122.9342">-int creditCardValidity</text><text fill="#000000" font-family="sans-serif" font-size="12.32" lengthAdjust="spacingAndGlyphs" textLength="40.32" x="2051.84" y="138.4305">-int ccv</text><text fill="#000000" font-family="sans-serif" font-size="12.32" lengthAdjust="spacingAndGlyphs" textLength="99.68" x="2051.84" y="153.9267">-Address address</text><line style="stroke:#A80036;stroke-width:1.6800000000000002;" x1="2046.24" x2="2705.92" y1="161.1138" y2="161.1138"/><text fill="#000000" font-family="sans-serif" font-size="12.32" lengthAdjust="spacingAndGlyphs" textLength="648.48" x="2051.84" y="178.383">+newClient(name, email, address, postalCode, coordinateX, coordinateY, nif, creditCardNumber, creditCardValidity, ccv)</text><!--MD5=[0f39e4cb6f03951afbf6d14bd2505654]
class Address--><rect codeLine="38" fill="#FEFECE" filter="url(#f5y6lapbfbe1h)" height="146.7375" id="Address" style="stroke:#A80036;stroke-width:1.6800000000000002;" width="188.16" x="2920.96" y="23.52"/><ellipse cx="2984.52" cy="41.44" fill="#ADD1B2" rx="12.32" ry="12.32" style="stroke:#A80036;stroke-width:1.12;"/><path d="M2986.76,37.52 Q2986.9875,36.96 2987.25,36.68 Q2987.5125,36.4 2987.81,36.4 Q2988.335,36.4 2988.6675,36.715 Q2989,37.03 2989,37.765 L2989,39.515 Q2989,40.25 2988.685,40.565 Q2988.37,40.88 2987.88,40.88 Q2987.4425,40.88 2987.1625,40.6875 Q2986.8825,40.495 2986.76,39.9875 Q2986.7075,39.6375 2986.515,39.445 Q2986.165,39.0775 2985.535,38.8675 Q2984.905,38.64 2984.275,38.64 Q2983.4875,38.64 2982.8225,38.955 Q2982.175,39.27 2981.6675,39.97 Q2981.16,40.67 2981.16,41.6325 L2981.16,42.665 Q2981.16,43.82 2982.105,44.59 Q2983.05,45.36 2984.73,45.36 Q2985.7275,45.36 2986.4275,45.1325 Q2986.83,45.01 2987.285,44.6075 Q2987.5825,44.38 2987.74,44.31 Q2987.8975,44.24 2988.09,44.24 Q2988.4575,44.24 2988.72,44.5375 Q2989,44.8175 2989,45.22 Q2989,45.605 2988.615,46.06 Q2988.055,46.725 2987.1625,47.0925 Q2985.99,47.6 2984.555,47.6 Q2982.875,47.6 2981.5275,46.935 Q2980.4425,46.41 2979.6725,45.2725 Q2978.92,44.135 2978.92,42.7875 L2978.92,41.5625 Q2978.92,40.1625 2979.585,38.9375 Q2980.2675,37.7125 2981.44,37.065 Q2982.63,36.4 2983.96,36.4 Q2984.765,36.4 2985.465,36.68 Q2986.165,36.96 2986.76,37.52 Z " fill="#000000"/><text fill="#000000" font-family="sans-serif" font-size="13.44" lengthAdjust="spacingAndGlyphs" textLength="51.52" x="3007.48" y="46.9394">Address</text><line style="stroke:#A80036;stroke-width:1.6800000000000002;" x1="2922.08" x2="3108" y1="59.36" y2="59.36"/><text fill="#000000" font-family="sans-serif" font-size="12.32" lengthAdjust="spacingAndGlyphs" textLength="70.56" x="2927.68" y="76.6292">-String street</text><text fill="#000000" font-family="sans-serif" font-size="12.32" lengthAdjust="spacingAndGlyphs" textLength="76.16" x="2927.68" y="92.1255">-String locality</text><text fill="#000000" font-family="sans-serif" font-size="12.32" lengthAdjust="spacingAndGlyphs" textLength="108.64" x="2927.68" y="107.6217">-double coordinateX</text><text fill="#000000" font-family="sans-serif" font-size="12.32" lengthAdjust="spacingAndGlyphs" textLength="109.76" x="2927.68" y="123.118">-double coordinateY</text><text fill="#000000" font-family="sans-serif" font-size="12.32" lengthAdjust="spacingAndGlyphs" textLength="128.8" x="2927.68" y="138.6142">-PostalCode postalCode</text><line style="stroke:#A80036;stroke-width:1.6800000000000002;" x1="2922.08" x2="3108" y1="145.8013" y2="145.8013"/><text fill="#000000" font-family="sans-serif" font-size="12.32" lengthAdjust="spacingAndGlyphs" textLength="174.72" x="2927.68" y="163.0705">+Address(address, postalCode)</text><!--MD5=[f061b633de56a323bd4d344a8bec65fe]
class PostalCode--><rect codeLine="48" fill="#FEFECE" filter="url(#f5y6lapbfbe1h)" height="100.2488" id="PostalCode" style="stroke:#A80036;stroke-width:1.6800000000000002;" width="150.08" x="3216.64" y="46.48"/><ellipse cx="3252.088" cy="64.4" fill="#ADD1B2" rx="12.32" ry="12.32" style="stroke:#A80036;stroke-width:1.12;"/><path d="M3254.328,60.48 Q3254.5555,59.92 3254.818,59.64 Q3255.0805,59.36 3255.378,59.36 Q3255.903,59.36 3256.2355,59.675 Q3256.568,59.99 3256.568,60.725 L3256.568,62.475 Q3256.568,63.21 3256.253,63.525 Q3255.938,63.84 3255.448,63.84 Q3255.0105,63.84 3254.7305,63.6475 Q3254.4505,63.455 3254.328,62.9475 Q3254.2755,62.5975 3254.083,62.405 Q3253.733,62.0375 3253.103,61.8275 Q3252.473,61.6 3251.843,61.6 Q3251.0555,61.6 3250.3905,61.915 Q3249.743,62.23 3249.2355,62.93 Q3248.728,63.63 3248.728,64.5925 L3248.728,65.625 Q3248.728,66.78 3249.673,67.55 Q3250.618,68.32 3252.298,68.32 Q3253.2955,68.32 3253.9955,68.0925 Q3254.398,67.97 3254.853,67.5675 Q3255.1505,67.34 3255.308,67.27 Q3255.4655,67.2 3255.658,67.2 Q3256.0255,67.2 3256.288,67.4975 Q3256.568,67.7775 3256.568,68.18 Q3256.568,68.565 3256.183,69.02 Q3255.623,69.685 3254.7305,70.0525 Q3253.558,70.56 3252.123,70.56 Q3250.443,70.56 3249.0955,69.895 Q3248.0105,69.37 3247.2405,68.2325 Q3246.488,67.095 3246.488,65.7475 L3246.488,64.5225 Q3246.488,63.1225 3247.153,61.8975 Q3247.8355,60.6725 3249.008,60.025 Q3250.198,59.36 3251.528,59.36 Q3252.333,59.36 3253.033,59.64 Q3253.733,59.92 3254.328,60.48 Z " fill="#000000"/><text fill="#000000" font-family="sans-serif" font-size="13.44" lengthAdjust="spacingAndGlyphs" textLength="72.8" x="3271.912" y="69.8994">PostalCode</text><line style="stroke:#A80036;stroke-width:1.6800000000000002;" x1="3217.76" x2="3365.6" y1="82.32" y2="82.32"/><text fill="#000000" font-family="sans-serif" font-size="12.32" lengthAdjust="spacingAndGlyphs" textLength="39.2" x="3223.36" y="99.5892">-int city</text><text fill="#000000" font-family="sans-serif" font-size="12.32" lengthAdjust="spacingAndGlyphs" textLength="44.8" x="3223.36" y="115.0855">-int local</text><line style="stroke:#A80036;stroke-width:1.6800000000000002;" x1="3217.76" x2="3365.6" y1="122.2725" y2="122.2725"/><text fill="#000000" font-family="sans-serif" font-size="12.32" lengthAdjust="spacingAndGlyphs" textLength="136.64" x="3223.36" y="139.5417">+postalCode(postalCode)</text><!--MD5=[c770a74bfa57c89e52aad2356be61140]
class PasswordGeneratorAlgorithm--><rect codeLine="54" fill="#FEFECE" filter="url(#f5y6lapbfbe1h)" height="78.4263" id="PasswordGeneratorAlgorithm" style="stroke:#A80036;stroke-width:1.6800000000000002;" width="216.16" x="2268" y="225.68"/><ellipse cx="2284.8" cy="248.185" fill="#B4A7E5" rx="12.32" ry="12.32" style="stroke:#A80036;stroke-width:1.12;"/><path d="M2285.92,244.825 L2285.92,251.545 L2288.16,251.545 L2288.7025,251.545 L2289.28,252.245 L2289.28,252.665 L2289.28,253.085 L2288.7025,253.785 L2288.16,253.785 L2281.44,253.785 L2280.8975,253.785 L2280.32,253.085 L2280.32,252.665 L2280.32,252.245 L2280.8975,251.545 L2281.44,251.545 L2283.68,251.545 L2283.68,244.825 L2281.44,244.825 L2280.8975,244.825 L2280.32,244.125 L2280.32,243.705 L2280.32,243.285 L2280.8975,242.585 L2281.44,242.585 L2288.16,242.585 L2288.7025,242.585 L2289.28,243.285 L2289.28,243.705 L2289.28,244.125 L2288.7025,244.825 L2288.16,244.825 L2285.92,244.825 Z " fill="#000000"/><text fill="#000000" font-family="sans-serif" font-size="13.44" font-style="italic" lengthAdjust="spacingAndGlyphs" textLength="68.32" x="2356.48" y="245.2319">«interface»</text><text fill="#000000" font-family="sans-serif" font-size="13.44" font-style="italic" lengthAdjust="spacingAndGlyphs" textLength="180.32" x="2300.48" y="262.1369">PasswordGeneratorAlgorithm</text><line style="stroke:#A80036;stroke-width:1.6800000000000002;" x1="2269.12" x2="2483.04" y1="270.69" y2="270.69"/><line style="stroke:#A80036;stroke-width:1.6800000000000002;" x1="2269.12" x2="2483.04" y1="279.65" y2="279.65"/><text fill="#000000" font-family="sans-serif" font-size="12.32" lengthAdjust="spacingAndGlyphs" textLength="179.2" x="2274.72" y="296.9192">+generatePassword(name,email)</text><!--MD5=[3fd616f346a44cd59a91eb10b19e157c]
class User--><rect codeLine="59" fill="#FEFECE" filter="url(#f5y6lapbfbe1h)" height="100.2488" id="User" style="stroke:#A80036;stroke-width:1.6800000000000002;" width="108.64" x="2960.72" y="211.12"/><ellipse cx="2996.672" cy="229.04" fill="#ADD1B2" rx="12.32" ry="12.32" style="stroke:#A80036;stroke-width:1.12;"/><path d="M2998.912,225.12 Q2999.1395,224.56 2999.402,224.28 Q2999.6645,224 2999.962,224 Q3000.487,224 3000.8195,224.315 Q3001.152,224.63 3001.152,225.365 L3001.152,227.115 Q3001.152,227.85 3000.837,228.165 Q3000.522,228.48 3000.032,228.48 Q2999.5945,228.48 2999.3145,228.2875 Q2999.0345,228.095 2998.912,227.5875 Q2998.8595,227.2375 2998.667,227.045 Q2998.317,226.6775 2997.687,226.4675 Q2997.057,226.24 2996.427,226.24 Q2995.6395,226.24 2994.9745,226.555 Q2994.327,226.87 2993.8195,227.57 Q2993.312,228.27 2993.312,229.2325 L2993.312,230.265 Q2993.312,231.42 2994.257,232.19 Q2995.202,232.96 2996.882,232.96 Q2997.8795,232.96 2998.5795,232.7325 Q2998.982,232.61 2999.437,232.2075 Q2999.7345,231.98 2999.892,231.91 Q3000.0495,231.84 3000.242,231.84 Q3000.6095,231.84 3000.872,232.1375 Q3001.152,232.4175 3001.152,232.82 Q3001.152,233.205 3000.767,233.66 Q3000.207,234.325 2999.3145,234.6925 Q2998.142,235.2 2996.707,235.2 Q2995.027,235.2 2993.6795,234.535 Q2992.5945,234.01 2991.8245,232.8725 Q2991.072,231.735 2991.072,230.3875 L2991.072,229.1625 Q2991.072,227.7625 2991.737,226.5375 Q2992.4195,225.3125 2993.592,224.665 Q2994.782,224 2996.112,224 Q2996.917,224 2997.617,224.28 Q2998.317,224.56 2998.912,225.12 Z " fill="#000000"/><text fill="#000000" font-family="sans-serif" font-size="13.44" lengthAdjust="spacingAndGlyphs" textLength="30.24" x="3016.608" y="234.5394">User</text><line style="stroke:#A80036;stroke-width:1.6800000000000002;" x1="2961.84" x2="3068.24" y1="246.96" y2="246.96"/><text fill="#000000" font-family="sans-serif" font-size="12.32" lengthAdjust="spacingAndGlyphs" textLength="66.08" x="2967.44" y="264.2292">-String email</text><text fill="#000000" font-family="sans-serif" font-size="12.32" lengthAdjust="spacingAndGlyphs" textLength="95.2" x="2967.44" y="279.7255">-String password</text><text fill="#000000" font-family="sans-serif" font-size="12.32" lengthAdjust="spacingAndGlyphs" textLength="90.72" x="2967.44" y="295.2217">-String userType</text><line style="stroke:#A80036;stroke-width:1.6800000000000002;" x1="2961.84" x2="3068.24" y1="302.4088" y2="302.4088"/><!--MD5=[76db0d3e46fb0e23cde79f5df946f372]
link RegisterUnregisteredUserUI to RegisterUnregisteredClientController--><path codeLine="66" d="M220.8976,149.52 C240.1728,149.52 261.184,149.52 283.1696,149.52 " fill="none" id="RegisterUnregisteredUserUI-to-RegisterUnregisteredClientController" style="stroke:#A80036;stroke-width:1.12;stroke-dasharray:7.0,7.0;"/><polygon fill="#A80036" points="288.7808,149.52,278.7008,145.04,283.1808,149.52,278.7008,154,288.7808,149.52" style="stroke:#A80036;stroke-width:1.12;"/><!--MD5=[6abe52edd161801497c5c323f581c7ef]
link RegisterUnregisteredClientController to Platform--><path codeLine="67" d="M920.192,192.0912 C955.9424,197.176 988.5008,201.8128 1013.3648,205.352 " fill="none" id="RegisterUnregisteredClientController-to-Platform" style="stroke:#A80036;stroke-width:1.12;stroke-dasharray:7.0,7.0;"/><polygon fill="#A80036" points="1019.1888,206.1808,1009.8342,200.3354,1013.6438,205.3978,1008.5814,209.2074,1019.1888,206.1808" style="stroke:#A80036;stroke-width:1.12;"/><!--MD5=[edb7f8ff97f2ab0657e315d6110fa5bb]
link RegisterUnregisteredClientController to ClientRegistry--><path codeLine="68" d="M951.0256,157.7296 C1022.0448,159.4992 1097.3536,161.3808 1169.1568,163.1616 " fill="none" id="RegisterUnregisteredClientController-to-ClientRegistry" style="stroke:#A80036;stroke-width:1.12;stroke-dasharray:7.0,7.0;"/><polygon fill="#A80036" points="1174.768,163.3072,1164.8065,158.5696,1169.1699,163.1632,1164.5762,167.5266,1174.768,163.3072" style="stroke:#A80036;stroke-width:1.12;"/><!--MD5=[c13e46b3a156a2fdfb2b0cf1a60cf4b9]
link RegisterUnregisteredClientController to Client--><path codeLine="69" d="M942.3008,106.9264 C1018.4048,98.56 1099.4032,91.056 1174.88,86.8 C1483.0144,69.4064 1560.6752,83.72 1869.28,86.8 C1924.1376,87.3488 1982.344,88.2224 2038.9936,89.2416 " fill="none" id="RegisterUnregisteredClientController-to-Client" style="stroke:#A80036;stroke-width:1.12;stroke-dasharray:7.0,7.0;"/><polygon fill="#A80036" points="2044.8176,89.3536,2034.8159,84.7015,2039.2184,89.2576,2034.6623,93.6602,2044.8176,89.3536" style="stroke:#A80036;stroke-width:1.12;"/><!--MD5=[798a0cef98cca2411bafc4656c2f9c3e]
link RegisterUnregisteredClientController to PasswordGeneratorAlgorithm--><path codeLine="70" d="M743.0304,192.192 C820.9488,217.1792 924.7168,246.2992 1019.2,259.28 C1476.496,322.1232 2028.768,291.9728 2262.1536,274.4224 " fill="none" id="RegisterUnregisteredClientController-to-PasswordGeneratorAlgorithm" style="stroke:#A80036;stroke-width:1.12;stroke-dasharray:7.0,7.0;"/><polygon fill="#A80036" points="2267.944,273.9856,2257.5485,270.2965,2262.3607,274.4175,2258.2396,279.2298,2267.944,273.9856" style="stroke:#A80036;stroke-width:1.12;"/><!--MD5=[458678928c35532359ddf1c232f6ff82]
link Platform to ClientRegistry--><path codeLine="72" d="M1106.5824,208.488 C1123.6064,206.976 1144.8528,205.1056 1168.6752,203 " fill="none" id="Platform-to-ClientRegistry" style="stroke:#A80036;stroke-width:1.12;"/><polygon fill="#A80036" points="1174.4544,202.496,1164.0176,198.9254,1168.8764,202.9915,1164.8103,207.8503,1174.4544,202.496" style="stroke:#A80036;stroke-width:1.12;"/><text fill="#000000" font-family="sans-serif" font-size="14.56" lengthAdjust="spacingAndGlyphs" textLength="7.84" x="1115.6604" y="224.6328">1</text><text fill="#000000" font-family="sans-serif" font-size="14.56" lengthAdjust="spacingAndGlyphs" textLength="7.84" x="1158.375" y="218.5394">1</text><!--MD5=[6439a18da3062968c715ba01a99c74dc]
link ClientRegistry to Client--><path codeLine="73" d="M1869.336,141.4224 C1927.3856,136.3152 1987.4848,131.0176 2045.1088,125.944 " fill="none" id="ClientRegistry-Client" style="stroke:#A80036;stroke-width:1.12;"/><polygon fill="#000000" points="1914.0584,118.9856,1903.6782,116.5954,1904.2557,123.1532,1914.0584,118.9856" style="stroke:#000000;stroke-width:1.12;"/><text fill="#000000" font-family="sans-serif" font-size="14.56" lengthAdjust="spacingAndGlyphs" textLength="91.84" x="1918.56" y="125.4345">has registered</text><text fill="#000000" font-family="sans-serif" font-size="14.56" lengthAdjust="spacingAndGlyphs" textLength="7.84" x="1878.6641" y="155.9674">1</text><text fill="#000000" font-family="sans-serif" font-size="14.56" lengthAdjust="spacingAndGlyphs" textLength="5.6" x="2030.643" y="142.0784">*</text><!--MD5=[e9f5728b743c3a685c972bb4cc3b5658]
link ClientRegistry to PasswordGeneratorAlgorithm--><path codeLine="74" d="M1869.336,209.6976 C2012.1584,225.288 2167.3904,242.2224 2267.6416,253.1648 " fill="none" id="ClientRegistry-PasswordGeneratorAlgorithm" style="stroke:#A80036;stroke-width:1.12;"/><polygon fill="#000000" points="1961.0869,208.9275,1951.3733,204.5563,1950.6592,211.1007,1961.0869,208.9275" style="stroke:#000000;stroke-width:1.12;"/><text fill="#000000" font-family="sans-serif" font-size="14.56" lengthAdjust="spacingAndGlyphs" textLength="7.84" x="1878.6641" y="226.0562">1</text><text fill="#000000" font-family="sans-serif" font-size="14.56" lengthAdjust="spacingAndGlyphs" textLength="5.6" x="2253.5249" y="268.0825">*</text><!--MD5=[bd708f2371c655af07b49ddbdb30848a]
link Client to Address--><path codeLine="75" d="M2707.2192,96.88 C2785.7312,96.88 2863.2912,96.88 2920.7696,96.88 " fill="none" id="Client-Address" style="stroke:#A80036;stroke-width:1.12;"/><polygon fill="#000000" points="2805.04,86.9969,2794.9095,83.7053,2794.9095,90.2885,2805.04,86.9969" style="stroke:#000000;stroke-width:1.12;"/><text fill="#000000" font-family="sans-serif" font-size="14.56" lengthAdjust="spacingAndGlyphs" textLength="23.52" x="2809.52" y="92.9545">has</text><text fill="#000000" font-family="sans-serif" font-size="14.56" lengthAdjust="spacingAndGlyphs" textLength="7.84" x="2716.1192" y="112.2424">1</text><text fill="#000000" font-family="sans-serif" font-size="14.56" lengthAdjust="spacingAndGlyphs" textLength="7.84" x="2904.1845" y="112.8093">1</text><!--MD5=[9a8dc34b38f85b9f3fcdb440f4bffc6a]
link Client to User--><path codeLine="76" d="M2707.2192,182.2128 C2805.7344,207.6928 2902.76,232.7808 2960.496,247.6992 " fill="none" id="Client-User" style="stroke:#A80036;stroke-width:1.12;"/><polygon fill="#000000" points="2792.5417,184.7187,2783.5577,178.996,2781.9098,185.3696,2792.5417,184.7187" style="stroke:#000000;stroke-width:1.12;"/><text fill="#000000" font-family="sans-serif" font-size="14.56" lengthAdjust="spacingAndGlyphs" textLength="48.16" x="2797.2" y="189.2745">acts as</text><text fill="#000000" font-family="sans-serif" font-size="14.56" lengthAdjust="spacingAndGlyphs" textLength="24.64" x="2716.3423" y="199.8419">0..1</text><text fill="#000000" font-family="sans-serif" font-size="14.56" lengthAdjust="spacingAndGlyphs" textLength="7.84" x="2944.0691" y="241.6172">1</text><!--MD5=[f5ac6d5785d769a4cf253258a22d8de0]
link PasswordGeneratorAlgorithm to User--><path codeLine="77" d="M2484.496,264.3088 C2622.1776,263.592 2855.7424,262.36 2960.4064,261.8 " fill="none" id="PasswordGeneratorAlgorithm-User" style="stroke:#A80036;stroke-width:1.12;"/><polygon fill="#000000" points="2751.8399,251.6074,2741.6922,248.3692,2741.7269,254.9523,2751.8399,251.6074" style="stroke:#000000;stroke-width:1.12;"/><text fill="#000000" font-family="sans-serif" font-size="14.56" lengthAdjust="spacingAndGlyphs" textLength="129.92" x="2756.32" y="257.5945">generates password</text><text fill="#000000" font-family="sans-serif" font-size="14.56" lengthAdjust="spacingAndGlyphs" textLength="7.84" x="2493.0967" y="280.0797">1</text><text fill="#000000" font-family="sans-serif" font-size="14.56" lengthAdjust="spacingAndGlyphs" textLength="7.84" x="2943.9663" y="278.3411">1</text><!--MD5=[4da5c7c17dc5d5ecf3707ff92f3d6286]
link Address to PostalCode--><path codeLine="78" d="M3109.4448,96.88 C3144.4,96.88 3183.6112,96.88 3216.584,96.88 " fill="none" id="Address-PostalCode" style="stroke:#A80036;stroke-width:1.12;"/><polygon fill="#000000" points="3153.92,86.9969,3143.7895,83.7053,3143.7895,90.2885,3153.92,86.9969" style="stroke:#000000;stroke-width:1.12;"/><text fill="#000000" font-family="sans-serif" font-size="14.56" lengthAdjust="spacingAndGlyphs" textLength="23.52" x="3158.4" y="92.9545">has</text><text fill="#000000" font-family="sans-serif" font-size="14.56" lengthAdjust="spacingAndGlyphs" textLength="22.4" x="3118.1902" y="112.7521">1..*</text><text fill="#000000" font-family="sans-serif" font-size="14.56" lengthAdjust="spacingAndGlyphs" textLength="7.84" x="3199.6078" y="113.0852">1</text><!--MD5=[db07c61005ce93063d55329a67b5b055]
@startuml
skinparam classAttributeIconSize 0

left to right direction

class Platform {
}

class RegisterUnregisteredUserUI {
}

class RegisterUnregisteredClientController {
 +newClient(name, email, address, postalCode, coordinateX, coordinateY, nif, creditCardNumber, creditCardValidity, ccv)
 +registerClient()
}


class ClientRegistry {
  +Client newClient(name, email, address, postalCode, coordinateX, coordinateY, nif, creditCardNumber, creditCardValidity, ccv)
  +registerClient(client)
  +validateClient(client)
  -addClient(client)
  +registerClientAsUser()
}

class Client {
  -String name
  -String email
  -int NIF
  -int creditCardNumber
  -int creditCardValidity
  -int ccv
  -Address address

  +newClient(name, email, address, postalCode, coordinateX, coordinateY, nif, creditCardNumber, creditCardValidity, ccv)

}

class Address {
  -String street
  -String locality
  -double coordinateX
  -double coordinateY
  -PostalCode postalCode

  +Address(address, postalCode)
}

class PostalCode {
  -int city
  -int local
  +postalCode(postalCode)
}

interface PasswordGeneratorAlgorithm  <<interface>>{
  +generatePassword(name,email)
}


class User {
  -String email
  -String password
  -String userType
}


RegisterUnregisteredUserUI ..> RegisterUnregisteredClientController
RegisterUnregisteredClientController ..> Platform
RegisterUnregisteredClientController ...> ClientRegistry
RegisterUnregisteredClientController ...> Client
RegisterUnregisteredClientController ...> PasswordGeneratorAlgorithm

Platform "1"- ->"1" ClientRegistry
ClientRegistry "1" - - "*" Client : has registered >
ClientRegistry "1" - - "*" PasswordGeneratorAlgorithm : >
Client "1" - - "1" Address: has  >
Client "0..1" - - "1" User: acts as >
PasswordGeneratorAlgorithm "1" - - "1" User : generates password >
Address "1..*" - - "1" PostalCode: has  >

@enduml

PlantUML version 1.2020.23(Sun Dec 13 19:14:58 GMT 2020)
(GPL source distribution)
Java Runtime: OpenJDK Runtime Environment
JVM: OpenJDK 64-Bit Server VM
Default Encoding: Cp1252
Language: en
Country: US
--></g></svg>