<?xml version="1.0" encoding="UTF-8" standalone="no"?><svg xmlns="http://www.w3.org/2000/svg" xmlns:xlink="http://www.w3.org/1999/xlink" contentScriptType="application/ecmascript" contentStyleType="text/css" height="1275px" preserveAspectRatio="none" style="width:1593px;height:1275px;" version="1.1" viewBox="0 0 1593 1275" width="1593.75px" zoomAndPan="magnify"><defs><filter height="300%" id="fyj9buwu2dysb" width="300%" x="-1" y="-1"><feGaussianBlur result="blurOut" stdDeviation="2.5"/><feColorMatrix in="blurOut" result="blurOut2" type="matrix" values="0 0 0 0 0 0 0 0 0 0 0 0 0 0 0 0 0 0 .4 0"/><feOffset dx="5.0" dy="5.0" in="blurOut2" result="blurOut3"/><feBlend in="SourceGraphic" in2="blurOut3" mode="normal"/></filter></defs><g><!--MD5=[99b8db98afdc2c8404e39242ef4c1e65]
class Platform--><rect codeLine="2" fill="#FEFECE" filter="url(#fyj9buwu2dysb)" height="60" id="Platform" style="stroke:#A80036;stroke-width:1.875;" width="97.5" x="705" y="8.75"/><ellipse cx="723.75" cy="28.75" fill="#ADD1B2" rx="13.75" ry="13.75" style="stroke:#A80036;stroke-width:1.25;"/><path d="M726.25,24.375 Q726.5039,23.75 726.7969,23.4375 Q727.0898,23.125 727.4219,23.125 Q728.0078,23.125 728.3789,23.4766 Q728.75,23.8281 728.75,24.6484 L728.75,26.6016 Q728.75,27.4219 728.3984,27.7734 Q728.0469,28.125 727.5,28.125 Q727.0117,28.125 726.6992,27.9102 Q726.3867,27.6953 726.25,27.1289 Q726.1914,26.7383 725.9766,26.5234 Q725.5859,26.1133 724.8828,25.8789 Q724.1797,25.625 723.4766,25.625 Q722.5977,25.625 721.8555,25.9766 Q721.1328,26.3281 720.5664,27.1094 Q720,27.8906 720,28.9648 L720,30.1172 Q720,31.4063 721.0547,32.2656 Q722.1094,33.125 723.9844,33.125 Q725.0977,33.125 725.8789,32.8711 Q726.3281,32.7344 726.8359,32.2852 Q727.168,32.0313 727.3438,31.9531 Q727.5195,31.875 727.7344,31.875 Q728.1445,31.875 728.4375,32.207 Q728.75,32.5195 728.75,32.9688 Q728.75,33.3984 728.3203,33.9063 Q727.6953,34.6484 726.6992,35.0586 Q725.3906,35.625 723.7891,35.625 Q721.9141,35.625 720.4102,34.8828 Q719.1992,34.2969 718.3398,33.0273 Q717.5,31.7578 717.5,30.2539 L717.5,28.8867 Q717.5,27.3242 718.2422,25.957 Q719.0039,24.5898 720.3125,23.8672 Q721.6406,23.125 723.125,23.125 Q724.0234,23.125 724.8047,23.4375 Q725.5859,23.75 726.25,24.375 Z " fill="#000000"/><text fill="#000000" font-family="sans-serif" font-size="15" lengthAdjust="spacing" textLength="57.5" x="741.25" y="34.8877">Platform</text><line style="stroke:#A80036;stroke-width:1.875;" x1="706.25" x2="801.25" y1="48.75" y2="48.75"/><line style="stroke:#A80036;stroke-width:1.875;" x1="706.25" x2="801.25" y1="58.75" y2="58.75"/><!--MD5=[a4cb0f987c11031dc931233a0e7767af]
class Stock--><rect codeLine="6" fill="#FEFECE" filter="url(#fyj9buwu2dysb)" height="94.5898" id="Stock" style="stroke:#A80036;stroke-width:1.875;" width="180" x="8.75" y="376.25"/><ellipse cx="74.6875" cy="396.25" fill="#ADD1B2" rx="13.75" ry="13.75" style="stroke:#A80036;stroke-width:1.25;"/><path d="M77.1875,391.875 Q77.4414,391.25 77.7344,390.9375 Q78.0273,390.625 78.3594,390.625 Q78.9453,390.625 79.3164,390.9766 Q79.6875,391.3281 79.6875,392.1484 L79.6875,394.1016 Q79.6875,394.9219 79.3359,395.2734 Q78.9844,395.625 78.4375,395.625 Q77.9492,395.625 77.6367,395.4102 Q77.3242,395.1953 77.1875,394.6289 Q77.1289,394.2383 76.9141,394.0234 Q76.5234,393.6133 75.8203,393.3789 Q75.1172,393.125 74.4141,393.125 Q73.5352,393.125 72.793,393.4766 Q72.0703,393.8281 71.5039,394.6094 Q70.9375,395.3906 70.9375,396.4648 L70.9375,397.6172 Q70.9375,398.9063 71.9922,399.7656 Q73.0469,400.625 74.9219,400.625 Q76.0352,400.625 76.8164,400.3711 Q77.2656,400.2344 77.7734,399.7852 Q78.1055,399.5313 78.2813,399.4531 Q78.457,399.375 78.6719,399.375 Q79.082,399.375 79.375,399.707 Q79.6875,400.0195 79.6875,400.4688 Q79.6875,400.8984 79.2578,401.4063 Q78.6328,402.1484 77.6367,402.5586 Q76.3281,403.125 74.7266,403.125 Q72.8516,403.125 71.3477,402.3828 Q70.1367,401.7969 69.2773,400.5273 Q68.4375,399.2578 68.4375,397.7539 L68.4375,396.3867 Q68.4375,394.8242 69.1797,393.457 Q69.9414,392.0898 71.25,391.3672 Q72.5781,390.625 74.0625,390.625 Q74.9609,390.625 75.7422,390.9375 Q76.5234,391.25 77.1875,391.875 Z " fill="#000000"/><text fill="#000000" font-family="sans-serif" font-size="15" lengthAdjust="spacing" textLength="37.5" x="100.3125" y="402.3877">Stock</text><line style="stroke:#A80036;stroke-width:1.875;" x1="10" x2="187.5" y1="416.25" y2="416.25"/><rect fill="none" height="7.5" style="stroke:#C82930;stroke-width:1.25;" width="7.5" x="18.75" y="426.25"/><text fill="#000000" font-family="sans-serif" font-size="13.75" lengthAdjust="spacing" textLength="147.5" x="33.75" y="435.5237">List&lt;Products&gt; products</text><rect fill="none" height="7.5" style="stroke:#C82930;stroke-width:1.25;" width="7.5" x="18.75" y="443.5449"/><text fill="#000000" font-family="sans-serif" font-size="13.75" lengthAdjust="spacing" textLength="88.75" x="33.75" y="452.8186">int pharmacyID</text><line style="stroke:#A80036;stroke-width:1.875;" x1="10" x2="187.5" y1="460.8398" y2="460.8398"/><!--MD5=[f6dd68564d8683bf9592516a96b065bb]
class PharmacyAdmin--><rect codeLine="12" fill="#FEFECE" filter="url(#fyj9buwu2dysb)" height="94.5898" id="PharmacyAdmin" style="stroke:#A80036;stroke-width:1.875;" width="152.5" x="1063.75" y="508.75"/><ellipse cx="1082.5" cy="528.75" fill="#ADD1B2" rx="13.75" ry="13.75" style="stroke:#A80036;stroke-width:1.25;"/><path d="M1085,524.375 Q1085.2539,523.75 1085.5469,523.4375 Q1085.8398,523.125 1086.1719,523.125 Q1086.7578,523.125 1087.1289,523.4766 Q1087.5,523.8281 1087.5,524.6484 L1087.5,526.6016 Q1087.5,527.4219 1087.1484,527.7734 Q1086.7969,528.125 1086.25,528.125 Q1085.7617,528.125 1085.4492,527.9102 Q1085.1367,527.6953 1085,527.1289 Q1084.9414,526.7383 1084.7266,526.5234 Q1084.3359,526.1133 1083.6328,525.8789 Q1082.9297,525.625 1082.2266,525.625 Q1081.3477,525.625 1080.6055,525.9766 Q1079.8828,526.3281 1079.3164,527.1094 Q1078.75,527.8906 1078.75,528.9648 L1078.75,530.1172 Q1078.75,531.4063 1079.8047,532.2656 Q1080.8594,533.125 1082.7344,533.125 Q1083.8477,533.125 1084.6289,532.8711 Q1085.0781,532.7344 1085.5859,532.2852 Q1085.918,532.0313 1086.0938,531.9531 Q1086.2695,531.875 1086.4844,531.875 Q1086.8945,531.875 1087.1875,532.207 Q1087.5,532.5195 1087.5,532.9688 Q1087.5,533.3984 1087.0703,533.9063 Q1086.4453,534.6484 1085.4492,535.0586 Q1084.1406,535.625 1082.5391,535.625 Q1080.6641,535.625 1079.1602,534.8828 Q1077.9492,534.2969 1077.0898,533.0273 Q1076.25,531.7578 1076.25,530.2539 L1076.25,528.8867 Q1076.25,527.3242 1076.9922,525.957 Q1077.7539,524.5898 1079.0625,523.8672 Q1080.3906,523.125 1081.875,523.125 Q1082.7734,523.125 1083.5547,523.4375 Q1084.3359,523.75 1085,524.375 Z " fill="#000000"/><text fill="#000000" font-family="sans-serif" font-size="15" lengthAdjust="spacing" textLength="112.5" x="1100" y="534.8877">PharmacyAdmin</text><line style="stroke:#A80036;stroke-width:1.875;" x1="1065" x2="1215" y1="548.75" y2="548.75"/><rect fill="none" height="7.5" style="stroke:#C82930;stroke-width:1.25;" width="7.5" x="1073.75" y="558.75"/><text fill="#000000" font-family="sans-serif" font-size="13.75" lengthAdjust="spacing" textLength="71.25" x="1088.75" y="568.0237">String name</text><rect fill="none" height="7.5" style="stroke:#C82930;stroke-width:1.25;" width="7.5" x="1073.75" y="576.0449"/><text fill="#000000" font-family="sans-serif" font-size="13.75" lengthAdjust="spacing" textLength="68.75" x="1088.75" y="585.3186">String email</text><line style="stroke:#A80036;stroke-width:1.875;" x1="1065" x2="1215" y1="593.3398" y2="593.3398"/><!--MD5=[cf4d6237fcae255cd2e1656cf84a30e2]
class Order--><rect codeLine="17" fill="#FEFECE" filter="url(#fyj9buwu2dysb)" height="94.5898" id="Order" style="stroke:#A80036;stroke-width:1.875;" width="122.5" x="648.75" y="1163.75"/><ellipse cx="687.1875" cy="1183.75" fill="#ADD1B2" rx="13.75" ry="13.75" style="stroke:#A80036;stroke-width:1.25;"/><path d="M689.6875,1179.375 Q689.9414,1178.75 690.2344,1178.4375 Q690.5273,1178.125 690.8594,1178.125 Q691.4453,1178.125 691.8164,1178.4766 Q692.1875,1178.8281 692.1875,1179.6484 L692.1875,1181.6016 Q692.1875,1182.4219 691.8359,1182.7734 Q691.4844,1183.125 690.9375,1183.125 Q690.4492,1183.125 690.1367,1182.9102 Q689.8242,1182.6953 689.6875,1182.1289 Q689.6289,1181.7383 689.4141,1181.5234 Q689.0234,1181.1133 688.3203,1180.8789 Q687.6172,1180.625 686.9141,1180.625 Q686.0352,1180.625 685.293,1180.9766 Q684.5703,1181.3281 684.0039,1182.1094 Q683.4375,1182.8906 683.4375,1183.9648 L683.4375,1185.1172 Q683.4375,1186.4063 684.4922,1187.2656 Q685.5469,1188.125 687.4219,1188.125 Q688.5352,1188.125 689.3164,1187.8711 Q689.7656,1187.7344 690.2734,1187.2852 Q690.6055,1187.0313 690.7813,1186.9531 Q690.957,1186.875 691.1719,1186.875 Q691.582,1186.875 691.875,1187.207 Q692.1875,1187.5195 692.1875,1187.9688 Q692.1875,1188.3984 691.7578,1188.9063 Q691.1328,1189.6484 690.1367,1190.0586 Q688.8281,1190.625 687.2266,1190.625 Q685.3516,1190.625 683.8477,1189.8828 Q682.6367,1189.2969 681.7773,1188.0273 Q680.9375,1186.7578 680.9375,1185.2539 L680.9375,1183.8867 Q680.9375,1182.3242 681.6797,1180.957 Q682.4414,1179.5898 683.75,1178.8672 Q685.0781,1178.125 686.5625,1178.125 Q687.4609,1178.125 688.2422,1178.4375 Q689.0234,1178.75 689.6875,1179.375 Z " fill="#000000"/><text fill="#000000" font-family="sans-serif" font-size="15" lengthAdjust="spacing" textLength="38.75" x="709.0625" y="1189.8877">Order</text><line style="stroke:#A80036;stroke-width:1.875;" x1="650" x2="770" y1="1203.75" y2="1203.75"/><rect fill="none" height="7.5" style="stroke:#C82930;stroke-width:1.25;" width="7.5" x="658.75" y="1213.75"/><text fill="#000000" font-family="sans-serif" font-size="13.75" lengthAdjust="spacing" textLength="48.75" x="673.75" y="1223.0237">String id</text><rect fill="none" height="7.5" style="stroke:#C82930;stroke-width:1.25;" width="7.5" x="658.75" y="1231.0449"/><text fill="#000000" font-family="sans-serif" font-size="13.75" lengthAdjust="spacing" textLength="90" x="673.75" y="1240.3186">list of products</text><line style="stroke:#A80036;stroke-width:1.875;" x1="650" x2="770" y1="1248.3398" y2="1248.3398"/><!--MD5=[ed6624c6556d5e7b1bd23032162d20b7]
class Client--><rect codeLine="23" fill="#FEFECE" filter="url(#fyj9buwu2dysb)" height="129.1797" id="Client" style="stroke:#A80036;stroke-width:1.875;" width="103.75" x="371.875" y="658.75"/><ellipse cx="401.3125" cy="678.75" fill="#ADD1B2" rx="13.75" ry="13.75" style="stroke:#A80036;stroke-width:1.25;"/><path d="M403.8125,674.375 Q404.0664,673.75 404.3594,673.4375 Q404.6523,673.125 404.9844,673.125 Q405.5703,673.125 405.9414,673.4766 Q406.3125,673.8281 406.3125,674.6484 L406.3125,676.6016 Q406.3125,677.4219 405.9609,677.7734 Q405.6094,678.125 405.0625,678.125 Q404.5742,678.125 404.2617,677.9102 Q403.9492,677.6953 403.8125,677.1289 Q403.7539,676.7383 403.5391,676.5234 Q403.1484,676.1133 402.4453,675.8789 Q401.7422,675.625 401.0391,675.625 Q400.1602,675.625 399.418,675.9766 Q398.6953,676.3281 398.1289,677.1094 Q397.5625,677.8906 397.5625,678.9648 L397.5625,680.1172 Q397.5625,681.4063 398.6172,682.2656 Q399.6719,683.125 401.5469,683.125 Q402.6602,683.125 403.4414,682.8711 Q403.8906,682.7344 404.3984,682.2852 Q404.7305,682.0313 404.9063,681.9531 Q405.082,681.875 405.2969,681.875 Q405.707,681.875 406,682.207 Q406.3125,682.5195 406.3125,682.9688 Q406.3125,683.3984 405.8828,683.9063 Q405.2578,684.6484 404.2617,685.0586 Q402.9531,685.625 401.3516,685.625 Q399.4766,685.625 397.9727,684.8828 Q396.7617,684.2969 395.9023,683.0273 Q395.0625,681.7578 395.0625,680.2539 L395.0625,678.8867 Q395.0625,677.3242 395.8047,675.957 Q396.5664,674.5898 397.875,673.8672 Q399.2031,673.125 400.6875,673.125 Q401.5859,673.125 402.3672,673.4375 Q403.1484,673.75 403.8125,674.375 Z " fill="#000000"/><text fill="#000000" font-family="sans-serif" font-size="15" lengthAdjust="spacing" textLength="40" x="421.1875" y="684.8877">Client</text><line style="stroke:#A80036;stroke-width:1.875;" x1="373.125" x2="474.375" y1="698.75" y2="698.75"/><rect fill="none" height="7.5" style="stroke:#C82930;stroke-width:1.25;" width="7.5" x="381.875" y="708.75"/><text fill="#000000" font-family="sans-serif" font-size="13.75" lengthAdjust="spacing" textLength="71.25" x="396.875" y="718.0237">String name</text><rect fill="none" height="7.5" style="stroke:#C82930;stroke-width:1.25;" width="7.5" x="381.875" y="726.0449"/><text fill="#000000" font-family="sans-serif" font-size="13.75" lengthAdjust="spacing" textLength="68.75" x="396.875" y="735.3186">String email</text><rect fill="none" height="7.5" style="stroke:#C82930;stroke-width:1.25;" width="7.5" x="381.875" y="743.3398"/><text fill="#000000" font-family="sans-serif" font-size="13.75" lengthAdjust="spacing" textLength="36.25" x="396.875" y="752.6135">int NIF</text><rect fill="none" height="7.5" style="stroke:#C82930;stroke-width:1.25;" width="7.5" x="381.875" y="760.6348"/><text fill="#000000" font-family="sans-serif" font-size="13.75" lengthAdjust="spacing" textLength="58.75" x="396.875" y="769.9084">int credits</text><line style="stroke:#A80036;stroke-width:1.875;" x1="373.125" x2="474.375" y1="777.9297" y2="777.9297"/><!--MD5=[0f39e4cb6f03951afbf6d14bd2505654]
class Address--><rect codeLine="30" fill="#FEFECE" filter="url(#fyj9buwu2dysb)" height="129.1797" id="Address" style="stroke:#A80036;stroke-width:1.875;" width="173.75" x="124.375" y="920"/><ellipse cx="177.4375" cy="940" fill="#ADD1B2" rx="13.75" ry="13.75" style="stroke:#A80036;stroke-width:1.25;"/><path d="M179.9375,935.625 Q180.1914,935 180.4844,934.6875 Q180.7773,934.375 181.1094,934.375 Q181.6953,934.375 182.0664,934.7266 Q182.4375,935.0781 182.4375,935.8984 L182.4375,937.8516 Q182.4375,938.6719 182.0859,939.0234 Q181.7344,939.375 181.1875,939.375 Q180.6992,939.375 180.3867,939.1602 Q180.0742,938.9453 179.9375,938.3789 Q179.8789,937.9883 179.6641,937.7734 Q179.2734,937.3633 178.5703,937.1289 Q177.8672,936.875 177.1641,936.875 Q176.2852,936.875 175.543,937.2266 Q174.8203,937.5781 174.2539,938.3594 Q173.6875,939.1406 173.6875,940.2148 L173.6875,941.3672 Q173.6875,942.6563 174.7422,943.5156 Q175.7969,944.375 177.6719,944.375 Q178.7852,944.375 179.5664,944.1211 Q180.0156,943.9844 180.5234,943.5352 Q180.8555,943.2813 181.0313,943.2031 Q181.207,943.125 181.4219,943.125 Q181.832,943.125 182.125,943.457 Q182.4375,943.7695 182.4375,944.2188 Q182.4375,944.6484 182.0078,945.1563 Q181.3828,945.8984 180.3867,946.3086 Q179.0781,946.875 177.4766,946.875 Q175.6016,946.875 174.0977,946.1328 Q172.8867,945.5469 172.0273,944.2773 Q171.1875,943.0078 171.1875,941.5039 L171.1875,940.1367 Q171.1875,938.5742 171.9297,937.207 Q172.6914,935.8398 174,935.1172 Q175.3281,934.375 176.8125,934.375 Q177.7109,934.375 178.4922,934.6875 Q179.2734,935 179.9375,935.625 Z " fill="#000000"/><text fill="#000000" font-family="sans-serif" font-size="15" lengthAdjust="spacing" textLength="57.5" x="202.5625" y="946.1377">Address</text><line style="stroke:#A80036;stroke-width:1.875;" x1="125.625" x2="296.875" y1="960" y2="960"/><rect fill="none" height="7.5" style="stroke:#C82930;stroke-width:1.25;" width="7.5" x="134.375" y="970"/><text fill="#000000" font-family="sans-serif" font-size="13.75" lengthAdjust="spacing" textLength="73.75" x="149.375" y="979.2737">String street</text><rect fill="none" height="7.5" style="stroke:#C82930;stroke-width:1.25;" width="7.5" x="134.375" y="987.2949"/><text fill="#000000" font-family="sans-serif" font-size="13.75" lengthAdjust="spacing" textLength="80" x="149.375" y="996.5686">String locality</text><rect fill="none" height="7.5" style="stroke:#C82930;stroke-width:1.25;" width="7.5" x="134.375" y="1004.5898"/><text fill="#000000" font-family="sans-serif" font-size="13.75" lengthAdjust="spacing" textLength="140" x="149.375" y="1013.8635">double gpsCoordinateX</text><rect fill="none" height="7.5" style="stroke:#C82930;stroke-width:1.25;" width="7.5" x="134.375" y="1021.8848"/><text fill="#000000" font-family="sans-serif" font-size="13.75" lengthAdjust="spacing" textLength="141.25" x="149.375" y="1031.1584">double gpsCoordinateY</text><line style="stroke:#A80036;stroke-width:1.875;" x1="125.625" x2="296.875" y1="1039.1797" y2="1039.1797"/><!--MD5=[f061b633de56a323bd4d344a8bec65fe]
class PostalCode--><rect codeLine="37" fill="#FEFECE" filter="url(#fyj9buwu2dysb)" height="94.5898" id="PostalCode" style="stroke:#A80036;stroke-width:1.875;" width="121.25" x="150.625" y="1163.75"/><ellipse cx="169.375" cy="1183.75" fill="#ADD1B2" rx="13.75" ry="13.75" style="stroke:#A80036;stroke-width:1.25;"/><path d="M171.875,1179.375 Q172.1289,1178.75 172.4219,1178.4375 Q172.7148,1178.125 173.0469,1178.125 Q173.6328,1178.125 174.0039,1178.4766 Q174.375,1178.8281 174.375,1179.6484 L174.375,1181.6016 Q174.375,1182.4219 174.0234,1182.7734 Q173.6719,1183.125 173.125,1183.125 Q172.6367,1183.125 172.3242,1182.9102 Q172.0117,1182.6953 171.875,1182.1289 Q171.8164,1181.7383 171.6016,1181.5234 Q171.2109,1181.1133 170.5078,1180.8789 Q169.8047,1180.625 169.1016,1180.625 Q168.2227,1180.625 167.4805,1180.9766 Q166.7578,1181.3281 166.1914,1182.1094 Q165.625,1182.8906 165.625,1183.9648 L165.625,1185.1172 Q165.625,1186.4063 166.6797,1187.2656 Q167.7344,1188.125 169.6094,1188.125 Q170.7227,1188.125 171.5039,1187.8711 Q171.9531,1187.7344 172.4609,1187.2852 Q172.793,1187.0313 172.9688,1186.9531 Q173.1445,1186.875 173.3594,1186.875 Q173.7695,1186.875 174.0625,1187.207 Q174.375,1187.5195 174.375,1187.9688 Q174.375,1188.3984 173.9453,1188.9063 Q173.3203,1189.6484 172.3242,1190.0586 Q171.0156,1190.625 169.4141,1190.625 Q167.5391,1190.625 166.0352,1189.8828 Q164.8242,1189.2969 163.9648,1188.0273 Q163.125,1186.7578 163.125,1185.2539 L163.125,1183.8867 Q163.125,1182.3242 163.8672,1180.957 Q164.6289,1179.5898 165.9375,1178.8672 Q167.2656,1178.125 168.75,1178.125 Q169.6484,1178.125 170.4297,1178.4375 Q171.2109,1178.75 171.875,1179.375 Z " fill="#000000"/><text fill="#000000" font-family="sans-serif" font-size="15" lengthAdjust="spacing" textLength="81.25" x="186.875" y="1189.8877">PostalCode</text><line style="stroke:#A80036;stroke-width:1.875;" x1="151.875" x2="270.625" y1="1203.75" y2="1203.75"/><rect fill="none" height="7.5" style="stroke:#C82930;stroke-width:1.25;" width="7.5" x="160.625" y="1213.75"/><text fill="#000000" font-family="sans-serif" font-size="13.75" lengthAdjust="spacing" textLength="38.75" x="175.625" y="1223.0237">int city</text><rect fill="none" height="7.5" style="stroke:#C82930;stroke-width:1.25;" width="7.5" x="160.625" y="1231.0449"/><text fill="#000000" font-family="sans-serif" font-size="13.75" lengthAdjust="spacing" textLength="45" x="175.625" y="1240.3186">int local</text><line style="stroke:#A80036;stroke-width:1.875;" x1="151.875" x2="270.625" y1="1248.3398" y2="1248.3398"/><!--MD5=[91d4151b6d4c9a3d01b6d84b2458eece]
class CreditCard--><rect codeLine="42" fill="#FEFECE" filter="url(#fyj9buwu2dysb)" height="111.8848" id="CreditCard" style="stroke:#A80036;stroke-width:1.875;" width="147.5" x="342.5" y="928.125"/><ellipse cx="375.875" cy="948.125" fill="#ADD1B2" rx="13.75" ry="13.75" style="stroke:#A80036;stroke-width:1.25;"/><path d="M378.375,943.75 Q378.6289,943.125 378.9219,942.8125 Q379.2148,942.5 379.5469,942.5 Q380.1328,942.5 380.5039,942.8516 Q380.875,943.2031 380.875,944.0234 L380.875,945.9766 Q380.875,946.7969 380.5234,947.1484 Q380.1719,947.5 379.625,947.5 Q379.1367,947.5 378.8242,947.2852 Q378.5117,947.0703 378.375,946.5039 Q378.3164,946.1133 378.1016,945.8984 Q377.7109,945.4883 377.0078,945.2539 Q376.3047,945 375.6016,945 Q374.7227,945 373.9805,945.3516 Q373.2578,945.7031 372.6914,946.4844 Q372.125,947.2656 372.125,948.3398 L372.125,949.4922 Q372.125,950.7813 373.1797,951.6406 Q374.2344,952.5 376.1094,952.5 Q377.2227,952.5 378.0039,952.2461 Q378.4531,952.1094 378.9609,951.6602 Q379.293,951.4063 379.4688,951.3281 Q379.6445,951.25 379.8594,951.25 Q380.2695,951.25 380.5625,951.582 Q380.875,951.8945 380.875,952.3438 Q380.875,952.7734 380.4453,953.2813 Q379.8203,954.0234 378.8242,954.4336 Q377.5156,955 375.9141,955 Q374.0391,955 372.5352,954.2578 Q371.3242,953.6719 370.4648,952.4023 Q369.625,951.1328 369.625,949.6289 L369.625,948.2617 Q369.625,946.6992 370.3672,945.332 Q371.1289,943.9648 372.4375,943.2422 Q373.7656,942.5 375.25,942.5 Q376.1484,942.5 376.9297,942.8125 Q377.7109,943.125 378.375,943.75 Z " fill="#000000"/><text fill="#000000" font-family="sans-serif" font-size="15" lengthAdjust="spacing" textLength="75" x="396.625" y="954.2627">CreditCard</text><line style="stroke:#A80036;stroke-width:1.875;" x1="343.75" x2="488.75" y1="968.125" y2="968.125"/><rect fill="none" height="7.5" style="stroke:#C82930;stroke-width:1.25;" width="7.5" x="352.5" y="978.125"/><text fill="#000000" font-family="sans-serif" font-size="13.75" lengthAdjust="spacing" textLength="62.5" x="367.5" y="987.3987">int number</text><rect fill="none" height="7.5" style="stroke:#C82930;stroke-width:1.25;" width="7.5" x="352.5" y="995.4199"/><text fill="#000000" font-family="sans-serif" font-size="13.75" lengthAdjust="spacing" textLength="71.25" x="367.5" y="1004.6936">date validity</text><rect fill="none" height="7.5" style="stroke:#C82930;stroke-width:1.25;" width="7.5" x="352.5" y="1012.7148"/><text fill="#000000" font-family="sans-serif" font-size="13.75" lengthAdjust="spacing" textLength="115" x="367.5" y="1021.9885">int verificationCode</text><line style="stroke:#A80036;stroke-width:1.875;" x1="343.75" x2="488.75" y1="1030.0098" y2="1030.0098"/><!--MD5=[30da194321b846ed0272a2c085d943b8]
class DeliveryRun--><rect codeLine="48" fill="#FEFECE" filter="url(#fyj9buwu2dysb)" height="129.1797" id="DeliveryRun" style="stroke:#A80036;stroke-width:1.875;" width="170" x="852.5" y="920"/><ellipse cx="892.625" cy="940" fill="#ADD1B2" rx="13.75" ry="13.75" style="stroke:#A80036;stroke-width:1.25;"/><path d="M895.125,935.625 Q895.3789,935 895.6719,934.6875 Q895.9648,934.375 896.2969,934.375 Q896.8828,934.375 897.2539,934.7266 Q897.625,935.0781 897.625,935.8984 L897.625,937.8516 Q897.625,938.6719 897.2734,939.0234 Q896.9219,939.375 896.375,939.375 Q895.8867,939.375 895.5742,939.1602 Q895.2617,938.9453 895.125,938.3789 Q895.0664,937.9883 894.8516,937.7734 Q894.4609,937.3633 893.7578,937.1289 Q893.0547,936.875 892.3516,936.875 Q891.4727,936.875 890.7305,937.2266 Q890.0078,937.5781 889.4414,938.3594 Q888.875,939.1406 888.875,940.2148 L888.875,941.3672 Q888.875,942.6563 889.9297,943.5156 Q890.9844,944.375 892.8594,944.375 Q893.9727,944.375 894.7539,944.1211 Q895.2031,943.9844 895.7109,943.5352 Q896.043,943.2813 896.2188,943.2031 Q896.3945,943.125 896.6094,943.125 Q897.0195,943.125 897.3125,943.457 Q897.625,943.7695 897.625,944.2188 Q897.625,944.6484 897.1953,945.1563 Q896.5703,945.8984 895.5742,946.3086 Q894.2656,946.875 892.6641,946.875 Q890.7891,946.875 889.2852,946.1328 Q888.0742,945.5469 887.2148,944.2773 Q886.375,943.0078 886.375,941.5039 L886.375,940.1367 Q886.375,938.5742 887.1172,937.207 Q887.8789,935.8398 889.1875,935.1172 Q890.5156,934.375 892,934.375 Q892.8984,934.375 893.6797,934.6875 Q894.4609,935 895.125,935.625 Z " fill="#000000"/><text fill="#000000" font-family="sans-serif" font-size="15" lengthAdjust="spacing" textLength="82.5" x="914.875" y="946.1377">DeliveryRun</text><line style="stroke:#A80036;stroke-width:1.875;" x1="853.75" x2="1021.25" y1="960" y2="960"/><rect fill="none" height="7.5" style="stroke:#C82930;stroke-width:1.25;" width="7.5" x="862.5" y="970"/><text fill="#000000" font-family="sans-serif" font-size="13.75" lengthAdjust="spacing" textLength="81.25" x="877.5" y="979.2737">int idDeliverer</text><rect fill="none" height="7.5" style="stroke:#C82930;stroke-width:1.25;" width="7.5" x="862.5" y="987.2949"/><text fill="#000000" font-family="sans-serif" font-size="13.75" lengthAdjust="spacing" textLength="127.5" x="877.5" y="996.5686">List&lt;Order&gt; toDeliver</text><rect fill="none" height="7.5" style="stroke:#C82930;stroke-width:1.25;" width="7.5" x="862.5" y="1004.5898"/><text fill="#000000" font-family="sans-serif" font-size="13.75" lengthAdjust="spacing" textLength="57.5" x="877.5" y="1013.8635">Date date</text><rect fill="none" height="7.5" style="stroke:#C82930;stroke-width:1.25;" width="7.5" x="862.5" y="1021.8848"/><text fill="#000000" font-family="sans-serif" font-size="13.75" lengthAdjust="spacing" textLength="137.5" x="877.5" y="1031.1584">Pharmacy startingPoint</text><line style="stroke:#A80036;stroke-width:1.875;" x1="853.75" x2="1021.25" y1="1039.1797" y2="1039.1797"/><!--MD5=[47b251c7d240eebe71e60a484b4e00c1]
class DeliveryRoute--><rect codeLine="55" fill="#FEFECE" filter="url(#fyj9buwu2dysb)" height="77.2949" id="DeliveryRoute" style="stroke:#A80036;stroke-width:1.875;" width="246.25" x="815.625" y="1172.5"/><ellipse cx="885.9375" cy="1192.5" fill="#ADD1B2" rx="13.75" ry="13.75" style="stroke:#A80036;stroke-width:1.25;"/><path d="M888.4375,1188.125 Q888.6914,1187.5 888.9844,1187.1875 Q889.2773,1186.875 889.6094,1186.875 Q890.1953,1186.875 890.5664,1187.2266 Q890.9375,1187.5781 890.9375,1188.3984 L890.9375,1190.3516 Q890.9375,1191.1719 890.5859,1191.5234 Q890.2344,1191.875 889.6875,1191.875 Q889.1992,1191.875 888.8867,1191.6602 Q888.5742,1191.4453 888.4375,1190.8789 Q888.3789,1190.4883 888.1641,1190.2734 Q887.7734,1189.8633 887.0703,1189.6289 Q886.3672,1189.375 885.6641,1189.375 Q884.7852,1189.375 884.043,1189.7266 Q883.3203,1190.0781 882.7539,1190.8594 Q882.1875,1191.6406 882.1875,1192.7148 L882.1875,1193.8672 Q882.1875,1195.1563 883.2422,1196.0156 Q884.2969,1196.875 886.1719,1196.875 Q887.2852,1196.875 888.0664,1196.6211 Q888.5156,1196.4844 889.0234,1196.0352 Q889.3555,1195.7813 889.5313,1195.7031 Q889.707,1195.625 889.9219,1195.625 Q890.332,1195.625 890.625,1195.957 Q890.9375,1196.2695 890.9375,1196.7188 Q890.9375,1197.1484 890.5078,1197.6563 Q889.8828,1198.3984 888.8867,1198.8086 Q887.5781,1199.375 885.9766,1199.375 Q884.1016,1199.375 882.5977,1198.6328 Q881.3867,1198.0469 880.5273,1196.7773 Q879.6875,1195.5078 879.6875,1194.0039 L879.6875,1192.6367 Q879.6875,1191.0742 880.4297,1189.707 Q881.1914,1188.3398 882.5,1187.6172 Q883.8281,1186.875 885.3125,1186.875 Q886.2109,1186.875 886.9922,1187.1875 Q887.7734,1187.5 888.4375,1188.125 Z " fill="#000000"/><text fill="#000000" font-family="sans-serif" font-size="15" lengthAdjust="spacing" textLength="95" x="911.5625" y="1198.6377">DeliveryRoute</text><line style="stroke:#A80036;stroke-width:1.875;" x1="816.875" x2="1060.625" y1="1212.5" y2="1212.5"/><rect fill="none" height="7.5" style="stroke:#C82930;stroke-width:1.25;" width="7.5" x="825.625" y="1222.5"/><text fill="#000000" font-family="sans-serif" font-size="13.75" lengthAdjust="spacing" textLength="213.75" x="840.625" y="1231.7737">List&lt;Address&gt; adressesOfDelivery</text><line style="stroke:#A80036;stroke-width:1.875;" x1="816.875" x2="1060.625" y1="1239.7949" y2="1239.7949"/><!--MD5=[7f2a9fafcebe4f099f71398fd3e2ed00]
class Pharmacy--><rect codeLine="59" fill="#FEFECE" filter="url(#fyj9buwu2dysb)" height="111.8848" id="Pharmacy" style="stroke:#A80036;stroke-width:1.875;" width="165" x="671.25" y="166.25"/><ellipse cx="715.3125" cy="186.25" fill="#ADD1B2" rx="13.75" ry="13.75" style="stroke:#A80036;stroke-width:1.25;"/><path d="M717.8125,181.875 Q718.0664,181.25 718.3594,180.9375 Q718.6523,180.625 718.9844,180.625 Q719.5703,180.625 719.9414,180.9766 Q720.3125,181.3281 720.3125,182.1484 L720.3125,184.1016 Q720.3125,184.9219 719.9609,185.2734 Q719.6094,185.625 719.0625,185.625 Q718.5742,185.625 718.2617,185.4102 Q717.9492,185.1953 717.8125,184.6289 Q717.7539,184.2383 717.5391,184.0234 Q717.1484,183.6133 716.4453,183.3789 Q715.7422,183.125 715.0391,183.125 Q714.1602,183.125 713.418,183.4766 Q712.6953,183.8281 712.1289,184.6094 Q711.5625,185.3906 711.5625,186.4648 L711.5625,187.6172 Q711.5625,188.9063 712.6172,189.7656 Q713.6719,190.625 715.5469,190.625 Q716.6602,190.625 717.4414,190.3711 Q717.8906,190.2344 718.3984,189.7852 Q718.7305,189.5313 718.9063,189.4531 Q719.082,189.375 719.2969,189.375 Q719.707,189.375 720,189.707 Q720.3125,190.0195 720.3125,190.4688 Q720.3125,190.8984 719.8828,191.4063 Q719.2578,192.1484 718.2617,192.5586 Q716.9531,193.125 715.3516,193.125 Q713.4766,193.125 711.9727,192.3828 Q710.7617,191.7969 709.9023,190.5273 Q709.0625,189.2578 709.0625,187.7539 L709.0625,186.3867 Q709.0625,184.8242 709.8047,183.457 Q710.5664,182.0898 711.875,181.3672 Q713.2031,180.625 714.6875,180.625 Q715.5859,180.625 716.3672,180.9375 Q717.1484,181.25 717.8125,181.875 Z " fill="#000000"/><text fill="#000000" font-family="sans-serif" font-size="15" lengthAdjust="spacing" textLength="68.75" x="738.4375" y="192.3877">Pharmacy</text><line style="stroke:#A80036;stroke-width:1.875;" x1="672.5" x2="835" y1="206.25" y2="206.25"/><rect fill="none" height="7.5" style="stroke:#C82930;stroke-width:1.25;" width="7.5" x="681.25" y="216.25"/><text fill="#000000" font-family="sans-serif" font-size="13.75" lengthAdjust="spacing" textLength="132.5" x="696.25" y="225.5237">String pharmacyName</text><rect fill="none" height="7.5" style="stroke:#C82930;stroke-width:1.25;" width="7.5" x="681.25" y="233.5449"/><text fill="#000000" font-family="sans-serif" font-size="13.75" lengthAdjust="spacing" textLength="127.5" x="696.25" y="242.8186">String companyName</text><rect fill="none" height="7.5" style="stroke:#C82930;stroke-width:1.25;" width="7.5" x="681.25" y="250.8398"/><text fill="#000000" font-family="sans-serif" font-size="13.75" lengthAdjust="spacing" textLength="36.25" x="696.25" y="260.1135">int NIF</text><line style="stroke:#A80036;stroke-width:1.875;" x1="672.5" x2="835" y1="268.1348" y2="268.1348"/><!--MD5=[f4402668d5d5bb8485350c0fdb60ac8e]
class Scooter--><rect codeLine="65" fill="#FEFECE" filter="url(#fyj9buwu2dysb)" height="163.7695" id="Scooter" style="stroke:#A80036;stroke-width:1.875;" width="197.5" x="1198.75" y="902.5"/><ellipse cx="1265.9375" cy="922.5" fill="#ADD1B2" rx="13.75" ry="13.75" style="stroke:#A80036;stroke-width:1.25;"/><path d="M1268.4375,918.125 Q1268.6914,917.5 1268.9844,917.1875 Q1269.2773,916.875 1269.6094,916.875 Q1270.1953,916.875 1270.5664,917.2266 Q1270.9375,917.5781 1270.9375,918.3984 L1270.9375,920.3516 Q1270.9375,921.1719 1270.5859,921.5234 Q1270.2344,921.875 1269.6875,921.875 Q1269.1992,921.875 1268.8867,921.6602 Q1268.5742,921.4453 1268.4375,920.8789 Q1268.3789,920.4883 1268.1641,920.2734 Q1267.7734,919.8633 1267.0703,919.6289 Q1266.3672,919.375 1265.6641,919.375 Q1264.7852,919.375 1264.043,919.7266 Q1263.3203,920.0781 1262.7539,920.8594 Q1262.1875,921.6406 1262.1875,922.7148 L1262.1875,923.8672 Q1262.1875,925.1563 1263.2422,926.0156 Q1264.2969,926.875 1266.1719,926.875 Q1267.2852,926.875 1268.0664,926.6211 Q1268.5156,926.4844 1269.0234,926.0352 Q1269.3555,925.7813 1269.5313,925.7031 Q1269.707,925.625 1269.9219,925.625 Q1270.332,925.625 1270.625,925.957 Q1270.9375,926.2695 1270.9375,926.7188 Q1270.9375,927.1484 1270.5078,927.6563 Q1269.8828,928.3984 1268.8867,928.8086 Q1267.5781,929.375 1265.9766,929.375 Q1264.1016,929.375 1262.5977,928.6328 Q1261.3867,928.0469 1260.5273,926.7773 Q1259.6875,925.5078 1259.6875,924.0039 L1259.6875,922.6367 Q1259.6875,921.0742 1260.4297,919.707 Q1261.1914,918.3398 1262.5,917.6172 Q1263.8281,916.875 1265.3125,916.875 Q1266.2109,916.875 1266.9922,917.1875 Q1267.7734,917.5 1268.4375,918.125 Z " fill="#000000"/><text fill="#000000" font-family="sans-serif" font-size="15" lengthAdjust="spacing" textLength="52.5" x="1291.5625" y="928.6377">Scooter</text><line style="stroke:#A80036;stroke-width:1.875;" x1="1200" x2="1395" y1="942.5" y2="942.5"/><rect fill="none" height="7.5" style="stroke:#C82930;stroke-width:1.25;" width="7.5" x="1208.75" y="952.5"/><text fill="#000000" font-family="sans-serif" font-size="13.75" lengthAdjust="spacing" textLength="73.75" x="1223.75" y="961.7737">int idNumber</text><rect fill="none" height="7.5" style="stroke:#C82930;stroke-width:1.25;" width="7.5" x="1208.75" y="969.7949"/><text fill="#000000" font-family="sans-serif" font-size="13.75" lengthAdjust="spacing" textLength="165" x="1223.75" y="979.0686">double maxBatteryCapacity</text><rect fill="none" height="7.5" style="stroke:#C82930;stroke-width:1.25;" width="7.5" x="1208.75" y="987.0898"/><text fill="#000000" font-family="sans-serif" font-size="13.75" lengthAdjust="spacing" textLength="126.25" x="1223.75" y="996.3635">double stateOfHealth</text><rect fill="none" height="7.5" style="stroke:#C82930;stroke-width:1.25;" width="7.5" x="1208.75" y="1004.3848"/><text fill="#000000" font-family="sans-serif" font-size="13.75" lengthAdjust="spacing" textLength="132.5" x="1223.75" y="1013.6584">double stateOfCharge</text><rect fill="none" height="7.5" style="stroke:#C82930;stroke-width:1.25;" width="7.5" x="1208.75" y="1021.6797"/><text fill="#000000" font-family="sans-serif" font-size="13.75" lengthAdjust="spacing" textLength="123.75" x="1223.75" y="1030.9534">double powerOutput</text><rect fill="none" height="7.5" style="stroke:#C82930;stroke-width:1.25;" width="7.5" x="1208.75" y="1038.9746"/><text fill="#000000" font-family="sans-serif" font-size="13.75" lengthAdjust="spacing" textLength="85" x="1223.75" y="1048.2483">double weight</text><line style="stroke:#A80036;stroke-width:1.875;" x1="1200" x2="1395" y1="1056.2695" y2="1056.2695"/><!--MD5=[72136138052d025cffdce3c22fbd185f]
class Product--><rect codeLine="74" fill="#FEFECE" filter="url(#fyj9buwu2dysb)" height="129.1797" id="Product" style="stroke:#A80036;stroke-width:1.875;" width="151.25" x="23.125" y="658.75"/><ellipse cx="68.3125" cy="678.75" fill="#ADD1B2" rx="13.75" ry="13.75" style="stroke:#A80036;stroke-width:1.25;"/><path d="M70.8125,674.375 Q71.0664,673.75 71.3594,673.4375 Q71.6523,673.125 71.9844,673.125 Q72.5703,673.125 72.9414,673.4766 Q73.3125,673.8281 73.3125,674.6484 L73.3125,676.6016 Q73.3125,677.4219 72.9609,677.7734 Q72.6094,678.125 72.0625,678.125 Q71.5742,678.125 71.2617,677.9102 Q70.9492,677.6953 70.8125,677.1289 Q70.7539,676.7383 70.5391,676.5234 Q70.1484,676.1133 69.4453,675.8789 Q68.7422,675.625 68.0391,675.625 Q67.1602,675.625 66.418,675.9766 Q65.6953,676.3281 65.1289,677.1094 Q64.5625,677.8906 64.5625,678.9648 L64.5625,680.1172 Q64.5625,681.4063 65.6172,682.2656 Q66.6719,683.125 68.5469,683.125 Q69.6602,683.125 70.4414,682.8711 Q70.8906,682.7344 71.3984,682.2852 Q71.7305,682.0313 71.9063,681.9531 Q72.082,681.875 72.2969,681.875 Q72.707,681.875 73,682.207 Q73.3125,682.5195 73.3125,682.9688 Q73.3125,683.3984 72.8828,683.9063 Q72.2578,684.6484 71.2617,685.0586 Q69.9531,685.625 68.3516,685.625 Q66.4766,685.625 64.9727,684.8828 Q63.7617,684.2969 62.9023,683.0273 Q62.0625,681.7578 62.0625,680.2539 L62.0625,678.8867 Q62.0625,677.3242 62.8047,675.957 Q63.5664,674.5898 64.875,673.8672 Q66.2031,673.125 67.6875,673.125 Q68.5859,673.125 69.3672,673.4375 Q70.1484,673.75 70.8125,674.375 Z " fill="#000000"/><text fill="#000000" font-family="sans-serif" font-size="15" lengthAdjust="spacing" textLength="52.5" x="91.6875" y="684.8877">Product</text><line style="stroke:#A80036;stroke-width:1.875;" x1="24.375" x2="173.125" y1="698.75" y2="698.75"/><rect fill="none" height="7.5" style="stroke:#C82930;stroke-width:1.25;" width="7.5" x="33.125" y="708.75"/><text fill="#000000" font-family="sans-serif" font-size="13.75" lengthAdjust="spacing" textLength="115" x="48.125" y="718.0237">String productType</text><rect fill="none" height="7.5" style="stroke:#C82930;stroke-width:1.25;" width="7.5" x="33.125" y="726.0449"/><text fill="#000000" font-family="sans-serif" font-size="13.75" lengthAdjust="spacing" textLength="118.75" x="48.125" y="735.3186">String productName</text><rect fill="none" height="7.5" style="stroke:#C82930;stroke-width:1.25;" width="7.5" x="33.125" y="743.3398"/><text fill="#000000" font-family="sans-serif" font-size="13.75" lengthAdjust="spacing" textLength="73.75" x="48.125" y="752.6135">double price</text><rect fill="none" height="7.5" style="stroke:#C82930;stroke-width:1.25;" width="7.5" x="33.125" y="760.6348"/><text fill="#000000" font-family="sans-serif" font-size="13.75" lengthAdjust="spacing" textLength="85" x="48.125" y="769.9084">double weight</text><line style="stroke:#A80036;stroke-width:1.875;" x1="24.375" x2="173.125" y1="777.9297" y2="777.9297"/><!--MD5=[271e9ec5f05e38e8bd6c7ee33209db96]
class ParkingSlotScooters--><rect codeLine="82" fill="#FEFECE" filter="url(#fyj9buwu2dysb)" height="94.5898" id="ParkingSlotScooters" style="stroke:#A80036;stroke-width:1.875;" width="227.5" x="1348.75" y="508.75"/><ellipse cx="1388.875" cy="528.75" fill="#ADD1B2" rx="13.75" ry="13.75" style="stroke:#A80036;stroke-width:1.25;"/><path d="M1391.375,524.375 Q1391.6289,523.75 1391.9219,523.4375 Q1392.2148,523.125 1392.5469,523.125 Q1393.1328,523.125 1393.5039,523.4766 Q1393.875,523.8281 1393.875,524.6484 L1393.875,526.6016 Q1393.875,527.4219 1393.5234,527.7734 Q1393.1719,528.125 1392.625,528.125 Q1392.1367,528.125 1391.8242,527.9102 Q1391.5117,527.6953 1391.375,527.1289 Q1391.3164,526.7383 1391.1016,526.5234 Q1390.7109,526.1133 1390.0078,525.8789 Q1389.3047,525.625 1388.6016,525.625 Q1387.7227,525.625 1386.9805,525.9766 Q1386.2578,526.3281 1385.6914,527.1094 Q1385.125,527.8906 1385.125,528.9648 L1385.125,530.1172 Q1385.125,531.4063 1386.1797,532.2656 Q1387.2344,533.125 1389.1094,533.125 Q1390.2227,533.125 1391.0039,532.8711 Q1391.4531,532.7344 1391.9609,532.2852 Q1392.293,532.0313 1392.4688,531.9531 Q1392.6445,531.875 1392.8594,531.875 Q1393.2695,531.875 1393.5625,532.207 Q1393.875,532.5195 1393.875,532.9688 Q1393.875,533.3984 1393.4453,533.9063 Q1392.8203,534.6484 1391.8242,535.0586 Q1390.5156,535.625 1388.9141,535.625 Q1387.0391,535.625 1385.5352,534.8828 Q1384.3242,534.2969 1383.4648,533.0273 Q1382.625,531.7578 1382.625,530.2539 L1382.625,528.8867 Q1382.625,527.3242 1383.3672,525.957 Q1384.1289,524.5898 1385.4375,523.8672 Q1386.7656,523.125 1388.25,523.125 Q1389.1484,523.125 1389.9297,523.4375 Q1390.7109,523.75 1391.375,524.375 Z " fill="#000000"/><text fill="#000000" font-family="sans-serif" font-size="15" lengthAdjust="spacing" textLength="140" x="1411.125" y="534.8877">ParkingSlotScooters</text><line style="stroke:#A80036;stroke-width:1.875;" x1="1350" x2="1575" y1="548.75" y2="548.75"/><rect fill="none" height="7.5" style="stroke:#C82930;stroke-width:1.25;" width="7.5" x="1358.75" y="558.75"/><text fill="#000000" font-family="sans-serif" font-size="13.75" lengthAdjust="spacing" textLength="107.5" x="1373.75" y="568.0237">String stateOfUse</text><rect fill="none" height="7.5" style="stroke:#C82930;stroke-width:1.25;" width="7.5" x="1358.75" y="576.0449"/><text fill="#000000" font-family="sans-serif" font-size="13.75" lengthAdjust="spacing" textLength="195" x="1373.75" y="585.3186">boolean hasChargingCapabilities</text><line style="stroke:#A80036;stroke-width:1.875;" x1="1350" x2="1575" y1="593.3398" y2="593.3398"/><!--MD5=[c6a2171c11447acbe08a3dfeee0e1710]
class Courier--><rect codeLine="87" fill="#FEFECE" filter="url(#fyj9buwu2dysb)" height="129.1797" id="Courier" style="stroke:#A80036;stroke-width:1.875;" width="117.5" x="696.25" y="658.75"/><ellipse cx="726.8125" cy="678.75" fill="#ADD1B2" rx="13.75" ry="13.75" style="stroke:#A80036;stroke-width:1.25;"/><path d="M729.3125,674.375 Q729.5664,673.75 729.8594,673.4375 Q730.1523,673.125 730.4844,673.125 Q731.0703,673.125 731.4414,673.4766 Q731.8125,673.8281 731.8125,674.6484 L731.8125,676.6016 Q731.8125,677.4219 731.4609,677.7734 Q731.1094,678.125 730.5625,678.125 Q730.0742,678.125 729.7617,677.9102 Q729.4492,677.6953 729.3125,677.1289 Q729.2539,676.7383 729.0391,676.5234 Q728.6484,676.1133 727.9453,675.8789 Q727.2422,675.625 726.5391,675.625 Q725.6602,675.625 724.918,675.9766 Q724.1953,676.3281 723.6289,677.1094 Q723.0625,677.8906 723.0625,678.9648 L723.0625,680.1172 Q723.0625,681.4063 724.1172,682.2656 Q725.1719,683.125 727.0469,683.125 Q728.1602,683.125 728.9414,682.8711 Q729.3906,682.7344 729.8984,682.2852 Q730.2305,682.0313 730.4063,681.9531 Q730.582,681.875 730.7969,681.875 Q731.207,681.875 731.5,682.207 Q731.8125,682.5195 731.8125,682.9688 Q731.8125,683.3984 731.3828,683.9063 Q730.7578,684.6484 729.7617,685.0586 Q728.4531,685.625 726.8516,685.625 Q724.9766,685.625 723.4727,684.8828 Q722.2617,684.2969 721.4023,683.0273 Q720.5625,681.7578 720.5625,680.2539 L720.5625,678.8867 Q720.5625,677.3242 721.3047,675.957 Q722.0664,674.5898 723.375,673.8672 Q724.7031,673.125 726.1875,673.125 Q727.0859,673.125 727.8672,673.4375 Q728.6484,673.75 729.3125,674.375 Z " fill="#000000"/><text fill="#000000" font-family="sans-serif" font-size="15" lengthAdjust="spacing" textLength="51.25" x="746.9375" y="684.8877">Courier</text><line style="stroke:#A80036;stroke-width:1.875;" x1="697.5" x2="812.5" y1="698.75" y2="698.75"/><rect fill="none" height="7.5" style="stroke:#C82930;stroke-width:1.25;" width="7.5" x="706.25" y="708.75"/><text fill="#000000" font-family="sans-serif" font-size="13.75" lengthAdjust="spacing" textLength="71.25" x="721.25" y="718.0237">String name</text><rect fill="none" height="7.5" style="stroke:#C82930;stroke-width:1.25;" width="7.5" x="706.25" y="726.0449"/><text fill="#000000" font-family="sans-serif" font-size="13.75" lengthAdjust="spacing" textLength="46.25" x="721.25" y="735.3186">int NISS</text><rect fill="none" height="7.5" style="stroke:#C82930;stroke-width:1.25;" width="7.5" x="706.25" y="743.3398"/><text fill="#000000" font-family="sans-serif" font-size="13.75" lengthAdjust="spacing" textLength="36.25" x="721.25" y="752.6135">int NIF</text><rect fill="none" height="7.5" style="stroke:#C82930;stroke-width:1.25;" width="7.5" x="706.25" y="760.6348"/><text fill="#000000" font-family="sans-serif" font-size="13.75" lengthAdjust="spacing" textLength="85" x="721.25" y="769.9084">double weight</text><line style="stroke:#A80036;stroke-width:1.875;" x1="697.5" x2="812.5" y1="777.9297" y2="777.9297"/><!--MD5=[2e3f1e60e74253ff42e47f8bfdb04ee2]
class Drone--><rect codeLine="95" fill="#FEFECE" filter="url(#fyj9buwu2dysb)" height="163.7695" id="Drone" style="stroke:#A80036;stroke-width:1.875;" width="197.5" x="857.5" y="641.25"/><ellipse cx="929.6875" cy="661.25" fill="#ADD1B2" rx="13.75" ry="13.75" style="stroke:#A80036;stroke-width:1.25;"/><path d="M932.1875,656.875 Q932.4414,656.25 932.7344,655.9375 Q933.0273,655.625 933.3594,655.625 Q933.9453,655.625 934.3164,655.9766 Q934.6875,656.3281 934.6875,657.1484 L934.6875,659.1016 Q934.6875,659.9219 934.3359,660.2734 Q933.9844,660.625 933.4375,660.625 Q932.9492,660.625 932.6367,660.4102 Q932.3242,660.1953 932.1875,659.6289 Q932.1289,659.2383 931.9141,659.0234 Q931.5234,658.6133 930.8203,658.3789 Q930.1172,658.125 929.4141,658.125 Q928.5352,658.125 927.793,658.4766 Q927.0703,658.8281 926.5039,659.6094 Q925.9375,660.3906 925.9375,661.4648 L925.9375,662.6172 Q925.9375,663.9063 926.9922,664.7656 Q928.0469,665.625 929.9219,665.625 Q931.0352,665.625 931.8164,665.3711 Q932.2656,665.2344 932.7734,664.7852 Q933.1055,664.5313 933.2813,664.4531 Q933.457,664.375 933.6719,664.375 Q934.082,664.375 934.375,664.707 Q934.6875,665.0195 934.6875,665.4688 Q934.6875,665.8984 934.2578,666.4063 Q933.6328,667.1484 932.6367,667.5586 Q931.3281,668.125 929.7266,668.125 Q927.8516,668.125 926.3477,667.3828 Q925.1367,666.7969 924.2773,665.5273 Q923.4375,664.2578 923.4375,662.7539 L923.4375,661.3867 Q923.4375,659.8242 924.1797,658.457 Q924.9414,657.0898 926.25,656.3672 Q927.5781,655.625 929.0625,655.625 Q929.9609,655.625 930.7422,655.9375 Q931.5234,656.25 932.1875,656.875 Z " fill="#000000"/><text fill="#000000" font-family="sans-serif" font-size="15" lengthAdjust="spacing" textLength="42.5" x="955.3125" y="667.3877">Drone</text><line style="stroke:#A80036;stroke-width:1.875;" x1="858.75" x2="1053.75" y1="681.25" y2="681.25"/><rect fill="none" height="7.5" style="stroke:#C82930;stroke-width:1.25;" width="7.5" x="867.5" y="691.25"/><text fill="#000000" font-family="sans-serif" font-size="13.75" lengthAdjust="spacing" textLength="107.5" x="882.5" y="700.5237">String designation</text><rect fill="none" height="7.5" style="stroke:#C82930;stroke-width:1.25;" width="7.5" x="867.5" y="708.5449"/><text fill="#000000" font-family="sans-serif" font-size="13.75" lengthAdjust="spacing" textLength="146.25" x="882.5" y="717.8186">double maximumPayload</text><rect fill="none" height="7.5" style="stroke:#C82930;stroke-width:1.25;" width="7.5" x="867.5" y="725.8398"/><text fill="#000000" font-family="sans-serif" font-size="13.75" lengthAdjust="spacing" textLength="165" x="882.5" y="735.1135">double maxBatteryCapacity</text><rect fill="none" height="7.5" style="stroke:#C82930;stroke-width:1.25;" width="7.5" x="867.5" y="743.1348"/><text fill="#000000" font-family="sans-serif" font-size="13.75" lengthAdjust="spacing" textLength="126.25" x="882.5" y="752.4084">double stateOfHealth</text><rect fill="none" height="7.5" style="stroke:#C82930;stroke-width:1.25;" width="7.5" x="867.5" y="760.4297"/><text fill="#000000" font-family="sans-serif" font-size="13.75" lengthAdjust="spacing" textLength="132.5" x="882.5" y="769.7034">double stateOfCharge</text><rect fill="none" height="7.5" style="stroke:#C82930;stroke-width:1.25;" width="7.5" x="867.5" y="777.7246"/><text fill="#000000" font-family="sans-serif" font-size="13.75" lengthAdjust="spacing" textLength="85" x="882.5" y="786.9983">double weight</text><line style="stroke:#A80036;stroke-width:1.875;" x1="858.75" x2="1053.75" y1="795.0195" y2="795.0195"/><!--MD5=[0c94d19307f030afb96b31d37f52f52f]
class ParkingSlotDrones--><rect codeLine="104" fill="#FEFECE" filter="url(#fyj9buwu2dysb)" height="94.5898" id="ParkingSlotDrones" style="stroke:#A80036;stroke-width:1.875;" width="227.5" x="842.5" y="376.25"/><ellipse cx="887.125" cy="396.25" fill="#ADD1B2" rx="13.75" ry="13.75" style="stroke:#A80036;stroke-width:1.25;"/><path d="M889.625,391.875 Q889.8789,391.25 890.1719,390.9375 Q890.4648,390.625 890.7969,390.625 Q891.3828,390.625 891.7539,390.9766 Q892.125,391.3281 892.125,392.1484 L892.125,394.1016 Q892.125,394.9219 891.7734,395.2734 Q891.4219,395.625 890.875,395.625 Q890.3867,395.625 890.0742,395.4102 Q889.7617,395.1953 889.625,394.6289 Q889.5664,394.2383 889.3516,394.0234 Q888.9609,393.6133 888.2578,393.3789 Q887.5547,393.125 886.8516,393.125 Q885.9727,393.125 885.2305,393.4766 Q884.5078,393.8281 883.9414,394.6094 Q883.375,395.3906 883.375,396.4648 L883.375,397.6172 Q883.375,398.9063 884.4297,399.7656 Q885.4844,400.625 887.3594,400.625 Q888.4727,400.625 889.2539,400.3711 Q889.7031,400.2344 890.2109,399.7852 Q890.543,399.5313 890.7188,399.4531 Q890.8945,399.375 891.1094,399.375 Q891.5195,399.375 891.8125,399.707 Q892.125,400.0195 892.125,400.4688 Q892.125,400.8984 891.6953,401.4063 Q891.0703,402.1484 890.0742,402.5586 Q888.7656,403.125 887.1641,403.125 Q885.2891,403.125 883.7852,402.3828 Q882.5742,401.7969 881.7148,400.5273 Q880.875,399.2578 880.875,397.7539 L880.875,396.3867 Q880.875,394.8242 881.6172,393.457 Q882.3789,392.0898 883.6875,391.3672 Q885.0156,390.625 886.5,390.625 Q887.3984,390.625 888.1797,390.9375 Q888.9609,391.25 889.625,391.875 Z " fill="#000000"/><text fill="#000000" font-family="sans-serif" font-size="15" lengthAdjust="spacing" textLength="130" x="910.375" y="402.3877">ParkingSlotDrones</text><line style="stroke:#A80036;stroke-width:1.875;" x1="843.75" x2="1068.75" y1="416.25" y2="416.25"/><rect fill="none" height="7.5" style="stroke:#C82930;stroke-width:1.25;" width="7.5" x="852.5" y="426.25"/><text fill="#000000" font-family="sans-serif" font-size="13.75" lengthAdjust="spacing" textLength="107.5" x="867.5" y="435.5237">String stateOfUse</text><rect fill="none" height="7.5" style="stroke:#C82930;stroke-width:1.25;" width="7.5" x="852.5" y="443.5449"/><text fill="#000000" font-family="sans-serif" font-size="13.75" lengthAdjust="spacing" textLength="195" x="867.5" y="452.8186">boolean hasChargingCapabilities</text><line style="stroke:#A80036;stroke-width:1.875;" x1="843.75" x2="1068.75" y1="460.8398" y2="460.8398"/><!--MD5=[bd708f2371c655af07b49ddbdb30848a]
link Client to Address--><path codeLine="110" d="M371.7663,787.6725 C338.8375,827.7688 296.4013,879.4413 263.4338,919.5837 " fill="none" id="Client-Address" style="stroke:#A80036;stroke-width:1.25;"/><polygon fill="#000000" points="327.2834,858.7997,337.298,852.3937,331.6201,847.7307,327.2834,858.7997" style="stroke:#000000;stroke-width:1.25;"/><text fill="#000000" font-family="sans-serif" font-size="16.25" lengthAdjust="spacing" textLength="26.25" x="342.5" y="860.6189">has</text><text fill="#000000" font-family="sans-serif" font-size="16.25" lengthAdjust="spacing" textLength="25" x="336.8922" y="792.8947">1..*</text><text fill="#000000" font-family="sans-serif" font-size="16.25" lengthAdjust="spacing" textLength="8.75" x="261.1081" y="906.4032">1</text><!--MD5=[0748050afd2139cbb3c9faec3f892ae9]
link Client to CreditCard--><path codeLine="111" d="M421.915,787.6725 C420.6713,830.6113 419.0413,886.8263 417.85,927.94 " fill="none" id="Client-CreditCard" style="stroke:#A80036;stroke-width:1.25;"/><polygon fill="#000000" points="427.3189,860.2171,431.3186,849.0219,423.9744,848.8091,427.3189,860.2171" style="stroke:#000000;stroke-width:1.25;"/><text fill="#000000" font-family="sans-serif" font-size="16.25" lengthAdjust="spacing" textLength="26.25" x="438.75" y="860.6189">has</text><text fill="#000000" font-family="sans-serif" font-size="16.25" lengthAdjust="spacing" textLength="8.75" x="412.2917" y="815.0253">1</text><text fill="#000000" font-family="sans-serif" font-size="16.25" lengthAdjust="spacing" textLength="8.75" x="408.6751" y="914.7168">1</text><!--MD5=[879bec428a80d843af24dc47845bf14c]
link Client to Order--><path codeLine="112" d="M455.9513,787.5188 C491.9175,856.9525 552.7875,971.2762 611.25,1066.25 C631.725,1099.5113 656.64,1135.7533 676.3213,1163.5254 " fill="none" id="Client-Order" style="stroke:#A80036;stroke-width:1.25;"/><polygon fill="#000000" points="620.6602,989.9869,618.1127,978.3748,611.7739,982.0899,620.6602,989.9869" style="stroke:#000000;stroke-width:1.25;"/><text fill="#000000" font-family="sans-serif" font-size="16.25" lengthAdjust="spacing" textLength="48.75" x="628.75" y="991.2439">makes</text><text fill="#000000" font-family="sans-serif" font-size="16.25" lengthAdjust="spacing" textLength="8.75" x="451.1143" y="814.85">1</text><text fill="#000000" font-family="sans-serif" font-size="16.25" lengthAdjust="spacing" textLength="25" x="643.0957" y="1150.1877">1..*</text><!--MD5=[4da5c7c17dc5d5ecf3707ff92f3d6286]
link Address to PostalCode--><path codeLine="114" d="M211.25,1049.3213 C211.25,1085.7288 211.25,1130.5713 211.25,1163.6243 " fill="none" id="Address-PostalCode" style="stroke:#A80036;stroke-width:1.25;"/><polygon fill="#000000" points="217.5,1121.4697,221.1737,1110.1634,213.8263,1110.1634,217.5,1121.4697" style="stroke:#000000;stroke-width:1.25;"/><text fill="#000000" font-family="sans-serif" font-size="16.25" lengthAdjust="spacing" textLength="26.25" x="228.75" y="1121.8689">has</text><text fill="#000000" font-family="sans-serif" font-size="16.25" lengthAdjust="spacing" textLength="25" x="184.5703" y="1076.2617">1..*</text><text fill="#000000" font-family="sans-serif" font-size="16.25" lengthAdjust="spacing" textLength="8.75" x="201.7207" y="1150.3042">1</text><!--MD5=[329b28854b651d009ffeabae405755de]
link Pharmacy to PharmacyAdmin--><path codeLine="116" d="M836.37,239.9825 C913.2788,259.3688 1025.6263,299.3325 1091.25,376.25 C1122.8788,413.3225 1134.1463,469.1188 1138.0738,508.4938 " fill="none" id="Pharmacy-PharmacyAdmin" style="stroke:#A80036;stroke-width:1.25;"/><polygon fill="#000000" points="1062.1688,331.8749,1056.1652,321.6139,1051.2806,327.1024,1062.1688,331.8749" style="stroke:#000000;stroke-width:1.25;"/><text fill="#000000" font-family="sans-serif" font-size="16.25" lengthAdjust="spacing" textLength="26.25" x="1068.75" y="334.3689">has</text><text fill="#000000" font-family="sans-serif" font-size="16.25" lengthAdjust="spacing" textLength="8.75" x="846.4288" y="260.09">1</text><text fill="#000000" font-family="sans-serif" font-size="16.25" lengthAdjust="spacing" textLength="8.75" x="1128.2013" y="495.1505">1</text><!--MD5=[cf4f95b832970cfa6e3a3c87e0aa2b32]
link Pharmacy to Scooter--><path codeLine="117" d="M836.5413,229.0575 C912.7125,237.5137 1025.735,259.435 1106.25,316.25 C1294.4625,449.0575 1308.2,755.625 1303.1,902.2075 " fill="none" id="Pharmacy-Scooter" style="stroke:#A80036;stroke-width:1.25;"/><polygon fill="#000000" points="1286.0603,561.6065,1282.639,550.2213,1276.6003,554.4067,1286.0603,561.6065" style="stroke:#000000;stroke-width:1.25;"/><text fill="#000000" font-family="sans-serif" font-size="16.25" lengthAdjust="spacing" textLength="26.25" x="1293.75" y="563.1189">has</text><text fill="#000000" font-family="sans-serif" font-size="16.25" lengthAdjust="spacing" textLength="8.75" x="846.0751" y="225.6076">1</text><text fill="#000000" font-family="sans-serif" font-size="16.25" lengthAdjust="spacing" textLength="25" x="1277.3453" y="889.0185">0..*</text><!--MD5=[0f01b5d8b6e9c5e71b975a3e70632e74]
link Pharmacy to ParkingSlotScooters--><path codeLine="118" d="M836.5038,228.2138 C976.3388,237.18 1251.8162,261.4125 1330,316.25 C1396.175,362.6613 1432.975,453.155 1450.175,508.425 " fill="none" id="Pharmacy-ParkingSlotScooters" style="stroke:#A80036;stroke-width:1.25;"/><polygon fill="#000000" points="1366.9354,330.3157,1358.1764,322.2777,1355.1246,328.9613,1366.9354,330.3157" style="stroke:#000000;stroke-width:1.25;"/><text fill="#000000" font-family="sans-serif" font-size="16.25" lengthAdjust="spacing" textLength="26.25" x="1372.5" y="334.3689">has</text><text fill="#000000" font-family="sans-serif" font-size="16.25" lengthAdjust="spacing" textLength="8.75" x="846.3521" y="247.8741">1</text><text fill="#000000" font-family="sans-serif" font-size="16.25" lengthAdjust="spacing" textLength="25" x="1420.753" y="495.0695">1..*</text><!--MD5=[2ca3dfa6cbef14f75ed4ac9ed1357357]
link Pharmacy to ParkingSlotDrones--><path codeLine="119" d="M810.1575,279.1125 C841.2863,309.6662 879.5025,347.1738 909.04,376.165 " fill="none" id="Pharmacy-ParkingSlotDrones" style="stroke:#A80036;stroke-width:1.25;"/><polygon fill="#000000" points="878.2105,332.0977,872.7147,321.5561,867.5681,326.7997,878.2105,332.0977" style="stroke:#000000;stroke-width:1.25;"/><text fill="#000000" font-family="sans-serif" font-size="16.25" lengthAdjust="spacing" textLength="26.25" x="885" y="334.3689">has</text><text fill="#000000" font-family="sans-serif" font-size="16.25" lengthAdjust="spacing" textLength="8.75" x="808.3994" y="305.0033">1</text><text fill="#000000" font-family="sans-serif" font-size="16.25" lengthAdjust="spacing" textLength="25" x="873.4042" y="362.8522">1..*</text><!--MD5=[89baec1bfb4a213750f7c61516e0a0f1]
link Pharmacy to Address--><path codeLine="120" d="M670.7375,243.4825 C619.64,258.195 554.4513,281.7613 503.75,316.25 C474.1475,336.3863 470.5662,346.945 450,376.25 C325.7725,553.2588 254.0138,803.9575 225.5825,919.855 " fill="none" id="Pharmacy-Address" style="stroke:#A80036;stroke-width:1.25;"/><polygon fill="#000000" points="374.064,561.6905,383.3485,554.2657,377.2111,550.2264,374.064,561.6905" style="stroke:#000000;stroke-width:1.25;"/><text fill="#000000" font-family="sans-serif" font-size="16.25" lengthAdjust="spacing" textLength="26.25" x="388.75" y="563.1189">has</text><text fill="#000000" font-family="sans-serif" font-size="16.25" lengthAdjust="spacing" textLength="8.75" x="652.4295" y="241.6103">1</text><text fill="#000000" font-family="sans-serif" font-size="16.25" lengthAdjust="spacing" textLength="25" x="200.8402" y="906.2452">1..*</text><!--MD5=[6e6ff5ce439caea3099ae2aee4623df4]
link Pharmacy to Client--><path codeLine="121" d="M671.0713,243.525 C606.28,264.205 521.9338,304.0538 490,376.25 C448.9125,469.1425 433.25,587.1463 427.3188,658.4713 " fill="none" id="Pharmacy-Client" style="stroke:#A80036;stroke-width:1.25;"/><polygon fill="#000000" points="493.0843,429.3587,501.9786,421.4707,495.6435,417.7492,493.0843,429.3587" style="stroke:#000000;stroke-width:1.25;"/><text fill="#000000" font-family="sans-serif" font-size="16.25" lengthAdjust="spacing" textLength="26.25" x="507.5" y="430.6189">has</text><text fill="#000000" font-family="sans-serif" font-size="16.25" lengthAdjust="spacing" textLength="8.75" x="652.2557" y="264.0421">1</text><text fill="#000000" font-family="sans-serif" font-size="16.25" lengthAdjust="spacing" textLength="25" x="401.1186" y="645.3092">0..*</text><!--MD5=[0643aaab1f96e564b90d0ad5c3af18e6]
link Pharmacy to Courier--><path codeLine="122" d="M753.8888,278.9612 C754.1225,372.1788 754.5938,560.2063 754.8413,658.5975 " fill="none" id="Pharmacy-Courier" style="stroke:#A80036;stroke-width:1.25;"/><polygon fill="#000000" points="761.2657,430.2197,764.911,418.9042,757.5637,418.9226,761.2657,430.2197" style="stroke:#000000;stroke-width:1.25;"/><text fill="#000000" font-family="sans-serif" font-size="16.25" lengthAdjust="spacing" textLength="26.25" x="772.5" y="430.6189">has</text><text fill="#000000" font-family="sans-serif" font-size="16.25" lengthAdjust="spacing" textLength="8.75" x="744.5695" y="304.8317">1</text><text fill="#000000" font-family="sans-serif" font-size="16.25" lengthAdjust="spacing" textLength="25" x="728.0611" y="644.9867">0..*</text><!--MD5=[0b87aa6ace50be10beee1b6515045c69]
link Pharmacy to Order--><path codeLine="123" d="M724.19,278.7813 C684.14,356.7775 614.6663,505.1613 588.75,641.25 C575.135,712.7425 561.3363,737.5825 588.75,805 C611.54,861.0463 658.595,847.475 683.75,902.5 C722.845,988.02 720.6737,1100.8013 715.4425,1163.2736 " fill="none" id="Pharmacy-Order" style="stroke:#A80036;stroke-width:1.25;"/><polygon fill="#000000" points="594.9382,729.5944,598.7235,718.3249,591.3765,718.2523,594.9382,729.5944" style="stroke:#000000;stroke-width:1.25;"/><text fill="#000000" font-family="sans-serif" font-size="16.25" lengthAdjust="spacing" textLength="66.25" x="606.25" y="729.9939">manages</text><text fill="#000000" font-family="sans-serif" font-size="16.25" lengthAdjust="spacing" textLength="8.75" x="710.6679" y="305.0451">1</text><text fill="#000000" font-family="sans-serif" font-size="16.25" lengthAdjust="spacing" textLength="25" x="689.2295" y="1150.2508">0..*</text><!--MD5=[921945e580d55b2e45f5d1658e43b0b1]
link Pharmacy to Stock--><path codeLine="124" d="M671.1575,229.35 C532.2413,240.0163 259.0025,266.7212 177.5,316.25 C154.15,330.44 135.4925,354.3963 122.2096,375.9725 " fill="none" id="Pharmacy-Stock" style="stroke:#A80036;stroke-width:1.25;"/><polygon fill="#000000" points="177.7117,329.3325,189.5831,329.9642,187.6871,322.8657,177.7117,329.3325" style="stroke:#000000;stroke-width:1.25;"/><text fill="#000000" font-family="sans-serif" font-size="16.25" lengthAdjust="spacing" textLength="26.25" x="195" y="334.3689">has</text><text fill="#000000" font-family="sans-serif" font-size="16.25" lengthAdjust="spacing" textLength="8.75" x="652.3519" y="225.9157">1</text><text fill="#000000" font-family="sans-serif" font-size="16.25" lengthAdjust="spacing" textLength="8.75" x="116.8591" y="362.6254">1</text><!--MD5=[a6555772697f24f0ba1eb2fefc99ef48]
link Courier to Scooter--><path codeLine="127" d="M810.2238,787.8013 C818.0188,794.325 826.345,800.2775 835,805 C905.3038,843.3575 935.5663,816.3113 1011.25,842.5 C1075.7413,864.8163 1144.4837,898.24 1198.4363,926.9025 " fill="none" id="Courier-Scooter" style="stroke:#A80036;stroke-width:1.25;"/><polygon fill="#000000" points="1080.8837,856.0779,1071.4792,848.8058,1069.0008,855.7225,1080.8837,856.0779" style="stroke:#000000;stroke-width:1.25;"/><text fill="#000000" font-family="sans-serif" font-size="16.25" lengthAdjust="spacing" textLength="35" x="1086.25" y="860.6189">uses</text><text fill="#000000" font-family="sans-serif" font-size="16.25" lengthAdjust="spacing" textLength="8.75" x="808.3066" y="814.7054">1</text><text fill="#000000" font-family="sans-serif" font-size="16.25" lengthAdjust="spacing" textLength="25" x="1163.8487" y="917.991">1..*</text><!--MD5=[82f669ff494fd69460f2ac20154402f0]
link Courier to Address--><path codeLine="128" d="M695.96,781.91 C685.3538,790.4237 674,798.5025 662.5,805 C586.7825,847.78 559.9825,841.5013 476.25,865 C407.49,884.2963 384.7125,872.2913 320,902.5 C309.565,907.3712 299.14,913.3313 289.1038,919.7862 " fill="none" id="Courier-Address" style="stroke:#A80036;stroke-width:1.25;"/><polygon fill="#000000" points="570.3307,855.9757,582.2179,855.8262,579.8598,848.8676,570.3307,855.9757" style="stroke:#000000;stroke-width:1.25;"/><text fill="#000000" font-family="sans-serif" font-size="16.25" lengthAdjust="spacing" textLength="26.25" x="587.5" y="860.6189">has</text><text fill="#000000" font-family="sans-serif" font-size="16.25" lengthAdjust="spacing" textLength="8.75" x="677.4996" y="786.2498">1</text><text fill="#000000" font-family="sans-serif" font-size="16.25" lengthAdjust="spacing" textLength="25" x="272.8857" y="906.6329">1..*</text><!--MD5=[2da2352ae65e231b7317f01fdac15f28]
link ParkingSlotScooters to Scooter--><path codeLine="130" d="M1444.525,603.86 C1416.75,675.4988 1363.05,814.0413 1328.8,902.3788 " fill="none" id="ParkingSlotScooters-Scooter" style="stroke:#A80036;stroke-width:1.25;"/><polygon fill="#000000" points="1437.2591,717.5173,1429.7471,726.7314,1436.5976,729.3871,1437.2591,717.5173" style="stroke:#000000;stroke-width:1.25;"/><text fill="#000000" font-family="sans-serif" font-size="16.25" lengthAdjust="spacing" textLength="35" x="1446.25" y="729.9939">uses</text><text fill="#000000" font-family="sans-serif" font-size="16.25" lengthAdjust="spacing" textLength="25" x="1414.4776" y="630.3409">1..*</text><text fill="#000000" font-family="sans-serif" font-size="16.25" lengthAdjust="spacing" textLength="25" x="1305.8562" y="889.2085">1..*</text><!--MD5=[64ee5ff2e161e23866e471b76b950396]
link ParkingSlotDrones to Drone--><path codeLine="132" d="M956.25,471.3863 C956.25,516.7225 956.25,586.6738 956.25,641.145 " fill="none" id="ParkingSlotDrones-Drone" style="stroke:#A80036;stroke-width:1.25;"/><polygon fill="#000000" points="962.5,550.2197,958.8263,561.5261,966.1737,561.5261,962.5,550.2197" style="stroke:#000000;stroke-width:1.25;"/><text fill="#000000" font-family="sans-serif" font-size="16.25" lengthAdjust="spacing" textLength="35" x="973.75" y="563.1189">uses</text><text fill="#000000" font-family="sans-serif" font-size="16.25" lengthAdjust="spacing" textLength="25" x="929.1797" y="497.8715">1..*</text><text fill="#000000" font-family="sans-serif" font-size="16.25" lengthAdjust="spacing" textLength="25" x="929.8047" y="627.403">1..*</text><!--MD5=[4a07f137c208f82f57837154e1cfa51e]
link Platform to Pharmacy--><path codeLine="136" d="M753.75,69.1213 C753.75,95.2388 753.75,134.2613 753.75,166.245 " fill="none" id="Platform-Pharmacy" style="stroke:#A80036;stroke-width:1.25;"/><polygon fill="#000000" points="760,123.9697,763.6737,112.6634,756.3263,112.6634,760,123.9697" style="stroke:#000000;stroke-width:1.25;"/><text fill="#000000" font-family="sans-serif" font-size="16.25" lengthAdjust="spacing" textLength="26.25" x="771.25" y="124.3689">has</text><text fill="#000000" font-family="sans-serif" font-size="16.25" lengthAdjust="spacing" textLength="8.75" x="743.9883" y="95.3768">1</text><text fill="#000000" font-family="sans-serif" font-size="16.25" lengthAdjust="spacing" textLength="25" x="726.7578" y="152.6386">1..*</text><!--MD5=[9e1c413846287cd648ef6e739bbf3100]
link Stock to Product--><path codeLine="138" d="M98.75,471.3863 C98.75,521.7775 98.75,602.5813 98.75,658.7338 " fill="none" id="Stock-Product" style="stroke:#A80036;stroke-width:1.25;"/><polygon fill="#000000" points="105,562.7197,108.6737,551.4134,101.3263,551.4134,105,562.7197" style="stroke:#000000;stroke-width:1.25;"/><text fill="#000000" font-family="sans-serif" font-size="16.25" lengthAdjust="spacing" textLength="26.25" x="116.25" y="563.1189">has</text><text fill="#000000" font-family="sans-serif" font-size="16.25" lengthAdjust="spacing" textLength="8.75" x="89.2754" y="497.8715">1</text><text fill="#000000" font-family="sans-serif" font-size="16.25" lengthAdjust="spacing" textLength="25" x="71.9922" y="645.1421">0..*</text><!--MD5=[a90b9a531bc353d7c5ff1fde072ac7cd]
link DeliveryRun to Order--><path codeLine="140" d="M872.9163,1049.3213 C836.0025,1085.7288 790.535,1130.5713 757.0213,1163.6243 " fill="none" id="DeliveryRun-Order" style="stroke:#A80036;stroke-width:1.25;"/><polygon fill="#000000" points="819.3001,1119.6085,829.9297,1114.2847,824.7704,1109.0536,819.3001,1119.6085" style="stroke:#000000;stroke-width:1.25;"/><text fill="#000000" font-family="sans-serif" font-size="16.25" lengthAdjust="spacing" textLength="58.75" x="835" y="1121.8689">refers to</text><text fill="#000000" font-family="sans-serif" font-size="16.25" lengthAdjust="spacing" textLength="8.75" x="854.8999" y="1076.2617">1</text><text fill="#000000" font-family="sans-serif" font-size="16.25" lengthAdjust="spacing" textLength="25" x="738.1703" y="1150.3042">1..*</text><!--MD5=[725fe60627dc131afee2af2d092b220b]
link Courier to DeliveryRun--><path codeLine="142" d="M796.9825,787.7775 C813.3025,812.0888 832.3,839.9875 850,865 C862.6788,882.9163 876.7125,902.1263 889.7625,919.7375 " fill="none" id="Courier-DeliveryRun" style="stroke:#A80036;stroke-width:1.25;"/><polygon fill="#000000" points="859.8447,859.0825,856.347,847.7205,850.3366,851.9464,859.8447,859.0825" style="stroke:#000000;stroke-width:1.25;"/><text fill="#000000" font-family="sans-serif" font-size="16.25" lengthAdjust="spacing" textLength="53.75" x="867.5" y="860.6189">delivers</text><text fill="#000000" font-family="sans-serif" font-size="16.25" lengthAdjust="spacing" textLength="8.75" x="793.286" y="814.6785">1</text><text fill="#000000" font-family="sans-serif" font-size="16.25" lengthAdjust="spacing" textLength="25" x="856.6681" y="906.5776">1..*</text><!--MD5=[3a603c737e4c216638d99af6c6ee759f]
link Drone to DeliveryRun--><path codeLine="143" d="M938.7875,805.1038 C936.6963,817.5713 934.8975,830.3413 933.75,842.5 C931.375,867.6663 931.5325,895.4688 932.565,919.6625 " fill="none" id="Drone-DeliveryRun" style="stroke:#A80036;stroke-width:1.25;"/><polygon fill="#000000" points="939.661,860.2105,943.9425,849.1201,936.606,848.7216,939.661,860.2105" style="stroke:#000000;stroke-width:1.25;"/><text fill="#000000" font-family="sans-serif" font-size="16.25" lengthAdjust="spacing" textLength="53.75" x="951.25" y="860.6189">delivers</text><text fill="#000000" font-family="sans-serif" font-size="16.25" lengthAdjust="spacing" textLength="8.75" x="927.649" y="832.0558">1</text><text fill="#000000" font-family="sans-serif" font-size="16.25" lengthAdjust="spacing" textLength="25" x="905.2222" y="906.4926">1..*</text><!--MD5=[9e47e3cdd8551ca86f4e31fe8ef47dec]
link PharmacyAdmin to DeliveryRun--><path codeLine="145" d="M1148.075,603.94 C1156.65,667.5875 1163.12,783.3163 1115,865 C1093.9575,900.7213 1057.3525,927.795 1022.83,946.9525 " fill="none" id="PharmacyAdmin-DeliveryRun" style="stroke:#A80036;stroke-width:1.25;"/><polygon fill="#000000" points="1159.1064,729.2156,1166.4351,719.8551,1159.5334,717.3351,1159.1064,729.2156" style="stroke:#000000;stroke-width:1.25;"/><text fill="#000000" font-family="sans-serif" font-size="16.25" lengthAdjust="spacing" textLength="70" x="1172.5" y="729.9939">simulates</text><text fill="#000000" font-family="sans-serif" font-size="16.25" lengthAdjust="spacing" textLength="8.75" x="1139.9147" y="630.0709">1</text><text fill="#000000" font-family="sans-serif" font-size="16.25" lengthAdjust="spacing" textLength="25" x="1032.4601" y="939.1537">0..*</text><!--MD5=[672e9426c4bdbe0d4e36764f7b60e6e6]
link DeliveryRun to DeliveryRoute--><path codeLine="147" d="M937.855,1049.3213 C938.0763,1089.0963 938.3538,1138.9418 938.5413,1172.4803 " fill="none" id="DeliveryRun-DeliveryRoute" style="stroke:#A80036;stroke-width:1.25;"/><polygon fill="#000000" points="945.0348,1121.4696,948.6454,1110.143,941.2982,1110.1839,945.0348,1121.4696" style="stroke:#000000;stroke-width:1.25;"/><text fill="#000000" font-family="sans-serif" font-size="16.25" lengthAdjust="spacing" textLength="48.75" x="956.25" y="1121.8689">follows</text><text fill="#000000" font-family="sans-serif" font-size="16.25" lengthAdjust="spacing" textLength="8.75" x="928.5648" y="1076.2617">1</text><text fill="#000000" font-family="sans-serif" font-size="16.25" lengthAdjust="spacing" textLength="8.75" x="928.7886" y="1158.7513">1</text><!--MD5=[7fadaba2de7719c395a86211439ff048]
@startuml

class Platform {

}

class Stock {
    -List<Products> products
    -int pharmacyID
}


class PharmacyAdmin {
    -String name
    -String email
}

class Order {
    -String id
    -list of products
}


class Client {
    -String name
    -String email
    -int NIF
    -int credits
}

class Address {
    -String street
    -String locality
    -double gpsCoordinateX
    -double gpsCoordinateY
}

class PostalCode {
    -int city
    -int local
}

class CreditCard {
    -int number
    -date validity
    -int verificationCode
}

class DeliveryRun{
     -int idDeliverer
     -List<Order> toDeliver
     -Date date
     -Pharmacy startingPoint
}

class DeliveryRoute{
     -List<Address> adressesOfDelivery
}

class Pharmacy {
    -String pharmacyName
    -String companyName
    -int NIF
}

class Scooter {
    -int idNumber
    -double maxBatteryCapacity
    -double stateOfHealth
    -double stateOfCharge
    -double powerOutput
    -double weight
}

class Product{
    -String productType
    -String productName
    -double price
    -double weight
}


class ParkingSlotScooters {
    -String stateOfUse
    -boolean hasChargingCapabilities
}

class Courier {
    -String name
    -int NISS
    -int NIF
    -double weight

}

class Drone {
    -String designation
    -double maximumPayload
    -double maxBatteryCapacity
    -double stateOfHealth
    -double stateOfCharge
    -double weight
}

class ParkingSlotDrones {
    -String stateOfUse
    -boolean hasChargingCapabilities
}


Client "1..*" - - "1" Address : has >
Client "1" - - "1" CreditCard : has >
Client "1" - - "1..*" Order : makes >

Address "1..*" - - "1" PostalCode : has >

Pharmacy "1" - - "1" PharmacyAdmin : has >
Pharmacy "1" - - "0..*" Scooter : has >
Pharmacy "1" - - "1..*" ParkingSlotScooters : has >
Pharmacy "1" - - "1..*" ParkingSlotDrones : has >
Pharmacy "1" - - "1..*" Address : has >
Pharmacy "1" - - - "0..*" Client : has >
Pharmacy "1" - - - "0..*" Courier : has >
Pharmacy "1" - - - "0..*" Order : manages >
Pharmacy "1" - - "1" Stock : has >


Courier "1" - - "1..*" Scooter : uses >
Courier "1" - - "1..*" Address : has >

ParkingSlotScooters "1..*" - - "1..*" Scooter : uses <

ParkingSlotDrones "1..*" - - "1..*" Drone : uses <



Platform "1" - - "1..*" Pharmacy : has >

Stock "1" - - "0..*" Product : has >

DeliveryRun "1" - - "1..*" Order : refers to >

Courier "1" - - "1..*" DeliveryRun : delivers >
Drone "1" - - "1..*" DeliveryRun : delivers >

PharmacyAdmin "1" - - "0..*" DeliveryRun : simulates >

DeliveryRun "1" - - "1" DeliveryRoute : follows >

@enduml

PlantUML version 1.2021.00(Sun Jan 10 10:25:05 GMT 2021)
(GPL source distribution)
Java Runtime: OpenJDK Runtime Environment
JVM: OpenJDK 64-Bit Server VM
Default Encoding: Cp1252
Language: pt
Country: PT
--></g></svg>