<?xml version="1.0" encoding="UTF-8" standalone="no"?><svg xmlns="http://www.w3.org/2000/svg" xmlns:xlink="http://www.w3.org/1999/xlink" contentScriptType="application/ecmascript" contentStyleType="text/css" height="249px" preserveAspectRatio="none" style="width:634px;height:249px;" version="1.1" viewBox="0 0 634 249" width="634px" zoomAndPan="magnify"><defs><filter height="300%" id="fjxp2fpqin087" width="300%" x="-1" y="-1"><feGaussianBlur result="blurOut" stdDeviation="2.0"/><feColorMatrix in="blurOut" result="blurOut2" type="matrix" values="0 0 0 0 0 0 0 0 0 0 0 0 0 0 0 0 0 0 .4 0"/><feOffset dx="4.0" dy="4.0" in="blurOut2" result="blurOut3"/><feBlend in="SourceGraphic" in2="blurOut3" mode="normal"/></filter></defs><g><!--MD5=[ed6624c6556d5e7b1bd23032162d20b7]
class Client--><rect codeLine="5" fill="#FEFECE" filter="url(#fjxp2fpqin087)" height="117.1797" id="Client" style="stroke:#A80036;stroke-width:1.5;" width="101" x="7" y="54.5"/><ellipse cx="38.65" cy="70.5" fill="#ADD1B2" rx="11" ry="11" style="stroke:#A80036;stroke-width:1.0;"/><path d="M40.65,67 Q40.8531,66.5 41.0875,66.25 Q41.3219,66 41.5875,66 Q42.0563,66 42.3531,66.2813 Q42.65,66.5625 42.65,67.2188 L42.65,68.7813 Q42.65,69.4375 42.3688,69.7188 Q42.0875,70 41.65,70 Q41.2594,70 41.0094,69.8281 Q40.7594,69.6563 40.65,69.2031 Q40.6031,68.8906 40.4313,68.7188 Q40.1188,68.3906 39.5563,68.2031 Q38.9938,68 38.4313,68 Q37.7281,68 37.1344,68.2813 Q36.5563,68.5625 36.1031,69.1875 Q35.65,69.8125 35.65,70.6719 L35.65,71.5938 Q35.65,72.625 36.4938,73.3125 Q37.3375,74 38.8375,74 Q39.7281,74 40.3531,73.7969 Q40.7125,73.6875 41.1188,73.3281 Q41.3844,73.125 41.525,73.0625 Q41.6656,73 41.8375,73 Q42.1656,73 42.4,73.2656 Q42.65,73.5156 42.65,73.875 Q42.65,74.2188 42.3063,74.625 Q41.8063,75.2188 41.0094,75.5469 Q39.9625,76 38.6813,76 Q37.1813,76 35.9781,75.4063 Q35.0094,74.9375 34.3219,73.9219 Q33.65,72.9063 33.65,71.7031 L33.65,70.6094 Q33.65,69.3594 34.2438,68.2656 Q34.8531,67.1719 35.9,66.5938 Q36.9625,66 38.15,66 Q38.8688,66 39.4938,66.25 Q40.1188,66.5 40.65,67 Z " fill="#000000"/><text fill="#000000" font-family="sans-serif" font-size="12" lengthAdjust="spacingAndGlyphs" textLength="32" x="56.35" y="75.4102">Client</text><line style="stroke:#A80036;stroke-width:1.5;" x1="8" x2="107" y1="86.5" y2="86.5"/><text fill="#000000" font-family="sans-serif" font-size="11" lengthAdjust="spacingAndGlyphs" textLength="61" x="13" y="101.9189">-String name</text><text fill="#000000" font-family="sans-serif" font-size="11" lengthAdjust="spacingAndGlyphs" textLength="59" x="13" y="115.7549">-String email</text><text fill="#000000" font-family="sans-serif" font-size="11" lengthAdjust="spacingAndGlyphs" textLength="33" x="13" y="129.5908">-int NIF</text><text fill="#000000" font-family="sans-serif" font-size="11" lengthAdjust="spacingAndGlyphs" textLength="80" x="13" y="143.4268">-CreditCard card</text><text fill="#000000" font-family="sans-serif" font-size="11" lengthAdjust="spacingAndGlyphs" textLength="89" x="13" y="157.2627">-Address address</text><line style="stroke:#A80036;stroke-width:1.5;" x1="8" x2="107" y1="163.6797" y2="163.6797"/><!--MD5=[91d4151b6d4c9a3d01b6d84b2458eece]
class CreditCard--><rect codeLine="13" fill="#FEFECE" filter="url(#fjxp2fpqin087)" height="89.5078" id="CreditCard" style="stroke:#A80036;stroke-width:1.5;" width="125" x="495" y="7"/><ellipse cx="524.85" cy="23" fill="#ADD1B2" rx="11" ry="11" style="stroke:#A80036;stroke-width:1.0;"/><path d="M526.85,19.5 Q527.0531,19 527.2875,18.75 Q527.5219,18.5 527.7875,18.5 Q528.2563,18.5 528.5531,18.7813 Q528.85,19.0625 528.85,19.7188 L528.85,21.2813 Q528.85,21.9375 528.5688,22.2188 Q528.2875,22.5 527.85,22.5 Q527.4594,22.5 527.2094,22.3281 Q526.9594,22.1563 526.85,21.7031 Q526.8031,21.3906 526.6313,21.2188 Q526.3188,20.8906 525.7563,20.7031 Q525.1938,20.5 524.6313,20.5 Q523.9281,20.5 523.3344,20.7813 Q522.7563,21.0625 522.3031,21.6875 Q521.85,22.3125 521.85,23.1719 L521.85,24.0938 Q521.85,25.125 522.6938,25.8125 Q523.5375,26.5 525.0375,26.5 Q525.9281,26.5 526.5531,26.2969 Q526.9125,26.1875 527.3188,25.8281 Q527.5844,25.625 527.725,25.5625 Q527.8656,25.5 528.0375,25.5 Q528.3656,25.5 528.6,25.7656 Q528.85,26.0156 528.85,26.375 Q528.85,26.7188 528.5063,27.125 Q528.0063,27.7188 527.2094,28.0469 Q526.1625,28.5 524.8813,28.5 Q523.3813,28.5 522.1781,27.9063 Q521.2094,27.4375 520.5219,26.4219 Q519.85,25.4063 519.85,24.2031 L519.85,23.1094 Q519.85,21.8594 520.4438,20.7656 Q521.0531,19.6719 522.1,19.0938 Q523.1625,18.5 524.35,18.5 Q525.0688,18.5 525.6938,18.75 Q526.3188,19 526.85,19.5 Z " fill="#000000"/><text fill="#000000" font-family="sans-serif" font-size="12" lengthAdjust="spacingAndGlyphs" textLength="60" x="542.15" y="27.9102">CreditCard</text><line style="stroke:#A80036;stroke-width:1.5;" x1="496" x2="619" y1="39" y2="39"/><text fill="#000000" font-family="sans-serif" font-size="11" lengthAdjust="spacingAndGlyphs" textLength="105" x="501" y="54.4189">-int creditCardNumber</text><text fill="#000000" font-family="sans-serif" font-size="11" lengthAdjust="spacingAndGlyphs" textLength="113" x="501" y="68.2549">-date creditCardValidity</text><text fill="#000000" font-family="sans-serif" font-size="11" lengthAdjust="spacingAndGlyphs" textLength="36" x="501" y="82.0908">-int ccv</text><line style="stroke:#A80036;stroke-width:1.5;" x1="496" x2="619" y1="88.5078" y2="88.5078"/><!--MD5=[72136138052d025cffdce3c22fbd185f]
class Product--><rect codeLine="20" fill="#FEFECE" filter="url(#fjxp2fpqin087)" height="103.3438" id="Product" style="stroke:#A80036;stroke-width:1.5;" width="84" x="515.5" y="132.5"/><ellipse cx="535" cy="148.5" fill="#ADD1B2" rx="11" ry="11" style="stroke:#A80036;stroke-width:1.0;"/><path d="M537,145 Q537.2031,144.5 537.4375,144.25 Q537.6719,144 537.9375,144 Q538.4063,144 538.7031,144.2813 Q539,144.5625 539,145.2188 L539,146.7813 Q539,147.4375 538.7188,147.7188 Q538.4375,148 538,148 Q537.6094,148 537.3594,147.8281 Q537.1094,147.6563 537,147.2031 Q536.9531,146.8906 536.7813,146.7188 Q536.4688,146.3906 535.9063,146.2031 Q535.3438,146 534.7813,146 Q534.0781,146 533.4844,146.2813 Q532.9063,146.5625 532.4531,147.1875 Q532,147.8125 532,148.6719 L532,149.5938 Q532,150.625 532.8438,151.3125 Q533.6875,152 535.1875,152 Q536.0781,152 536.7031,151.7969 Q537.0625,151.6875 537.4688,151.3281 Q537.7344,151.125 537.875,151.0625 Q538.0156,151 538.1875,151 Q538.5156,151 538.75,151.2656 Q539,151.5156 539,151.875 Q539,152.2188 538.6563,152.625 Q538.1563,153.2188 537.3594,153.5469 Q536.3125,154 535.0313,154 Q533.5313,154 532.3281,153.4063 Q531.3594,152.9375 530.6719,151.9219 Q530,150.9063 530,149.7031 L530,148.6094 Q530,147.3594 530.5938,146.2656 Q531.2031,145.1719 532.25,144.5938 Q533.3125,144 534.5,144 Q535.2188,144 535.8438,144.25 Q536.4688,144.5 537,145 Z " fill="#000000"/><text fill="#000000" font-family="sans-serif" font-size="12" lengthAdjust="spacingAndGlyphs" textLength="42" x="550" y="153.4102">Product</text><line style="stroke:#A80036;stroke-width:1.5;" x1="516.5" x2="598.5" y1="164.5" y2="164.5"/><text fill="#000000" font-family="sans-serif" font-size="11" lengthAdjust="spacingAndGlyphs" textLength="61" x="521.5" y="179.9189">-String name</text><text fill="#000000" font-family="sans-serif" font-size="11" lengthAdjust="spacingAndGlyphs" textLength="63" x="521.5" y="193.7549">-double price</text><text fill="#000000" font-family="sans-serif" font-size="11" lengthAdjust="spacingAndGlyphs" textLength="72" x="521.5" y="207.5908">-double weight</text><text fill="#000000" font-family="sans-serif" font-size="11" lengthAdjust="spacingAndGlyphs" textLength="65" x="521.5" y="221.4268">-double stock</text><line style="stroke:#A80036;stroke-width:1.5;" x1="516.5" x2="598.5" y1="227.8438" y2="227.8438"/><!--MD5=[cf4d6237fcae255cd2e1656cf84a30e2]
class Order--><rect codeLine="27" fill="#FEFECE" filter="url(#fjxp2fpqin087)" height="103.3438" id="Order" style="stroke:#A80036;stroke-width:1.5;" width="146" x="246" y="122.5"/><ellipse cx="299.25" cy="138.5" fill="#ADD1B2" rx="11" ry="11" style="stroke:#A80036;stroke-width:1.0;"/><path d="M301.25,135 Q301.4531,134.5 301.6875,134.25 Q301.9219,134 302.1875,134 Q302.6563,134 302.9531,134.2813 Q303.25,134.5625 303.25,135.2188 L303.25,136.7813 Q303.25,137.4375 302.9688,137.7188 Q302.6875,138 302.25,138 Q301.8594,138 301.6094,137.8281 Q301.3594,137.6563 301.25,137.2031 Q301.2031,136.8906 301.0313,136.7188 Q300.7188,136.3906 300.1563,136.2031 Q299.5938,136 299.0313,136 Q298.3281,136 297.7344,136.2813 Q297.1563,136.5625 296.7031,137.1875 Q296.25,137.8125 296.25,138.6719 L296.25,139.5938 Q296.25,140.625 297.0938,141.3125 Q297.9375,142 299.4375,142 Q300.3281,142 300.9531,141.7969 Q301.3125,141.6875 301.7188,141.3281 Q301.9844,141.125 302.125,141.0625 Q302.2656,141 302.4375,141 Q302.7656,141 303,141.2656 Q303.25,141.5156 303.25,141.875 Q303.25,142.2188 302.9063,142.625 Q302.4063,143.2188 301.6094,143.5469 Q300.5625,144 299.2813,144 Q297.7813,144 296.5781,143.4063 Q295.6094,142.9375 294.9219,141.9219 Q294.25,140.9063 294.25,139.7031 L294.25,138.6094 Q294.25,137.3594 294.8438,136.2656 Q295.4531,135.1719 296.5,134.5938 Q297.5625,134 298.75,134 Q299.4688,134 300.0938,134.25 Q300.7188,134.5 301.25,135 Z " fill="#000000"/><text fill="#000000" font-family="sans-serif" font-size="12" lengthAdjust="spacingAndGlyphs" textLength="31" x="319.75" y="143.4102">Order</text><line style="stroke:#A80036;stroke-width:1.5;" x1="247" x2="391" y1="154.5" y2="154.5"/><text fill="#000000" font-family="sans-serif" font-size="11" lengthAdjust="spacingAndGlyphs" textLength="70" x="252" y="169.9189">-String orderID</text><text fill="#000000" font-family="sans-serif" font-size="11" lengthAdjust="spacingAndGlyphs" textLength="69" x="252" y="183.7549">-String clientID</text><text fill="#000000" font-family="sans-serif" font-size="11" lengthAdjust="spacingAndGlyphs" textLength="134" x="252" y="197.5908">-Map&lt;Product, Integer&gt; cart</text><line style="stroke:#A80036;stroke-width:1.5;" x1="247" x2="391" y1="204.0078" y2="204.0078"/><text fill="#000000" font-family="sans-serif" font-size="11" lengthAdjust="spacingAndGlyphs" textLength="80" x="252" y="219.4268">+makePayment()</text><!--MD5=[879bec428a80d843af24dc47845bf14c]
link Client to Order--><path codeLine="37" d="M108.23,124.69 C145.78,133.52 198,145.79 240.95,155.89 " fill="none" id="Client-to-Order" style="stroke:#A80036;stroke-width:1.0;"/><polygon fill="#A80036" points="245.87,157.04,238.0254,151.085,241.0029,155.8948,236.1931,158.8723,245.87,157.04" style="stroke:#A80036;stroke-width:1.0;"/><polygon fill="#000000" points="147.8673,124.32,139.7348,119.3892,138.3897,125.111,147.8673,124.32" style="stroke:#000000;stroke-width:1.0;"/><text fill="#000000" font-family="sans-serif" font-size="13" lengthAdjust="spacingAndGlyphs" textLength="63" x="152" y="128.4951">has placed</text><text fill="#000000" font-family="sans-serif" font-size="13" lengthAdjust="spacingAndGlyphs" textLength="7" x="115.8561" y="140.9661">1</text><text fill="#000000" font-family="sans-serif" font-size="13" lengthAdjust="spacingAndGlyphs" textLength="7" x="230.9675" y="169.6115">1</text><!--MD5=[0748050afd2139cbb3c9faec3f892ae9]
link Client to CreditCard--><path codeLine="38" d="M108.07,106.93 C198.07,95.9 388.39,72.59 489.72,60.18 " fill="none" id="Client-to-CreditCard" style="stroke:#A80036;stroke-width:1.0;"/><polygon fill="#A80036" points="494.78,59.56,485.3574,56.6939,489.8177,60.1732,486.3385,64.6335,494.78,59.56" style="stroke:#A80036;stroke-width:1.0;"/><polygon fill="#000000" points="310.9629,63.5679,301.6276,61.7505,302.3423,67.5847,310.9629,63.5679" style="stroke:#000000;stroke-width:1.0;"/><text fill="#000000" font-family="sans-serif" font-size="13" lengthAdjust="spacingAndGlyphs" textLength="21" x="315" y="69.4951">has</text><text fill="#000000" font-family="sans-serif" font-size="13" lengthAdjust="spacingAndGlyphs" textLength="7" x="116.0115" y="120.7212">1</text><text fill="#000000" font-family="sans-serif" font-size="13" lengthAdjust="spacingAndGlyphs" textLength="7" x="480.1233" y="74.903">1</text><!--MD5=[9e541693026e1af25d43e03808f1e411]
link Order to CreditCard--><path codeLine="39" d="M392.24,136.73 C423.45,120.64 459.71,101.93 490.22,86.19 " fill="none" id="Order-to-CreditCard" style="stroke:#A80036;stroke-width:1.0;"/><polygon fill="#A80036" points="494.68,83.89,484.8471,84.4504,490.2339,86.1774,488.5069,91.5642,494.68,83.89" style="stroke:#A80036;stroke-width:1.0;"/><polygon fill="#000000" points="431.4437,91.8837,422.0577,93.4182,424.7523,98.6421,431.4437,91.8837" style="stroke:#000000;stroke-width:1.0;"/><text fill="#000000" font-family="sans-serif" font-size="13" lengthAdjust="spacingAndGlyphs" textLength="28" x="436" y="99.4951">uses</text><text fill="#000000" font-family="sans-serif" font-size="13" lengthAdjust="spacingAndGlyphs" textLength="7" x="400.1538" y="147.2071">1</text><text fill="#000000" font-family="sans-serif" font-size="13" lengthAdjust="spacingAndGlyphs" textLength="7" x="480.0118" y="102.0462">1</text><!--MD5=[5df16df72a49edaa4f00919f1e597f76]
link Order to Product--><path codeLine="40" d="M392.24,177.05 C430.54,178.67 476.46,180.62 510,182.03 " fill="none" id="Order-to-Product" style="stroke:#A80036;stroke-width:1.0;"/><polygon fill="#A80036" points="515.28,182.26,506.4476,177.9025,510.284,182.0596,506.1269,185.896,515.28,182.26" style="stroke:#A80036;stroke-width:1.0;"/><polygon fill="#000000" points="435.4955,169.387,426.5827,166.0686,426.3344,171.9412,435.4955,169.387" style="stroke:#000000;stroke-width:1.0;"/><text fill="#000000" font-family="sans-serif" font-size="13" lengthAdjust="spacingAndGlyphs" textLength="21" x="439.5" y="174.4951">has</text><text fill="#000000" font-family="sans-serif" font-size="13" lengthAdjust="spacingAndGlyphs" textLength="7" x="400.1538" y="191.6851">1</text><text fill="#000000" font-family="sans-serif" font-size="13" lengthAdjust="spacingAndGlyphs" textLength="20" x="487.6102" y="196.6751">1..*</text><!--MD5=[7ff86472f1b32ad90d25aaf45698d5af]
@startuml
skinparam classAttributeIconSize 0

left to right direction

class Client {
  -String name
  -String email
  -int NIF
  -CreditCard card
  -Address address
}

class CreditCard{
  -int creditCardNumber
  -date creditCardValidity
  -int ccv
}


class Product{
    -String name
    -double price
    -double weight
    -double stock
}

class Order {
  -String orderID
  -String clientID
  -Map<Product, Integer> cart

  +makePayment()
}



Client "1" - -> "1" Order : has placed >
Client "1" - -> "1" CreditCard : has >
Order "1" - -> "1" CreditCard : uses >
Order "1" - -> "1..*" Product : has >

@enduml

PlantUML version 1.2020.23(Sun Dec 13 19:14:58 GMT 2020)
(GPL source distribution)
Java Runtime: OpenJDK Runtime Environment
JVM: OpenJDK 64-Bit Server VM
Default Encoding: Cp1252
Language: en
Country: US
--></g></svg>