<?xml version="1.0" encoding="UTF-8" standalone="no"?><svg xmlns="http://www.w3.org/2000/svg" xmlns:xlink="http://www.w3.org/1999/xlink" contentScriptType="application/ecmascript" contentStyleType="text/css" height="329px" preserveAspectRatio="none" style="width:536px;height:329px;" version="1.1" viewBox="0 0 536 329" width="536px" zoomAndPan="magnify"><defs><filter height="300%" id="f1vr10typb5qml" width="300%" x="-1" y="-1"><feGaussianBlur result="blurOut" stdDeviation="2.0"/><feColorMatrix in="blurOut" result="blurOut2" type="matrix" values="0 0 0 0 0 0 0 0 0 0 0 0 0 0 0 0 0 0 .4 0"/><feOffset dx="4.0" dy="4.0" in="blurOut2" result="blurOut3"/><feBlend in="SourceGraphic" in2="blurOut3" mode="normal"/></filter></defs><g><rect fill="#FFFFFF" filter="url(#f1vr10typb5qml)" height="126.4063" style="stroke:#A80036;stroke-width:1.0;" width="10" x="26" y="99.6094"/><rect fill="#FFFFFF" filter="url(#f1vr10typb5qml)" height="135.4063" style="stroke:#A80036;stroke-width:1.0;" width="10" x="236" y="99.6094"/><rect fill="#FFFFFF" filter="url(#f1vr10typb5qml)" height="30.3516" style="stroke:#A80036;stroke-width:1.0;" width="10" x="409" y="121.9609"/><line style="stroke:#A80036;stroke-width:1.0;stroke-dasharray:5.0,5.0;" x1="31" x2="31" y1="89.6094" y2="244.0156"/><line style="stroke:#A80036;stroke-width:1.0;stroke-dasharray:5.0,5.0;" x1="240.5" x2="240.5" y1="89.6094" y2="244.0156"/><line style="stroke:#A80036;stroke-width:1.0;stroke-dasharray:5.0,5.0;" x1="414" x2="414" y1="89.6094" y2="244.0156"/><line style="stroke:#A80036;stroke-width:1.0;stroke-dasharray:5.0,5.0;" x1="490" x2="490" y1="89.6094" y2="244.0156"/><text fill="#000000" font-family="sans-serif" font-size="14" lengthAdjust="spacingAndGlyphs" textLength="46" x="5" y="86.5332">System</text><ellipse cx="31" cy="15" fill="#FEFECE" filter="url(#f1vr10typb5qml)" rx="8" ry="8" style="stroke:#A80036;stroke-width:2.0;"/><path d="M31,23 L31,50 M18,31 L44,31 M31,50 L18,65 M31,50 L44,65 " fill="none" filter="url(#f1vr10typb5qml)" style="stroke:#A80036;stroke-width:2.0;"/><text fill="#000000" font-family="sans-serif" font-size="14" lengthAdjust="spacingAndGlyphs" textLength="46" x="5" y="257.5488">System</text><ellipse cx="31" cy="270.625" fill="#FEFECE" filter="url(#f1vr10typb5qml)" rx="8" ry="8" style="stroke:#A80036;stroke-width:2.0;"/><path d="M31,278.625 L31,305.625 M18,286.625 L44,286.625 M31,305.625 L18,320.625 M31,305.625 L44,320.625 " fill="none" filter="url(#f1vr10typb5qml)" style="stroke:#A80036;stroke-width:2.0;"/><rect fill="#FEFECE" filter="url(#f1vr10typb5qml)" height="49.2188" style="stroke:#A80036;stroke-width:1.5;" width="59" x="209.5" y="35.3906"/><text fill="#000000" font-family="sans-serif" font-size="14" lengthAdjust="spacingAndGlyphs" textLength="45" x="216.5" y="56.9238">Order :</text><text fill="#000000" font-family="sans-serif" font-size="14" lengthAdjust="spacingAndGlyphs" textLength="37" x="220.5" y="74.5332">Order</text><rect fill="#FEFECE" filter="url(#f1vr10typb5qml)" height="49.2188" style="stroke:#A80036;stroke-width:1.5;" width="59" x="209.5" y="243.0156"/><text fill="#000000" font-family="sans-serif" font-size="14" lengthAdjust="spacingAndGlyphs" textLength="45" x="216.5" y="264.5488">Order :</text><text fill="#000000" font-family="sans-serif" font-size="14" lengthAdjust="spacingAndGlyphs" textLength="37" x="220.5" y="282.1582">Order</text><rect fill="#FEFECE" filter="url(#f1vr10typb5qml)" height="49.2188" style="stroke:#A80036;stroke-width:1.5;" width="58" x="383" y="35.3906"/><text fill="#000000" font-family="sans-serif" font-size="14" lengthAdjust="spacingAndGlyphs" textLength="44" x="390" y="56.9238">Client :</text><text fill="#000000" font-family="sans-serif" font-size="14" lengthAdjust="spacingAndGlyphs" textLength="36" x="394" y="74.5332">Client</text><rect fill="#FEFECE" filter="url(#f1vr10typb5qml)" height="49.2188" style="stroke:#A80036;stroke-width:1.5;" width="58" x="383" y="243.0156"/><text fill="#000000" font-family="sans-serif" font-size="14" lengthAdjust="spacingAndGlyphs" textLength="44" x="390" y="264.5488">Client :</text><text fill="#000000" font-family="sans-serif" font-size="14" lengthAdjust="spacingAndGlyphs" textLength="36" x="394" y="282.1582">Client</text><rect fill="#FEFECE" filter="url(#f1vr10typb5qml)" height="31.6094" style="stroke:#A80036;stroke-width:1.5;" width="67" x="455" y="53"/><text fill="#000000" font-family="sans-serif" font-size="14" lengthAdjust="spacingAndGlyphs" textLength="53" x="462" y="74.5332">:Product</text><rect fill="#FEFECE" filter="url(#f1vr10typb5qml)" height="31.6094" style="stroke:#A80036;stroke-width:1.5;" width="67" x="455" y="243.0156"/><text fill="#000000" font-family="sans-serif" font-size="14" lengthAdjust="spacingAndGlyphs" textLength="53" x="462" y="264.5488">:Product</text><rect fill="#FFFFFF" filter="url(#f1vr10typb5qml)" height="126.4063" style="stroke:#A80036;stroke-width:1.0;" width="10" x="26" y="99.6094"/><rect fill="#FFFFFF" filter="url(#f1vr10typb5qml)" height="135.4063" style="stroke:#A80036;stroke-width:1.0;" width="10" x="236" y="99.6094"/><rect fill="#FFFFFF" filter="url(#f1vr10typb5qml)" height="30.3516" style="stroke:#A80036;stroke-width:1.0;" width="10" x="409" y="121.9609"/><polygon fill="#A80036" points="224,117.9609,234,121.9609,224,125.9609,228,121.9609" style="stroke:#A80036;stroke-width:1.0;"/><line style="stroke:#A80036;stroke-width:1.0;" x1="36" x2="230" y1="121.9609" y2="121.9609"/><text fill="#000000" font-family="sans-serif" font-size="13" font-weight="bold" lengthAdjust="spacingAndGlyphs" textLength="7" x="43" y="117.1045">1</text><text fill="#000000" font-family="sans-serif" font-size="13" lengthAdjust="spacingAndGlyphs" textLength="165" x="54" y="117.1045">order proceeds to be paid for</text><polygon fill="#A80036" points="402,148.3125,412,152.3125,402,156.3125,406,152.3125" style="stroke:#A80036;stroke-width:1.0;"/><line style="stroke:#A80036;stroke-width:1.0;" x1="246" x2="408" y1="152.3125" y2="152.3125"/><text fill="#000000" font-family="sans-serif" font-size="13" font-weight="bold" lengthAdjust="spacingAndGlyphs" textLength="7" x="253" y="147.4561">2</text><text fill="#000000" font-family="sans-serif" font-size="13" lengthAdjust="spacingAndGlyphs" textLength="128" x="264" y="147.4561">cred = getCreditCard()</text><line style="stroke:#A80036;stroke-width:1.0;" x1="246" x2="288" y1="182.6641" y2="182.6641"/><line style="stroke:#A80036;stroke-width:1.0;" x1="288" x2="288" y1="182.6641" y2="195.6641"/><line style="stroke:#A80036;stroke-width:1.0;" x1="247" x2="288" y1="195.6641" y2="195.6641"/><polygon fill="#A80036" points="257,191.6641,247,195.6641,257,199.6641,253,195.6641" style="stroke:#A80036;stroke-width:1.0;"/><text fill="#000000" font-family="sans-serif" font-size="13" font-weight="bold" lengthAdjust="spacingAndGlyphs" textLength="7" x="253" y="177.8076">3</text><text fill="#000000" font-family="sans-serif" font-size="13" lengthAdjust="spacingAndGlyphs" textLength="92" x="264" y="177.8076">makePayment()</text><polygon fill="#A80036" points="42,222.0156,32,226.0156,42,230.0156,38,226.0156" style="stroke:#A80036;stroke-width:1.0;"/><line style="stroke:#A80036;stroke-width:1.0;stroke-dasharray:2.0,2.0;" x1="36" x2="235" y1="226.0156" y2="226.0156"/><text fill="#000000" font-family="sans-serif" font-size="13" font-weight="bold" lengthAdjust="spacingAndGlyphs" textLength="7" x="48" y="221.1592">4</text><text fill="#000000" font-family="sans-serif" font-size="13" lengthAdjust="spacingAndGlyphs" textLength="51" x="59" y="221.1592">Success</text><!--MD5=[4d0bc74301910e245f423d4c79502744]
@startuml
autonumber

actor "System" as SYS
participant "Order :\nOrder" as ORD
participant "Client :\nClient" as CLT
participant ":Product" as PRD

activate SYS
activate ORD
SYS -> ORD : order proceeds to be paid for
activate CLT
ORD -> CLT : cred = getCreditCard()
deactivate CLT
ORD -> ORD : makePayment()
ORD - -> SYS : Success
deactivate SYS
@enduml

PlantUML version 1.2020.23(Sun Dec 13 19:14:58 GMT 2020)
(GPL source distribution)
Java Runtime: OpenJDK Runtime Environment
JVM: OpenJDK 64-Bit Server VM
Default Encoding: Cp1252
Language: en
Country: US
--></g></svg>